<?xml version="1.0" encoding="utf-8"?>
<!-- Generator: Adobe Illustrator 24.0.1, SVG Export Plug-In . SVG Version: 6.00 Build 0)  -->
<svg version="1.1" id="Layer_1" xmlns="http://www.w3.org/2000/svg" xmlns:xlink="http://www.w3.org/1999/xlink" x="0px" y="0px"
	 viewBox="0 0 976 201.8" style="enable-background:new 0 0 976 201.8;" xml:space="preserve">
<style type="text/css">
	.st0{fillRule:evenodd;clipRule:evenodd;fill:#0072E3;}
	.st1{fillRule:evenodd;clipRule:evenodd;fill:#FF7B00;}
</style>
<title>Coinscapture logo</title>
<g>
	<g id="_3">
		<path className="st0" d="M969.3,175.8c1.5-1.3,2.4-3.3,2.4-5.3c0.1-3.8-2.9-7-6.6-7.1c-0.1,0-0.2,0-0.4,0c-1.6-0.1-3.1,0.4-4.4,1.4
			c-3.7,2.8-8.2,4.3-12.8,4.3c-8,0-13.7-4.3-15.5-12.4h35.6c4.7,0,8.4-3.4,8.4-8.6c0-13.1-9.3-30.5-30.5-30.5
			c-18.4,0-31.3,14.9-31.3,33v0.2c0,19.4,14.1,32.7,33.1,32.7C956.5,183.5,963.7,180.5,969.3,175.8 M931.8,145.5
			c1.4-8.2,6.3-13.5,13.7-13.5s12.3,5.4,13.3,13.5H931.8z M869.6,173.8c0,5,4,9,9,9s9-4,9-9V157c0-12.8,5.1-19.7,14.2-21.9
			c4-0.8,6.9-4.3,6.7-8.4c0-5.1-3.2-8.8-8.7-8.8c-5.3,0-9.6,5.7-12.2,11.8v-2.8c0-5-4-9-9-9s-9,4-9,9V173.8z M853.6,127c0-5-4-9-9-9
			s-9,4-9,9v27.1c0,8.5-4.4,12.9-11.2,12.9s-10.9-4.4-10.9-12.9V127c0-5-4-9-9-9s-9,4-9,9v32.7c0,14.5,7.9,23.5,21.5,23.5
			c9.1,0,14.4-4.8,18.5-10.2v0.7c0,5,4,9,9,9s9-4,9-9L853.6,127z M768.3,183.2c3.5,0.1,7-0.5,10.3-1.8c2.8-1.1,4.6-3.8,4.6-6.7
			c0-4.1-3.3-7.4-7.5-7.5c-0.3,0-1.5,0.1-2.1,0.1c-4,0-5.8-2-5.8-6.2V134h7.9c4.2-0.2,7.6-3.7,7.4-8c-0.1-4-3.4-7.3-7.4-7.4h-7.9
			v-7.9c0-5-4-9-9-9s-9,4-9,9v7.9h-0.6c-4.2,0.2-7.6,3.7-7.4,8c0.1,4,3.4,7.3,7.4,7.4h0.6v30C749.9,178.8,757.3,183.2,768.3,183.2
			L768.3,183.2z M700.3,168.1c-8.4,0-15.4-7-15.4-17.5v-0.2c0-10.5,7-17.5,15.4-17.5s15.5,7,15.5,17.5v0.2
			C715.7,161.2,708.7,168,700.3,168.1L700.3,168.1z M667.2,192.8c0,5,4,9,9,9s9-4,9-9v-18.9c4.3,5.1,10.2,9.5,19.7,9.5
			c15,0,28.8-11.6,28.8-32.7v-0.2c0-21.2-14.1-32.7-28.8-32.7c-9.3,0-15.4,4.4-19.7,10.3v-0.8c0-5-4-9-9-9s-9,4-9,9V192.8z
			 M620.6,170.9c-5.8,0-9.8-2.8-9.8-7.7V163c0-5.7,4.7-8.8,12.4-8.8c3.9,0,7.9,0.8,11.5,2.4v3.2C634.7,166.3,629,170.9,620.6,170.9z
			 M615.2,183.3c8.8,0,14.8-3.2,19.1-8v0.1c0,3.8,3.4,7.4,8.6,7.4c4.8,0.1,8.7-3.7,8.7-8.5v-0.1v-28.9c0-8.5-2.1-15.5-6.9-20.2
			c-4.5-4.5-11.6-7.1-21.4-7.1c-6.9-0.2-13.7,1-20.2,3.3c-2.9,1.1-4.9,3.9-4.8,7c0,4,3.3,7.3,7.3,7.3h0.1c0.9,0,1.8-0.2,2.6-0.5
			c4-1.2,8.2-1.8,12.4-1.8c9,0,13.6,4.1,13.6,11.6v1.1c-5-1.8-10.2-2.6-15.5-2.6c-15,0-25.5,6.4-25.5,20.2v0.2
			C593.4,176.4,603.2,183.3,615.2,183.3L615.2,183.3z M550.6,183.5c13.2,0,22-3.9,29.4-10.4c3.6-2.9,4.2-8.2,1.3-11.8
			s-8.2-4.2-11.8-1.3c-0.1,0.1-0.2,0.2-0.3,0.3c-5.2,4.1-10.3,6.5-18,6.5c-14.2,0-24-11.8-24-26v-0.2c0-14.2,10-25.8,24-25.8
			c6.1,0,12.1,2.1,16.9,5.9c1.6,1.1,3.5,1.8,5.4,1.8c4.9,0.1,8.9-3.9,9-8.8v-0.1c0-2.8-1.3-5.5-3.5-7.2c-6.8-5.1-15.3-8.4-27.7-8.4
			c-25.4,0-43.1,19.3-43.1,42.8v0.2C508.2,164.7,526.3,183.5,550.6,183.5L550.6,183.5z"/>
	</g>
	<g id="_2">
		<path className="st1" d="M472.8,183.3c13.7,0,24.2-6.4,24.2-20.4v-0.2c0-11.6-10.3-15.8-19.1-18.8c-6.9-2.4-12.9-4-12.9-7.6v-0.2
			c0-2.5,2.3-4.4,6.6-4.4c3.8,0,8.6,1.5,13.7,4c1,0.6,2.2,0.9,3.3,0.8c3.9,0.1,7.1-3,7.2-6.9c0-0.1,0-0.1,0-0.2
			c0-2.9-1.6-5.5-4.3-6.7c-6.1-3.1-12.8-4.7-19.6-4.8c-12.8,0-23.2,7.2-23.2,20.1v0.2c0,12.3,10,16.4,18.9,19
			c7,2.1,13.1,3.4,13.1,7.3v0.2c0,2.8-2.4,4.7-7.6,4.7s-11.1-1.9-17.1-5.7c-3.4-1.9-7.8-0.7-9.7,2.7c-0.6,1.1-0.9,2.2-0.9,3.5
			c0,2.5,1.3,4.8,3.4,6.1C456.1,180.7,464.4,183.2,472.8,183.3 M377,173.8c0,5,4,9,9,9s9-4,9-9v-27.1c0-8.5,4.4-12.9,11.2-12.9
			s10.9,4.4,10.9,12.9v27.1c0,5,4,9,9,9s9-4,9-9v-32.7c0-14.5-7.9-23.5-21.5-23.5c-9.1,0-14.4,4.8-18.6,10.2v-0.7c0-5-4-9-9-9
			s-9,4-9,9V173.8z M342.1,173.8c0,5,4,9,9,9s9-4,9-9V127c0-5-4-9-9-9s-9,4-9,9V173.8z M341.1,103.8c0,5.2,4.4,8.5,10,8.5
			s10-3.3,10-8.5v-0.2c0-5.2-4.4-8.4-10-8.4s-10,3.2-10,8.4V103.8z M294.2,168c-9.9,0-16.7-8.2-16.7-17.5v-0.2
			c0-9.3,6.1-17.3,16.4-17.3c9.9,0,16.7,8.2,16.7,17.5v0.2C310.6,160.1,304.4,168,294.2,168L294.2,168z M293.9,183.5
			c19.7,0,34.4-14.8,34.4-33v-0.2c0-18.2-14.5-32.7-34.1-32.7s-34.4,14.8-34.4,33v0.2C259.8,169,274.3,183.5,293.9,183.5
			L293.9,183.5z M217.4,183.5c13.2,0,22-3.9,29.4-10.4c3.7-2.8,4.5-8.1,1.7-11.8s-8.1-4.5-11.8-1.7c-0.3,0.2-0.5,0.4-0.8,0.6
			c-5.2,4.1-10.3,6.5-18,6.5c-14.2,0-24-11.8-24-26v-0.2c0-14.2,10-25.8,24-25.8c6.1,0,12.1,2.1,16.9,5.9c1.6,1.1,3.5,1.8,5.4,1.8
			c4.9,0.1,8.9-3.9,9-8.8v-0.1c0-2.8-1.3-5.5-3.5-7.2c-6.9-5.1-15.2-8.4-27.6-8.4c-25.4,0-43.1,19.3-43.1,42.8v0.2
			C175,164.7,193.1,183.5,217.4,183.5L217.4,183.5z"/>
	</g>
	<g id="_1">
		<path className="st0" d="M89.5,26.2c1.2,8.6,8.3,15.8,16,17.8c11.6,3,18.3-1.8,25.1,7.6c4.2,5.8,4.4,21.8,1.5,28.4
			c-4.4,9.9-11.4,8.1-23.4,9.5c-18.9,2.1-25.9,28.4-11.7,39.4c15.7,12.1,36.3,1.7,36.8-19c0.7-31.6,25.9-12.5,39.1-28.1
			c9.6-11.3,8.1-36.4-19.2-37.1c-31.4-0.8-10.6-24.6-27.9-39.3C110-7.9,86.6,5.2,89.5,26.2"/>
		<path className="st0" d="M15.8,1.1C3.9,4.9-2.7,17.5,1,29.4c2.9,10,15.2,18.4,28,14.2C56.8,34.5,43.9-6.9,15.8,1.1"/>
	</g>
</g>
</svg>
