<svg width="341" height="119" viewBox="0 0 341 119" fill="none" xmlns="http://www.w3.org/2000/svg">
<path fillRule="evenodd" clipRule="evenodd" d="M59.4075 81.6851C47.2743 81.6851 37.4329 71.9734 37.4329 60C37.4329 48.0266 47.2743 38.3149 59.4075 38.3149C67.7238 38.3149 75.008 43.0003 78.686 49.8311C79.2114 50.8069 79.6632 51.8265 80.034 52.8825H88.8643C85.831 40.5973 75.0959 31.2353 62.0466 30.113C61.1767 30.0382 60.2964 30 59.4075 30C42.6232 30 29.007 43.5033 29.007 60C29.007 76.4967 42.6232 90 59.4075 90C73.6303 90 85.6287 80.2217 88.8643 67.1175H80.1014C77.3208 75.0374 69.9785 80.9111 61.1847 81.6143C60.5984 81.6612 60.0057 81.6851 59.4075 81.6851ZM54.8948 54H63.3341C64.3303 54 65.1382 54.8088 65.1386 55.8065L65.1421 64.1935C65.1425 65.1912 64.3353 66 63.3391 66H54.8998C53.9035 66 53.0956 65.1912 53.0952 64.1935L53.0917 55.8065C53.0913 54.8088 53.8985 54 54.8948 54Z" fill="url(#paint0_linear_303_25263)"/>
<path d="M118.405 79.3563C112.913 79.3563 108.348 77.5435 104.709 73.9177C101.071 70.292 99.2518 65.8282 99.2518 60.5264C99.2518 55.2246 101.071 50.7608 104.709 47.135C108.348 43.5093 112.913 41.6964 118.405 41.6964C122.558 41.6964 126.283 42.9107 129.578 45.3393C132.907 47.7336 135.087 50.8634 136.117 54.7286H128.033C127.312 52.9499 126.042 51.5304 124.223 50.47C122.438 49.4097 120.499 48.8795 118.405 48.8795C114.973 48.8795 112.175 49.9912 110.013 52.2145C107.85 54.4379 106.769 57.2085 106.769 60.5264C106.769 63.8443 107.85 66.6149 110.013 68.8382C112.175 71.0616 114.973 72.1732 118.405 72.1732C120.499 72.1732 122.438 71.6431 124.223 70.5827C126.042 69.5223 127.312 68.1028 128.033 66.3242H136.117C135.087 70.1893 132.907 73.3362 129.578 75.7648C126.283 78.1592 122.558 79.3563 118.405 79.3563Z" fill="black"/>
<path d="M162.286 75.4569C159.643 78.0223 156.451 79.305 152.71 79.305C148.968 79.305 145.776 78.0223 143.133 75.4569C140.49 72.8574 139.168 69.6763 139.168 65.9137C139.168 62.1853 140.49 59.0213 143.133 56.4218C145.776 53.8222 148.968 52.5224 152.71 52.5224C156.451 52.5224 159.643 53.8222 162.286 56.4218C164.929 59.0213 166.251 62.1853 166.251 65.9137C166.251 69.6763 164.929 72.8574 162.286 75.4569ZM152.71 72.7376C154.529 72.7376 156.039 72.1048 157.24 70.8392C158.476 69.5394 159.094 67.8976 159.094 65.9137C159.094 63.9298 158.476 62.305 157.24 61.0395C156.039 59.7397 154.529 59.0898 152.71 59.0898C150.856 59.0898 149.311 59.7397 148.076 61.0395C146.874 62.305 146.274 63.9298 146.274 65.9137C146.274 67.8976 146.874 69.5394 148.076 70.8392C149.311 72.1048 150.856 72.7376 152.71 72.7376Z" fill="black"/>
<path d="M178.391 89.464H171.337V53.0867H178.391V55.96C179.043 55.0364 180.039 54.2326 181.377 53.5485C182.716 52.8644 184.209 52.5224 185.857 52.5224C189.255 52.5224 192.121 53.8393 194.455 56.4731C196.789 59.1069 197.956 62.2537 197.956 65.9137C197.956 69.5737 196.789 72.7205 194.455 75.3543C192.121 77.9881 189.255 79.305 185.857 79.305C184.209 79.305 182.716 78.963 181.377 78.2789C180.039 77.5948 179.043 76.791 178.391 75.8674V89.464ZM179.575 70.9419C180.777 72.2417 182.356 72.8916 184.312 72.8916C186.269 72.8916 187.831 72.2417 188.998 70.9419C190.199 69.6421 190.8 67.966 190.8 65.9137C190.8 63.8614 190.199 62.1853 188.998 60.8855C187.831 59.5857 186.269 58.9358 184.312 58.9358C182.356 58.9358 180.777 59.5857 179.575 60.8855C178.408 62.1853 177.825 63.8614 177.825 65.9137C177.825 67.966 178.408 69.6421 179.575 70.9419Z" fill="black"/>
<path d="M210.168 89.464H203.115V53.0867H210.168V55.96C210.821 55.0364 211.816 54.2326 213.155 53.5485C214.493 52.8644 215.987 52.5224 217.634 52.5224C221.032 52.5224 223.898 53.8393 226.232 56.4731C228.567 59.1069 229.734 62.2537 229.734 65.9137C229.734 69.5737 228.567 72.7205 226.232 75.3543C223.898 77.9881 221.032 79.305 217.634 79.305C215.987 79.305 214.493 78.963 213.155 78.2789C211.816 77.5948 210.821 76.791 210.168 75.8674V89.464ZM211.353 70.9419C212.554 72.2417 214.133 72.8916 216.089 72.8916C218.046 72.8916 219.608 72.2417 220.775 70.9419C221.976 69.6421 222.577 67.966 222.577 65.9137C222.577 63.8614 221.976 62.1853 220.775 60.8855C219.608 59.5857 218.046 58.9358 216.089 58.9358C214.133 58.9358 212.554 59.5857 211.353 60.8855C210.186 62.1853 209.602 63.8614 209.602 65.9137C209.602 67.966 210.186 69.6421 211.353 70.9419Z" fill="black"/>
<path d="M246.734 79.305C242.787 79.305 239.543 78.0394 237.003 75.5083C234.497 72.9771 233.244 69.7618 233.244 65.8624C233.244 62.0314 234.514 58.8503 237.054 56.3191C239.629 53.788 242.872 52.5224 246.786 52.5224C250.733 52.5224 254.011 53.8735 256.62 56.5757C259.228 59.2437 260.43 62.9036 260.224 67.5555H240.144C240.281 69.1632 240.95 70.5143 242.152 71.6089C243.353 72.6692 245.001 73.1994 247.094 73.1994C248.364 73.1994 249.48 72.96 250.441 72.4811C251.437 71.968 252.14 71.2668 252.552 70.3775H259.915C259.16 73.0113 257.581 75.1662 255.178 76.8423C252.775 78.4841 249.961 79.305 246.734 79.305ZM246.58 58.2175C244.966 58.2175 243.61 58.6451 242.512 59.5002C241.448 60.3211 240.744 61.467 240.401 62.9378H252.501C252.123 61.3302 251.368 60.1501 250.235 59.3976C249.137 58.6109 247.918 58.2175 246.58 58.2175Z" fill="black"/>
<path d="M265.362 78.7406V53.0867H272.416V57.1914C272.862 55.9258 273.669 54.8825 274.836 54.0616C276.037 53.2065 277.358 52.7789 278.8 52.7789C279.693 52.7789 280.482 52.8815 281.169 53.0867V60.2185C280.036 59.8423 278.972 59.6541 277.976 59.6541C276.294 59.6541 274.939 60.2698 273.909 61.5012C272.913 62.6984 272.416 64.3574 272.416 66.4781V78.7406H265.362Z" fill="black"/>
<path d="M302.872 78.7406L296.899 71.1984L290.927 78.7406H282.432L292.42 66.1702L282.689 53.0867H291.03L296.848 60.9368L302.666 53.0867H311.058L301.327 66.1702L311.316 78.7406H302.872Z" fill="black"/>
<defs>
<linearGradient id="paint0_linear_303_25263" x1="64.897" y1="84.9785" x2="36.6526" y2="41.5342" gradientUnits="userSpaceOnUse">
<stop stop-color="#2954FF"/>
<stop offset="1" stop-color="#849DFF"/>
</linearGradient>
</defs>
</svg>
