<?xml version="1.0" encoding="utf-8"?>
<!-- Generator: Adobe Illustrator 25.2.0, SVG Export Plug-In . SVG Version: 6.00 Build 0)  -->
<svg version="1.1" id="Layer_1" xmlns="http://www.w3.org/2000/svg" xmlns:xlink="http://www.w3.org/1999/xlink" x="0px" y="0px"
	 viewBox="0 0 173.57 33.34" style="enable-background:new 0 0 173.57 33.34;" xml:space="preserve">
<g>
	<path d="M42.87,20.1l-0.21,0.26l-0.11,0.14l-0.04,0.05l-0.01,0.07c-0.18,1.2-0.51,2.05-0.97,2.58c-0.47,0.53-1.07,0.79-1.95,0.79
		c-0.59,0-1.01,0-1.53,0c-0.11,0-0.16-0.03-0.2-0.07c-0.04-0.04-0.08-0.13-0.08-0.31v-3.5v-0.02c0,0,0.05-0.03,0.15-0.03
		c0.41,0,0.73,0.05,0.96,0.14c0.34,0.14,0.52,0.33,0.66,0.66c0.13,0.33,0.2,0.8,0.24,1.38v0.06l0.13,0.21l0.2,0.31l0.33-0.45
		l0.05-0.07v-0.08c0-0.2,0-3.03,0-4.9v-0.06l-0.12-0.25l-0.2-0.4l-0.35,0.57l-0.03,0.04l-0.01,0.05c-0.13,0.87-0.28,1.41-0.51,1.68
		c-0.12,0.14-0.26,0.23-0.46,0.3c-0.21,0.07-0.48,0.1-0.85,0.1c-0.12,0-0.18-0.02-0.18-0.03l-0.01-0.04V16.3
		c0-0.21,0.05-0.31,0.07-0.34c0.03-0.03,0.06-0.05,0.17-0.05c0.59,0,1.19,0,1.91,0c0.67,0,1.14,0.32,1.5,0.84
		c0.36,0.53,0.58,1.27,0.67,2.06l0.01,0.07l0.15,0.21l0.22,0.3l0.3-0.46l0.04-0.06V18.8c0-1.08,0-2.4,0-3.18
		c0-0.08-0.01-0.22-0.13-0.33c-0.12-0.1-0.24-0.1-0.35-0.1c-0.15,0-8.17,0-8.22,0h-0.1l-0.13,0.12l-0.08-0.06l-0.07-0.05h-0.09
		c-0.15,0-4.87,0-4.99,0h-0.09l-0.21,0.17l-0.07,0.06l-0.22-0.17l-0.07-0.05H27.9c-0.2,0-4.92,0-5.1,0h-0.1l-0.2,0.18l-0.02,0.01
		c0-2,0.05-3.71,0.05-6c0-0.1-0.01-0.2-0.04-0.29c-0.05-0.14-0.18-0.27-0.31-0.31c-0.13-0.05-0.27-0.06-0.42-0.06
		c-0.34,0-12.72,0-13.11,0c-0.16,0-0.32,0.04-0.44,0.15C8.09,8.97,8.04,9.13,8.05,9.28v0.07l0,0c0.05,0.87,0.07,3.88,0.07,6.16
		c0,0.1,0.01,0.21,0.08,0.33s0.23,0.22,0.38,0.21c0.14,0,0.29-0.07,0.36-0.18c0.08-0.11,0.1-0.22,0.1-0.34
		c0-1.24,0.24-2.76,0.82-3.93c0.58-1.18,1.44-1.99,2.72-1.99c0.31,0,0.53,0,0.62,0c0.17,0,0.26,0.03,0.27,0.05
		c0.01,0.01,0.02,0.01,0.03,0.11V23c0,0.16-0.02,0.27-0.06,0.35c-0.06,0.11-0.21,0.24-0.68,0.33c-0.46,0.1-1.2,0.15-2.32,0.15
		c-0.11,0-0.22,0.03-0.31,0.11s-0.15,0.2-0.15,0.33c0,0.26,0.21,0.47,0.47,0.47c0.53,0,9.36,0,9.77,0c0.11,0,0.23-0.03,0.34-0.1
		c0.11-0.08,0.18-0.22,0.18-0.36c0-0.13-0.07-0.27-0.18-0.35c-0.11-0.07-0.23-0.09-0.36-0.1c-1.54,0-2.37-0.09-2.76-0.24
		c-0.2-0.08-0.27-0.15-0.31-0.22c-0.04-0.08-0.06-0.19-0.06-0.36V9.74c0-0.1,0.02-0.12,0.02-0.12l0.01-0.01l0.08-0.01
		c0.34,0,0.62,0,0.89,0c0.52,0,0.99,0.21,1.42,0.59c1.3,1.13,2.08,3.76,2.07,5.4c0,0.14,0.03,0.27,0.13,0.37
		c0.09,0.1,0.23,0.14,0.34,0.14c0.13,0,0.27-0.05,0.36-0.16c0.06-0.08,0.09-0.17,0.1-0.26l0.12,0.13l0.07,0.08h0.11
		c0.74,0,1.15,0.05,1.3,0.12l0.09,0.07c0.01,0.02,0.03,0.09,0.02,0.19v7.33l-0.03,0.16c-0.02,0.03-0.06,0.09-0.28,0.14
		c-0.21,0.05-0.57,0.08-1.09,0.08h-0.1l-0.2,0.18l-0.2,0.18l0.31,0.31l0.07,0.07h0.1c1.85,0,3.4,0,5.1,0h0.09l0.22-0.18l0.13,0.11
		l0.07,0.06h0.1c1.32,0,3.4,0,5.11,0c0.09,0,0.18-0.02,0.27-0.09l0.02,0.02l0.07,0.07h8.79c0.1,0,0.2-0.02,0.29-0.1
		c0.09-0.07,0.14-0.2,0.14-0.31c0-0.99,0-2.58,0-3.67v-0.08l-0.14-0.2L42.87,20.1z M33.62,23.99c-0.74,0-1.14-0.04-1.27-0.11
		l-0.08-0.06c-0.01-0.02-0.02-0.09-0.02-0.21v-7.34c0-0.11,0.01-0.18,0.02-0.21l0.03-0.04c0.08-0.06,0.48-0.13,1.33-0.12h0.1
		l0.07-0.06l0.06-0.05l0.03,0.03l0.07,0.08h0.11c0.74,0,1.15,0.05,1.3,0.12l0.09,0.07c0.01,0.02,0.03,0.09,0.02,0.19v7.33
		l-0.03,0.16c-0.02,0.03-0.06,0.09-0.28,0.14c-0.21,0.05-0.57,0.08-1.09,0.08h-0.1l-0.1,0.09C33.8,24,33.7,24,33.62,23.99z
		 M28.21,15.72l0.06-0.05l0.23,0.19l0.07,0.06h0.09c0.69,0,1.07,0.04,1.2,0.1l0.08,0.06c0.01,0.02,0.02,0.09,0.02,0.2v3.04
		l-0.01,0.06c-0.02,0.01-0.07,0.02-0.16,0.02c-0.34,0-2.83,0-3.12,0c-0.12,0-0.18-0.02-0.18-0.03l-0.01-0.04V16.3
		c0-0.11,0.01-0.18,0.03-0.2l0.05-0.05c0.1-0.07,0.51-0.15,1.34-0.14H28L28.21,15.72z M28.22,24.15c-0.02-0.03-0.04-0.06-0.07-0.08
		C28.06,24.01,27.97,24,27.88,24c-0.72,0-1.12-0.05-1.28-0.13l-0.1-0.08c-0.01-0.02-0.03-0.08-0.03-0.18v-3.32v-0.03
		c0.01-0.01,0.06-0.02,0.15-0.02c0.13,0,2.97,0,3.15,0l0.16,0.01h0.01v0.03v3.32c0,0.1-0.01,0.15-0.03,0.18s-0.05,0.08-0.28,0.13
		c-0.22,0.05-0.59,0.07-1.15,0.07h-0.09L28.22,24.15z"/>
	<path d="M63.6,18.08c-0.05-0.11-0.18-0.25-0.38-0.25c-0.1,0-0.2,0.04-0.27,0.1c-0.1,0.09-0.14,0.19-0.16,0.28s-0.03,0.16-0.03,0.24
		l0,0c-0.08,1.3-0.45,2.69-1.21,3.74s-1.89,1.76-3.58,1.77c-1.46-0.01-2.44-0.69-3.13-1.92c-0.67-1.23-0.99-3.02-0.99-5.12
		c0-1.87,0.12-3.81,0.65-5.24c0.26-0.72,0.63-1.3,1.11-1.7s1.09-0.63,1.9-0.63c1.59,0,2.66,0.97,3.41,2.18
		c0.74,1.2,1.12,2.62,1.29,3.39c0.03,0.15,0.05,0.31,0.08,0.46l0.06,0.22l0.09,0.12l0.2,0.07l0.24-0.06c0.12-0.07,0.18-0.2,0.2-0.3
		s0.02-0.19,0.02-0.3V8.98c0-0.1-0.01-0.21-0.08-0.33c-0.07-0.12-0.23-0.22-0.38-0.21c-0.19,0-0.3,0.13-0.35,0.21l-0.11,0.22l0,0
		c-0.14,0.28-0.33,0.64-0.52,0.93c-0.09,0.14-0.19,0.27-0.26,0.34l-0.09,0.07l-0.01,0.01c-0.03,0-0.2-0.08-0.27-0.17l-0.01-0.01l0,0
		c-0.92-0.83-1.95-1.53-3.41-1.53c-4.25,0.01-7.55,3.95-7.55,8.31c0,2.55,0.82,4.58,2.2,5.96c1.37,1.38,3.29,2.11,5.42,2.11
		c1.95,0,3.39-0.73,4.35-1.91c0.96-1.17,1.46-2.75,1.63-4.47l0,0l0,0V18.5l0,0l0.01-0.1C63.67,18.3,63.66,18.19,63.6,18.08z"/>
	<path d="M73.33,21.65l-0.19,0.19l-0.1,0.1l-0.07,0.07v0.1c0,0.52,0,0.9,0,1.18c0,0.3-0.06,0.46-0.11,0.53l-0.1,0.07
		c-0.02-0.02-0.06-0.09-0.09-0.25c-0.04-0.17-0.06-0.43-0.06-0.78c0-0.74-0.19-1.48-0.55-2.1c-0.23-0.4-0.55-0.74-0.92-0.98
		c0.38-0.12,0.74-0.29,1.04-0.53c0.48-0.38,0.81-0.93,0.81-1.59c0-0.83-0.5-1.47-1.18-1.88c-0.68-0.41-1.56-0.61-2.43-0.62
		c-0.01,0-4.92,0-5.1,0h-0.1l-0.2,0.18l-0.19,0.17l0.28,0.31l0.07,0.08h0.11c0.74,0,1.15,0.05,1.3,0.12l0.09,0.07
		c0.01,0.02,0.03,0.09,0.02,0.19v7.33c0,0.1-0.01,0.16-0.03,0.18c-0.02,0.03-0.05,0.08-0.28,0.13c-0.21,0.05-0.57,0.07-1.1,0.07
		h-0.1l-0.2,0.18l-0.2,0.18l0.31,0.31l0.07,0.07h0.1c0.11,0,5.28,0,5.49,0h0.09l0.22-0.18l0.09-0.08v-0.12
		c0.01-0.1-0.06-0.23-0.15-0.29c-0.09-0.06-0.18-0.07-0.27-0.07c-0.81,0-1.32-0.03-1.56-0.11c-0.13-0.04-0.17-0.08-0.19-0.1
		c-0.02-0.03-0.04-0.07-0.04-0.17v-3.49v-0.06l0.08-0.01c0.06,0,0.95,0,1.54,0c0.26,0,0.48,0.04,0.6,0.14
		c0.12,0.1,0.24,0.29,0.24,0.76c0,0.66,0,1.18,0,1.86c0,0.66,0.16,1.17,0.47,1.52c0.32,0.35,0.77,0.5,1.26,0.5
		c0.54,0,0.95-0.15,1.2-0.46c0.24-0.3,0.3-0.69,0.3-1.08c0-0.38,0-0.91,0-1.18v-0.09l-0.14-0.17L73.33,21.65z M69.53,19.33
		c-0.55,0-1.22,0-1.51,0h-0.07V16.3c0-0.23,0.02-0.36,0.03-0.39c0.35,0,0.81,0,1.27,0c0.54,0,0.93,0.14,1.19,0.4
		c0.26,0.27,0.42,0.69,0.42,1.36c0,0.56-0.14,0.98-0.37,1.24C70.27,19.18,69.96,19.33,69.53,19.33z"/>
	<path d="M100.88,15.21c-0.1-0.04-0.19-0.04-0.28-0.04c-0.2,0-7.42,0-7.65,0c-0.11,0-0.23,0.03-0.33,0.12s-0.14,0.22-0.13,0.32v0.05
		l0,0c0.02,0.31,0.03,1.08,0.04,1.93c-0.14-0.7-0.55-1.28-1.12-1.67c-0.69-0.49-1.59-0.74-2.47-0.74c-0.01,0-4.92,0-5.1,0h-0.1
		l-0.1,0.09l-0.03-0.02l-0.07-0.06h-0.1c-0.08,0-2.16,0-3.33,0h-0.1l-0.21,0.19l-0.22,0.2l0.37,0.3l0.07,0.05h0.09
		c0.57,0,0.84,0.14,0.97,0.26c0.13,0.13,0.16,0.28,0.16,0.44c0,0.21-0.04,0.4-0.25,0.75l0,0c-0.39,0.68-0.96,1.62-1.4,2.34
		c-0.49-0.8-1.03-1.69-1.46-2.4c-0.22-0.37-0.41-0.7-0.54-0.95c-0.07-0.12-0.12-0.23-0.15-0.3L77.41,16
		c0.02-0.01,0.12-0.05,0.29-0.06c0.2-0.02,0.48-0.02,0.82-0.02h0.24h0.09l0.21-0.17l0.23-0.18l-0.36-0.32l-0.07-0.06h-0.1
		c-1.32,0-3.38,0-5.08,0c-0.1,0-0.2,0.02-0.29,0.1l-0.11,0.27c0,0.1,0.05,0.22,0.14,0.28l0.26,0.08c0.59,0,0.92,0.04,1.1,0.11
		c0.17,0.07,0.22,0.12,0.32,0.31v0.01l2.53,4.22v3.07l-0.04,0.1c-0.05,0.06-0.22,0.14-0.5,0.2c-0.29,0.05-0.69,0.08-1.22,0.08h-0.1
		l-0.2,0.18l-0.2,0.18l0.31,0.31l0.07,0.07h0.1c0.31,0,5.49,0,5.73,0h0.09l0.22-0.18l0.09-0.08v-0.12c0.01-0.1-0.06-0.23-0.15-0.29
		c-0.09-0.06-0.18-0.07-0.27-0.07c-0.75,0-1.22-0.05-1.45-0.14c-0.12-0.04-0.17-0.08-0.19-0.11l-0.03-0.13v-3.12
		c0.17-0.28,0.98-1.6,2.09-3.43c0.29-0.48,0.51-0.77,0.72-0.93s0.4-0.22,0.74-0.22h0.1l0.08-0.07l0.07,0.07h0.11
		c0.74,0,1.15,0.05,1.3,0.12l0.09,0.07c0.01,0.02,0.03,0.09,0.02,0.19v7.33c0,0.1-0.01,0.16-0.03,0.18
		c-0.02,0.03-0.05,0.08-0.28,0.13c-0.21,0.05-0.57,0.07-1.1,0.07h-0.1l-0.2,0.18l-0.2,0.18l0.31,0.31l0.07,0.07h0.1
		c0.11,0,5.28,0,5.49,0h0.09l0.22-0.18l0.09-0.08v-0.12c0.01-0.1-0.06-0.23-0.15-0.29c-0.09-0.06-0.18-0.07-0.27-0.07
		c-0.81,0-1.32-0.03-1.56-0.11c-0.13-0.04-0.17-0.08-0.19-0.1c-0.02-0.03-0.04-0.07-0.04-0.17v-2.84v-0.04l0.08-0.01h1.54
		c0.84,0,1.69-0.26,2.33-0.71c0.53-0.37,0.92-0.9,1.05-1.53c0,0.26,0,0.52,0,0.76c0,0.07,0.01,0.15,0.06,0.25
		c0.05,0.1,0.19,0.18,0.31,0.17h0.12l0.2-0.25l0.06-0.07v-0.09c0-0.71,0.14-1.58,0.47-2.25s0.8-1.1,1.5-1.1c0.18,0,0.31,0,0.36,0
		l0.07,0.01v7.7l-0.02,0.15c-0.01,0.02-0.06,0.09-0.33,0.14c-0.26,0.05-0.68,0.08-1.33,0.08h-0.1l-0.2,0.18l-0.2,0.18l0.31,0.31
		l0.07,0.07H94c0.31,0,5.46,0,5.7,0h0.09l0.22-0.18l0.09-0.08v-0.12c0.01-0.1-0.06-0.23-0.15-0.29c-0.09-0.06-0.18-0.07-0.27-0.07
		c-0.89,0-1.38-0.06-1.58-0.14c-0.1-0.04-0.12-0.07-0.13-0.08c-0.01-0.02-0.02-0.07-0.02-0.16v-7.71c0.18,0,0.34,0,0.48,0
		c0.27,0,0.52,0.11,0.76,0.32c0.72,0.62,1.18,2.14,1.17,3.07c0,0.1,0.02,0.2,0.1,0.29l0.27,0.11c0.1,0,0.22-0.04,0.29-0.13
		c0.07-0.09,0.09-0.19,0.09-0.27c0-1.23,0.03-2.25,0.03-3.64l-0.03-0.21C101.09,15.34,100.98,15.24,100.88,15.21z M89.11,20
		c-0.21,0-1.22,0-1.51,0h-0.07v-3.98l0.01-0.09c0.04-0.01,0.15-0.02,0.32-0.02c0.35,0,0.67,0,0.74,0c0.71,0,1.1,0.19,1.36,0.52
		c0.26,0.34,0.38,0.9,0.38,1.7c0,0.68-0.12,1.16-0.33,1.45C89.79,19.86,89.53,20,89.11,20z"/>
	<path d="M105.89,15.06c-2.55,0.01-4.51,2.36-4.51,4.96c0,1.27,0.47,2.47,1.27,3.36c0.8,0.89,1.92,1.46,3.21,1.46
		c1.31,0,2.47-0.57,3.29-1.47s1.31-2.11,1.31-3.42c0-1.29-0.48-2.51-1.29-3.41C108.35,15.64,107.2,15.06,105.89,15.06z
		 M104.85,23.83c-0.39-0.31-0.67-0.85-0.83-1.51c-0.17-0.66-0.22-1.43-0.22-2.16v-0.1c0.01-1.09,0.09-2.21,0.4-3.03
		c0.15-0.41,0.36-0.73,0.63-0.96c0.27-0.22,0.6-0.35,1.05-0.35c0.45,0,0.79,0.13,1.06,0.34c0.41,0.32,0.7,0.88,0.87,1.58
		c0.17,0.7,0.23,1.52,0.23,2.34c0,1.03-0.09,2.11-0.42,2.9c-0.16,0.4-0.38,0.71-0.66,0.93c-0.28,0.22-0.63,0.34-1.09,0.35
		C105.44,24.16,105.12,24.04,104.85,23.83z"/>
	<path d="M157.75,20.1l-0.21,0.26l-0.11,0.14l-0.04,0.05l-0.01,0.07c-0.18,1.2-0.51,2.05-0.97,2.58c-0.47,0.53-1.07,0.79-1.95,0.79
		c-0.59,0-1.01,0-1.53,0c-0.11,0-0.16-0.03-0.2-0.07c-0.04-0.04-0.08-0.13-0.08-0.31v-3.5v-0.02c0,0,0.05-0.03,0.15-0.03
		c0.41,0,0.73,0.05,0.96,0.14c0.34,0.14,0.52,0.33,0.66,0.66c0.13,0.33,0.2,0.8,0.24,1.38v0.06l0.13,0.21l0.2,0.31l0.33-0.45
		l0.05-0.07v-0.08c0-0.2,0-3.03,0-4.9v-0.06l-0.12-0.25l-0.2-0.4l-0.35,0.57l-0.03,0.04l-0.01,0.05c-0.13,0.87-0.28,1.41-0.51,1.68
		c-0.12,0.14-0.26,0.23-0.46,0.3c-0.21,0.07-0.48,0.1-0.85,0.1c-0.12,0-0.18-0.02-0.18-0.03l-0.01-0.04V16.3
		c0-0.21,0.05-0.31,0.07-0.34c0.03-0.03,0.06-0.05,0.17-0.05c0.59,0,1.19,0,1.91,0c0.67,0,1.14,0.32,1.5,0.84
		c0.36,0.53,0.58,1.27,0.67,2.06l0.01,0.07l0.15,0.21l0.22,0.3l0.3-0.46l0.04-0.06V18.8c0-1.08,0-2.4,0-3.18
		c0-0.08-0.01-0.22-0.13-0.33c-0.12-0.1-0.24-0.1-0.35-0.1c-0.15,0-8.17,0-8.22,0h-0.1l-0.1,0.09l-0.05-0.04l-0.07-0.05h-0.09
		c-0.15,0-3.31,0-3.39,0c-0.16-0.01-0.37,0.1-0.43,0.32l0,0c-0.38,1.24-1.1,3.48-1.77,5.68c-0.74-2-1.17-3.17-2.03-5.66l0,0
		c-0.03-0.08-0.08-0.19-0.19-0.26c-0.11-0.07-0.22-0.07-0.33-0.07c-1.21,0-3.31,0-3.36,0H137l-0.12,0.09l-0.04-0.03l-0.07-0.05
		h-0.09c-0.2,0-5.08,0-5.27,0h-0.1l-0.18,0.16c0-1.99,0.05-3.7,0.05-5.97c0-0.1-0.01-0.2-0.04-0.29c-0.05-0.14-0.18-0.27-0.31-0.31
		c-0.13-0.05-0.27-0.06-0.42-0.06c-0.34,0-12.72,0-13.11,0c-0.16,0-0.32,0.04-0.44,0.15s-0.17,0.27-0.17,0.42v0.07l0,0
		c0.05,0.87,0.07,3.88,0.07,6.16c0,0.1,0.01,0.21,0.08,0.33s0.23,0.22,0.38,0.21c0.14,0,0.29-0.07,0.36-0.18
		c0.08-0.11,0.1-0.22,0.1-0.34c0-1.24,0.24-2.76,0.82-3.93c0.58-1.18,1.44-1.99,2.72-1.99c0.31,0,0.53,0,0.62,0
		c0.17,0,0.26,0.03,0.27,0.05c0.01,0.01,0.02,0.01,0.03,0.11v13.23c0,0.16-0.02,0.27-0.06,0.35c-0.06,0.11-0.21,0.24-0.68,0.33
		c-0.46,0.1-1.2,0.15-2.32,0.15c-0.11,0-0.22,0.03-0.31,0.11s-0.15,0.2-0.15,0.33c0,0.26,0.21,0.47,0.47,0.47c0.53,0,9.36,0,9.77,0
		c0.11,0,0.23-0.03,0.34-0.1c0.11-0.08,0.18-0.22,0.18-0.36c0-0.13-0.07-0.27-0.18-0.35c-0.11-0.07-0.23-0.09-0.36-0.1
		c-1.54,0-2.37-0.09-2.76-0.24c-0.2-0.08-0.27-0.15-0.31-0.22c-0.04-0.08-0.06-0.19-0.06-0.36V9.74c0-0.1,0.02-0.12,0.02-0.12
		l0.01-0.01l0.08-0.01c0.34,0,0.62,0,0.89,0c0.52,0,0.99,0.21,1.42,0.59c1.3,1.13,2.08,3.76,2.07,5.4c0,0.14,0.03,0.27,0.13,0.37
		c0.09,0.1,0.23,0.14,0.34,0.14c0.13,0,0.27-0.05,0.36-0.16c0.06-0.07,0.08-0.15,0.09-0.24l0.09,0.11l0.07,0.08h0.11
		c0.79,0,1.22,0.05,1.39,0.12l0.1,0.07c0.01,0.02,0.03,0.08,0.02,0.19v7.33l-0.03,0.14c-0.02,0.04-0.1,0.11-0.34,0.16
		c-0.23,0.05-0.6,0.08-1.13,0.08h-0.1l-0.2,0.18l-0.2,0.18l0.31,0.31l0.07,0.07h0.1c0.31,0,5.01,0,5.25,0h0.09l0.22-0.18l0.02-0.02
		l0.15,0.14l0.07,0.06h0.1c0.08,0,2.44,0,3.61,0h0.1l0.21-0.19l0.22-0.2l-0.37-0.3l-0.07-0.05h-0.09c-0.5,0-0.86-0.08-1.09-0.31
		c-0.24-0.23-0.42-0.69-0.44-1.56l-0.07-5c0.89,2.52,1.66,4.73,2.52,7.21l0,0l0.12,0.24c0.06,0.09,0.2,0.17,0.34,0.17
		c0.09,0.01,0.25-0.04,0.33-0.14c0.07-0.1,0.09-0.18,0.12-0.27c0.12-0.37,1.53-4.89,2.23-7.11l-0.08,6.4c0,0.1-0.02,0.16-0.03,0.18
		c-0.02,0.03-0.06,0.08-0.28,0.13s-0.59,0.07-1.14,0.07h-0.09l-0.21,0.17l-0.23,0.18l0.36,0.32l0.07,0.06h0.1c1.32,0,3.4,0,5.11,0
		c0.07,0,0.16-0.02,0.24-0.07l0.07,0.07h8.79c0.1,0,0.2-0.02,0.29-0.1c0.09-0.07,0.14-0.2,0.14-0.31c0-0.99,0-2.58,0-3.67v-0.08
		l-0.14-0.2L157.75,20.1z M148.56,23.99c-0.74,0-1.14-0.04-1.27-0.11l-0.08-0.06c-0.01-0.02-0.02-0.09-0.02-0.21v-7.34
		c0-0.11,0.01-0.18,0.02-0.21l0.03-0.04c0.08-0.06,0.48-0.13,1.33-0.12h0.1l0.07-0.06l0.03-0.02l0,0l0.07,0.08h0.11
		c0.74,0,1.15,0.05,1.3,0.12l0.09,0.07c0.01,0.02,0.03,0.09,0.02,0.19v7.33l-0.03,0.16c-0.02,0.03-0.06,0.09-0.28,0.14
		c-0.21,0.05-0.57,0.08-1.09,0.08h-0.1l-0.08,0.07C148.72,24.01,148.63,24,148.56,23.99z M143.04,21.31L143.04,21.31L143.04,21.31
		L143.04,21.31z M137,24.17L137,24.17c-0.03-0.04-0.06-0.08-0.1-0.1c-0.09-0.06-0.18-0.07-0.27-0.07c-0.75,0-1.16-0.06-1.33-0.13
		l-0.11-0.08c-0.01-0.02-0.03-0.07-0.02-0.17V16.3c0-0.11,0.01-0.18,0.03-0.2l0.05-0.05c0.1-0.08,0.53-0.15,1.41-0.14h0.1l0.07-0.06
		l0.04-0.03l0.06,0.05l0.07,0.05h0.08c0.57,0,0.95,0.09,1.16,0.28c0.21,0.18,0.35,0.52,0.35,1.17v4.76c0,0.94-0.18,1.4-0.4,1.61
		c-0.21,0.21-0.51,0.26-0.91,0.26h-0.1L137,24.17z"/>
	<path d="M164.78,19.71c-0.48-0.47-1.16-0.75-1.97-0.94l0,0c-0.23-0.06-1.13-0.27-1.35-0.33c-0.48-0.14-0.94-0.34-1.26-0.59
		c-0.32-0.26-0.5-0.55-0.51-0.93c0-0.38,0.18-0.67,0.47-0.9c0.29-0.22,0.69-0.35,1.09-0.35c0.79,0,1.36,0.34,1.81,0.9
		c0.45,0.57,0.76,1.37,0.95,2.26l0.01,0.05l0.17,0.23l0.07,0.1h0.12c0.18,0,0.29-0.12,0.34-0.21c0.05-0.09,0.07-0.17,0.08-0.27
		c0-0.98,0.08-2.06,0.08-3.18v-0.07l-0.14-0.22l-0.15-0.23l-0.33,0.25l-0.03,0.02l-0.02,0.03c-0.12,0.16-0.27,0.37-0.41,0.54
		l-0.17,0.19c-0.05-0.04-0.13-0.1-0.23-0.19c-0.14-0.12-0.29-0.27-0.46-0.38c-0.54-0.36-1.02-0.47-1.67-0.46
		c-0.88,0-1.63,0.28-2.14,0.79c-0.52,0.5-0.8,1.22-0.79,2.04c-0.01,1.01,0.43,1.7,1.06,2.12c0.62,0.43,1.41,0.62,2.18,0.81
		c0.6,0.14,1.26,0.34,1.75,0.64c0.49,0.31,0.79,0.68,0.79,1.24c0,0.44-0.16,0.8-0.42,1.06c-0.27,0.26-0.65,0.42-1.13,0.42
		c-0.93,0-1.58-0.45-2.08-1.12c-0.5-0.68-0.83-1.59-1.03-2.44v-0.01l0,0c-0.01-0.01-0.01-0.09-0.04-0.19l-0.1-0.17
		c-0.06-0.06-0.16-0.11-0.25-0.11l-0.21,0.06c-0.1,0.07-0.14,0.17-0.15,0.24l-0.02,0.2c0,1.3-0.03,2.38-0.06,3.68v0.06l0.11,0.22
		l0.13,0.26l0.39-0.29l0.04-0.03l0.03-0.04c0.13-0.2,0.29-0.47,0.44-0.68c0.07-0.1,0.14-0.19,0.19-0.24c0.05,0.04,0.12,0.1,0.2,0.17
		c0.13,0.12,0.27,0.26,0.42,0.38c0.6,0.46,1.26,0.7,1.9,0.7c0.84,0,1.6-0.26,2.16-0.8c0.56-0.54,0.89-1.34,0.89-2.36
		C165.53,20.83,165.26,20.18,164.78,19.71z"/>
</g>
</svg>
