<svg width="185" height="37" viewBox="0 0 185 37" fill="none" xmlns="http://www.w3.org/2000/svg">
<path fill-rule="evenodd" clip-rule="evenodd" d="M15.1973 4.43262C6.73366 4.85108 0 11.8501 0 20.4227C0 28.9954 6.73366 35.9944 15.1973 36.4128V4.43262ZM15.601 36.4278C15.7336 36.431 15.8666 36.4326 16 36.4326C16.1334 36.4326 16.2664 36.431 16.399 36.4278H15.601ZM18.3973 36.2541C26.0966 35.0966 32 28.4495 32 20.4227C32 12.3959 26.0966 5.74883 18.3973 4.59132V9.47648C23.4303 10.5752 27.1988 15.0602 27.1988 20.4259C27.1988 25.7915 23.4303 30.2765 18.3973 31.3752V36.2541Z" fill="#2F3454"/>
<path d="M54.992 27.216C53.568 27.216 52.304 26.928 51.2 26.352C50.096 25.776 49.224 24.984 48.584 23.976C47.96 22.952 47.648 21.784 47.648 20.472C47.648 19.16 47.96 18 48.584 16.992C49.224 15.984 50.096 15.2 51.2 14.64C52.304 14.064 53.568 13.776 54.992 13.776C56.416 13.776 57.68 14.064 58.784 14.64C59.904 15.2 60.776 15.984 61.4 16.992C62.024 18 62.336 19.16 62.336 20.472C62.336 21.784 62.024 22.952 61.4 23.976C60.776 24.984 59.904 25.776 58.784 26.352C57.68 26.928 56.416 27.216 54.992 27.216ZM54.992 23.592C55.52 23.592 55.984 23.472 56.384 23.232C56.8 22.992 57.128 22.64 57.368 22.176C57.608 21.696 57.728 21.128 57.728 20.472C57.728 19.816 57.608 19.264 57.368 18.816C57.128 18.352 56.8 18 56.384 17.76C55.984 17.52 55.52 17.4 54.992 17.4C54.48 17.4 54.016 17.52 53.6 17.76C53.2 18 52.872 18.352 52.616 18.816C52.376 19.264 52.256 19.816 52.256 20.472C52.256 21.128 52.376 21.696 52.616 22.176C52.872 22.64 53.2 22.992 53.6 23.232C54.016 23.472 54.48 23.592 54.992 23.592ZM71.1204 27.216C70.0644 27.216 69.1124 27.008 68.2644 26.592C67.4324 26.176 66.7764 25.528 66.2964 24.648C65.8324 23.752 65.6004 22.624 65.6004 21.264V13.992H70.1604V20.52C70.1604 21.528 70.3444 22.248 70.7124 22.68C71.0964 23.112 71.6324 23.328 72.3204 23.328C72.7684 23.328 73.1764 23.224 73.5444 23.016C73.9124 22.808 74.2084 22.48 74.4324 22.032C74.6564 21.568 74.7684 20.976 74.7684 20.256V13.992H79.3284V27H74.9844V23.328L75.8244 24.36C75.3764 25.32 74.7284 26.04 73.8804 26.52C73.0324 26.984 72.1124 27.216 71.1204 27.216ZM89.2736 27.216C87.6096 27.216 86.3136 26.808 85.3856 25.992C84.4576 25.16 83.9936 23.912 83.9936 22.248V11.088H88.5536V22.2C88.5536 22.664 88.6816 23.032 88.9376 23.304C89.1936 23.56 89.5216 23.688 89.9216 23.688C90.4656 23.688 90.9296 23.552 91.3136 23.28L92.4416 26.472C92.0576 26.728 91.5856 26.912 91.0256 27.024C90.4656 27.152 89.8816 27.216 89.2736 27.216ZM82.0976 17.88V14.472H91.5296V17.88H82.0976ZM100.689 27.216C99.5049 27.216 98.4249 26.944 97.4489 26.4C96.4889 25.84 95.7209 25.064 95.1449 24.072C94.5689 23.064 94.2809 21.864 94.2809 20.472C94.2809 19.096 94.5689 17.912 95.1449 16.92C95.7209 15.912 96.4889 15.136 97.4489 14.592C98.4249 14.048 99.5049 13.776 100.689 13.776C101.809 13.776 102.753 14.016 103.521 14.496C104.305 14.976 104.897 15.712 105.297 16.704C105.697 17.696 105.897 18.952 105.897 20.472C105.897 22.024 105.705 23.296 105.321 24.288C104.937 25.28 104.361 26.016 103.593 26.496C102.825 26.976 101.857 27.216 100.689 27.216ZM101.649 23.592C102.161 23.592 102.617 23.472 103.017 23.232C103.433 22.992 103.761 22.64 104.001 22.176C104.241 21.696 104.361 21.128 104.361 20.472C104.361 19.816 104.241 19.264 104.001 18.816C103.761 18.352 103.433 18 103.017 17.76C102.617 17.52 102.161 17.4 101.649 17.4C101.121 17.4 100.649 17.52 100.233 17.76C99.8329 18 99.5129 18.352 99.2729 18.816C99.0329 19.264 98.9129 19.816 98.9129 20.472C98.9129 21.128 99.0329 21.696 99.2729 22.176C99.5129 22.64 99.8329 22.992 100.233 23.232C100.649 23.472 101.121 23.592 101.649 23.592ZM104.505 27V24.768L104.529 20.472L104.289 16.176V9.192H108.849V27H104.505ZM119.799 27.216C118.263 27.216 116.919 26.928 115.767 26.352C114.631 25.76 113.743 24.96 113.103 23.952C112.479 22.928 112.167 21.768 112.167 20.472C112.167 19.176 112.471 18.024 113.079 17.016C113.703 15.992 114.559 15.2 115.647 14.64C116.735 14.064 117.959 13.776 119.319 13.776C120.599 13.776 121.767 14.04 122.823 14.568C123.879 15.08 124.719 15.84 125.343 16.848C125.967 17.856 126.279 19.08 126.279 20.52C126.279 20.68 126.271 20.864 126.255 21.072C126.239 21.28 126.223 21.472 126.207 21.648H115.911V19.248H123.783L122.055 19.92C122.071 19.328 121.959 18.816 121.719 18.384C121.495 17.952 121.175 17.616 120.759 17.376C120.359 17.136 119.887 17.016 119.343 17.016C118.799 17.016 118.319 17.136 117.903 17.376C117.503 17.616 117.191 17.96 116.967 18.408C116.743 18.84 116.631 19.352 116.631 19.944V20.64C116.631 21.28 116.759 21.832 117.015 22.296C117.287 22.76 117.671 23.12 118.167 23.376C118.663 23.616 119.255 23.736 119.943 23.736C120.583 23.736 121.127 23.648 121.575 23.472C122.039 23.28 122.495 22.992 122.943 22.608L125.343 25.104C124.719 25.792 123.951 26.32 123.039 26.688C122.127 27.04 121.047 27.216 119.799 27.216ZM130.109 27V14.136C130.109 12.568 130.573 11.32 131.501 10.392C132.445 9.448 133.789 8.976 135.533 8.976C136.093 8.976 136.645 9.032 137.189 9.144C137.733 9.256 138.189 9.424 138.557 9.648L137.429 12.864C137.237 12.752 137.021 12.664 136.781 12.6C136.541 12.52 136.301 12.48 136.061 12.48C135.581 12.48 135.205 12.624 134.933 12.912C134.677 13.184 134.549 13.608 134.549 14.184V15.12L134.669 17.016V27H130.109ZM128.213 17.88V14.472H137.645V17.88H128.213ZM139.733 27V13.992H144.293V27H139.733ZM142.013 12.552C141.181 12.552 140.509 12.32 139.997 11.856C139.485 11.392 139.229 10.816 139.229 10.128C139.229 9.44 139.485 8.864 139.997 8.4C140.509 7.936 141.181 7.704 142.013 7.704C142.845 7.704 143.517 7.928 144.029 8.376C144.541 8.808 144.797 9.368 144.797 10.056C144.797 10.776 144.541 11.376 144.029 11.856C143.533 12.32 142.861 12.552 142.013 12.552ZM156.925 13.776C157.933 13.776 158.845 13.984 159.661 14.4C160.477 14.8 161.117 15.424 161.581 16.272C162.061 17.12 162.301 18.216 162.301 19.56V27H157.741V20.304C157.741 19.376 157.549 18.704 157.165 18.288C156.797 17.856 156.277 17.64 155.605 17.64C155.125 17.64 154.685 17.752 154.285 17.976C153.885 18.184 153.573 18.512 153.349 18.96C153.125 19.408 153.013 19.992 153.013 20.712V27H148.453V13.992H152.797V17.688L151.957 16.608C152.453 15.664 153.133 14.96 153.997 14.496C154.861 14.016 155.837 13.776 156.925 13.776ZM173.344 27.216C171.808 27.216 170.464 26.928 169.312 26.352C168.176 25.76 167.288 24.96 166.648 23.952C166.024 22.928 165.712 21.768 165.712 20.472C165.712 19.176 166.016 18.024 166.624 17.016C167.248 15.992 168.104 15.2 169.192 14.64C170.28 14.064 171.504 13.776 172.864 13.776C174.144 13.776 175.312 14.04 176.368 14.568C177.424 15.08 178.264 15.84 178.888 16.848C179.512 17.856 179.824 19.08 179.824 20.52C179.824 20.68 179.816 20.864 179.8 21.072C179.784 21.28 179.768 21.472 179.752 21.648H169.456V19.248H177.328L175.6 19.92C175.616 19.328 175.504 18.816 175.264 18.384C175.04 17.952 174.72 17.616 174.304 17.376C173.904 17.136 173.432 17.016 172.888 17.016C172.344 17.016 171.864 17.136 171.448 17.376C171.048 17.616 170.736 17.96 170.512 18.408C170.288 18.84 170.176 19.352 170.176 19.944V20.64C170.176 21.28 170.304 21.832 170.56 22.296C170.832 22.76 171.216 23.12 171.712 23.376C172.208 23.616 172.8 23.736 173.488 23.736C174.128 23.736 174.672 23.648 175.12 23.472C175.584 23.28 176.04 22.992 176.488 22.608L178.888 25.104C178.264 25.792 177.496 26.32 176.584 26.688C175.672 27.04 174.592 27.216 173.344 27.216Z" fill="#2F3454"/>
</svg>
