<svg xmlns="http://www.w3.org/2000/svg" width="1200" height="400" viewBox="0 0 1200 400">
  <defs>
    <style>
      .cls-1 {
        fill: #12d576;
      }

      .cls-1, .cls-2, .cls-3, .cls-4 {
        fill-rule: evenodd;
      }

      .cls-2 {
        fill: #2d5c8f;
      }

      .cls-3 {
        fill: #26609f;
      }
    </style>
  </defs>
  <g id="Artboard_1" data-name="Artboard 1">
    <path id="Rectangle_10_copy" data-name="Rectangle 10 copy" class="cls-1" d="M44,221.3L192.776,134V48L44,135.3v86Z"/>
    <path class="cls-2" d="M44,134.912l148.779,87.3v86L44,220.91v-86Z"/>
    <path id="Rectangle_10_copy_2" data-name="Rectangle 10 copy 2" class="cls-3" d="M341.553,259.088l-148.777-87.3v-86l148.777,87.3v86Z"/>
    <path id="Rectangle_10_copy_2-2" data-name="Rectangle 10 copy 2" class="cls-1" d="M341.553,172.7L192.776,260v86l148.777-87.3v-86Z"/>
    <path id="SecureDApp" class="cls-4" d="M438.449,255.762a30.968,30.968,0,0,0,10.576-5.324,24.408,24.408,0,0,0,6.832-8.46,25.484,25.484,0,0,0,2.436-11.357v-0.237a21.785,21.785,0,0,0-2.139-10,20.155,20.155,0,0,0-6.179-7.158,38.672,38.672,0,0,0-9.8-5.03,102.007,102.007,0,0,0-12.892-3.607q-4.278-.945-7.071-1.834a24.727,24.727,0,0,1-4.4-1.774,5.923,5.923,0,0,1-2.258-1.953,4.65,4.65,0,0,1-.653-2.484V196.31a4.571,4.571,0,0,1,2.079-3.785q2.077-1.539,6.239-1.539a35.421,35.421,0,0,1,11.585,2.074,46.838,46.838,0,0,1,11.7,6.1l11.526-16.288a48.168,48.168,0,0,0-15.15-8.287,59.974,59.974,0,0,0-19.071-2.8,42.959,42.959,0,0,0-13.428,1.952,30.216,30.216,0,0,0-10.159,5.5,23.621,23.621,0,0,0-6.417,8.4,25.476,25.476,0,0,0-2.2,10.649v0.235a20.184,20.184,0,0,0,9.09,17.925,37.844,37.844,0,0,0,9.922,4.733q5.7,1.834,12.358,3.371,4.278,0.946,6.951,1.835a22.817,22.817,0,0,1,4.278,1.833,6.071,6.071,0,0,1,2.2,1.952A4.456,4.456,0,0,1,435,232.48v0.235a4.66,4.66,0,0,1-2.436,4.2q-2.436,1.477-7.07,1.478-14.5,0-26.973-9.956l-12.833,15.323a51.436,51.436,0,0,0,17.764,10.376,64.706,64.706,0,0,0,21.21,3.458A48.393,48.393,0,0,0,438.449,255.762Zm48.48-36.923a16.642,16.642,0,0,1,3.8-8.475,9.5,9.5,0,0,1,7.367-3.141,10.016,10.016,0,0,1,7.605,3.141,14.249,14.249,0,0,1,3.564,8.475H486.929Zm29.528,35.319a34.681,34.681,0,0,0,11.467-9.481l-12.477-10.312a23.9,23.9,0,0,1-6.832,4.978,17.716,17.716,0,0,1-7.427,1.541,14.952,14.952,0,0,1-8.971-2.608,13.19,13.19,0,0,1-4.931-7.941H530.3q0.117-1.184.119-2.37v-2.252a45.294,45.294,0,0,0-1.96-13.452,32.118,32.118,0,0,0-5.942-11.141,28.5,28.5,0,0,0-10.1-7.645,33.967,33.967,0,0,0-14.437-2.845,32.191,32.191,0,0,0-13.071,2.608,31.466,31.466,0,0,0-10.278,7.17,32.326,32.326,0,0,0-6.714,10.667,35.755,35.755,0,0,0-2.376,13.1v0.237a35.241,35.241,0,0,0,2.554,13.63,30.057,30.057,0,0,0,7.13,10.49,32.741,32.741,0,0,0,10.872,6.755,38.34,38.34,0,0,0,13.9,2.43A35.255,35.255,0,0,0,516.457,254.158Zm71.949-.474a35.422,35.422,0,0,0,11.288-10.667l-15.091-10.9a26.678,26.678,0,0,1-5.525,4.86,12.476,12.476,0,0,1-6.833,1.777,11.963,11.963,0,0,1-9.268-4.207,14.616,14.616,0,0,1-2.614-4.622,16.965,16.965,0,0,1-.951-5.749v-0.237a15.625,15.625,0,0,1,.951-5.511,14.923,14.923,0,0,1,2.614-4.5,12.133,12.133,0,0,1,3.981-3.082,11.4,11.4,0,0,1,5.05-1.126,12.409,12.409,0,0,1,6.892,1.778,20.225,20.225,0,0,1,5.109,4.978l15.329-11.378a31.749,31.749,0,0,0-10.814-10.43q-6.655-3.91-16.635-3.911a35.727,35.727,0,0,0-13.962,2.667,33.188,33.188,0,0,0-20.5,30.756v0.237A33.5,33.5,0,0,0,547,247.877a33.606,33.606,0,0,0,24.062,9.837Q581.632,257.714,588.406,253.684Zm52.138,0.83a31.552,31.552,0,0,0,7.629-7.111v8.77h22.7v-64.12h-22.7V226.78q0,5.333-2.64,8.059a8.833,8.833,0,0,1-6.627,2.726,8.413,8.413,0,0,1-6.568-2.726q-2.466-2.726-2.464-8.059V192.053h-22.7V234.01q0,11.022,5.795,17.3t16.188,6.282A19.936,19.936,0,0,0,640.544,254.514Zm42.443,1.659h22.7V236.261q0-11.139,4.753-16.356T724.1,214.69H726v-23.7q-8.082-.356-12.833,3.555a26.433,26.433,0,0,0-7.486,10.43V192.053h-22.7v64.12Zm69.631-37.334a16.65,16.65,0,0,1,3.8-8.475,9.5,9.5,0,0,1,7.367-3.141,10.015,10.015,0,0,1,7.605,3.141,14.249,14.249,0,0,1,3.564,8.475H752.618Zm29.528,35.319a34.671,34.671,0,0,0,11.467-9.481l-12.477-10.312a23.884,23.884,0,0,1-6.832,4.978,17.716,17.716,0,0,1-7.427,1.541,14.956,14.956,0,0,1-8.971-2.608,13.2,13.2,0,0,1-4.931-7.941H795.99q0.117-1.184.118-2.37v-2.252a45.294,45.294,0,0,0-1.96-13.452,32.116,32.116,0,0,0-5.941-11.141,28.5,28.5,0,0,0-10.1-7.645,33.967,33.967,0,0,0-14.437-2.845,32.191,32.191,0,0,0-13.071,2.608,31.477,31.477,0,0,0-10.278,7.17,32.326,32.326,0,0,0-6.714,10.667,35.776,35.776,0,0,0-2.376,13.1v0.237a35.241,35.241,0,0,0,2.554,13.63,30.07,30.07,0,0,0,7.13,10.49,32.746,32.746,0,0,0,10.873,6.755,38.334,38.334,0,0,0,13.9,2.43A35.252,35.252,0,0,0,782.146,254.158Zm47.946-18.371V193.593h9.422q10.374,0,16.695,5.512t6.322,15.467v0.237q0,10.076-6.322,15.526t-16.695,5.452h-9.422ZM807.04,256.173h31.607a59.625,59.625,0,0,0,20.023-3.141,42.883,42.883,0,0,0,14.912-8.711,37.375,37.375,0,0,0,9.268-13.215,42.6,42.6,0,0,0,3.209-16.653v-0.237a42.452,42.452,0,0,0-3.149-16.534,36.219,36.219,0,0,0-9.15-12.978,42.066,42.066,0,0,0-14.734-8.474,60.7,60.7,0,0,0-19.9-3.023H807.04v82.966Zm121.2-32.593,9.387-23.586L946.9,223.58H928.242Zm-36.955,32.593h24.24l5.942-14.815h32.083l6.06,14.815h24.715l-35.41-83.558H926.7Zm129.953-18.489a12.591,12.591,0,0,1-4.14-3.023,14.321,14.321,0,0,1-2.77-4.622,16.3,16.3,0,0,1-1.01-5.867v-0.237a15.819,15.819,0,0,1,1.01-5.807,14.491,14.491,0,0,1,2.77-4.564,12.6,12.6,0,0,1,4.14-3.022,12.8,12.8,0,0,1,14.44,2.963,14.631,14.631,0,0,1,3.78,10.43v0.237a14.793,14.793,0,0,1-3.78,10.549A12.805,12.805,0,0,1,1021.24,237.684ZM991.1,275.137h22.7V248.351a39.992,39.992,0,0,0,3.43,3.5,20.637,20.637,0,0,0,4.27,2.963,25.246,25.246,0,0,0,5.28,2.015,25.624,25.624,0,0,0,6.57.771,26.419,26.419,0,0,0,19.86-8.949,32.992,32.992,0,0,0,6.16-10.548,40.146,40.146,0,0,0,2.31-14.045v-0.237a39.293,39.293,0,0,0-2.31-13.868,31.834,31.834,0,0,0-6.22-10.43,27.423,27.423,0,0,0-9.07-6.578,26.239,26.239,0,0,0-10.85-2.311,23.425,23.425,0,0,0-6.45.83,22.272,22.272,0,0,0-5.22,2.193,24.1,24.1,0,0,0-4.21,3.14,40.309,40.309,0,0,0-3.55,3.793v-8.533H991.1v83.084Zm110.47-37.453a12.388,12.388,0,0,1-4.14-3.023,14.344,14.344,0,0,1-2.78-4.622,16.513,16.513,0,0,1-1-5.867v-0.237a16.03,16.03,0,0,1,1-5.807,14.515,14.515,0,0,1,2.78-4.564,12.4,12.4,0,0,1,4.14-3.022,12.785,12.785,0,0,1,14.43,2.963,14.638,14.638,0,0,1,3.79,10.43v0.237a14.8,14.8,0,0,1-3.79,10.549A12.79,12.79,0,0,1,1101.57,237.684Zm-30.14,37.453h22.69V248.351a40.147,40.147,0,0,0,3.44,3.5,20.117,20.117,0,0,0,4.27,2.963,25.155,25.155,0,0,0,5.27,2.015,25.76,25.76,0,0,0,6.58.771,26.419,26.419,0,0,0,19.85-8.949,32.828,32.828,0,0,0,6.17-10.548,40.146,40.146,0,0,0,2.31-14.045v-0.237a39.293,39.293,0,0,0-2.31-13.868,31.682,31.682,0,0,0-6.23-10.43,27.385,27.385,0,0,0-9.06-6.578,26.273,26.273,0,0,0-10.85-2.311,23.551,23.551,0,0,0-6.46.83,22.192,22.192,0,0,0-5.21,2.193,23.372,23.372,0,0,0-4.21,3.14,40.414,40.414,0,0,0-3.56,3.793v-8.533h-22.69v83.084Z"/>
  </g>
</svg>
