<svg width="637" height="242" viewBox="0 0 637 242" fill="none" xmlns="http://www.w3.org/2000/svg">
<path d="M137.363 68.9854H157.479L194.98 171H174.577L165.094 145.568H129.461L120.121 171H99.7184L137.363 68.9854ZM161.502 131.631L147.421 89.532L132.765 131.631H161.502ZM244.964 172.437C239.216 172.437 234.092 171.144 229.59 168.557C225.087 165.971 221.543 162.427 218.957 157.925V171H202.146V66.1117H221.4V108.929C224.082 104.427 227.578 100.883 231.888 98.2966C236.295 95.7103 241.419 94.4172 247.262 94.4172C252.148 94.4172 256.602 95.4709 260.625 97.5782C264.648 99.5898 268.096 102.416 270.97 106.055C273.94 109.695 276.191 113.862 277.723 118.556C279.352 123.249 280.166 128.278 280.166 133.643C280.166 139.007 279.256 144.036 277.436 148.729C275.712 153.423 273.269 157.59 270.108 161.23C266.947 164.774 263.211 167.552 258.901 169.563C254.686 171.479 250.04 172.437 244.964 172.437ZM239.647 156.057C242.713 156.057 245.49 155.482 247.981 154.333C250.567 153.088 252.77 151.459 254.59 149.448C256.506 147.436 257.943 145.089 258.901 142.407C259.954 139.629 260.481 136.756 260.481 133.786C260.481 129.667 259.619 125.884 257.895 122.435C256.267 118.891 253.968 116.065 250.998 113.958C248.125 111.851 244.724 110.797 240.797 110.797C238.019 110.797 235.337 111.468 232.751 112.809C230.26 114.054 228.009 115.778 225.997 117.981C224.082 120.184 222.549 122.675 221.4 125.453V143.413C221.974 145.329 222.884 147.053 224.13 148.586C225.471 150.118 227.003 151.459 228.727 152.609C230.452 153.662 232.224 154.524 234.044 155.195C235.959 155.77 237.827 156.057 239.647 156.057ZM291.055 171V95.7103H310.309V171H291.055ZM291.055 85.2215V66.1117H310.309V85.2215H291.055ZM452.57 172.437C446.44 172.437 440.932 171.431 436.047 169.419C431.162 167.312 426.995 164.438 423.546 160.799C420.194 157.159 417.607 152.992 415.788 148.298C413.968 143.605 413.058 138.671 413.058 133.499C413.058 128.23 413.968 123.249 415.788 118.556C417.607 113.862 420.194 109.695 423.546 106.055C426.995 102.416 431.162 99.5898 436.047 97.5782C440.932 95.4709 446.44 94.4172 452.57 94.4172C458.701 94.4172 464.161 95.4709 468.95 97.5782C473.835 99.5898 478.002 102.416 481.45 106.055C484.899 109.695 487.485 113.862 489.209 118.556C491.029 123.249 491.939 128.23 491.939 133.499C491.939 138.671 491.029 143.605 489.209 148.298C487.485 152.992 484.899 157.159 481.45 160.799C478.098 164.438 473.979 167.312 469.094 169.419C464.209 171.431 458.701 172.437 452.57 172.437ZM432.886 133.499C432.886 137.905 433.748 141.832 435.472 145.281C437.196 148.633 439.543 151.268 442.512 153.183C445.482 155.099 448.834 156.057 452.57 156.057C456.21 156.057 459.515 155.099 462.484 153.183C465.454 151.172 467.801 148.49 469.525 145.137C471.345 141.689 472.255 137.761 472.255 133.355C472.255 129.045 471.345 125.165 469.525 121.717C467.801 118.268 465.454 115.586 462.484 113.671C459.515 111.755 456.21 110.797 452.57 110.797C448.834 110.797 445.482 111.803 442.512 113.814C439.543 115.73 437.196 118.412 435.472 121.861C433.748 125.213 432.886 129.093 432.886 133.499Z" fill="white"/>
<path d="M393.197 172.149C387.354 172.149 382.708 170.569 379.26 167.408C375.907 164.247 374.231 160.224 374.231 155.339V96.7161C374.231 93.8425 373.895 91.2083 373.225 88.8136C372.554 86.4189 371.357 84.551 369.633 83.2099C367.909 81.7731 365.418 81.0547 362.161 81.0547C359.096 81.0547 356.606 81.7252 354.69 83.0663C352.87 84.4073 351.529 86.3231 350.667 88.8136C349.805 91.2083 349.374 93.9861 349.374 97.1472V99.7334H361.874V114.389H349.374V171H330.12V114.389H320.206V99.7334H330.12V93.4114C330.12 87.1852 331.365 81.9647 333.856 77.75C336.442 73.4395 340.082 70.1827 344.776 67.9796C349.469 65.7765 355.073 64.6749 361.587 64.6749C372.507 64.6749 380.553 67.2612 385.725 72.4337C390.898 77.6063 393.484 84.4073 393.484 92.8367V146.287C393.484 149.352 394.011 151.555 395.065 152.896C396.118 154.237 397.603 154.908 399.519 154.908C401.339 154.908 403.159 154.62 404.979 154.045C406.799 153.471 408.092 153.04 408.858 152.752L411.444 168.27C410.678 168.653 409.289 169.18 407.278 169.851C405.266 170.425 403.015 170.952 400.525 171.431C398.034 171.91 395.592 172.149 393.197 172.149Z" fill="#34C9C0"/>
</svg>
