<svg width="1589" height="333" viewBox="0 0 1589 333" fill="none" xmlns="http://www.w3.org/2000/svg">
<path d="M433.047 226.721V105.377H473.397V226.721H433.047Z" fill="#0B0B0B"/>
<path d="M592.013 226.721L539.247 167.813V226.721H502.184V105.377H537.422L590.187 165.167V105.377H627.25V226.721H592.013Z" fill="#0B0B0B"/>
<path d="M714.159 103.261C732.782 103.261 747.51 107.788 758.343 116.841C769.176 125.777 774.592 138.594 774.592 155.29H736.068C736.068 148.235 734.121 142.65 730.226 138.535C726.452 134.42 721.036 132.362 713.976 132.362C705.821 132.362 699.796 134.831 695.901 139.77C692.128 144.708 690.241 151.586 690.241 160.405V171.693C690.241 180.394 692.128 187.272 695.901 192.328C699.796 197.267 705.699 199.736 713.611 199.736C721.401 199.736 727.304 197.796 731.321 193.916C735.338 190.035 737.346 184.568 737.346 177.513H774.592C774.592 194.092 769.297 206.791 758.708 215.609C748.24 224.428 733.39 228.837 714.159 228.837C692.736 228.837 676.487 223.546 665.41 212.964C654.456 202.381 648.978 186.743 648.978 166.049C648.978 145.355 654.456 129.716 665.41 119.134C676.487 108.552 692.736 103.261 714.159 103.261Z" fill="#0B0B0B"/>
<path d="M915.601 142.592C915.601 149.999 913.532 156.701 909.393 162.698C905.255 168.694 899.23 173.104 891.318 175.926L919.252 226.721H873.973L851.698 182.451H836.727V226.721H796.377V105.377H873.243C882.25 105.377 889.918 107.082 896.248 110.492C902.699 113.784 907.507 118.311 910.671 124.073C913.958 129.716 915.601 135.889 915.601 142.592ZM874.521 144.179C874.521 141.004 873.425 138.359 871.234 136.242C869.043 134.126 866.366 133.067 863.201 133.067H836.727V155.467H863.201C866.366 155.467 869.043 154.408 871.234 152.292C873.425 150.058 874.521 147.354 874.521 144.179Z" fill="#0B0B0B"/>
<path d="M1008.6 226.721H968.247V179.629L918.404 105.377H964.779L988.879 145.766H989.609L1013.71 105.377H1057.71L1008.6 179.629V226.721Z" fill="#0B0B0B"/>
<path d="M1143.22 105.377C1151.01 105.377 1157.94 107.141 1164.03 110.668C1170.12 114.078 1174.86 118.84 1178.27 124.954C1181.68 130.951 1183.38 137.712 1183.38 145.237V147.53C1183.38 155.055 1181.68 161.875 1178.27 167.989C1174.86 174.103 1170.12 178.924 1164.03 182.451C1157.94 185.861 1151.01 187.566 1143.22 187.566H1113.09V226.721H1072.74V105.377H1143.22ZM1113.09 159.17H1129.71C1133.97 159.17 1137.13 158.112 1139.2 155.996C1141.39 153.879 1142.49 150.999 1142.49 147.354V145.943C1142.49 142.18 1141.39 139.299 1139.2 137.3C1137.13 135.184 1133.97 134.126 1129.71 134.126H1113.09V159.17Z" fill="#0B0B0B"/>
<path d="M1276.8 136.419V226.721H1236.45V136.419H1195.19V105.377H1317.88V136.419H1276.8Z" fill="#0B0B0B"/>
<path d="M1336.27 105.377H1444.9V134.478H1376.62V151.234H1435.04V179.1H1376.62V197.619H1446.18V226.721H1336.27V105.377Z" fill="#0B0B0B"/>
<path d="M1522.44 105.377C1566.38 105.377 1588.35 125.601 1588.35 166.049C1588.35 206.497 1566.38 226.721 1522.44 226.721H1468.03V105.377H1522.44ZM1508.38 197.619H1521.71C1538.63 197.619 1547.09 188.86 1547.09 171.34V160.758C1547.09 143.238 1538.63 134.478 1521.71 134.478H1508.38V197.619Z" fill="#0B0B0B"/>
<path d="M166.025 332.051C257.719 332.051 332.051 257.719 332.051 166.025C332.051 74.3321 257.719 0 166.025 0C74.3321 0 0 74.3321 0 166.025C0 257.719 74.3321 332.051 166.025 332.051Z" fill="#EB5643"/>
<path fill-rule="evenodd" clip-rule="evenodd" d="M187.469 181.068C195.339 203.498 189.613 229.392 170.911 246.249C146.024 268.681 107.587 266.615 85.0571 241.636C62.5273 216.657 64.4378 178.224 89.3243 155.793C108.58 138.436 135.949 135.746 157.784 146.988L242.102 70.9868L263.157 94.3304L252.982 103.502L262.193 113.714L252.019 122.886L242.807 112.673L235.539 119.224L244.751 129.437L224.401 147.779L215.189 137.566L197.747 153.288L206.958 163.501L187.469 181.068ZM157.735 176.127C171.545 191.438 170.374 214.992 155.12 228.741C139.866 242.49 116.309 241.225 102.5 225.914C88.6905 210.603 89.8614 187.049 105.115 173.3C120.369 159.551 143.926 160.817 157.735 176.127Z" fill="white"/>
</svg>
