<svg width="4000" height="4000" viewBox="0 0 4000 4000" fill="none" xmlns="http://www.w3.org/2000/svg">
<rect width="4000" height="4000" fill="black"/>
<path d="M1133.54 1532.52C1135.98 1544.76 1136.8 1557.81 1136.8 1570.04C1136.8 1583.91 1135.17 1596.96 1133.54 1610C1116.43 1729.9 1019.48 1823.69 899.73 1838.37H648V1494.19H762.052V1724.19H890.768C954.312 1714.4 1005.64 1665.47 1018.67 1602.66C1021.11 1592.06 1021.93 1581.46 1021.93 1570.04C1021.93 1560.25 1021.11 1549.65 1019.48 1539.86C1011.34 1502.35 990.972 1468.91 960.014 1446.07C941.277 1432.2 920.096 1422.42 897.286 1417.52C889.954 1415.89 881.807 1415.08 873.661 1414.26H648V1300.08L887.51 1300.89C945.351 1304.97 1001.56 1328.62 1045.55 1367.77C1093.62 1410.18 1124.58 1468.91 1133.54 1532.52Z" fill="white"/>
<path d="M1218.42 1300.08H1699.07V1414.26H1218.42V1300.08ZM1332.47 1608.37V1724.19H1699.07V1838.37H1218.42V1493.37L1332.47 1494.19H1651V1608.37H1332.47Z" fill="white"/>
<path d="M1971.95 1495.01H2272.56V1838.37H2037.13C1963.81 1838.37 1895.38 1811.46 1844.05 1760.89C1791.1 1710.32 1762.59 1642.63 1762.59 1570.04C1762.59 1497.45 1791.1 1429.76 1844.05 1378.38C1895.38 1328.62 1963.81 1300.89 2037.13 1300.89H2270.93V1415.08H2013.5C1934.48 1426.5 1875.01 1492.56 1875.01 1570.04C1875.01 1646.71 1934.48 1712.77 2013.5 1724.19H2157.7V1610H2024.91L2018.39 1596.96L1985.8 1526L1971.95 1495.01Z" fill="white"/>
<path d="M2353.69 1300.08H2834.34V1414.26H2353.69V1300.08ZM2467.74 1608.37V1724.19H2834.34V1838.37H2353.69V1493.37L2467.74 1494.19H2786.28V1608.37H2467.74Z" fill="white"/>
<path d="M2916.16 1838.37V1542.31L3030.21 1656.49V1838.37H2916.16ZM3237.95 1299.26H3352V1838.37H3324.3L2916.16 1429.76V1296H2943.86L3237.95 1589.61V1299.26Z" fill="white"/>
<path d="M936.217 2311.36C982.725 2311.36 1026.61 2336.9 1049.54 2377.52C1061.33 2397.17 1067.22 2419.44 1067.22 2442.36C1067.22 2465.29 1061.33 2487.56 1049.54 2507.87C1026.61 2548.48 982.725 2573.37 936.217 2573.37H805.864C748.221 2573.37 699.748 2534.72 684.682 2481.67C682.062 2471.19 680.752 2460.05 680.752 2448.26H770.492C770.492 2463.98 780.318 2477.08 794.074 2481.67H936.217C957.833 2481.67 974.864 2463.98 974.864 2442.36C974.864 2420.75 957.833 2403.06 936.217 2403.06H811.76C775.078 2403.06 740.36 2387.34 715.469 2361.14C708.919 2353.93 703.023 2346.07 697.783 2336.9C686.647 2317.25 680.752 2294.98 680.752 2272.05C680.752 2249.13 686.647 2226.86 697.783 2207.21C720.709 2165.94 764.597 2141.05 811.76 2141.05H944.078C1001.72 2141.05 1050.19 2179.69 1064.6 2232.75C1067.88 2243.23 1069.19 2254.37 1069.19 2266.16H979.45C979.45 2250.44 969.624 2237.34 955.213 2232.75H811.76C790.143 2232.75 772.457 2250.44 772.457 2272.05C772.457 2293.67 790.143 2311.36 811.76 2311.36H936.217ZM1498.46 2141.05H1590.17V2411.58C1590.17 2446.29 1577.72 2479.7 1554.14 2504.59C1545.62 2513.76 1536.45 2522.28 1525.97 2530.14C1487.98 2558.31 1443.44 2573.37 1395.62 2573.37C1347.8 2573.37 1302.6 2558.31 1265.27 2530.14C1254.79 2522.28 1245.62 2513.76 1236.44 2503.94C1213.52 2479.05 1201.07 2446.29 1201.07 2410.92V2141.05H1292.78V2378.17C1292.78 2433.19 1337.32 2480.36 1391.69 2481.67C1393 2481.67 1394.31 2481.67 1395.62 2481.67C1396.93 2481.67 1398.24 2481.67 1399.55 2481.67C1453.92 2480.36 1498.46 2433.85 1498.46 2378.17V2141.05ZM1722.03 2573.37V2335.59L1813.74 2427.3V2573.37H1722.03ZM2091.48 2137.77H2111.13V2573.37H2019.42V2339.52L1970.95 2388.65L1951.95 2406.99L1946.71 2412.23L1930.34 2429.26L1917.89 2441.05L1856.32 2379.48L1813.74 2336.9L1722.03 2245.2V2137.77H1744.3L1832.08 2225.55L1917.89 2311.36L2091.48 2137.77ZM2243.63 2573.37V2335.59L2335.34 2427.3V2573.37H2243.63ZM2613.08 2137.77H2632.73V2573.37H2541.02V2339.52L2492.55 2388.65L2473.55 2406.99L2468.31 2412.23L2451.94 2429.26L2439.49 2441.05L2377.92 2379.48L2335.34 2336.9L2243.63 2245.2V2137.77H2265.9L2353.68 2225.55L2439.49 2311.36L2613.08 2137.77ZM2765.23 2140.39H2856.94V2573.37H2765.23V2140.39ZM3225.22 2573.37H3133.52V2296.95H3225.22V2573.37ZM2988.1 2141.05H3377.85V2232.75H3225.22H3133.52H2988.1V2141.05Z" fill="white"/>
</svg>
