<svg id="svg" version="1.1" xmlns="http://www.w3.org/2000/svg" xmlns:xlink="http://www.w3.org/1999/xlink" width="400" height="403.0226700251889" viewBox="0, 0, 400,403.0226700251889"><g id="svgg"><path id="path0" d="M109.497 0.236 C 109.334 0.400,109.205 16.748,109.210 36.567 L 109.221 72.600 110.741 73.300 C 111.578 73.685,112.666 74.000,113.160 74.000 C 113.653 74.000,114.327 74.270,114.657 74.600 C 114.987 74.930,115.684 75.200,116.205 75.200 C 116.726 75.200,117.264 75.380,117.400 75.600 C 117.536 75.820,118.009 76.000,118.452 76.000 C 118.895 76.000,119.527 76.270,119.857 76.600 C 120.187 76.930,120.894 77.200,121.429 77.200 C 121.963 77.200,122.400 77.380,122.400 77.600 C 122.400 77.820,123.120 78.000,124.000 78.000 C 125.156 78.000,125.600 78.167,125.600 78.600 C 125.600 79.019,126.022 79.200,127.000 79.200 C 127.770 79.200,128.400 79.380,128.400 79.600 C 128.400 79.820,128.831 80.000,129.357 80.000 C 129.884 80.000,130.418 80.270,130.545 80.600 C 130.689 80.977,131.301 81.200,132.187 81.200 C 132.964 81.200,133.600 81.380,133.600 81.600 C 133.600 81.820,134.230 82.000,135.000 82.000 C 135.978 82.000,136.400 82.181,136.400 82.600 C 136.400 82.973,136.778 83.200,137.400 83.200 C 137.950 83.200,138.400 83.380,138.400 83.600 C 138.400 83.820,139.120 84.000,140.000 84.000 C 141.156 84.000,141.600 84.167,141.600 84.600 C 141.600 85.017,142.020 85.200,142.976 85.200 C 143.733 85.200,144.464 85.380,144.600 85.600 C 144.736 85.820,145.287 86.000,145.824 86.000 C 146.425 86.000,146.800 86.231,146.800 86.600 C 146.800 87.019,147.222 87.200,148.200 87.200 C 148.970 87.200,149.600 87.380,149.600 87.600 C 149.600 87.820,150.320 88.000,151.200 88.000 C 152.356 88.000,152.800 88.167,152.800 88.600 C 152.800 88.973,153.178 89.200,153.800 89.200 C 154.350 89.200,154.800 89.380,154.800 89.600 C 154.800 89.820,155.430 90.000,156.200 90.000 C 157.178 90.000,157.600 90.181,157.600 90.600 C 157.600 91.033,158.044 91.200,159.200 91.200 C 160.080 91.200,160.800 91.380,160.800 91.600 C 160.800 91.820,161.250 92.000,161.800 92.000 C 162.422 92.000,162.800 92.227,162.800 92.600 C 162.800 93.019,163.222 93.200,164.200 93.200 C 164.970 93.200,165.600 93.380,165.600 93.600 C 165.600 93.820,166.320 94.000,167.200 94.000 C 168.356 94.000,168.800 94.167,168.800 94.600 C 168.800 94.973,169.178 95.200,169.800 95.200 C 170.350 95.200,170.800 95.380,170.800 95.600 C 170.800 95.820,171.520 96.000,172.400 96.000 C 173.556 96.000,174.000 96.167,174.000 96.600 C 174.000 97.019,174.422 97.200,175.400 97.200 C 176.170 97.200,176.800 97.380,176.800 97.600 C 176.800 97.820,177.340 98.000,178.000 98.000 C 178.747 98.000,179.162 98.189,179.100 98.500 C 179.037 98.813,179.562 99.047,180.500 99.124 C 181.325 99.192,182.000 99.417,182.000 99.624 C 182.000 99.831,182.630 100.000,183.400 100.000 C 184.378 100.000,184.800 100.181,184.800 100.600 C 184.800 100.973,185.178 101.200,185.800 101.200 C 186.350 101.200,186.800 101.378,186.800 101.595 C 186.800 101.813,187.520 102.106,188.400 102.246 C 189.280 102.387,190.000 102.659,190.000 102.851 C 190.000 103.043,190.611 103.200,191.357 103.200 C 192.195 103.200,192.803 103.430,192.945 103.800 C 193.071 104.130,193.631 104.400,194.187 104.400 C 194.744 104.400,195.200 104.580,195.200 104.800 C 195.200 105.020,195.830 105.200,196.600 105.200 C 197.578 105.200,198.000 105.381,198.000 105.800 C 198.000 106.233,198.444 106.400,199.600 106.400 C 200.480 106.400,201.200 106.580,201.200 106.800 C 201.200 107.020,201.631 107.200,202.157 107.200 C 202.684 107.200,203.218 107.470,203.345 107.800 C 203.479 108.151,204.079 108.400,204.787 108.400 C 205.454 108.400,206.000 108.580,206.000 108.800 C 206.000 109.020,206.720 109.200,207.600 109.200 C 208.756 109.200,209.200 109.367,209.200 109.800 C 209.200 110.173,209.578 110.400,210.200 110.400 C 210.750 110.400,211.200 110.580,211.200 110.800 C 211.200 111.020,211.811 111.200,212.557 111.200 C 213.395 111.200,214.003 111.430,214.145 111.800 C 214.289 112.177,214.901 112.400,215.787 112.400 C 216.564 112.400,217.200 112.580,217.200 112.800 C 217.200 113.020,217.631 113.200,218.157 113.200 C 218.684 113.200,219.218 113.470,219.345 113.800 C 219.479 114.151,220.079 114.400,220.787 114.400 C 221.454 114.400,222.000 114.580,222.000 114.800 C 222.000 115.020,222.720 115.200,223.600 115.200 C 224.756 115.200,225.200 115.367,225.200 115.800 C 225.200 116.173,225.578 116.400,226.200 116.400 C 226.750 116.400,227.200 116.580,227.200 116.800 C 227.200 117.020,227.920 117.200,228.800 117.200 C 229.956 117.200,230.400 117.367,230.400 117.800 C 230.400 118.219,230.822 118.400,231.800 118.400 C 232.570 118.400,233.200 118.580,233.200 118.800 C 233.200 119.020,233.631 119.200,234.157 119.200 C 234.684 119.200,235.218 119.470,235.345 119.800 C 235.489 120.177,236.101 120.400,236.987 120.400 C 237.764 120.400,238.400 120.580,238.400 120.800 C 238.400 121.020,239.030 121.200,239.800 121.200 C 240.778 121.200,241.200 121.381,241.200 121.800 C 241.200 122.169,241.575 122.400,242.176 122.400 C 242.713 122.400,243.264 122.580,243.400 122.800 C 243.536 123.020,244.267 123.200,245.024 123.200 C 245.980 123.200,246.400 123.383,246.400 123.800 C 246.400 124.219,246.822 124.400,247.800 124.400 C 248.570 124.400,249.200 124.580,249.200 124.800 C 249.200 125.020,249.740 125.200,250.400 125.200 C 251.200 125.200,251.600 125.400,251.600 125.800 C 251.600 126.219,252.022 126.400,253.000 126.400 C 253.770 126.400,254.400 126.580,254.400 126.800 C 254.400 127.020,255.120 127.200,256.000 127.200 C 257.216 127.200,257.600 127.357,257.600 127.856 C 257.600 129.081,262.074 128.331,264.533 126.693 C 268.238 124.226,274.610 118.230,277.811 114.200 C 278.685 113.100,279.511 112.110,279.647 112.000 C 280.746 111.109,284.868 103.588,285.992 100.422 C 287.793 95.351,288.108 93.504,288.146 87.800 C 288.182 82.357,288.041 81.341,286.530 76.200 C 285.350 72.182,282.705 66.937,279.890 63.034 C 278.793 61.513,277.771 59.803,277.619 59.234 C 277.467 58.666,276.995 58.135,276.571 58.055 C 276.147 57.976,275.656 57.661,275.480 57.355 C 275.304 57.050,274.539 56.800,273.780 56.800 C 273.021 56.800,272.400 56.620,272.400 56.400 C 272.400 56.180,271.789 56.000,271.043 56.000 C 270.205 56.000,269.597 55.770,269.455 55.400 C 269.311 55.023,268.699 54.800,267.813 54.800 C 267.036 54.800,266.400 54.620,266.400 54.400 C 266.400 54.180,265.789 54.000,265.043 54.000 C 264.205 54.000,263.597 53.770,263.455 53.400 C 263.311 53.023,262.699 52.800,261.813 52.800 C 261.036 52.800,260.400 52.620,260.400 52.400 C 260.400 52.180,259.950 52.000,259.400 52.000 C 258.778 52.000,258.400 51.773,258.400 51.400 C 258.400 50.967,257.956 50.800,256.800 50.800 C 255.920 50.800,255.200 50.620,255.200 50.400 C 255.200 50.180,254.570 50.000,253.800 50.000 C 252.822 50.000,252.400 49.819,252.400 49.400 C 252.400 48.967,251.956 48.800,250.800 48.800 C 249.920 48.800,249.200 48.620,249.200 48.400 C 249.200 48.180,248.570 48.000,247.800 48.000 C 246.822 48.000,246.400 47.819,246.400 47.400 C 246.400 46.967,245.956 46.800,244.800 46.800 C 243.920 46.800,243.200 46.620,243.200 46.400 C 243.200 46.180,242.570 46.000,241.800 46.000 C 240.822 46.000,240.400 45.819,240.400 45.400 C 240.400 45.027,240.022 44.800,239.400 44.800 C 238.850 44.800,238.400 44.620,238.400 44.400 C 238.400 44.180,237.680 44.000,236.800 44.000 C 235.644 44.000,235.200 43.833,235.200 43.400 C 235.200 42.981,234.778 42.800,233.800 42.800 C 233.030 42.800,232.400 42.626,232.400 42.414 C 232.400 42.201,231.496 41.908,230.391 41.761 C 229.286 41.614,228.285 41.338,228.167 41.147 C 228.049 40.956,227.591 40.800,227.148 40.800 C 226.705 40.800,226.073 40.530,225.743 40.200 C 225.413 39.870,224.706 39.600,224.171 39.600 C 223.637 39.600,223.200 39.420,223.200 39.200 C 223.200 38.980,222.499 38.800,221.643 38.800 C 220.628 38.800,220.005 38.591,219.855 38.200 C 219.721 37.849,219.121 37.600,218.413 37.600 C 217.746 37.600,217.200 37.420,217.200 37.200 C 217.200 36.980,216.480 36.800,215.600 36.800 C 214.444 36.800,214.000 36.633,214.000 36.200 C 214.000 35.827,213.622 35.600,213.000 35.600 C 212.450 35.600,212.000 35.420,212.000 35.200 C 212.000 34.980,211.392 34.800,210.649 34.800 C 209.906 34.800,209.107 34.570,208.874 34.289 C 208.641 34.008,207.944 33.737,207.325 33.686 C 206.706 33.635,206.140 33.415,206.067 33.197 C 205.993 32.978,205.338 32.800,204.609 32.800 C 203.802 32.800,203.196 32.566,203.055 32.200 C 202.911 31.823,202.299 31.600,201.413 31.600 C 200.636 31.600,200.000 31.420,200.000 31.200 C 200.000 30.980,199.280 30.800,198.400 30.800 C 197.244 30.800,196.800 30.633,196.800 30.200 C 196.800 29.827,196.422 29.600,195.800 29.600 C 195.250 29.600,194.800 29.420,194.800 29.200 C 194.800 28.980,194.189 28.800,193.443 28.800 C 192.605 28.800,191.997 28.570,191.855 28.200 C 191.711 27.823,191.099 27.600,190.213 27.600 C 189.436 27.600,188.800 27.420,188.800 27.200 C 188.800 26.980,188.170 26.800,187.400 26.800 C 186.422 26.800,186.000 26.619,186.000 26.200 C 186.000 25.767,185.556 25.600,184.400 25.600 C 183.520 25.600,182.800 25.420,182.800 25.200 C 182.800 24.980,182.189 24.800,181.443 24.800 C 180.605 24.800,179.997 24.570,179.855 24.200 C 179.729 23.870,179.169 23.600,178.613 23.600 C 178.056 23.600,177.600 23.420,177.600 23.200 C 177.600 22.980,176.970 22.800,176.200 22.800 C 175.298 22.800,174.800 22.610,174.800 22.265 C 174.800 21.923,174.258 21.709,173.303 21.673 C 172.479 21.642,171.744 21.433,171.670 21.209 C 171.595 20.984,170.918 20.800,170.167 20.800 C 169.219 20.800,168.800 20.616,168.800 20.200 C 168.800 19.767,168.356 19.600,167.200 19.600 C 166.320 19.600,165.600 19.420,165.600 19.200 C 165.600 18.980,164.970 18.800,164.200 18.800 C 163.222 18.800,162.800 18.619,162.800 18.200 C 162.800 17.827,162.422 17.600,161.800 17.600 C 161.250 17.600,160.800 17.420,160.800 17.200 C 160.800 16.980,160.080 16.800,159.200 16.800 C 158.044 16.800,157.600 16.633,157.600 16.200 C 157.600 15.781,157.178 15.600,156.200 15.600 C 155.430 15.600,154.800 15.420,154.800 15.200 C 154.800 14.980,154.080 14.800,153.200 14.800 C 152.044 14.800,151.600 14.633,151.600 14.200 C 151.600 13.797,151.197 13.600,150.371 13.600 C 149.696 13.600,148.873 13.330,148.543 13.000 C 148.213 12.670,147.416 12.400,146.771 12.400 C 146.127 12.400,145.600 12.220,145.600 12.000 C 145.600 11.780,145.150 11.600,144.600 11.600 C 144.050 11.600,143.600 11.422,143.600 11.205 C 143.600 10.987,142.880 10.694,142.000 10.554 C 141.120 10.413,140.400 10.141,140.400 9.949 C 140.400 9.757,139.789 9.600,139.043 9.600 C 138.275 9.600,137.596 9.366,137.479 9.062 C 137.366 8.766,136.675 8.507,135.944 8.486 C 135.214 8.465,134.552 8.257,134.475 8.024 C 134.397 7.791,133.738 7.600,133.009 7.600 C 132.202 7.600,131.596 7.366,131.455 7.000 C 131.311 6.623,130.699 6.400,129.813 6.400 C 129.036 6.400,128.400 6.220,128.400 6.000 C 128.400 5.780,127.969 5.600,127.443 5.600 C 126.916 5.600,126.382 5.330,126.255 5.000 C 126.122 4.653,125.524 4.400,124.836 4.400 C 124.182 4.400,123.536 4.220,123.400 4.000 C 123.264 3.780,122.533 3.600,121.776 3.600 C 120.820 3.600,120.400 3.417,120.400 3.000 C 120.400 2.567,119.956 2.400,118.800 2.400 C 117.920 2.400,117.200 2.220,117.200 2.000 C 117.200 1.780,116.570 1.600,115.800 1.600 C 114.822 1.600,114.400 1.419,114.400 1.000 C 114.400 0.606,114.006 0.400,113.250 0.400 C 112.618 0.400,111.581 0.296,110.947 0.169 C 110.313 0.043,109.661 0.073,109.497 0.236 " stroke="none" fill="#1f459a" fill-rule="evenodd"></path><path id="path1" d="M359.200 61.422 C 359.200 61.883,358.471 62.000,355.600 62.000 C 353.467 62.000,352.000 62.163,352.000 62.400 C 352.000 62.622,350.933 62.800,349.600 62.800 C 347.733 62.800,347.200 62.933,347.200 63.400 C 347.200 63.872,346.644 64.000,344.600 64.000 C 343.133 64.000,342.000 64.174,342.000 64.400 C 342.000 64.620,341.184 64.800,340.187 64.800 C 338.945 64.800,338.302 64.989,338.145 65.400 C 337.983 65.820,337.328 66.000,335.957 66.000 C 334.881 66.000,334.000 66.180,334.000 66.400 C 334.000 66.620,333.389 66.800,332.643 66.800 C 331.805 66.800,331.197 67.030,331.055 67.400 C 330.898 67.811,330.255 68.000,329.013 68.000 C 328.016 68.000,327.200 68.180,327.200 68.400 C 327.200 68.620,326.673 68.800,326.029 68.800 C 325.384 68.800,324.587 69.070,324.257 69.400 C 323.927 69.730,323.034 70.000,322.271 70.000 C 321.409 70.000,320.799 70.226,320.655 70.600 C 320.529 70.930,320.059 71.200,319.613 71.200 C 318.296 71.200,318.572 72.654,319.941 72.928 C 321.244 73.189,322.800 72.876,322.800 72.353 C 322.800 72.159,323.520 72.000,324.400 72.000 C 325.556 72.000,326.000 71.833,326.000 71.400 C 326.000 70.947,326.489 70.800,328.000 70.800 C 329.100 70.800,330.000 70.620,330.000 70.400 C 330.000 70.180,330.630 70.000,331.400 70.000 C 332.378 70.000,332.800 69.819,332.800 69.400 C 332.800 68.939,333.311 68.800,335.000 68.800 C 336.210 68.800,337.200 68.620,337.200 68.400 C 337.200 68.178,338.267 68.000,339.600 68.000 C 341.467 68.000,342.000 67.867,342.000 67.400 C 342.000 66.928,342.556 66.800,344.600 66.800 C 346.067 66.800,347.200 66.626,347.200 66.400 C 347.200 66.169,348.467 66.000,350.200 66.000 C 352.600 66.000,353.200 65.880,353.200 65.400 C 353.200 64.884,354.467 64.800,362.200 64.800 C 369.933 64.800,371.200 64.884,371.200 65.400 C 371.200 65.853,371.689 66.000,373.200 66.000 C 374.300 66.000,375.200 66.180,375.200 66.400 C 375.200 66.620,375.631 66.800,376.157 66.800 C 376.684 66.800,377.218 67.070,377.345 67.400 C 377.471 67.730,377.941 68.000,378.387 68.000 C 378.834 68.000,379.200 68.180,379.200 68.400 C 379.200 68.620,379.470 68.800,379.800 68.800 C 380.130 68.800,380.400 69.070,380.400 69.400 C 380.400 69.740,380.759 70.000,381.229 70.000 C 382.216 70.000,383.200 70.890,383.200 71.784 C 383.200 72.137,383.470 72.529,383.800 72.655 C 384.130 72.782,384.400 73.316,384.400 73.843 C 384.400 74.369,384.557 74.800,384.749 74.800 C 384.941 74.800,385.213 75.520,385.354 76.400 C 385.494 77.280,385.787 78.000,386.005 78.000 C 386.663 78.000,386.484 82.773,385.800 83.457 C 385.470 83.787,385.200 84.764,385.200 85.629 C 385.200 86.493,385.020 87.200,384.800 87.200 C 384.580 87.200,384.400 87.830,384.400 88.600 C 384.400 89.370,384.222 90.000,384.005 90.000 C 383.787 90.000,383.494 90.720,383.354 91.600 C 383.213 92.480,382.941 93.200,382.749 93.200 C 382.557 93.200,382.400 93.573,382.400 94.029 C 382.400 94.484,382.128 95.129,381.796 95.461 C 381.464 95.793,381.296 96.231,381.422 96.435 C 381.548 96.639,381.369 96.914,381.025 97.046 C 380.681 97.178,380.400 97.697,380.400 98.200 C 380.400 98.703,380.130 99.218,379.800 99.345 C 379.470 99.471,379.200 99.941,379.200 100.387 C 379.200 100.834,379.020 101.200,378.800 101.200 C 378.580 101.200,378.400 101.650,378.400 102.200 C 378.400 102.822,378.173 103.200,377.800 103.200 C 377.427 103.200,377.200 103.578,377.200 104.200 C 377.200 104.750,377.020 105.200,376.800 105.200 C 376.580 105.200,376.400 105.470,376.400 105.800 C 376.400 106.130,376.130 106.400,375.800 106.400 C 375.443 106.400,375.200 106.767,375.200 107.305 C 375.200 107.804,374.751 108.547,374.200 108.961 C 373.650 109.374,373.200 110.047,373.200 110.456 C 373.200 110.865,373.020 111.200,372.800 111.200 C 372.580 111.200,372.400 111.470,372.400 111.800 C 372.400 112.130,372.130 112.400,371.800 112.400 C 371.460 112.400,371.200 112.759,371.200 113.229 C 371.200 114.114,370.334 115.200,369.629 115.200 C 369.393 115.200,369.200 115.470,369.200 115.800 C 369.200 116.130,369.020 116.400,368.800 116.400 C 368.580 116.400,368.400 116.850,368.400 117.400 C 368.400 118.022,368.173 118.400,367.800 118.400 C 367.470 118.400,367.200 118.681,367.200 119.024 C 367.200 119.367,367.020 119.536,366.800 119.400 C 366.580 119.264,366.400 119.433,366.400 119.776 C 366.400 120.119,366.130 120.400,365.800 120.400 C 365.460 120.400,365.200 120.759,365.200 121.229 C 365.200 122.114,364.334 123.200,363.629 123.200 C 363.393 123.200,363.200 123.470,363.200 123.800 C 363.200 124.130,363.020 124.400,362.800 124.400 C 362.580 124.400,362.400 124.670,362.400 125.000 C 362.400 125.330,362.207 125.600,361.971 125.600 C 361.266 125.600,360.400 126.686,360.400 127.571 C 360.400 128.041,360.140 128.400,359.800 128.400 C 359.470 128.400,359.200 128.640,359.200 128.932 C 359.200 129.225,358.750 129.706,358.200 130.000 C 357.650 130.294,357.200 130.744,357.200 131.000 C 357.200 131.256,356.750 131.706,356.200 132.000 C 355.650 132.294,355.200 132.744,355.200 133.000 C 355.200 133.256,354.750 133.706,354.200 134.000 C 353.572 134.336,353.200 134.882,353.200 135.468 C 353.200 136.030,352.962 136.400,352.600 136.400 C 352.270 136.400,352.000 136.593,352.000 136.829 C 352.000 137.382,350.982 138.400,350.429 138.400 C 350.193 138.400,350.000 138.593,350.000 138.829 C 350.000 139.382,348.982 140.400,348.429 140.400 C 348.193 140.400,348.000 140.593,348.000 140.829 C 348.000 141.382,346.982 142.400,346.429 142.400 C 346.193 142.400,346.000 142.593,346.000 142.829 C 346.000 143.382,344.982 144.400,344.429 144.400 C 344.193 144.400,344.000 144.593,344.000 144.829 C 344.000 145.382,342.982 146.400,342.429 146.400 C 342.193 146.400,342.000 146.592,342.000 146.827 C 342.000 147.062,341.370 147.848,340.600 148.574 C 339.830 149.300,339.200 150.128,339.200 150.414 C 339.200 150.700,339.093 150.826,338.962 150.696 C 338.832 150.565,336.672 152.515,334.162 155.029 C 331.653 157.543,329.420 159.600,329.200 159.600 C 328.980 159.600,328.800 159.793,328.800 160.029 C 328.800 160.582,327.782 161.600,327.229 161.600 C 326.993 161.600,326.800 161.793,326.800 162.029 C 326.800 162.582,325.782 163.600,325.229 163.600 C 324.993 163.600,324.800 163.870,324.800 164.200 C 324.800 164.530,324.485 164.806,324.100 164.813 C 323.278 164.828,322.000 165.719,322.000 166.277 C 322.000 166.490,321.550 166.906,321.000 167.200 C 320.450 167.494,320.000 167.975,320.000 168.268 C 320.000 168.560,319.807 168.800,319.571 168.800 C 319.018 168.800,318.000 169.818,318.000 170.371 C 318.000 170.607,317.807 170.800,317.571 170.800 C 317.018 170.800,316.000 171.818,316.000 172.371 C 316.000 172.607,315.616 172.800,315.147 172.800 C 314.678 172.800,313.700 173.430,312.974 174.200 C 312.248 174.970,311.462 175.600,311.227 175.600 C 310.992 175.600,310.800 175.793,310.800 176.029 C 310.800 176.582,309.782 177.600,309.229 177.600 C 308.993 177.600,308.800 177.793,308.800 178.029 C 308.800 178.671,307.745 179.600,307.016 179.600 C 306.663 179.600,306.271 179.870,306.145 180.200 C 306.018 180.530,305.736 180.800,305.518 180.800 C 305.299 180.800,304.239 181.700,303.162 182.800 C 302.085 183.900,301.014 184.800,300.783 184.800 C 300.551 184.800,299.945 185.250,299.435 185.800 C 298.925 186.350,298.293 186.800,298.031 186.800 C 297.768 186.800,297.644 186.948,297.756 187.129 C 297.983 187.496,296.610 188.800,295.995 188.800 C 295.778 188.800,295.600 189.070,295.600 189.400 C 295.600 189.740,295.241 190.000,294.771 190.000 C 293.886 190.000,292.800 190.866,292.800 191.571 C 292.800 191.807,292.607 192.000,292.371 192.000 C 291.818 192.000,290.800 193.018,290.800 193.571 C 290.800 193.807,290.350 194.000,289.800 194.000 C 289.250 194.000,288.800 194.180,288.800 194.400 C 288.800 194.620,288.530 194.800,288.200 194.800 C 287.870 194.800,287.600 194.993,287.600 195.229 C 287.600 195.782,286.582 196.800,286.029 196.800 C 285.793 196.800,285.600 197.070,285.600 197.400 C 285.600 197.740,285.241 198.000,284.771 198.000 C 283.886 198.000,282.800 198.866,282.800 199.571 C 282.800 199.807,282.530 200.000,282.200 200.000 C 281.870 200.000,281.600 200.180,281.600 200.400 C 281.600 200.620,281.265 200.800,280.856 200.800 C 280.447 200.800,279.774 201.250,279.361 201.800 C 278.948 202.350,278.383 202.800,278.105 202.800 C 277.827 202.800,277.600 203.070,277.600 203.400 C 277.600 203.730,277.330 204.000,277.000 204.000 C 276.670 204.000,276.400 204.180,276.400 204.400 C 276.400 204.620,276.102 204.800,275.738 204.800 C 275.374 204.800,274.391 205.520,273.554 206.400 C 272.717 207.280,271.665 208.000,271.216 208.000 C 270.744 208.000,270.400 208.263,270.400 208.624 C 270.400 208.967,270.220 209.136,270.000 209.000 C 269.780 208.864,269.600 209.033,269.600 209.376 C 269.600 209.719,269.330 210.000,269.000 210.000 C 268.670 210.000,268.400 210.180,268.400 210.400 C 268.400 210.620,268.102 210.800,267.738 210.800 C 267.374 210.800,266.391 211.520,265.554 212.400 C 264.717 213.280,263.665 214.000,263.216 214.000 C 262.767 214.000,262.400 214.193,262.400 214.429 C 262.400 215.134,261.314 216.000,260.429 216.000 C 259.959 216.000,259.600 216.260,259.600 216.600 C 259.600 216.930,259.407 217.200,259.171 217.200 C 258.618 217.200,257.600 218.218,257.600 218.771 C 257.600 219.007,257.150 219.200,256.600 219.200 C 256.050 219.200,255.600 219.380,255.600 219.600 C 255.600 219.820,255.330 220.000,255.000 220.000 C 254.670 220.000,254.400 220.270,254.400 220.600 C 254.400 220.940,254.041 221.200,253.573 221.200 C 253.118 221.200,252.152 221.830,251.426 222.600 C 250.700 223.370,249.722 224.000,249.253 224.000 C 248.761 224.000,248.400 224.254,248.400 224.600 C 248.400 224.930,248.119 225.200,247.776 225.200 C 247.433 225.200,247.264 225.380,247.400 225.600 C 247.536 225.820,247.268 226.000,246.805 226.000 C 246.341 226.000,245.545 226.450,245.035 227.000 C 244.525 227.550,243.724 228.000,243.254 228.000 C 242.762 228.000,242.400 228.254,242.400 228.600 C 242.400 228.930,242.207 229.200,241.971 229.200 C 241.736 229.200,241.286 229.457,240.971 229.771 C 240.657 230.086,240.400 230.536,240.400 230.771 C 240.400 231.007,239.965 231.200,239.433 231.200 C 238.709 231.200,238.285 231.579,237.745 232.708 C 237.004 234.260,235.791 235.191,227.096 240.880 C 217.257 247.318,206.469 254.267,205.318 254.908 C 204.833 255.179,201.366 257.335,197.615 259.700 C 193.863 262.065,190.701 264.000,190.587 264.000 C 190.473 264.000,189.240 264.720,187.847 265.600 C 186.454 266.480,185.108 267.200,184.857 267.200 C 184.606 267.200,184.400 267.359,184.400 267.553 C 184.400 267.748,184.085 268.008,183.700 268.132 C 183.315 268.256,182.100 268.905,181.000 269.573 C 179.900 270.242,178.730 270.911,178.400 271.060 C 178.070 271.209,177.350 271.635,176.800 272.008 C 176.250 272.381,174.810 273.232,173.600 273.899 C 172.390 274.566,170.410 275.671,169.200 276.353 C 167.990 277.036,166.190 278.000,165.200 278.497 C 164.210 278.993,163.310 279.490,163.200 279.600 C 163.090 279.710,162.190 280.206,161.200 280.702 C 160.210 281.198,157.240 282.765,154.600 284.184 C 149.831 286.748,131.376 296.002,126.400 298.325 C 116.519 302.938,115.833 303.183,115.467 302.230 C 115.159 301.429,114.400 301.408,114.400 302.200 C 114.400 302.573,114.022 302.800,113.400 302.800 C 112.850 302.800,112.400 302.980,112.400 303.200 C 112.400 303.420,111.950 303.600,111.400 303.600 C 110.778 303.600,110.400 303.827,110.400 304.200 C 110.400 304.633,109.956 304.800,108.800 304.800 C 107.920 304.800,107.200 304.980,107.200 305.200 C 107.200 305.420,106.750 305.600,106.200 305.600 C 105.578 305.600,105.200 305.827,105.200 306.200 C 105.200 306.573,104.822 306.800,104.200 306.800 C 103.650 306.800,103.200 306.980,103.200 307.200 C 103.200 307.420,102.570 307.600,101.800 307.600 C 100.822 307.600,100.400 307.781,100.400 308.200 C 100.400 308.573,100.022 308.800,99.400 308.800 C 98.850 308.800,98.400 308.980,98.400 309.200 C 98.400 309.420,97.680 309.600,96.800 309.600 C 95.644 309.600,95.200 309.767,95.200 310.200 C 95.200 310.573,94.822 310.800,94.200 310.800 C 93.650 310.800,93.200 310.980,93.200 311.200 C 93.200 311.420,92.564 311.600,91.787 311.600 C 90.901 311.600,90.289 311.823,90.145 312.200 C 90.003 312.570,89.395 312.800,88.557 312.800 C 87.811 312.800,87.200 312.980,87.200 313.200 C 87.200 313.420,86.750 313.600,86.200 313.600 C 85.578 313.600,85.200 313.827,85.200 314.200 C 85.200 314.631,84.759 314.800,83.633 314.800 C 82.772 314.800,82.007 314.974,81.933 315.187 C 81.860 315.400,81.215 315.619,80.500 315.672 C 79.757 315.728,79.200 315.991,79.200 316.285 C 79.200 316.619,78.638 316.800,77.600 316.800 C 76.720 316.800,76.000 316.980,76.000 317.200 C 76.000 317.420,75.370 317.600,74.600 317.600 C 73.622 317.600,73.200 317.781,73.200 318.200 C 73.200 318.653,72.711 318.800,71.200 318.800 C 70.100 318.800,69.200 318.980,69.200 319.200 C 69.200 319.420,68.480 319.600,67.600 319.600 C 66.444 319.600,66.000 319.767,66.000 320.200 C 66.000 320.653,65.511 320.800,64.000 320.800 C 62.900 320.800,62.000 320.980,62.000 321.200 C 62.000 321.420,61.364 321.600,60.587 321.600 C 59.701 321.600,59.089 321.823,58.945 322.200 C 58.776 322.639,58.084 322.800,56.357 322.800 C 55.052 322.800,54.000 322.979,54.000 323.200 C 54.000 323.420,53.023 323.600,51.829 323.600 C 50.432 323.600,49.443 323.814,49.057 324.200 C 48.638 324.619,47.613 324.800,45.662 324.800 C 44.125 324.800,42.807 324.978,42.733 325.197 C 42.545 325.756,23.860 325.779,23.673 325.220 C 23.596 324.989,22.648 324.800,21.567 324.800 C 20.085 324.800,19.600 324.652,19.600 324.200 C 19.600 323.827,19.222 323.600,18.600 323.600 C 18.050 323.600,17.600 323.420,17.600 323.200 C 17.600 322.980,17.150 322.800,16.600 322.800 C 15.978 322.800,15.600 322.573,15.600 322.200 C 15.600 321.870,15.407 321.600,15.171 321.600 C 14.618 321.600,13.600 320.582,13.600 320.029 C 13.600 319.793,13.407 319.600,13.171 319.600 C 12.466 319.600,11.600 318.514,11.600 317.629 C 11.600 317.159,11.340 316.800,11.000 316.800 C 10.627 316.800,10.400 316.422,10.400 315.800 C 10.400 315.250,10.220 314.800,10.000 314.800 C 9.757 314.800,9.600 313.000,9.600 310.200 C 9.600 307.400,9.757 305.600,10.000 305.600 C 10.220 305.600,10.400 304.700,10.400 303.600 C 10.400 302.089,10.547 301.600,11.000 301.600 C 11.373 301.600,11.600 301.222,11.600 300.600 C 11.600 300.050,11.780 299.600,12.000 299.600 C 12.220 299.600,12.400 298.880,12.400 298.000 C 12.400 296.844,12.567 296.400,13.000 296.400 C 13.373 296.400,13.600 296.022,13.600 295.400 C 13.600 294.850,13.760 294.400,13.957 294.400 C 14.153 294.400,14.426 293.950,14.564 293.400 C 14.702 292.850,14.992 292.400,15.208 292.400 C 15.423 292.400,15.600 291.969,15.600 291.443 C 15.600 290.916,15.870 290.382,16.200 290.255 C 16.530 290.129,16.800 289.659,16.800 289.213 C 16.800 288.766,16.980 288.400,17.200 288.400 C 17.420 288.400,17.600 287.950,17.600 287.400 C 17.600 286.850,17.793 286.400,18.029 286.400 C 18.673 286.400,19.600 285.344,19.600 284.609 C 19.600 284.253,20.050 283.545,20.600 283.035 C 21.150 282.525,21.600 281.724,21.600 281.254 C 21.600 280.762,21.854 280.400,22.200 280.400 C 22.530 280.400,22.800 280.130,22.800 279.800 C 22.800 279.470,22.980 279.200,23.200 279.200 C 23.420 279.200,23.600 278.921,23.600 278.581 C 23.600 278.240,24.050 277.545,24.600 277.035 C 25.150 276.525,25.600 275.904,25.600 275.654 C 25.600 275.404,25.870 275.200,26.200 275.200 C 26.540 275.200,26.800 274.841,26.800 274.371 C 26.800 273.486,27.666 272.400,28.371 272.400 C 28.607 272.400,28.800 272.130,28.800 271.800 C 28.800 271.470,28.980 271.200,29.200 271.200 C 29.420 271.200,29.600 270.750,29.600 270.200 C 29.600 269.634,29.831 269.200,30.132 269.200 C 30.425 269.200,30.906 268.750,31.200 268.200 C 31.494 267.650,31.898 267.200,32.096 267.200 C 32.743 267.200,33.600 266.077,33.600 265.229 C 33.600 264.759,33.860 264.400,34.200 264.400 C 34.530 264.400,34.800 264.207,34.800 263.971 C 34.800 263.418,35.818 262.400,36.371 262.400 C 36.607 262.400,36.800 262.208,36.800 261.973 C 36.800 261.738,37.430 260.952,38.200 260.226 C 38.970 259.500,39.600 258.522,39.600 258.053 C 39.600 257.584,39.790 257.200,40.023 257.200 C 40.576 257.200,48.800 248.976,48.800 248.423 C 48.800 248.190,48.993 248.000,49.229 248.000 C 49.782 248.000,50.800 246.982,50.800 246.429 C 50.800 246.193,50.993 246.000,51.229 246.000 C 51.782 246.000,52.800 244.982,52.800 244.429 C 52.800 244.193,52.993 244.000,53.229 244.000 C 54.083 244.000,54.800 242.826,54.800 241.429 C 54.800 240.063,54.739 240.000,53.400 240.000 C 52.630 240.000,52.000 240.166,52.000 240.369 C 52.000 240.850,49.650 243.200,49.169 243.200 C 48.966 243.200,48.800 243.393,48.800 243.629 C 48.800 244.182,47.782 245.200,47.229 245.200 C 46.993 245.200,46.800 245.393,46.800 245.629 C 46.800 246.182,45.782 247.200,45.229 247.200 C 44.993 247.200,44.800 247.393,44.800 247.629 C 44.800 248.182,43.782 249.200,43.229 249.200 C 42.993 249.200,42.800 249.393,42.800 249.629 C 42.800 250.182,41.782 251.200,41.229 251.200 C 40.993 251.200,40.800 251.390,40.800 251.623 C 40.800 251.855,39.900 252.908,38.800 253.963 C 37.700 255.017,36.800 256.177,36.800 256.540 C 36.800 256.903,36.530 257.200,36.200 257.200 C 35.870 257.200,35.600 257.384,35.600 257.610 C 35.600 257.835,34.250 259.343,32.600 260.962 C 30.950 262.580,29.600 264.195,29.600 264.552 C 29.600 264.908,29.420 265.200,29.200 265.200 C 28.980 265.200,28.800 265.470,28.800 265.800 C 28.800 266.130,28.607 266.400,28.371 266.400 C 27.818 266.400,26.800 267.418,26.800 267.971 C 26.800 268.207,26.530 268.400,26.200 268.400 C 25.870 268.400,25.600 268.670,25.600 269.000 C 25.600 269.330,25.420 269.600,25.200 269.600 C 24.980 269.600,24.800 269.879,24.800 270.219 C 24.800 270.560,24.350 271.255,23.800 271.765 C 23.250 272.275,22.800 272.896,22.800 273.146 C 22.800 273.396,22.607 273.600,22.371 273.600 C 21.666 273.600,20.800 274.686,20.800 275.571 C 20.800 276.041,20.540 276.400,20.200 276.400 C 19.870 276.400,19.600 276.627,19.600 276.905 C 19.600 277.183,19.150 277.748,18.600 278.161 C 18.050 278.574,17.600 279.247,17.600 279.656 C 17.600 280.065,17.420 280.400,17.200 280.400 C 16.980 280.400,16.800 280.670,16.800 281.000 C 16.800 281.330,16.530 281.600,16.200 281.600 C 15.860 281.600,15.600 281.959,15.600 282.429 C 15.600 283.314,14.734 284.400,14.029 284.400 C 13.793 284.400,13.600 284.850,13.600 285.400 C 13.600 285.950,13.420 286.400,13.200 286.400 C 12.980 286.400,12.800 286.670,12.800 287.000 C 12.800 287.330,12.530 287.600,12.200 287.600 C 11.827 287.600,11.600 287.978,11.600 288.600 C 11.600 289.150,11.407 289.600,11.171 289.600 C 10.408 289.600,9.600 290.717,9.600 291.771 C 9.600 292.371,9.396 292.758,9.109 292.700 C 8.840 292.645,8.557 293.005,8.482 293.500 C 8.406 293.995,8.177 294.400,7.972 294.400 C 7.767 294.400,7.600 294.651,7.600 294.957 C 7.600 295.264,7.330 295.618,7.000 295.745 C 6.670 295.871,6.400 296.341,6.400 296.787 C 6.400 297.234,6.220 297.600,6.000 297.600 C 5.780 297.600,5.600 298.031,5.600 298.557 C 5.600 299.084,5.330 299.618,5.000 299.745 C 4.670 299.871,4.400 300.341,4.400 300.787 C 4.400 301.234,4.220 301.600,4.000 301.600 C 3.780 301.600,3.600 302.320,3.600 303.200 C 3.600 304.356,3.433 304.800,3.000 304.800 C 2.627 304.800,2.400 305.178,2.400 305.800 C 2.400 306.350,2.220 306.800,2.000 306.800 C 1.780 306.800,1.600 307.365,1.600 308.056 C 1.600 308.790,1.309 309.524,0.900 309.824 C -0.168 310.605,-0.168 328.594,0.900 329.376 C 1.285 329.658,1.600 330.273,1.600 330.744 C 1.600 331.215,1.780 331.600,2.000 331.600 C 2.220 331.600,2.400 332.050,2.400 332.600 C 2.400 333.222,2.627 333.600,3.000 333.600 C 3.330 333.600,3.600 333.842,3.600 334.137 C 3.600 334.432,4.230 335.013,5.000 335.428 C 5.770 335.843,6.400 336.321,6.400 336.491 C 6.400 336.661,6.651 336.800,6.957 336.800 C 7.264 336.800,7.618 337.070,7.745 337.400 C 7.871 337.730,8.341 338.000,8.787 338.000 C 9.234 338.000,9.600 338.180,9.600 338.400 C 9.600 338.620,10.031 338.800,10.557 338.800 C 11.084 338.800,11.618 339.070,11.745 339.400 C 11.902 339.811,12.545 340.000,13.787 340.000 C 14.784 340.000,15.600 340.180,15.600 340.400 C 15.600 340.637,17.067 340.800,19.200 340.800 C 22.178 340.800,22.800 340.907,22.800 341.417 C 22.800 341.946,23.575 342.026,28.200 341.977 C 32.532 341.930,33.600 341.808,33.600 341.360 C 33.600 340.910,34.583 340.800,38.600 340.800 C 41.667 340.800,43.600 340.645,43.600 340.400 C 43.600 340.172,44.790 340.000,46.371 340.000 C 48.302 340.000,49.325 339.818,49.743 339.400 C 50.133 339.010,51.124 338.800,52.571 338.800 C 53.797 338.800,54.800 338.620,54.800 338.400 C 54.800 338.180,55.700 338.000,56.800 338.000 C 58.311 338.000,58.800 337.853,58.800 337.400 C 58.800 336.947,59.289 336.800,60.800 336.800 C 61.900 336.800,62.800 336.620,62.800 336.400 C 62.800 336.180,63.507 336.000,64.371 336.000 C 65.236 336.000,66.213 335.730,66.543 335.400 C 66.873 335.070,67.786 334.800,68.571 334.800 C 69.357 334.800,70.000 334.620,70.000 334.400 C 70.000 334.180,70.636 334.000,71.413 334.000 C 72.299 334.000,72.911 333.777,73.055 333.400 C 73.204 333.013,73.823 332.800,74.797 332.800 C 75.628 332.800,76.824 332.531,77.454 332.202 C 78.084 331.874,78.915 331.604,79.300 331.602 C 79.685 331.601,80.000 331.420,80.000 331.200 C 80.000 330.980,80.636 330.800,81.413 330.800 C 82.299 330.800,82.911 330.577,83.055 330.200 C 83.197 329.830,83.805 329.600,84.643 329.600 C 85.389 329.600,86.000 329.420,86.000 329.200 C 86.000 328.980,86.450 328.800,87.000 328.800 C 87.622 328.800,88.000 328.573,88.000 328.200 C 88.000 327.767,88.444 327.600,89.600 327.600 C 90.480 327.600,91.200 327.420,91.200 327.200 C 91.200 326.980,91.830 326.800,92.600 326.800 C 93.578 326.800,94.000 326.619,94.000 326.200 C 94.000 325.800,94.400 325.600,95.200 325.600 C 95.860 325.600,96.400 325.420,96.400 325.200 C 96.400 324.980,97.030 324.800,97.800 324.800 C 98.778 324.800,99.200 324.619,99.200 324.200 C 99.200 323.783,99.620 323.600,100.576 323.600 C 101.333 323.600,102.064 323.420,102.200 323.200 C 102.336 322.980,102.887 322.800,103.424 322.800 C 104.025 322.800,104.400 322.569,104.400 322.200 C 104.400 321.827,104.778 321.600,105.400 321.600 C 105.950 321.600,106.400 321.420,106.400 321.200 C 106.400 320.980,107.030 320.800,107.800 320.800 C 108.778 320.800,109.200 320.619,109.200 320.200 C 109.200 319.870,109.470 319.600,109.800 319.600 C 110.130 319.600,110.400 319.351,110.400 319.046 C 110.400 318.370,111.506 317.645,114.400 316.423 C 116.536 315.522,117.937 314.894,123.800 312.217 C 125.340 311.513,127.590 310.504,128.800 309.973 C 131.379 308.843,160.562 294.217,163.200 292.733 C 164.190 292.176,166.260 291.040,167.800 290.210 C 169.340 289.380,170.780 288.570,171.000 288.411 C 171.355 288.154,173.769 286.829,179.600 283.691 C 180.590 283.159,181.580 282.584,181.800 282.415 C 182.020 282.246,183.010 281.661,184.000 281.115 C 185.798 280.124,189.667 277.893,190.800 277.193 C 193.969 275.236,196.886 273.600,197.207 273.600 C 197.423 273.600,197.600 273.441,197.600 273.247 C 197.600 273.052,197.915 272.792,198.300 272.668 C 198.685 272.544,199.900 271.895,201.000 271.227 C 202.100 270.558,203.270 269.882,203.600 269.724 C 206.566 268.308,232.133 251.705,247.649 241.119 C 265.772 228.754,291.601 209.243,307.756 195.713 C 310.172 193.689,312.066 192.400,312.623 192.400 C 313.951 192.400,314.800 191.993,314.800 191.357 C 314.800 191.051,315.070 190.800,315.400 190.800 C 315.730 190.800,316.000 190.632,316.000 190.427 C 316.000 190.222,316.397 189.928,316.881 189.774 C 317.911 189.447,318.800 188.639,318.800 188.029 C 318.800 187.793,318.993 187.600,319.229 187.600 C 319.782 187.600,320.800 186.582,320.800 186.029 C 320.800 185.793,320.993 185.600,321.229 185.600 C 321.782 185.600,322.800 184.582,322.800 184.029 C 322.800 183.793,323.070 183.600,323.400 183.600 C 323.730 183.600,324.000 183.420,324.000 183.200 C 324.000 182.980,324.335 182.800,324.744 182.800 C 325.153 182.800,325.826 182.350,326.239 181.800 C 326.652 181.250,327.217 180.800,327.495 180.800 C 327.773 180.800,328.000 180.607,328.000 180.371 C 328.000 179.818,329.018 178.800,329.571 178.800 C 329.807 178.800,330.000 178.607,330.000 178.371 C 330.000 177.818,331.018 176.800,331.571 176.800 C 331.807 176.800,332.000 176.607,332.000 176.371 C 332.000 175.818,333.018 174.800,333.571 174.800 C 333.807 174.800,334.000 174.530,334.000 174.200 C 334.000 173.860,334.359 173.600,334.829 173.600 C 335.714 173.600,336.800 172.734,336.800 172.029 C 336.800 171.793,336.974 171.600,337.186 171.600 C 337.721 171.600,350.000 159.367,350.000 158.833 C 350.000 158.595,350.193 158.400,350.429 158.400 C 350.982 158.400,352.000 157.382,352.000 156.829 C 352.000 156.593,352.193 156.400,352.429 156.400 C 352.982 156.400,354.000 155.382,354.000 154.829 C 354.000 154.593,354.193 154.400,354.429 154.400 C 354.982 154.400,356.000 153.382,356.000 152.829 C 356.000 152.593,356.193 152.400,356.429 152.400 C 356.982 152.400,358.000 151.382,358.000 150.829 C 358.000 150.593,358.193 150.400,358.429 150.400 C 358.982 150.400,360.000 149.382,360.000 148.829 C 360.000 148.593,360.193 148.400,360.429 148.400 C 361.039 148.400,361.847 147.511,362.174 146.481 C 362.328 145.997,362.622 145.600,362.827 145.600 C 363.032 145.600,363.200 145.330,363.200 145.000 C 363.200 144.670,363.393 144.400,363.629 144.400 C 364.182 144.400,365.200 143.382,365.200 142.829 C 365.200 142.593,365.470 142.400,365.800 142.400 C 366.130 142.400,366.400 142.119,366.400 141.776 C 366.400 141.433,366.580 141.264,366.800 141.400 C 367.020 141.536,367.200 141.367,367.200 141.024 C 367.200 140.681,367.405 140.400,367.656 140.400 C 368.271 140.400,369.172 139.165,369.187 138.300 C 369.194 137.915,369.470 137.600,369.800 137.600 C 370.130 137.600,370.400 137.408,370.400 137.173 C 370.400 136.938,371.030 136.152,371.800 135.426 C 372.570 134.700,373.200 133.902,373.200 133.653 C 373.200 133.404,373.470 133.200,373.800 133.200 C 374.133 133.200,374.400 132.844,374.400 132.400 C 374.400 131.960,374.580 131.600,374.800 131.600 C 375.020 131.600,375.200 131.330,375.200 131.000 C 375.200 130.670,375.470 130.400,375.800 130.400 C 376.130 130.400,376.400 130.173,376.400 129.895 C 376.400 129.617,376.850 129.052,377.400 128.639 C 377.950 128.226,378.400 127.553,378.400 127.144 C 378.400 126.735,378.580 126.400,378.800 126.400 C 379.020 126.400,379.200 126.130,379.200 125.800 C 379.200 125.470,379.393 125.200,379.629 125.200 C 380.334 125.200,381.200 124.114,381.200 123.229 C 381.200 122.759,381.460 122.400,381.800 122.400 C 382.130 122.400,382.400 122.173,382.400 121.895 C 382.400 121.617,382.850 121.052,383.400 120.639 C 383.950 120.226,384.400 119.553,384.400 119.144 C 384.400 118.735,384.580 118.400,384.800 118.400 C 385.020 118.400,385.200 118.130,385.200 117.800 C 385.200 117.470,385.470 117.200,385.800 117.200 C 386.157 117.200,386.400 116.833,386.400 116.295 C 386.400 115.796,386.849 115.053,387.400 114.639 C 387.950 114.226,388.400 113.553,388.400 113.144 C 388.400 112.735,388.577 112.400,388.792 112.400 C 389.008 112.400,389.298 111.950,389.436 111.400 C 389.574 110.850,389.847 110.400,390.043 110.400 C 390.240 110.400,390.400 110.130,390.400 109.800 C 390.400 109.470,390.577 109.200,390.792 109.200 C 391.008 109.200,391.298 108.750,391.436 108.200 C 391.574 107.650,391.847 107.200,392.043 107.200 C 392.240 107.200,392.400 106.750,392.400 106.200 C 392.400 105.578,392.627 105.200,393.000 105.200 C 393.369 105.200,393.600 104.825,393.600 104.224 C 393.600 103.687,393.780 103.136,394.000 103.000 C 394.220 102.864,394.400 102.403,394.400 101.976 C 394.400 101.549,394.670 101.200,395.000 101.200 C 395.373 101.200,395.600 100.822,395.600 100.200 C 395.600 99.650,395.780 99.200,396.000 99.200 C 396.220 99.200,396.400 98.480,396.400 97.600 C 396.400 96.444,396.567 96.000,397.000 96.000 C 397.373 96.000,397.600 95.622,397.600 95.000 C 397.600 94.450,397.780 94.000,398.000 94.000 C 398.220 94.000,398.400 93.100,398.400 92.000 C 398.400 90.589,398.559 90.000,398.939 90.000 C 399.345 90.000,399.544 88.852,399.744 85.350 C 400.088 79.317,399.684 73.200,398.941 73.200 C 398.631 73.200,398.400 72.774,398.400 72.200 C 398.400 71.650,398.220 71.200,398.000 71.200 C 397.780 71.200,397.600 70.930,397.600 70.600 C 397.600 70.270,397.330 70.000,397.000 70.000 C 396.659 70.000,396.400 69.641,396.400 69.169 C 396.400 68.095,394.305 66.000,393.231 66.000 C 392.759 66.000,392.400 65.741,392.400 65.400 C 392.400 65.070,392.130 64.800,391.800 64.800 C 391.470 64.800,391.200 64.620,391.200 64.400 C 391.200 64.180,390.769 64.000,390.243 64.000 C 389.716 64.000,389.182 63.730,389.055 63.400 C 388.921 63.049,388.321 62.800,387.613 62.800 C 386.946 62.800,386.400 62.620,386.400 62.400 C 386.400 62.180,385.519 62.000,384.443 62.000 C 383.058 62.000,382.417 61.822,382.251 61.390 C 381.908 60.496,359.200 60.528,359.200 61.422 " stroke="none" fill="#fbfbfb" fill-rule="evenodd"></path><path id="path2" d="M278.400 59.444 C 278.400 59.798,279.263 61.283,280.318 62.744 C 281.373 64.205,282.548 66.067,282.929 66.883 C 283.310 67.699,283.797 68.474,284.011 68.607 C 284.225 68.739,284.400 69.197,284.400 69.624 C 284.400 70.051,284.566 70.400,284.768 70.400 C 284.971 70.400,285.255 70.938,285.399 71.595 C 285.543 72.253,285.828 72.894,286.031 73.019 C 286.234 73.145,286.400 73.676,286.400 74.200 C 286.400 74.724,286.564 75.254,286.765 75.378 C 286.966 75.503,287.256 76.368,287.410 77.302 C 287.564 78.236,287.830 79.180,288.001 79.400 C 288.338 79.835,288.852 84.708,288.866 87.600 C 288.886 91.580,287.627 98.808,286.745 99.780 C 286.555 99.989,286.400 100.389,286.400 100.669 C 286.400 101.742,281.913 110.203,280.816 111.200 C 280.695 111.310,280.073 112.120,279.434 113.000 C 276.769 116.673,269.684 123.595,265.259 126.849 C 263.655 128.029,260.560 128.872,259.168 128.508 C 258.729 128.393,258.400 128.510,258.400 128.782 C 258.400 129.464,257.368 130.400,256.616 130.400 C 256.263 130.400,255.871 130.670,255.745 131.000 C 255.618 131.330,255.084 131.600,254.557 131.600 C 254.031 131.600,253.600 131.760,253.600 131.957 C 253.600 132.153,253.150 132.426,252.600 132.564 C 252.050 132.702,251.600 132.992,251.600 133.208 C 251.600 133.423,251.195 133.613,250.700 133.629 C 250.205 133.645,249.260 134.003,248.600 134.425 C 247.940 134.846,247.130 135.296,246.800 135.425 C 246.470 135.553,245.887 135.825,245.505 136.029 C 245.123 136.233,244.268 136.400,243.605 136.400 C 242.866 136.400,242.439 136.590,242.500 136.891 C 242.555 137.160,242.150 137.448,241.600 137.531 C 241.050 137.613,240.505 137.834,240.388 138.022 C 240.271 138.210,239.506 138.408,238.688 138.463 C 237.788 138.524,237.200 138.768,237.200 139.082 C 237.200 139.407,236.680 139.600,235.800 139.600 C 235.030 139.600,234.400 139.770,234.400 139.978 C 234.400 140.186,233.545 140.411,232.500 140.478 C 231.242 140.559,230.634 140.769,230.700 141.100 C 230.768 141.440,230.233 141.600,229.033 141.600 C 228.062 141.600,227.207 141.777,227.133 141.994 C 227.060 142.210,226.155 142.419,225.121 142.458 C 224.018 142.499,223.275 142.708,223.321 142.964 C 223.369 143.226,222.484 143.448,221.100 143.520 C 219.835 143.586,218.800 143.811,218.800 144.020 C 218.800 144.229,217.495 144.403,215.900 144.406 C 213.880 144.410,213.182 144.530,213.600 144.800 C 214.133 145.145,214.133 145.189,213.600 145.200 C 213.111 145.210,213.100 145.276,213.543 145.556 C 214.283 146.026,213.863 147.116,212.293 148.800 C 207.422 154.025,198.400 168.679,198.400 171.368 C 198.400 171.690,198.241 172.051,198.048 172.170 C 197.854 172.290,197.607 172.796,197.500 173.294 C 197.392 173.792,196.885 175.640,196.373 177.400 C 195.251 181.259,194.969 193.527,195.927 196.800 C 196.217 197.790,196.643 199.230,196.874 200.000 C 197.104 200.770,197.812 202.538,198.447 203.928 C 199.081 205.318,199.600 206.543,199.600 206.649 C 199.600 207.545,204.719 214.243,207.705 217.253 C 209.749 219.314,211.417 221.180,211.411 221.400 C 211.396 221.944,218.340 222.148,218.974 221.621 C 219.247 221.395,221.157 221.138,223.220 221.050 C 225.479 220.953,227.029 220.712,227.119 220.444 C 227.205 220.186,228.244 220.000,229.600 220.000 C 230.904 220.000,231.996 219.811,232.076 219.571 C 232.155 219.335,233.070 219.102,234.109 219.051 C 235.149 219.001,236.216 218.744,236.480 218.480 C 236.744 218.216,237.629 218.000,238.447 218.000 C 239.264 218.000,240.005 217.786,240.092 217.524 C 240.179 217.262,241.024 217.008,241.970 216.960 C 242.915 216.911,243.885 216.675,244.124 216.436 C 244.364 216.196,244.961 216.000,245.451 216.000 C 245.942 216.000,246.606 215.737,246.927 215.415 C 247.249 215.094,248.150 214.788,248.930 214.735 C 249.710 214.683,250.259 214.496,250.151 214.320 C 250.042 214.144,250.301 214.000,250.727 214.000 C 251.153 214.000,251.726 213.730,252.000 213.400 C 252.274 213.070,252.911 212.800,253.416 212.800 C 253.920 212.800,254.393 212.626,254.467 212.413 C 254.540 212.200,255.185 211.981,255.900 211.928 C 256.643 211.872,257.200 211.609,257.200 211.315 C 257.200 211.032,257.528 210.800,257.929 210.800 C 258.943 210.800,261.685 209.418,261.345 209.079 C 261.192 208.925,261.534 208.800,262.104 208.800 C 262.735 208.800,263.451 208.408,263.929 207.800 C 264.361 207.250,265.094 206.800,265.558 206.800 C 266.021 206.800,266.400 206.620,266.400 206.400 C 266.400 206.180,266.850 206.000,267.400 206.000 C 268.022 206.000,268.400 205.773,268.400 205.400 C 268.400 205.070,268.670 204.800,269.000 204.800 C 269.330 204.800,269.600 204.620,269.600 204.400 C 269.600 204.180,269.827 204.000,270.104 204.000 C 270.381 204.000,271.073 203.569,271.642 203.041 C 272.211 202.514,273.019 202.008,273.438 201.918 C 273.857 201.827,274.155 201.538,274.100 201.276 C 274.045 201.014,274.270 200.800,274.600 200.800 C 274.930 200.800,275.200 200.620,275.200 200.400 C 275.200 200.180,275.470 200.000,275.800 200.000 C 276.130 200.000,276.400 199.730,276.400 199.400 C 276.400 199.070,276.670 198.800,277.000 198.800 C 277.330 198.800,277.600 198.620,277.600 198.400 C 277.600 198.180,277.854 198.000,278.164 198.000 C 278.879 198.000,288.800 188.052,288.800 187.334 C 288.800 187.040,288.980 186.800,289.200 186.800 C 289.420 186.800,289.600 186.530,289.600 186.200 C 289.600 185.870,289.793 185.600,290.029 185.600 C 290.666 185.600,291.600 184.547,291.600 183.829 C 291.600 183.483,291.821 183.245,292.091 183.300 C 292.360 183.355,292.643 182.995,292.718 182.500 C 292.794 182.005,293.023 181.600,293.228 181.600 C 293.433 181.600,293.600 181.319,293.600 180.976 C 293.600 180.633,293.762 180.453,293.961 180.576 C 294.160 180.699,294.507 180.268,294.733 179.619 C 294.960 178.971,295.517 178.121,295.972 177.731 C 296.428 177.341,296.800 176.702,296.800 176.311 C 296.800 175.920,296.980 175.600,297.200 175.600 C 297.420 175.600,297.600 175.150,297.600 174.600 C 297.600 174.050,297.805 173.600,298.056 173.600 C 298.657 173.600,299.571 172.372,299.587 171.543 C 299.594 171.181,299.881 170.778,300.225 170.646 C 300.569 170.514,300.755 170.251,300.638 170.062 C 300.521 169.873,300.684 169.376,301.000 168.959 C 301.316 168.542,301.580 167.615,301.587 166.900 C 301.596 166.017,301.792 165.600,302.200 165.600 C 302.573 165.600,302.800 165.222,302.800 164.600 C 302.800 164.050,302.980 163.600,303.200 163.600 C 303.420 163.600,303.600 162.989,303.600 162.243 C 303.600 161.405,303.830 160.797,304.200 160.655 C 304.530 160.529,304.800 159.980,304.800 159.436 C 304.800 158.892,304.980 158.336,305.200 158.200 C 305.420 158.064,305.600 157.445,305.600 156.825 C 305.600 156.205,305.870 155.474,306.200 155.200 C 306.540 154.917,306.800 154.045,306.800 153.184 C 306.800 152.350,307.001 151.600,307.247 151.518 C 307.493 151.436,307.732 150.486,307.777 149.408 C 307.823 148.329,308.071 147.376,308.330 147.290 C 308.591 147.203,308.800 146.383,308.800 145.447 C 308.800 144.519,309.022 143.538,309.293 143.267 C 309.564 142.996,309.816 141.841,309.853 140.701 C 309.891 139.560,310.119 138.560,310.361 138.480 C 310.639 138.387,310.800 136.941,310.800 134.543 C 310.800 132.118,310.944 130.842,311.200 131.000 C 311.420 131.136,311.609 131.102,311.620 130.924 C 311.892 126.577,311.617 112.606,311.258 112.486 C 310.964 112.388,310.800 111.158,310.800 109.047 C 310.800 107.164,310.610 105.570,310.354 105.314 C 310.109 105.069,309.880 104.048,309.845 103.045 C 309.810 102.042,309.560 101.000,309.291 100.731 C 309.021 100.461,308.800 99.556,308.800 98.720 C 308.800 97.760,308.613 97.200,308.293 97.200 C 307.974 97.200,307.771 96.597,307.744 95.571 C 307.720 94.674,307.498 93.738,307.251 93.491 C 307.003 93.243,306.800 92.626,306.800 92.120 C 306.800 91.569,306.559 91.200,306.200 91.200 C 305.827 91.200,305.600 90.822,305.600 90.200 C 305.600 89.650,305.420 89.200,305.200 89.200 C 304.980 89.200,304.800 88.581,304.800 87.824 C 304.800 87.067,304.592 86.319,304.338 86.162 C 304.029 85.971,303.982 86.062,304.197 86.438 C 304.425 86.839,304.389 86.883,304.070 86.591 C 303.824 86.367,303.555 85.827,303.472 85.391 C 303.204 83.993,302.729 83.200,302.157 83.200 C 301.851 83.200,301.600 82.827,301.600 82.371 C 301.600 81.916,301.320 81.263,300.977 80.920 C 300.634 80.577,300.456 80.030,300.582 79.704 C 300.738 79.295,300.621 79.183,300.205 79.343 C 299.826 79.488,299.600 79.344,299.600 78.959 C 299.600 78.251,298.661 77.200,298.029 77.200 C 297.793 77.200,297.600 76.951,297.600 76.646 C 297.600 76.341,297.331 75.576,297.002 74.946 C 296.674 74.316,296.404 73.969,296.402 74.175 C 296.401 74.382,296.040 74.164,295.600 73.692 C 295.160 73.220,294.800 72.646,294.800 72.417 C 294.800 72.188,294.560 72.000,294.268 72.000 C 293.975 72.000,293.494 71.550,293.200 71.000 C 292.906 70.450,292.425 70.000,292.132 70.000 C 291.840 70.000,291.600 69.719,291.600 69.376 C 291.600 69.033,291.420 68.864,291.200 69.000 C 290.980 69.136,290.800 68.967,290.800 68.624 C 290.800 68.281,290.530 68.000,290.200 68.000 C 289.870 68.000,289.600 67.760,289.600 67.468 C 289.600 67.175,289.150 66.694,288.600 66.400 C 288.050 66.106,287.600 65.631,287.600 65.345 C 287.600 65.024,287.345 64.923,286.934 65.081 C 286.487 65.252,286.364 65.183,286.558 64.868 C 286.717 64.611,286.691 64.400,286.499 64.400 C 286.308 64.400,285.802 64.075,285.375 63.678 C 284.949 63.280,284.420 62.894,284.200 62.819 C 283.272 62.502,282.400 61.774,282.400 61.316 C 282.400 61.046,282.164 60.915,281.877 61.026 C 281.589 61.136,280.931 60.861,280.415 60.413 C 279.900 59.966,279.315 59.600,279.115 59.600 C 278.916 59.600,278.864 59.420,279.000 59.200 C 279.136 58.980,279.057 58.800,278.824 58.800 C 278.591 58.800,278.400 59.090,278.400 59.444 M312.008 193.181 C 311.143 193.736,309.304 195.226,307.787 196.600 C 307.059 197.260,305.987 198.149,305.406 198.575 C 304.825 199.001,303.956 199.697,303.475 200.121 C 302.994 200.545,300.890 202.262,298.800 203.936 C 296.710 205.610,294.910 207.079,294.800 207.200 C 294.623 207.394,293.418 208.334,289.330 211.466 C 288.311 212.247,287.059 213.261,285.717 214.393 C 285.451 214.617,285.061 214.800,284.850 214.800 C 284.639 214.800,284.407 214.946,284.333 215.124 C 284.260 215.301,283.120 216.246,281.800 217.224 C 280.480 218.201,278.952 219.405,278.404 219.900 C 277.856 220.395,277.196 220.800,276.937 220.800 C 276.679 220.800,276.407 220.946,276.333 221.124 C 276.260 221.301,275.120 222.246,273.800 223.224 C 272.480 224.201,271.162 225.225,270.871 225.500 C 270.581 225.775,270.221 226.000,270.071 226.000 C 269.922 226.001,269.260 226.472,268.600 227.047 C 267.940 227.623,266.693 228.545,265.828 229.097 C 264.964 229.649,263.796 230.528,263.232 231.050 C 262.669 231.573,262.063 232.000,261.887 232.000 C 261.710 232.000,261.098 232.433,260.528 232.962 C 259.958 233.490,259.021 234.165,258.446 234.462 C 257.871 234.758,257.220 235.190,257.000 235.423 C 256.229 236.238,253.649 238.000,253.227 238.000 C 252.992 238.000,252.800 238.168,252.800 238.373 C 252.800 238.578,252.472 238.850,252.071 238.978 C 251.669 239.105,250.994 239.522,250.571 239.905 C 249.773 240.624,245.293 243.677,244.617 243.961 C 244.406 244.050,243.778 244.545,243.221 245.061 C 242.664 245.578,242.059 246.000,241.877 246.000 C 241.695 246.000,240.957 246.450,240.236 247.000 C 239.514 247.550,238.799 248.000,238.645 248.000 C 238.491 248.000,237.880 248.450,237.287 249.000 C 236.693 249.550,235.981 250.000,235.704 250.000 C 235.427 250.000,235.200 250.139,235.200 250.309 C 235.200 250.479,234.525 250.972,233.700 251.405 C 232.875 251.838,232.110 252.291,232.000 252.412 C 231.520 252.938,226.774 256.000,226.438 256.000 C 226.234 256.000,226.007 256.135,225.933 256.300 C 225.774 256.658,222.086 259.200,221.726 259.200 C 221.588 259.200,220.886 259.650,220.164 260.200 C 219.443 260.750,218.723 261.200,218.564 261.200 C 218.406 261.200,217.686 261.650,216.964 262.200 C 216.243 262.750,215.461 263.200,215.227 263.200 C 214.992 263.200,214.800 263.339,214.800 263.509 C 214.800 263.679,214.125 264.172,213.300 264.605 C 212.475 265.038,211.710 265.507,211.600 265.646 C 211.490 265.786,210.769 266.237,209.998 266.650 C 209.227 267.062,208.030 267.805,207.337 268.300 C 206.644 268.795,205.952 269.200,205.800 269.200 C 205.648 269.200,204.958 269.605,204.267 270.100 C 202.932 271.057,202.440 271.342,199.600 272.807 C 196.395 274.460,192.369 276.902,192.550 277.083 C 192.647 277.180,193.930 276.499,195.402 275.569 C 198.363 273.699,198.780 273.801,198.797 276.400 C 198.821 280.126,201.063 289.996,202.126 291.059 C 202.277 291.210,202.400 291.583,202.400 291.889 C 202.400 292.752,205.852 299.456,206.988 300.800 C 207.267 301.130,207.564 301.609,207.648 301.865 C 207.732 302.120,209.420 304.406,211.400 306.943 L 215.000 311.557 216.820 311.579 C 217.821 311.590,218.811 311.430,219.020 311.222 C 219.229 311.015,220.885 310.797,222.700 310.738 C 225.073 310.662,226.000 310.487,226.000 310.116 C 226.000 309.742,226.803 309.600,228.920 309.600 C 230.526 309.600,232.011 309.434,232.220 309.232 C 232.429 309.029,233.410 308.811,234.400 308.747 C 235.390 308.682,236.438 308.398,236.729 308.115 C 237.019 307.832,237.886 307.600,238.655 307.600 C 239.424 307.600,240.391 307.419,240.804 307.198 C 241.217 306.977,242.277 306.768,243.160 306.733 C 244.081 306.697,244.852 306.442,244.970 306.135 C 245.086 305.831,245.771 305.600,246.554 305.600 C 247.313 305.600,248.000 305.401,248.081 305.158 C 248.162 304.914,248.839 304.684,249.584 304.647 C 250.330 304.609,251.014 304.358,251.104 304.089 C 251.193 303.820,251.895 303.600,252.662 303.600 C 253.429 303.600,254.327 303.330,254.657 303.000 C 254.987 302.670,255.658 302.400,256.149 302.400 C 256.639 302.400,257.214 302.226,257.427 302.013 C 257.639 301.801,258.383 301.584,259.079 301.531 C 259.775 301.477,260.256 301.290,260.147 301.114 C 260.038 300.938,260.276 300.692,260.675 300.568 C 261.074 300.443,261.713 300.175,262.095 299.971 C 262.477 299.767,263.152 299.600,263.595 299.600 C 264.044 299.600,264.400 299.335,264.400 299.000 C 264.400 298.627,264.778 298.400,265.400 298.400 C 265.950 298.400,266.400 298.220,266.400 298.000 C 266.400 297.780,266.850 297.600,267.400 297.600 C 268.022 297.600,268.400 297.373,268.400 297.000 C 268.400 296.627,268.778 296.400,269.400 296.400 C 269.950 296.400,270.400 296.220,270.400 296.000 C 270.400 295.780,270.850 295.600,271.400 295.600 C 272.022 295.600,272.400 295.373,272.400 295.000 C 272.400 294.660,272.759 294.400,273.229 294.400 C 273.684 294.400,274.337 294.120,274.680 293.777 C 275.023 293.434,275.550 293.249,275.852 293.364 C 276.153 293.480,276.400 293.349,276.400 293.074 C 276.400 292.798,276.940 292.254,277.600 291.864 C 278.260 291.474,278.800 291.264,278.800 291.398 C 278.800 291.532,279.226 291.182,279.746 290.621 C 280.266 290.059,281.076 289.600,281.546 289.600 C 282.038 289.600,282.400 289.346,282.400 289.000 C 282.400 288.670,282.640 288.400,282.932 288.400 C 283.225 288.400,283.706 287.950,284.000 287.400 C 284.294 286.850,284.820 286.394,285.168 286.387 C 285.976 286.371,287.200 285.449,287.200 284.856 C 287.200 284.605,287.560 284.400,288.000 284.400 C 288.440 284.400,288.755 284.175,288.700 283.900 C 288.645 283.625,288.825 283.445,289.100 283.500 C 289.375 283.555,289.600 283.407,289.600 283.171 C 289.600 282.618,290.618 281.600,291.171 281.600 C 291.407 281.600,291.600 281.360,291.600 281.068 C 291.600 280.775,292.050 280.294,292.600 280.000 C 293.150 279.706,293.600 279.225,293.600 278.932 C 293.600 278.640,293.841 278.400,294.136 278.400 C 294.430 278.400,294.877 277.950,295.127 277.400 C 295.378 276.850,295.851 276.400,296.179 276.400 C 296.543 276.400,296.686 276.168,296.546 275.803 C 296.415 275.463,296.592 275.101,296.958 274.961 C 297.311 274.825,297.600 274.374,297.600 273.957 C 297.600 273.541,297.793 273.200,298.029 273.200 C 298.582 273.200,299.600 272.182,299.600 271.629 C 299.600 271.393,299.832 271.200,300.115 271.200 C 300.398 271.200,300.657 270.838,300.690 270.396 C 300.757 269.514,301.695 268.400,302.371 268.400 C 302.607 268.400,302.800 268.061,302.800 267.646 C 302.800 266.593,303.730 264.910,304.221 265.074 C 304.446 265.149,304.659 264.805,304.697 264.311 C 304.734 263.816,304.952 263.349,305.182 263.273 C 305.412 263.196,305.600 262.698,305.600 262.167 C 305.600 261.635,305.777 261.200,305.992 261.200 C 306.208 261.200,306.498 260.750,306.636 260.200 C 306.774 259.650,307.047 259.200,307.243 259.200 C 307.440 259.200,307.600 258.943,307.600 258.629 C 307.600 258.314,307.825 257.819,308.100 257.529 C 308.375 257.238,308.654 256.460,308.721 255.800 C 308.787 255.140,309.099 254.402,309.415 254.160 C 309.730 253.919,309.876 253.609,309.740 253.473 C 309.603 253.337,309.786 252.776,310.146 252.227 C 310.506 251.677,310.800 250.791,310.800 250.257 C 310.800 249.723,311.040 249.194,311.333 249.081 C 311.647 248.960,311.894 248.164,311.934 247.138 C 311.971 246.182,312.181 245.340,312.401 245.267 C 312.620 245.193,312.800 244.325,312.800 243.338 C 312.800 242.351,313.037 241.306,313.326 241.016 C 313.616 240.727,313.896 239.525,313.949 238.345 C 314.001 237.165,314.214 236.140,314.422 236.067 C 314.630 235.993,314.800 234.438,314.800 232.609 C 314.800 230.075,314.938 229.233,315.380 229.063 C 316.230 228.737,316.211 206.456,315.361 206.130 C 314.932 205.965,314.800 204.988,314.800 201.991 C 314.800 199.832,314.632 198.007,314.426 197.933 C 314.221 197.860,313.996 196.722,313.926 195.405 C 313.796 192.927,313.300 192.352,312.008 193.181 M231.775 233.585 C 231.563 233.797,229.817 234.022,227.895 234.085 C 225.428 234.166,224.400 234.347,224.400 234.700 C 224.400 235.079,222.888 235.200,218.176 235.200 C 214.129 235.200,212.039 235.340,212.200 235.600 C 212.340 235.827,212.004 236.000,211.424 236.000 C 210.774 236.000,210.400 236.222,210.400 236.608 C 210.400 236.942,209.940 237.944,209.379 238.834 C 208.387 240.404,208.104 240.895,205.888 244.874 C 204.872 246.700,203.185 250.655,201.784 254.500 C 201.403 255.545,200.955 256.400,200.788 256.400 C 200.622 256.400,200.378 256.680,200.247 257.022 C 200.107 257.385,200.758 257.095,201.815 256.322 C 202.808 255.595,203.921 254.820,204.289 254.600 C 204.656 254.380,206.227 253.396,207.778 252.413 C 209.330 251.431,211.050 250.383,211.599 250.086 C 212.149 249.788,212.883 249.287,213.231 248.972 C 213.578 248.658,214.012 248.400,214.194 248.400 C 214.376 248.400,215.114 247.950,215.836 247.400 C 216.557 246.850,217.339 246.400,217.573 246.400 C 217.808 246.400,218.000 246.241,218.000 246.047 C 218.000 245.852,218.315 245.588,218.700 245.458 C 219.596 245.157,220.692 244.435,221.975 243.300 C 222.534 242.805,223.157 242.400,223.358 242.400 C 223.560 242.400,224.314 241.950,225.036 241.400 C 225.757 240.850,226.461 240.400,226.600 240.400 C 226.739 240.400,227.443 239.950,228.164 239.400 C 228.886 238.850,229.684 238.400,229.938 238.400 C 230.192 238.400,230.400 238.265,230.401 238.100 C 230.401 237.935,231.345 237.170,232.497 236.400 C 233.650 235.630,235.043 234.595,235.593 234.100 L 236.592 233.200 234.376 233.200 C 233.157 233.200,231.987 233.373,231.775 233.585 M197.800 258.610 L 196.600 259.616 198.100 258.768 C 198.925 258.302,199.600 257.849,199.600 257.760 C 199.600 257.357,198.901 257.687,197.800 258.610 M193.800 260.952 C 192.700 261.673,190.900 262.760,189.800 263.366 C 188.700 263.973,187.530 264.736,187.200 265.061 C 186.870 265.387,187.680 265.045,189.000 264.302 C 192.402 262.388,196.674 259.615,196.200 259.629 C 195.980 259.635,194.900 260.231,193.800 260.952 M184.481 266.481 C 183.756 266.929,183.247 267.380,183.350 267.483 C 183.453 267.587,184.224 267.205,185.062 266.636 C 186.854 265.418,186.398 265.297,184.481 266.481 M182.000 267.957 C 182.000 268.153,181.550 268.426,181.000 268.564 C 180.450 268.702,180.000 268.978,180.000 269.177 C 180.000 269.376,180.536 269.271,181.192 268.944 C 182.469 268.307,183.117 267.600,182.424 267.600 C 182.191 267.600,182.000 267.760,182.000 267.957 M178.084 270.215 C 177.422 270.966,177.970 270.949,178.976 270.187 C 179.522 269.774,179.582 269.605,179.176 269.615 C 178.859 269.624,178.368 269.894,178.084 270.215 M174.297 272.366 C 172.698 273.391,172.403 273.806,173.800 273.066 C 175.476 272.177,176.271 271.608,175.800 271.635 C 175.580 271.648,174.904 271.977,174.297 272.366 M170.481 274.481 C 169.756 274.929,169.247 275.380,169.350 275.483 C 169.453 275.587,170.224 275.205,171.062 274.636 C 172.854 273.418,172.398 273.297,170.481 274.481 M167.101 276.337 C 166.496 276.701,166.001 277.121,166.001 277.269 C 166.000 277.615,168.309 276.471,168.616 275.975 C 168.950 275.434,168.364 275.574,167.101 276.337 M190.011 278.220 C 189.247 278.759,188.742 279.200,188.888 279.200 C 189.239 279.200,192.000 277.568,192.000 277.360 C 192.000 277.000,191.325 277.292,190.011 278.220 M164.180 277.972 C 163.971 278.176,162.841 278.822,161.670 279.408 C 160.498 279.993,159.621 280.555,159.722 280.655 C 159.822 280.755,160.781 280.347,161.852 279.747 C 162.923 279.147,164.250 278.419,164.800 278.130 C 165.396 277.817,165.549 277.604,165.180 277.602 C 164.839 277.601,164.389 277.767,164.180 277.972 M186.666 280.124 C 185.822 280.593,185.347 281.049,185.612 281.137 C 185.876 281.225,186.207 281.120,186.346 280.903 C 186.486 280.686,187.005 280.381,187.500 280.227 C 187.995 280.072,188.400 279.778,188.400 279.573 C 188.400 279.125,188.544 279.080,186.666 280.124 M157.666 281.393 C 156.630 281.964,155.698 282.800,156.097 282.800 C 156.441 282.800,159.200 281.164,159.200 280.960 C 159.200 280.695,158.653 280.849,157.666 281.393 M183.281 282.081 C 182.556 282.529,182.036 282.970,182.127 283.060 C 182.357 283.291,184.794 281.867,184.797 281.500 C 184.801 281.127,184.865 281.103,183.281 282.081 M154.215 283.324 C 151.176 285.169,150.350 285.600,149.857 285.600 C 149.549 285.600,149.074 285.870,148.800 286.200 C 148.119 287.021,148.505 286.954,150.288 285.942 C 151.120 285.470,152.655 284.650,153.700 284.121 C 154.745 283.591,155.600 283.077,155.600 282.979 C 155.600 282.682,155.045 282.820,154.215 283.324 M179.800 284.190 C 178.920 284.732,178.307 285.181,178.439 285.188 C 178.868 285.210,181.179 283.958,181.416 283.575 C 181.753 283.029,181.573 283.098,179.800 284.190 M175.800 286.430 C 174.700 287.074,173.209 287.894,172.486 288.252 C 171.763 288.611,171.247 288.980,171.339 289.072 C 171.431 289.164,172.202 288.846,173.053 288.366 C 173.904 287.885,175.276 287.138,176.102 286.705 C 176.928 286.271,177.704 285.756,177.826 285.559 C 178.124 285.076,178.090 285.091,175.800 286.430 M146.800 287.157 C 146.800 287.353,146.350 287.626,145.800 287.764 C 145.250 287.902,144.800 288.189,144.800 288.401 C 144.800 288.613,145.475 288.410,146.300 287.950 C 148.186 286.899,148.286 286.800,147.467 286.800 C 147.100 286.800,146.800 286.960,146.800 287.157 M142.466 289.393 C 140.734 290.347,140.617 290.816,142.315 289.995 C 143.242 289.548,144.000 289.096,144.000 288.991 C 144.000 288.696,143.488 288.830,142.466 289.393 M167.852 290.718 C 166.340 291.515,165.292 292.231,165.523 292.308 C 165.753 292.384,166.671 291.987,167.563 291.424 C 168.454 290.861,169.346 290.400,169.543 290.400 C 169.741 290.400,170.126 290.130,170.400 289.800 C 171.040 289.029,171.081 289.014,167.852 290.718 M138.100 291.524 C 137.385 291.865,136.800 292.276,136.800 292.436 C 136.800 292.596,137.520 292.380,138.400 291.954 C 139.280 291.529,140.000 291.096,140.000 290.991 C 140.000 290.707,139.544 290.835,138.100 291.524 M133.900 293.647 C 133.075 294.064,132.400 294.488,132.400 294.589 C 132.400 294.776,136.043 293.291,136.358 292.975 C 136.794 292.540,135.257 292.959,133.900 293.647 M162.224 293.813 C 161.796 294.136,161.627 294.400,161.847 294.400 C 162.067 294.400,162.596 294.136,163.024 293.813 C 163.451 293.490,163.620 293.225,163.400 293.225 C 163.180 293.225,162.651 293.490,162.224 293.813 M159.206 295.418 C 158.220 295.958,157.624 296.400,157.883 296.400 C 158.380 296.400,161.200 294.836,161.200 294.560 C 161.200 294.329,161.175 294.340,159.206 295.418 M130.800 295.200 C 130.800 295.420,130.564 295.600,130.276 295.600 C 129.989 295.600,129.404 295.873,128.976 296.207 C 128.263 296.764,128.297 296.773,129.400 296.325 C 131.323 295.542,132.340 294.800,131.489 294.800 C 131.110 294.800,130.800 294.980,130.800 295.200 M155.502 297.304 C 154.679 297.763,154.093 298.226,154.200 298.333 C 154.458 298.591,157.200 297.107,157.200 296.709 C 157.200 296.334,157.323 296.291,155.502 297.304 M125.457 297.667 C 124.608 298.096,123.993 298.526,124.090 298.623 C 124.187 298.720,125.151 298.350,126.233 297.801 C 127.315 297.252,127.930 296.822,127.600 296.845 C 127.270 296.868,126.306 297.238,125.457 297.667 M151.631 299.297 C 150.658 299.768,150.050 300.217,150.280 300.293 C 150.677 300.426,153.600 298.900,153.600 298.560 C 153.600 298.341,153.622 298.333,151.631 299.297 M121.100 299.647 C 120.275 300.064,119.600 300.488,119.600 300.589 C 119.600 300.776,123.243 299.291,123.558 298.975 C 123.994 298.540,122.457 298.959,121.100 299.647 M147.631 301.297 C 146.658 301.768,146.050 302.217,146.280 302.293 C 146.677 302.426,149.600 300.900,149.600 300.560 C 149.600 300.341,149.622 300.333,147.631 301.297 M117.800 301.200 C 117.664 301.420,117.068 301.625,116.476 301.654 C 115.568 301.700,115.537 301.736,116.277 301.879 C 116.759 301.973,117.659 301.776,118.277 301.441 C 119.028 301.034,119.176 300.827,118.724 300.816 C 118.352 300.807,117.936 300.980,117.800 301.200 M143.631 303.297 C 142.614 303.789,142.095 304.232,142.411 304.337 C 142.713 304.438,143.029 304.313,143.113 304.060 C 143.198 303.807,143.487 303.600,143.757 303.600 C 144.026 303.600,144.596 303.336,145.024 303.013 C 146.084 302.211,145.719 302.285,143.631 303.297 M139.466 305.324 C 138.611 305.799,138.159 306.253,138.446 306.349 C 138.729 306.443,139.029 306.313,139.113 306.060 C 139.198 305.807,139.487 305.600,139.757 305.600 C 140.026 305.600,140.596 305.336,141.024 305.013 C 142.159 304.154,141.240 304.337,139.466 305.324 M135.200 307.438 C 134.210 307.963,133.591 308.394,133.825 308.396 C 134.356 308.401,137.600 306.850,137.600 306.591 C 137.600 306.262,137.058 306.454,135.200 307.438 M131.200 309.419 C 130.210 309.933,129.565 310.363,129.766 310.376 C 130.390 310.417,133.200 309.064,133.200 308.723 C 133.200 308.545,133.155 308.419,133.100 308.443 C 133.045 308.466,132.190 308.905,131.200 309.419 M126.800 311.419 C 125.810 311.933,125.191 312.363,125.425 312.376 C 125.937 312.405,129.200 310.861,129.200 310.591 C 129.200 310.266,128.667 310.450,126.800 311.419 M122.400 313.419 C 121.410 313.933,120.904 314.363,121.276 314.376 C 121.648 314.389,122.064 314.220,122.200 314.000 C 122.336 313.780,122.775 313.600,123.175 313.600 C 123.575 313.600,124.126 313.330,124.400 313.000 C 125.069 312.194,124.552 312.302,122.400 313.419 M118.000 315.419 C 117.010 315.933,116.391 316.363,116.625 316.376 C 117.137 316.405,120.400 314.861,120.400 314.591 C 120.400 314.266,119.867 314.450,118.000 315.419 M113.642 317.237 C 112.675 317.666,112.003 318.136,112.148 318.282 C 112.294 318.427,112.626 318.334,112.887 318.073 C 113.147 317.813,113.639 317.594,113.980 317.587 C 114.321 317.580,114.949 317.310,115.376 316.987 C 116.420 316.198,115.773 316.291,113.642 317.237 " stroke="none" fill="#4bb3e3" fill-rule="evenodd"></path><path id="path3" d="M277.600 59.313 C 277.600 59.595,278.563 61.170,279.740 62.813 C 283.614 68.221,285.654 72.705,287.650 80.200 C 289.398 86.764,287.725 97.946,283.927 105.078 C 282.627 107.519,280.067 111.660,279.647 112.000 C 279.511 112.110,278.685 113.100,277.811 114.200 C 273.557 119.556,265.039 127.059,262.106 128.033 C 261.070 128.378,261.085 128.388,262.346 128.201 C 265.114 127.791,275.234 118.789,279.434 113.000 C 280.073 112.120,280.695 111.310,280.816 111.200 C 281.913 110.203,286.400 101.742,286.400 100.669 C 286.400 100.389,286.555 99.989,286.745 99.780 C 287.627 98.808,288.886 91.580,288.866 87.600 C 288.852 84.708,288.338 79.835,288.001 79.400 C 287.830 79.180,287.564 78.236,287.410 77.302 C 287.256 76.368,286.966 75.503,286.765 75.378 C 286.564 75.254,286.400 74.724,286.400 74.200 C 286.400 73.676,286.234 73.145,286.031 73.019 C 285.828 72.894,285.543 72.253,285.399 71.595 C 285.255 70.938,284.971 70.400,284.768 70.400 C 284.566 70.400,284.400 70.051,284.400 69.624 C 284.400 69.197,284.225 68.739,284.011 68.607 C 283.797 68.474,283.310 67.699,282.929 66.883 C 282.548 66.067,281.373 64.205,280.318 62.744 C 279.263 61.283,278.400 59.798,278.400 59.444 C 278.400 59.090,278.220 58.800,278.000 58.800 C 277.780 58.800,277.600 59.031,277.600 59.313 M311.753 121.400 C 311.753 124.040,311.818 125.068,311.897 123.684 C 311.975 122.301,311.974 120.141,311.895 118.884 C 311.816 117.628,311.752 118.760,311.753 121.400 M204.000 146.000 C 204.000 146.231,202.743 146.400,201.029 146.400 C 198.921 146.400,197.883 146.574,197.457 147.000 C 197.069 147.388,196.079 147.600,194.652 147.600 C 193.439 147.600,192.336 147.780,192.200 148.000 C 192.064 148.220,191.148 148.400,190.164 148.400 C 188.943 148.400,188.302 148.590,188.145 149.000 C 187.984 149.418,187.332 149.600,185.991 149.600 C 184.932 149.600,184.003 149.791,183.925 150.024 C 183.848 150.257,183.034 150.458,182.117 150.471 C 181.084 150.485,180.369 150.704,180.237 151.047 C 180.102 151.400,179.398 151.600,178.293 151.600 C 177.340 151.600,176.356 151.804,176.107 152.053 C 175.857 152.303,175.236 152.550,174.727 152.602 C 174.217 152.655,173.564 152.721,173.276 152.749 C 172.988 152.777,172.864 152.980,173.000 153.200 C 173.149 153.442,172.604 153.600,171.624 153.600 C 170.731 153.600,170.000 153.736,170.000 153.902 C 170.000 154.231,167.655 155.131,165.900 155.475 C 165.295 155.594,164.800 155.842,164.800 156.027 C 164.800 156.212,164.168 156.482,163.396 156.627 C 162.623 156.772,161.893 157.050,161.772 157.245 C 161.651 157.440,161.198 157.600,160.764 157.600 C 160.330 157.600,159.871 157.870,159.745 158.200 C 159.604 158.566,158.998 158.800,158.191 158.800 C 157.462 158.800,156.804 158.988,156.727 159.218 C 156.651 159.448,156.186 159.666,155.694 159.703 C 155.202 159.740,154.800 160.002,154.800 160.285 C 154.800 160.568,154.350 160.800,153.800 160.800 C 153.250 160.800,152.800 160.980,152.800 161.200 C 152.800 161.420,152.350 161.600,151.800 161.600 C 151.178 161.600,150.800 161.827,150.800 162.200 C 150.800 162.573,150.422 162.800,149.800 162.800 C 149.250 162.800,148.800 162.980,148.800 163.200 C 148.800 163.420,148.350 163.600,147.800 163.600 C 147.178 163.600,146.800 163.827,146.800 164.200 C 146.800 164.546,146.438 164.800,145.946 164.800 C 145.476 164.800,144.675 165.250,144.165 165.800 C 143.655 166.350,142.870 166.800,142.419 166.800 C 141.969 166.800,141.600 166.960,141.600 167.157 C 141.600 167.353,141.150 167.626,140.600 167.764 C 140.050 167.902,139.600 168.192,139.600 168.408 C 139.600 168.623,139.330 168.800,139.000 168.800 C 138.670 168.800,138.400 168.980,138.400 169.200 C 138.400 169.420,138.121 169.600,137.781 169.600 C 137.440 169.600,136.765 170.025,136.281 170.544 C 135.796 171.064,134.995 171.616,134.500 171.771 C 134.005 171.927,133.600 172.222,133.600 172.427 C 133.600 172.632,133.407 172.800,133.171 172.800 C 132.618 172.800,131.600 173.818,131.600 174.371 C 131.600 174.607,131.252 174.800,130.827 174.800 C 130.401 174.800,129.129 175.700,128.000 176.800 C 126.871 177.900,125.778 178.800,125.571 178.800 C 125.365 178.800,124.315 179.700,123.238 180.800 C 122.161 181.900,121.081 182.800,120.840 182.800 C 120.598 182.800,120.400 182.993,120.400 183.229 C 120.400 183.782,119.382 184.800,118.829 184.800 C 118.593 184.800,118.400 185.027,118.400 185.305 C 118.400 185.583,117.950 186.148,117.400 186.561 C 116.850 186.974,116.400 187.545,116.400 187.829 C 116.400 188.114,115.475 189.296,114.345 190.456 C 113.215 191.616,111.760 193.428,111.111 194.483 C 110.462 195.537,109.764 196.400,109.560 196.400 C 109.332 196.400,109.229 214.810,109.294 243.867 L 109.400 291.334 110.261 291.397 C 110.792 291.436,111.050 291.273,110.934 290.971 C 110.830 290.702,111.099 290.148,111.530 289.741 C 111.983 289.313,112.406 288.240,112.531 287.200 C 112.915 284.021,113.295 282.608,113.854 282.280 C 114.154 282.104,114.400 281.440,114.400 280.804 C 114.400 280.168,114.580 279.536,114.800 279.400 C 115.020 279.264,115.200 278.713,115.200 278.176 C 115.200 277.575,115.431 277.200,115.800 277.200 C 116.173 277.200,116.400 276.822,116.400 276.200 C 116.400 275.650,116.580 275.200,116.800 275.200 C 117.020 275.200,117.200 274.750,117.200 274.200 C 117.200 273.578,117.427 273.200,117.800 273.200 C 118.173 273.200,118.400 272.822,118.400 272.200 C 118.400 271.650,118.580 271.200,118.800 271.200 C 119.020 271.200,119.200 270.750,119.200 270.200 C 119.200 269.650,119.405 269.200,119.656 269.200 C 120.271 269.200,121.172 267.965,121.187 267.100 C 121.194 266.715,121.470 266.400,121.800 266.400 C 122.130 266.400,122.400 266.130,122.400 265.800 C 122.400 265.470,122.580 265.200,122.800 265.200 C 123.020 265.200,123.200 264.938,123.200 264.618 C 123.200 264.298,123.650 263.586,124.200 263.036 C 124.750 262.486,125.200 261.867,125.200 261.661 C 125.200 261.455,125.470 261.182,125.800 261.055 C 126.130 260.929,126.400 260.459,126.400 260.013 C 126.400 259.566,126.593 259.200,126.829 259.200 C 127.382 259.200,128.400 258.182,128.400 257.629 C 128.400 257.393,128.670 257.200,129.000 257.200 C 129.330 257.200,129.600 257.052,129.600 256.872 C 129.600 256.458,134.759 251.200,135.165 251.200 C 135.330 251.200,135.706 250.750,136.000 250.200 C 136.294 249.650,136.775 249.200,137.068 249.200 C 137.360 249.200,137.600 249.028,137.600 248.819 C 137.600 248.609,138.230 248.139,139.000 247.773 C 139.770 247.408,140.400 246.859,140.400 246.554 C 140.400 246.249,140.670 246.000,141.000 246.000 C 141.330 246.000,141.600 245.820,141.600 245.600 C 141.600 245.380,141.879 245.200,142.219 245.200 C 142.560 245.200,143.255 244.750,143.765 244.200 C 144.275 243.650,144.992 243.200,145.358 243.200 C 145.725 243.200,146.129 242.930,146.255 242.600 C 146.382 242.270,146.736 242.000,147.043 242.000 C 147.349 242.000,147.600 241.820,147.600 241.600 C 147.600 241.380,147.842 241.200,148.138 241.200 C 148.434 241.200,149.199 240.750,149.838 240.200 C 150.477 239.651,151.296 239.201,151.657 239.200 C 152.019 239.200,152.418 238.930,152.545 238.600 C 152.671 238.270,153.141 238.000,153.587 238.000 C 154.034 238.000,154.400 237.820,154.400 237.600 C 154.400 237.380,154.831 237.200,155.357 237.200 C 155.884 237.200,156.418 236.930,156.545 236.600 C 156.671 236.270,157.130 236.000,157.564 236.000 C 157.998 236.000,158.464 235.820,158.600 235.600 C 158.736 235.380,159.202 235.200,159.636 235.200 C 160.070 235.200,160.529 234.930,160.655 234.600 C 160.782 234.270,161.216 234.000,161.619 234.000 C 162.023 234.000,162.464 233.820,162.600 233.600 C 162.736 233.380,163.274 233.200,163.795 233.200 C 164.316 233.200,165.013 232.930,165.343 232.600 C 165.673 232.270,166.316 232.000,166.771 232.000 C 167.227 232.000,167.600 231.820,167.600 231.600 C 167.600 231.380,168.236 231.200,169.013 231.200 C 169.899 231.200,170.511 230.977,170.655 230.600 C 170.797 230.230,171.405 230.000,172.243 230.000 C 172.989 230.000,173.600 229.820,173.600 229.600 C 173.600 229.380,174.236 229.200,175.013 229.200 C 175.899 229.200,176.511 228.977,176.655 228.600 C 176.796 228.233,177.403 228.000,178.219 228.000 C 178.953 228.000,179.664 227.820,179.800 227.600 C 179.936 227.380,180.735 227.200,181.575 227.200 C 182.444 227.200,183.316 226.942,183.600 226.600 C 183.916 226.219,184.799 226.000,186.016 226.000 C 187.070 226.000,187.993 225.830,188.067 225.622 C 188.140 225.414,189.163 225.201,190.341 225.149 C 191.668 225.090,192.558 224.853,192.683 224.527 C 192.825 224.157,193.766 224.000,195.843 224.000 C 197.548 224.000,198.800 223.831,198.800 223.600 C 198.800 223.365,200.204 223.200,202.213 223.200 C 204.877 223.200,205.676 223.068,205.855 222.600 C 206.029 222.147,206.761 222.000,208.843 222.000 C 212.316 222.000,212.310 221.975,207.694 217.277 C 204.711 214.241,199.600 207.530,199.600 206.649 C 199.600 206.543,199.081 205.318,198.447 203.928 C 197.812 202.538,197.104 200.770,196.874 200.000 C 196.643 199.230,196.217 197.790,195.927 196.800 C 194.969 193.527,195.251 181.259,196.373 177.400 C 196.885 175.640,197.392 173.792,197.500 173.294 C 197.607 172.796,197.854 172.290,198.048 172.170 C 198.241 172.051,198.400 171.690,198.400 171.368 C 198.400 169.081,207.993 153.056,211.192 150.000 C 215.197 146.174,214.911 145.600,209.000 145.600 C 205.933 145.600,204.000 145.755,204.000 146.000 M205.200 236.615 C 205.200 237.077,204.564 237.200,202.176 237.200 C 200.263 237.200,199.244 237.347,199.400 237.600 C 199.553 237.848,198.818 238.000,197.466 238.000 C 195.897 238.000,195.221 238.168,195.055 238.600 C 194.890 239.032,194.213 239.200,192.636 239.200 C 191.432 239.200,190.351 239.356,190.232 239.547 C 190.114 239.739,189.294 240.011,188.409 240.152 C 187.524 240.294,186.800 240.587,186.800 240.805 C 186.800 241.022,186.170 241.200,185.400 241.200 C 184.630 241.200,184.000 241.357,184.000 241.549 C 184.000 241.741,183.280 242.013,182.400 242.154 C 181.520 242.294,180.800 242.587,180.800 242.805 C 180.800 243.022,180.170 243.200,179.400 243.200 C 178.422 243.200,178.000 243.381,178.000 243.800 C 178.000 244.217,177.580 244.400,176.624 244.400 C 175.867 244.400,175.136 244.580,175.000 244.800 C 174.864 245.020,174.313 245.200,173.776 245.200 C 173.175 245.200,172.800 245.431,172.800 245.800 C 172.800 246.173,172.422 246.400,171.800 246.400 C 171.250 246.400,170.800 246.580,170.800 246.800 C 170.800 247.020,170.350 247.200,169.800 247.200 C 169.178 247.200,168.800 247.427,168.800 247.800 C 168.800 248.173,168.422 248.400,167.800 248.400 C 167.250 248.400,166.800 248.580,166.800 248.800 C 166.800 249.020,166.434 249.200,165.987 249.200 C 165.541 249.200,165.071 249.470,164.945 249.800 C 164.818 250.130,164.284 250.400,163.757 250.400 C 163.231 250.400,162.800 250.580,162.800 250.800 C 162.800 251.020,162.350 251.200,161.800 251.200 C 161.178 251.200,160.800 251.427,160.800 251.800 C 160.800 252.173,160.422 252.400,159.800 252.400 C 159.250 252.400,158.800 252.580,158.800 252.800 C 158.800 253.020,158.530 253.200,158.200 253.200 C 157.870 253.200,157.600 253.470,157.600 253.800 C 157.600 254.173,157.222 254.400,156.600 254.400 C 156.050 254.400,155.600 254.580,155.600 254.800 C 155.600 255.020,155.373 255.200,155.096 255.200 C 154.819 255.200,154.107 255.650,153.513 256.200 C 152.920 256.750,152.247 257.200,152.017 257.200 C 151.788 257.200,151.600 257.470,151.600 257.800 C 151.600 258.130,151.285 258.406,150.900 258.413 C 150.035 258.428,148.800 259.329,148.800 259.944 C 148.800 260.195,148.530 260.400,148.200 260.400 C 147.870 260.400,147.600 260.568,147.600 260.773 C 147.600 260.978,147.267 261.252,146.861 261.381 C 146.455 261.510,145.244 262.422,144.170 263.408 C 143.096 264.393,142.079 265.200,141.909 265.200 C 141.739 265.200,141.600 265.470,141.600 265.800 C 141.600 266.130,141.330 266.400,141.000 266.400 C 140.670 266.400,140.400 266.593,140.400 266.829 C 140.400 267.350,139.395 268.400,138.896 268.400 C 138.698 268.400,138.294 268.850,138.000 269.400 C 137.706 269.950,137.225 270.400,136.932 270.400 C 136.640 270.400,136.400 270.593,136.400 270.829 C 136.400 271.382,135.382 272.400,134.829 272.400 C 134.593 272.400,134.400 272.593,134.400 272.829 C 134.400 273.382,133.382 274.400,132.829 274.400 C 132.593 274.400,132.400 274.604,132.400 274.853 C 132.400 275.102,131.770 275.900,131.000 276.626 C 130.230 277.352,129.600 278.318,129.600 278.773 C 129.600 279.228,129.407 279.600,129.171 279.600 C 128.638 279.600,127.600 280.610,127.600 281.129 C 127.600 281.341,127.330 281.618,127.000 281.745 C 126.670 281.871,126.400 282.263,126.400 282.614 C 126.400 282.966,125.770 283.848,125.000 284.574 C 124.230 285.300,123.600 286.278,123.600 286.747 C 123.600 287.239,123.346 287.600,123.000 287.600 C 122.654 287.600,122.400 287.962,122.400 288.454 C 122.400 288.924,121.941 289.734,121.379 290.254 C 120.818 290.774,120.479 291.200,120.625 291.200 C 120.772 291.200,120.601 291.644,120.246 292.186 C 119.891 292.728,119.600 293.429,119.600 293.743 C 119.600 294.057,119.330 294.418,119.000 294.545 C 118.670 294.671,118.400 295.058,118.400 295.405 C 118.400 295.751,117.950 296.520,117.400 297.113 C 116.811 297.748,116.400 298.669,116.400 299.352 C 116.400 299.990,116.085 300.751,115.700 301.043 C 114.838 301.698,116.713 301.861,117.905 301.236 C 118.574 300.885,120.939 299.794,125.600 297.686 C 130.025 295.685,130.603 295.394,130.733 295.100 C 130.807 294.935,131.095 294.800,131.374 294.800 C 131.653 294.800,132.727 294.350,133.762 293.800 C 134.796 293.250,135.903 292.800,136.221 292.800 C 136.540 292.800,136.800 292.655,136.800 292.477 C 136.800 292.299,137.475 291.871,138.300 291.526 C 139.125 291.180,140.070 290.784,140.400 290.644 C 140.730 290.505,141.540 290.046,142.200 289.625 C 142.860 289.203,143.715 288.845,144.100 288.829 C 144.485 288.813,144.800 288.623,144.800 288.408 C 144.800 288.192,145.250 287.902,145.800 287.764 C 146.350 287.626,146.800 287.353,146.800 287.157 C 146.800 286.960,147.138 286.800,147.551 286.800 C 147.964 286.800,148.526 286.530,148.800 286.200 C 149.074 285.870,149.536 285.600,149.826 285.600 C 150.117 285.600,151.037 285.195,151.871 284.700 C 153.715 283.606,155.510 282.637,159.083 280.810 C 160.577 280.046,162.471 279.011,163.292 278.510 C 164.113 278.010,165.058 277.600,165.392 277.600 C 165.726 277.600,166.000 277.452,166.000 277.271 C 166.000 277.090,166.765 276.548,167.700 276.067 C 168.635 275.586,170.660 274.464,172.200 273.575 C 173.740 272.686,175.315 271.856,175.700 271.732 C 176.085 271.608,176.400 271.367,176.400 271.197 C 176.400 271.026,176.850 270.774,177.400 270.636 C 177.950 270.498,178.400 270.208,178.400 269.992 C 178.400 269.777,178.760 269.600,179.200 269.600 C 179.640 269.600,180.000 269.423,180.000 269.208 C 180.000 268.992,180.450 268.702,181.000 268.564 C 181.550 268.426,182.000 268.174,182.000 268.003 C 182.000 267.833,182.315 267.590,182.700 267.463 C 183.613 267.163,186.269 265.638,187.863 264.500 C 188.556 264.005,189.233 263.600,189.366 263.600 C 189.500 263.600,191.045 262.700,192.800 261.600 C 194.555 260.500,196.095 259.600,196.222 259.600 C 196.349 259.600,197.043 259.150,197.764 258.600 C 198.486 258.050,199.244 257.600,199.449 257.600 C 200.070 257.600,201.182 256.068,201.854 254.284 C 203.451 250.044,204.930 246.596,205.888 244.874 C 208.104 240.895,208.387 240.404,209.379 238.834 C 210.936 236.367,210.797 236.125,207.800 236.074 C 205.764 236.039,205.200 236.156,205.200 236.615 M196.393 274.939 C 195.627 275.455,193.920 276.474,192.600 277.203 C 191.280 277.931,189.847 278.723,189.415 278.963 C 188.984 279.204,188.386 279.625,188.087 279.900 C 187.788 280.175,187.286 280.400,186.971 280.400 C 186.657 280.400,186.400 280.580,186.400 280.800 C 186.400 281.020,186.040 281.200,185.600 281.200 C 185.160 281.200,184.800 281.348,184.800 281.529 C 184.800 281.710,184.035 282.263,183.100 282.759 C 182.165 283.254,180.556 284.141,179.525 284.730 C 176.409 286.508,174.293 287.685,172.400 288.694 C 171.410 289.222,169.700 290.187,168.600 290.840 C 167.500 291.492,166.330 292.123,166.000 292.242 C 165.670 292.361,165.040 292.659,164.600 292.904 C 164.160 293.149,162.810 293.875,161.600 294.518 C 160.390 295.160,159.229 295.846,159.020 296.043 C 158.811 296.239,158.316 296.400,157.920 296.400 C 157.524 296.400,157.200 296.539,157.200 296.709 C 157.200 296.879,156.525 297.350,155.700 297.755 C 154.875 298.161,153.660 298.774,153.000 299.117 C 152.340 299.460,151.530 299.864,151.200 300.013 C 150.870 300.163,149.970 300.613,149.200 301.013 C 147.686 301.800,147.413 301.933,145.000 303.056 C 144.120 303.465,143.340 303.935,143.267 304.100 C 143.193 304.265,142.893 304.400,142.599 304.400 C 141.957 304.400,139.455 305.677,139.267 306.100 C 139.193 306.265,138.905 306.400,138.626 306.400 C 138.347 306.400,137.273 306.850,136.238 307.400 C 135.204 307.950,134.097 308.400,133.779 308.400 C 133.460 308.400,133.200 308.545,133.200 308.723 C 133.200 308.901,132.435 309.368,131.500 309.762 C 129.071 310.785,125.503 312.428,124.800 312.847 C 124.470 313.044,123.930 313.310,123.600 313.439 C 122.035 314.048,121.226 314.393,119.000 315.398 C 117.680 315.993,115.970 316.753,115.200 317.085 C 114.430 317.417,113.487 317.849,113.105 318.044 C 112.723 318.240,112.145 318.400,111.820 318.400 C 110.440 318.400,110.400 319.603,110.400 361.374 L 110.400 402.800 111.400 402.800 C 112.133 402.800,112.400 402.587,112.400 402.000 C 112.400 401.560,112.580 401.200,112.800 401.200 C 113.020 401.200,113.200 400.589,113.200 399.843 C 113.200 399.005,113.430 398.397,113.800 398.255 C 114.130 398.129,114.400 397.569,114.400 397.013 C 114.400 396.456,114.580 396.000,114.800 396.000 C 115.020 396.000,115.200 395.569,115.200 395.043 C 115.200 394.516,115.470 393.982,115.800 393.855 C 116.151 393.721,116.400 393.121,116.400 392.413 C 116.400 391.746,116.580 391.200,116.800 391.200 C 117.020 391.200,117.200 390.750,117.200 390.200 C 117.200 389.578,117.427 389.200,117.800 389.200 C 118.173 389.200,118.400 388.822,118.400 388.200 C 118.400 387.650,118.580 387.200,118.800 387.200 C 119.020 387.200,119.200 386.750,119.200 386.200 C 119.200 385.578,119.427 385.200,119.800 385.200 C 120.173 385.200,120.400 384.822,120.400 384.200 C 120.400 383.650,120.580 383.200,120.800 383.200 C 121.020 383.200,121.200 382.840,121.200 382.400 C 121.200 381.960,121.421 381.645,121.691 381.700 C 121.960 381.755,122.243 381.395,122.318 380.900 C 122.394 380.405,122.604 380.000,122.784 380.000 C 122.965 380.000,123.226 379.550,123.364 379.000 C 123.502 378.450,123.792 378.000,124.008 378.000 C 124.223 378.000,124.400 377.631,124.400 377.181 C 124.400 376.730,124.850 375.945,125.400 375.435 C 125.950 374.925,126.400 374.296,126.400 374.037 C 126.400 373.777,126.850 373.080,127.400 372.487 C 127.950 371.893,128.400 371.173,128.400 370.885 C 128.400 370.597,128.850 369.945,129.400 369.435 C 129.950 368.925,130.403 368.259,130.407 367.954 C 130.411 367.649,130.861 366.976,131.407 366.458 C 131.953 365.940,132.400 365.175,132.400 364.758 C 132.400 364.341,132.670 364.000,133.000 364.000 C 133.330 364.000,133.600 363.812,133.600 363.583 C 133.600 363.353,134.050 362.680,134.600 362.087 C 135.150 361.493,135.600 360.781,135.600 360.504 C 135.600 360.227,135.780 360.000,136.000 360.000 C 136.220 360.000,136.400 359.730,136.400 359.400 C 136.400 359.070,136.593 358.800,136.829 358.800 C 137.303 358.800,138.400 357.813,138.400 357.386 C 138.400 357.237,138.850 356.761,139.400 356.329 C 139.950 355.896,140.400 355.195,140.400 354.771 C 140.400 354.347,140.670 354.000,141.000 354.000 C 141.330 354.000,141.600 353.807,141.600 353.571 C 141.600 353.018,142.618 352.000,143.171 352.000 C 143.407 352.000,143.600 351.822,143.600 351.605 C 143.600 350.990,144.904 349.617,145.271 349.844 C 145.452 349.956,145.600 349.844,145.600 349.595 C 145.600 349.022,146.607 348.000,147.171 348.000 C 147.407 348.000,147.600 347.807,147.600 347.571 C 147.600 347.018,148.618 346.000,149.171 346.000 C 149.407 346.000,149.600 345.760,149.600 345.468 C 149.600 345.175,150.050 344.694,150.600 344.400 C 151.150 344.106,151.600 343.625,151.600 343.332 C 151.600 343.040,151.935 342.800,152.344 342.800 C 152.753 342.800,153.426 342.350,153.839 341.800 C 154.252 341.250,154.741 340.800,154.926 340.800 C 155.111 340.800,155.976 340.080,156.847 339.200 C 157.718 338.320,158.631 337.600,158.875 337.600 C 159.119 337.600,159.931 336.970,160.679 336.200 C 161.427 335.430,162.305 334.800,162.632 334.800 C 162.958 334.800,163.329 334.530,163.455 334.200 C 163.582 333.870,163.859 333.600,164.071 333.600 C 164.590 333.600,165.600 332.562,165.600 332.029 C 165.600 331.793,166.050 331.600,166.600 331.600 C 167.150 331.600,167.600 331.420,167.600 331.200 C 167.600 330.980,167.870 330.800,168.200 330.800 C 168.530 330.800,168.800 330.530,168.800 330.200 C 168.800 329.827,169.178 329.600,169.800 329.600 C 170.350 329.600,170.800 329.420,170.800 329.200 C 170.800 328.980,171.027 328.800,171.304 328.800 C 171.581 328.800,172.293 328.350,172.887 327.800 C 173.480 327.250,174.333 326.800,174.783 326.800 C 175.243 326.800,175.600 326.538,175.600 326.200 C 175.600 325.870,175.949 325.600,176.376 325.600 C 176.803 325.600,177.264 325.420,177.400 325.200 C 177.536 324.980,178.002 324.800,178.436 324.800 C 178.870 324.800,179.329 324.530,179.455 324.200 C 179.582 323.870,179.936 323.600,180.243 323.600 C 180.549 323.600,180.800 323.420,180.800 323.200 C 180.800 322.980,181.346 322.800,182.013 322.800 C 182.721 322.800,183.321 322.551,183.455 322.200 C 183.582 321.870,184.116 321.600,184.643 321.600 C 185.169 321.600,185.600 321.420,185.600 321.200 C 185.600 320.980,186.056 320.800,186.613 320.800 C 187.169 320.800,187.729 320.530,187.855 320.200 C 187.982 319.870,188.527 319.600,189.066 319.600 C 189.618 319.600,189.939 319.425,189.800 319.200 C 189.656 318.967,190.053 318.800,190.748 318.800 C 191.405 318.800,192.213 318.530,192.543 318.200 C 192.873 317.870,193.516 317.600,193.971 317.600 C 194.427 317.600,194.800 317.420,194.800 317.200 C 194.800 316.980,195.436 316.800,196.213 316.800 C 197.099 316.800,197.711 316.577,197.855 316.200 C 197.996 315.834,198.602 315.600,199.409 315.600 C 200.138 315.600,200.793 315.426,200.867 315.213 C 200.940 315.000,201.606 314.780,202.347 314.724 C 203.087 314.668,203.781 314.393,203.889 314.111 C 204.012 313.793,204.823 313.600,206.043 313.600 C 207.119 313.600,208.000 313.420,208.000 313.200 C 208.000 312.980,208.816 312.800,209.813 312.800 C 211.055 312.800,211.698 312.611,211.855 312.200 C 211.997 311.830,212.605 311.600,213.443 311.600 C 215.228 311.600,215.316 311.800,211.300 306.749 C 209.375 304.328,207.732 302.134,207.648 301.873 C 207.564 301.613,207.267 301.130,206.988 300.800 C 205.819 299.417,202.400 292.744,202.400 291.846 C 202.400 291.517,202.241 291.149,202.048 291.030 C 201.854 290.910,201.596 290.404,201.474 289.906 C 201.352 289.408,200.889 287.740,200.445 286.200 C 200.002 284.660,199.435 281.690,199.186 279.600 C 198.426 273.213,198.578 273.466,196.393 274.939 " stroke="none" fill="#149cd4" fill-rule="evenodd"></path><path id="path4" d="M311.693 128.400 C 311.693 129.170,311.775 129.485,311.876 129.100 C 311.976 128.715,311.976 128.085,311.876 127.700 C 311.775 127.315,311.693 127.630,311.693 128.400 M307.756 195.713 C 291.601 209.243,265.772 228.754,247.649 241.119 C 232.133 251.705,206.566 268.308,203.600 269.724 C 203.270 269.882,202.100 270.558,201.000 271.227 C 199.900 271.895,198.685 272.544,198.300 272.668 C 197.915 272.792,197.600 273.052,197.600 273.247 C 197.600 273.441,197.423 273.600,197.207 273.600 C 196.886 273.600,193.969 275.236,190.800 277.193 C 189.667 277.893,185.798 280.124,184.000 281.115 C 183.010 281.661,182.020 282.246,181.800 282.415 C 181.580 282.584,180.590 283.159,179.600 283.691 C 173.769 286.829,171.355 288.154,171.000 288.411 C 170.780 288.570,169.340 289.380,167.800 290.210 C 166.260 291.040,164.190 292.176,163.200 292.733 C 160.562 294.217,131.379 308.843,128.800 309.973 C 127.590 310.504,125.250 311.554,123.600 312.306 C 116.718 315.447,115.713 315.895,113.902 316.630 C 111.888 317.447,109.430 319.068,111.000 318.543 C 111.440 318.396,111.980 318.139,112.201 317.971 C 112.422 317.803,113.502 317.311,114.601 316.876 C 115.700 316.442,117.770 315.551,119.200 314.897 C 122.985 313.166,126.401 311.619,128.000 310.912 C 130.696 309.721,159.029 295.593,162.000 293.958 C 163.650 293.051,166.440 291.541,168.200 290.604 C 169.960 289.667,172.030 288.547,172.800 288.115 C 173.570 287.684,175.280 286.732,176.600 286.000 C 177.920 285.269,180.772 283.619,182.937 282.335 C 185.103 281.051,186.956 280.000,187.056 280.000 C 187.157 280.000,188.223 279.370,189.427 278.600 C 190.631 277.830,191.699 277.200,191.801 277.200 C 191.903 277.200,193.114 276.511,194.493 275.669 C 195.872 274.826,197.900 273.678,199.000 273.116 C 202.122 271.522,202.919 271.066,204.267 270.100 C 204.958 269.605,205.648 269.200,205.800 269.200 C 205.952 269.200,206.644 268.795,207.337 268.300 C 208.030 267.805,209.227 267.062,209.998 266.650 C 210.769 266.237,211.490 265.786,211.600 265.646 C 211.710 265.507,212.475 265.038,213.300 264.605 C 214.125 264.172,214.800 263.679,214.800 263.509 C 214.800 263.339,214.992 263.200,215.227 263.200 C 215.461 263.200,216.243 262.750,216.964 262.200 C 217.686 261.650,218.406 261.200,218.564 261.200 C 218.723 261.200,219.443 260.750,220.164 260.200 C 220.886 259.650,221.588 259.200,221.726 259.200 C 222.086 259.200,225.774 256.658,225.933 256.300 C 226.007 256.135,226.234 256.000,226.438 256.000 C 226.774 256.000,231.520 252.938,232.000 252.412 C 232.110 252.291,232.875 251.838,233.700 251.405 C 234.525 250.972,235.200 250.479,235.200 250.309 C 235.200 250.139,235.427 250.000,235.704 250.000 C 235.981 250.000,236.693 249.550,237.287 249.000 C 237.880 248.450,238.491 248.000,238.645 248.000 C 238.799 248.000,239.514 247.550,240.236 247.000 C 240.957 246.450,241.695 246.000,241.877 246.000 C 242.059 246.000,242.664 245.578,243.221 245.061 C 243.778 244.545,244.406 244.050,244.617 243.961 C 245.293 243.677,249.773 240.624,250.571 239.905 C 250.994 239.522,251.669 239.105,252.071 238.978 C 252.472 238.850,252.800 238.578,252.800 238.373 C 252.800 238.168,252.992 238.000,253.227 238.000 C 253.649 238.000,256.229 236.238,257.000 235.423 C 257.220 235.190,257.871 234.758,258.446 234.462 C 259.021 234.165,259.958 233.490,260.528 232.962 C 261.098 232.433,261.710 232.000,261.887 232.000 C 262.063 232.000,262.669 231.573,263.232 231.050 C 263.796 230.528,264.964 229.649,265.828 229.097 C 266.693 228.545,267.940 227.623,268.600 227.047 C 269.260 226.472,269.922 226.001,270.071 226.000 C 270.221 226.000,270.581 225.775,270.871 225.500 C 271.162 225.225,272.480 224.201,273.800 223.224 C 275.120 222.246,276.260 221.301,276.333 221.124 C 276.407 220.946,276.679 220.800,276.937 220.800 C 277.196 220.800,277.856 220.395,278.404 219.900 C 278.952 219.405,280.480 218.201,281.800 217.224 C 283.120 216.246,284.260 215.301,284.333 215.124 C 284.407 214.946,284.639 214.800,284.850 214.800 C 285.061 214.800,285.451 214.617,285.717 214.393 C 287.059 213.261,288.311 212.247,289.330 211.466 C 293.418 208.334,294.623 207.394,294.800 207.200 C 294.910 207.079,296.710 205.610,298.800 203.936 C 300.890 202.262,302.994 200.545,303.475 200.121 C 303.956 199.697,304.825 199.001,305.406 198.575 C 305.987 198.149,307.066 197.260,307.803 196.600 C 311.498 193.292,312.542 192.615,313.431 192.957 C 313.744 193.077,314.000 193.001,314.000 192.787 C 314.000 191.412,311.483 192.592,307.756 195.713 M237.200 232.600 C 237.200 232.930,237.063 233.200,236.896 233.200 C 236.729 233.200,236.142 233.605,235.593 234.100 C 235.043 234.595,233.650 235.630,232.497 236.400 C 231.345 237.170,230.401 237.935,230.401 238.100 C 230.400 238.265,230.192 238.400,229.938 238.400 C 229.684 238.400,228.886 238.850,228.164 239.400 C 227.443 239.950,226.739 240.400,226.600 240.400 C 226.461 240.400,225.757 240.850,225.036 241.400 C 224.314 241.950,223.560 242.400,223.358 242.400 C 223.157 242.400,222.534 242.805,221.975 243.300 C 220.692 244.435,219.596 245.157,218.700 245.458 C 218.315 245.588,218.000 245.852,218.000 246.047 C 218.000 246.241,217.808 246.400,217.573 246.400 C 217.339 246.400,216.557 246.850,215.836 247.400 C 215.114 247.950,214.376 248.400,214.194 248.400 C 214.012 248.400,213.578 248.658,213.231 248.972 C 212.883 249.287,212.149 249.788,211.599 250.086 C 211.050 250.383,209.293 251.476,207.696 252.513 C 206.099 253.551,204.696 254.400,204.579 254.400 C 204.462 254.400,203.428 255.098,202.283 255.950 C 200.315 257.414,193.458 261.699,186.800 265.623 C 185.150 266.596,183.500 267.574,183.133 267.796 C 182.766 268.018,181.956 268.482,181.333 268.826 C 177.428 270.983,171.262 274.497,169.400 275.627 C 168.740 276.028,167.210 276.875,166.000 277.510 C 164.790 278.145,162.360 279.445,160.600 280.399 C 152.688 284.685,150.344 285.896,139.800 291.145 C 122.961 299.527,117.112 302.175,116.047 301.896 C 115.475 301.747,115.321 301.850,115.484 302.275 C 115.830 303.177,116.620 302.891,126.400 298.325 C 131.376 296.002,149.831 286.748,154.600 284.184 C 157.240 282.765,160.210 281.198,161.200 280.702 C 162.190 280.206,163.090 279.710,163.200 279.600 C 163.310 279.490,164.210 278.993,165.200 278.497 C 166.190 278.000,167.990 277.036,169.200 276.353 C 170.410 275.671,172.390 274.566,173.600 273.899 C 174.810 273.232,176.250 272.381,176.800 272.008 C 177.350 271.635,178.070 271.209,178.400 271.060 C 178.730 270.911,179.900 270.242,181.000 269.573 C 182.100 268.905,183.315 268.256,183.700 268.132 C 184.085 268.008,184.400 267.748,184.400 267.553 C 184.400 267.359,184.606 267.200,184.857 267.200 C 185.108 267.200,186.454 266.480,187.847 265.600 C 189.240 264.720,190.473 264.000,190.587 264.000 C 190.701 264.000,193.863 262.065,197.615 259.700 C 201.366 257.335,204.833 255.179,205.318 254.908 C 207.197 253.861,228.286 240.172,234.139 236.200 C 236.753 234.426,238.732 232.000,237.565 232.000 C 237.364 232.000,237.200 232.270,237.200 232.600 " stroke="none" fill="#80bce8" fill-rule="evenodd"></path></g></svg>