<?xml version="1.0" encoding="utf-8"?>
<!-- Generator: Adobe Illustrator 25.0.0, SVG Export Plug-In . SVG Version: 6.00 Build 0)  -->
<svg version="1.1" id="Layer_1" xmlns="http://www.w3.org/2000/svg" xmlns:xlink="http://www.w3.org/1999/xlink" x="0px" y="0px"
	 viewBox="0 0 202 29" style="enable-background:new 0 0 202 29;" xml:space="preserve">
<style type="text/css">
	.st0{fill:url(#SVGID_1_);}
	.st1{fill:url(#SVGID_2_);}
</style>
<g>
	
		<linearGradient id="SVGID_1_" gradientUnits="userSpaceOnUse" x1="0.7977648" y1="27.8896351" x2="28.8310165" y2="3.5207005" gradientTransform="matrix(1 0 0 -1 0 29.9878235)">
		<stop  offset="0" style="stop-color:#4D49C4"/>
		<stop  offset="0.76" style="stop-color:#1DAFBA"/>
		<stop  offset="0.94" style="stop-color:#1DBA9B"/>
	</linearGradient>
	<path class="st0" d="M28.0823479,6.2518377L6.1599798,26.6278305c0,0-0.5058517,0.4838867-0.6777267,0.6288986
		c-0.2780838,0.2747345-0.6484985,0.4360962-1.0390625,0.4526367H2.962188
		c-0.8016431-0.0008698-1.4512784-0.6505051-1.4521482-1.4521484v-1.480484
		c0.0482483-0.431778,0.2524261-0.8310928,0.5742188-1.1230011c0.1347733-0.1479492,0.3359375-0.3237305,0.3388672-0.3261719
		L20.8411217,6.2079344H5.5491247v3.6039963c-0.0011673,0.966011-0.783989,1.7488317-1.7499998,1.749999H2.3362498
		c-0.9660109-0.0011749-1.7488248-0.783988-1.7499998-1.749999v-6.817409
		C0.5874173,2.028507,1.3702389,1.2456893,2.3362498,1.244522l24.6680031,0.001461
		c0.9660187,0.0011673,1.7488251,0.783985,1.75,1.7499996v1.4619217c-0.0040283,0.3351517-0.0398407,0.6691666-0.1069336,0.9975586
		C28.5446434,5.7723417,28.3474998,6.050231,28.0823479,6.2518377z M13.9849606,22.9378357h-1.0322189
		c-0.966011,0.0011673-1.7488327,0.783989-1.75,1.75v1.2617188c0.0012054,0.9659195,0.7840805,1.7485733,1.75,1.7495117h1.0322189
		c0.9659195-0.0009384,1.7487946-0.7835922,1.75-1.7495117v-1.2617264
		C15.7337933,23.721817,14.9509716,22.9389954,13.9849606,22.9378357z M26.9634819,12.7098408h-1.0268555
		c-0.9660187,0.0011749-1.7488251,0.783989-1.75,1.75v11.489706c0.0012054,0.9659195,0.7840881,1.7485733,1.75,1.7495117h1.0268555
		c0.9659119-0.0009384,1.7487946-0.7835922,1.75-1.7495117V14.459795c-0.0011749-0.966011-0.7839813-1.7488251-1.75-1.75V12.7098408
		z M20.5162468,17.8221073H19.488905c-0.9660187,0.0011597-1.7488403,0.7839813-1.75,1.75v6.3774395
		c0.0012054,0.9659195,0.7840805,1.7485733,1.75,1.7495117h1.0273418c0.9659119-0.0009384,1.7487946-0.7835922,1.75-1.7495117
		v-6.3774395C22.2650871,18.6060886,21.4822655,17.823267,20.5162468,17.8221073z"/>
	
		<linearGradient id="SVGID_2_" gradientUnits="userSpaceOnUse" x1="52.086956" y1="56.6502991" x2="183.9129181" y2="-25.7236919" gradientTransform="matrix(1 0 0 -1 0 29.9878235)">
		<stop  offset="0.2555" style="stop-color:#1DAFBA"/>
		<stop  offset="0.36991" style="stop-color:#3F65C1"/>
		<stop  offset="0.64" style="stop-color:#4D49C4"/>
	</linearGradient>
	<path class="st1" d="M40.7530937,1.6196706v25.7602425c0.0110016,0.2198563-0.1583099,0.4069977-0.3781586,0.4179993
		c-0.0132751,0.0006638-0.0265656,0.0006638-0.0398407,0h-5.3950043c-0.2377625,0.0138168-0.4416962-0.1677246-0.4555054-0.4054794
		c-0.0002441-0.0041733-0.0004272-0.0083466-0.0005493-0.0125198V1.6196706
		c0.006897-0.2380561,0.2054749-0.4254454,0.4435272-0.4185447c0.0041809,0.0001221,0.0083618,0.0003014,0.0125275,0.0005455
		h5.3950043c0.2198486-0.0110016,0.4069977,0.1583099,0.4179993,0.3781661
		C40.7537651,1.5931051,40.7537651,1.6063993,40.7530937,1.6196706z M59.067543,17.3115559v-3.9897461
		c-0.0136261-0.2376862,0.1680145-0.4414062,0.4057007-0.4550323c0.0040894-0.0002289,0.008194-0.000412,0.0122986-0.0005264
		h12.5380859c0.2174683-0.0027618,0.4000244,0.163147,0.4179993,0.3798828
		c0.0736237,0.6304932,0.1116028,1.2646332,0.1137695,1.8994064c0,7.8271465-5.28125,13.1083965-13.3359375,13.1083965
		c-8.5488281,0-14.171875-5.4711914-14.171875-13.7538967c0-8.1689978,5.5473633-13.7539082,13.7919922-13.7539082
		c5.2431641,0,9.6884766,2.1274409,11.7783356,6.0029287c0.1518555,0.2280006,0.0761719,0.4179993-0.1518555,0.5698204
		l-4.5976562,2.3178711c-0.1922455,0.1107559-0.4378662,0.0447006-0.5486298-0.1475449
		c-0.0078888-0.0137024-0.0149689-0.0278549-0.0211945-0.0423965c-1.4070129-1.974678-3.7351074-3.0813751-6.1547852-2.9257812
		c-4.7114258,0-7.5991211,3.0776367-7.5991211,8.0927801c0,4.9770508,2.8496094,8.0170879,7.7890778,8.0170879
		c3.609375,0,6.1928711-1.9380016,6.5346527-4.9013653h-6.3828125c-0.2200165,0.0108643-0.4071808-0.1586761-0.418045-0.378685
		C59.0669022,17.3377552,59.0669022,17.3246479,59.067543,17.3115559z M101.8160706,7.2807951l-4.5214844,2.3178711
		c-0.184021,0.1194839-0.430069,0.0671692-0.5495453-0.1168594c-0.0073547-0.0113144-0.0141144-0.022995-0.0202789-0.0350037
		c-1.2886658-1.9694519-3.5411987-3.0885315-5.8891602-2.9257812c-4.4453125,0-7.2568283,2.9257812-7.2568283,7.979003
		c0,5.0908203,2.8496017,7.9785061,7.2949142,7.9785061c2.3997498,0.1333313,4.6831818-1.0447369,5.9653473-3.0776272
		c0.0872192-0.2039337,0.3232574-0.2985382,0.5271912-0.211319c0.0146179,0.0062561,0.0288544,0.0133743,0.0426331,0.0213165
		l4.6352539,2.1279297c0.2279968,0.1518631,0.3417969,0.3417969,0.1900024,0.5698299
		c-2.1279297,4.0654297-6.2310028,6.3452072-11.512207,6.3452072c-8.1689377,0-13.6401291-5.5092697-13.6401291-13.7538967
		c0-8.24512,5.4331055-13.7539082,13.6020432-13.7539082c5.1293945,0,9.1948242,2.1655307,11.3222656,5.964839
		c0.1174774,0.172123,0.0731812,0.4068947-0.098938,0.5243721c-0.0281677,0.0192184-0.0587921,0.0345345-0.0910645,0.0455246
		L101.8160706,7.2807951z M129.1759338,1.6196668v25.7602463c-0.0019684,0.2300339-0.1879578,0.4160309-0.4179993,0.4179993
		h-5.4711914c-0.2299652-0.0021362-0.415863-0.1880341-0.4179993-0.4179993v-9.7646542h-9.7265015v9.7646465
		c-0.0019073,0.2298584-0.1876221,0.415802-0.4174805,0.4179993h-5.4711914
		c-0.2300415-0.0019684-0.4160309-0.1879654-0.4179993-0.4179993V1.6196706
		c0.0019684-0.2300338,0.1879578-0.4160308,0.4179993-0.4179991h5.4711914
		c0.2298584,0.0021935,0.4155731,0.1881409,0.4174805,0.4179991v10.1445293h9.7265625V1.6196706
		c0.0021362-0.2299613,0.1880341-0.4158629,0.4179993-0.4179991h5.4711914
		C128.9880066,1.2036704,129.1739655,1.3896598,129.1759338,1.6196668z M148.4049377,1.2778662l12.0820007,25.9121056
		c0.1523438,0.3417892,0,0.6079102-0.3798828,0.6079102h-6.0029297c-0.1788025-0.0013733-0.341095-0.1047134-0.4179993-0.2661209
		l-1.8237305-4.2934494h-9.574707l-1.8237305,4.2934494c-0.0767975,0.161499-0.2391663,0.2648773-0.4179993,0.2661209h-6.0029297
		c-0.3798828,0-0.5317383-0.2661209-0.3798828-0.6079102l12.0820007-25.9121056
		c0.0690613-0.1509819,0.214386-0.2527924,0.3798828-0.2661209h1.8999023
		C148.1904755,1.0250319,148.3358612,1.12685,148.4049377,1.2778662z M149.8487854,18.0713291l-2.7358398-6.8007889
		l-2.8115234,6.8007889H149.8487854z M171.7760162,1.6196706v25.7602425
		c0.0109863,0.2198563-0.1583252,0.4069977-0.3781586,0.4179993c-0.0132751,0.0006638-0.0265503,0.0006638-0.0398254,0h-5.394989
		c-0.2377625,0.0138168-0.4416809-0.1677246-0.4555054-0.4054794c-0.0002441-0.0041733-0.0004272-0.0083466-0.0005493-0.0125198
		V1.6196706c0.006897-0.2380561,0.2054749-0.4254454,0.4435425-0.4185447
		c0.0041809,0.0001221,0.0083313,0.0003014,0.0125122,0.0005455h5.394989
		c0.2198334-0.0110016,0.4069977,0.1583099,0.417984,0.3781661C171.7766876,1.5931051,171.7766876,1.6063993,171.7760162,1.6196706z
		 M201.4132233,1.6196706v25.9501839c0.0111694,0.2196884-0.1578979,0.4068375-0.3775635,0.4179993
		c-0.0134888,0.0006866-0.0269775,0.0006866-0.0404358,0h-1.7090149c-0.184082,0.0089569-0.3634338-0.0599899-0.4941406-0.1899414
		l-14.0961914-15.0839977v14.6659985c-0.0021362,0.2299652-0.1880493,0.415863-0.4179993,0.4179993h-5.3574219
		c-0.2377625,0.0138092-0.4417114-0.1677399-0.4555054-0.4054947c-0.0002441-0.0041656-0.0004272-0.0083389-0.0005493-0.0125046
		V1.4297216c0.006897-0.2380599,0.2055054-0.4254493,0.4435425-0.4185447
		c0.0041809,0.0001221,0.0083618,0.0003052,0.0125122,0.0005455h1.6337891
		c0.2218628-0.0089417,0.4342651,0.0902634,0.5698242,0.2661209L195.2207489,16.32374V1.6196706
		c-0.0111694-0.2196921,0.1578979-0.4068373,0.3775635-0.4179991c0.0134888-0.0006828,0.0269775-0.0006828,0.0404358,0h5.3564758
		c0.219696-0.0111618,0.4068298,0.1578827,0.4179993,0.3775748C201.4138947,1.5927122,201.4138947,1.6062047,201.4132233,1.6196706z
		"/>
</g>
</svg>
