<svg width="364" height="76" viewBox="0 0 364 76" fill="none" xmlns="http://www.w3.org/2000/svg">
<g clip-path="url(#clip0_1940_738)">
<path d="M100.111 15.48C102.604 15.48 105.097 16.0551 107.59 17.0136C109.891 17.9721 112.001 19.5057 113.727 21.6144C117.37 25.6402 119.096 30.6244 119.096 36.7588C119.096 42.7015 117.37 47.8775 113.727 51.9032C112.001 53.8202 110.083 55.3538 107.59 56.504C105.289 57.4625 102.796 58.0376 100.111 58.0376C95.3162 58.0376 91.4807 56.504 88.6041 53.2451V56.8874H75.1797V0.527344H88.4123V20.2725C91.4807 17.0136 95.3162 15.48 100.111 15.48ZM91.0971 42.8932C92.8231 44.4269 94.9327 45.1937 97.234 45.1937C99.5353 45.1937 101.645 44.4269 103.371 42.8932C104.138 42.1264 104.713 40.9762 105.097 40.0177C105.48 38.8675 105.672 37.7173 105.672 36.5671C105.672 35.4169 105.48 34.2667 105.097 33.1165C104.713 31.9663 104.138 31.0078 103.371 30.241C101.645 28.7074 99.5353 27.9406 97.234 27.9406C94.9327 27.9406 92.8231 28.7074 91.0971 30.241C90.33 31.0078 89.7547 32.158 89.3712 33.1165C88.9876 34.2667 88.7958 35.4169 88.7958 36.5671C88.7958 37.7173 88.9876 38.8675 89.3712 40.0177C89.7547 40.9762 90.33 42.1264 91.0971 42.8932Z" fill="black"/>
<path d="M150.366 16.6328H163.791V56.5066H150.366V52.4809C147.873 55.9315 144.23 57.6568 139.243 57.6568C137.326 57.6568 135.216 57.2734 133.49 56.5066C131.572 55.7398 130.038 54.5896 128.696 53.056C126.011 50.1805 124.477 45.7714 124.477 40.4037V16.6328H137.901V38.8701C137.901 39.6369 137.901 40.5954 138.284 41.3622C138.476 42.129 139.052 42.8958 139.627 43.4709C140.202 44.046 140.969 44.4294 141.736 44.6211C142.504 44.8128 143.271 45.0045 144.038 45.0045C144.997 45.0045 145.764 45.0045 146.723 44.6211C147.49 44.2377 148.257 43.8543 149.024 43.0875C150.175 41.5539 150.942 39.6369 150.75 37.7199V16.6328H150.366Z" fill="black"/>
<path d="M211.155 56.504H196.197L184.69 39.4426V56.504H171.266V0.527344H184.69V33.3082L195.046 16.6302H210.388L196.964 36.5671L211.155 56.504Z" fill="black"/>
<path d="M227.797 22.1994V45.7786C227.797 47.6956 228.181 49.0375 228.948 49.8043C229.715 50.5711 231.25 50.9545 233.168 50.9545H237.963V56.5138H232.017C228.373 56.5138 225.496 55.747 223.77 54.0217C221.852 52.2964 221.085 49.6126 221.085 45.5869V22.1994H215.906V16.8317H221.085V6.86328H227.797V16.8317H238.154V22.1994H227.797Z" fill="black"/>
<path d="M257.707 17.7881C259.817 16.4462 262.502 15.8711 265.571 15.8711V22.7723H263.845C256.365 22.7723 252.721 26.798 252.721 34.8495V56.5117H246.008V16.6379H252.721V23.1557C253.871 20.8553 255.598 19.13 257.707 17.7881Z" fill="black"/>
<path d="M271.725 8.77966C270.766 7.82116 270.383 6.86265 270.383 5.52074C270.383 4.17884 270.766 3.22033 271.725 2.26183C272.684 1.30332 273.643 0.919922 274.986 0.919922C276.137 0.919922 277.287 1.30332 278.055 2.26183C278.822 3.22033 279.397 4.17884 279.397 5.52074C279.397 6.86265 279.014 7.82116 278.055 8.77966C277.287 9.73816 276.137 10.1216 274.986 10.1216C273.643 10.1216 272.493 9.73816 271.725 8.77966ZM278.055 16.6394V56.5132H271.342V16.6394H278.055Z" fill="black"/>
<path d="M299.907 18.3629C302.592 16.8293 305.469 16.0625 308.921 16.0625C312.373 16.0625 315.633 16.8293 318.51 18.5546C321.386 20.2799 323.688 22.5803 325.414 25.6475C327.14 28.7148 327.907 32.3571 327.907 36.3828C327.907 40.4085 327.14 44.0508 325.414 47.1181C323.688 50.1853 321.578 52.6774 318.51 54.4027C315.633 56.128 312.373 57.0865 308.921 57.0865C305.469 57.0865 302.592 56.3197 299.907 54.7861C297.222 53.2525 295.305 51.3355 293.962 49.0351V75.2981H287.25V16.6376H293.962V23.9222C295.305 21.8135 297.414 19.8965 299.907 18.3629ZM319.277 28.5231C318.126 26.2227 316.4 24.4973 314.29 23.3471C312.181 22.1969 309.88 21.6218 307.387 21.6218C304.893 21.6218 302.784 22.1969 300.674 23.3471C298.565 24.4973 297.031 26.2227 295.688 28.5231C294.538 30.8235 293.77 33.3156 293.77 36.3828C293.77 39.45 294.346 41.9421 295.688 44.2425C296.839 46.5429 298.565 48.2683 300.674 49.4185C302.784 50.5687 304.893 51.1438 307.387 51.1438C309.88 51.1438 312.181 50.5687 314.29 49.4185C316.4 48.2683 317.934 46.5429 319.277 44.2425C320.427 41.9421 321.003 39.2583 321.003 36.1911C321.194 33.5073 320.619 30.8235 319.277 28.5231Z" fill="black"/>
<path d="M340.75 55.5532C338.257 54.5947 336.339 53.0611 334.997 51.1441C333.654 49.2271 332.887 47.1183 332.695 44.6262H339.6C339.791 46.5432 340.75 48.2685 342.476 49.4188C344.202 50.7607 346.312 51.3358 348.997 51.3358C351.49 51.3358 353.6 50.7607 354.942 49.6105C356.476 48.4603 357.052 47.1183 357.052 45.393C357.052 43.6677 356.285 42.3258 354.75 41.559C353.216 40.7922 350.723 39.8337 347.463 39.0669C344.586 38.3001 342.093 37.5333 340.175 36.7665C338.257 35.9997 336.723 34.8495 335.38 33.1242C334.038 31.5906 333.462 29.4819 333.462 26.9897C333.462 24.881 334.038 23.1557 335.188 21.4304C336.339 19.7051 338.065 18.3632 340.367 17.4047C342.668 16.4462 345.161 15.8711 348.038 15.8711C352.449 15.8711 356.093 17.0213 358.778 19.13C361.463 21.4304 362.997 24.4976 363.189 28.3317H356.476C356.285 26.2229 355.518 24.4976 353.983 23.3474C352.449 22.0055 350.339 21.4304 347.846 21.4304C345.545 21.4304 343.627 22.0055 342.093 22.964C340.75 23.9225 339.983 25.2644 339.983 26.9897C339.983 28.3317 340.367 29.2902 341.326 30.2487C342.093 31.0155 343.243 31.7823 344.586 32.3574C345.928 32.9325 347.654 33.5076 349.956 34.0827C352.833 34.8495 355.134 35.6163 356.86 36.3831C358.586 37.1499 360.12 38.3001 361.463 39.8337C362.805 41.3673 363.381 43.2843 363.381 45.7764C363.381 47.8852 362.805 49.9939 361.655 51.7192C360.504 53.4445 358.778 54.7864 356.476 55.7449C354.175 56.7034 351.682 57.2785 348.805 57.2785C345.737 57.2785 343.052 56.7034 340.75 55.5532Z" fill="black"/>
<path d="M19.8625 12.9664L29.1488 22.2582L19.8625 44.8423L10.5761 22.2582L19.8625 12.9664ZM19.8625 0.319336L0 20.1933L19.8625 68.2008L39.7249 20.1933L19.8625 0.319336Z" fill="url(#paint0_linear_1940_738)"/>
</g>
<defs>
<linearGradient id="paint0_linear_1940_738" x1="19.8913" y1="68.22" x2="19.8913" y2="0.373145" gradientUnits="userSpaceOnUse">
<stop stop-color="#17C0EA"/>
<stop offset="0.4479" stop-color="#AF47FF"/>
<stop offset="1" stop-color="#FF4A11"/>
</linearGradient>
<clipPath id="clip0_1940_738">
<rect width="364" height="76" fill="white"/>
</clipPath>
</defs>
</svg>
