<svg id="font_copy_2" data-name="font copy 2" xmlns="http://www.w3.org/2000/svg" xmlns:xlink="http://www.w3.org/1999/xlink" width="856" height="800" viewBox="0 0 856 800">
  <defs>
    <style>
      .cls-1 {
        fill: #fff;
        filter: url(#filter);
      }

      .cls-1, .cls-2, .cls-3, .cls-4, .cls-5, .cls-7 {
        fill-rule: evenodd;
      }

      .cls-2, .cls-6 {
        fill: #ffa800;
      }

      .cls-3, .cls-4, .cls-5, .cls-7 {
        fill: none;
      }

      .cls-3, .cls-4, .cls-5, .cls-6, .cls-7 {
        stroke: #ffa800;
      }

      .cls-3, .cls-4, .cls-6, .cls-7 {
        stroke-linecap: round;
      }

      .cls-3, .cls-5 {
        stroke-width: 4px;
      }

      .cls-4 {
        stroke-width: 6px;
      }

      .cls-6, .cls-7 {
        stroke-width: 5px;
      }
    </style>
    <filter id="filter" x="128.219" y="462.188" width="603.844" height="132.031" filterUnits="userSpaceOnUse">
      <feFlood result="flood" flood-color="#ffa800"/>
      <feComposite result="composite" operator="in" in2="SourceGraphic"/>
      <feBlend result="blend" in2="SourceGraphic"/>
    </filter>
  </defs>
  <path id="CasaNFT" class="cls-1" d="M212.978,557.155a27.707,27.707,0,0,0-6.175,3.484,6.134,6.134,0,0,1,.317-2.217,2.5,2.5,0,0,0-2.534-.633,5.956,5.956,0,0,1-2.85,0,87.714,87.714,0,0,1,3.167-8.234c0.42-1.37.317-2.162-.317-2.375l-5.541-.791q-12.51,13.618-18.684,20.741-15.519-9.815-19-12.666l-0.316-.792q0-2.85-.317-10.292-0.32-6.489-.317-10.45L161.2,505.7l0.475-5.542a152.15,152.15,0,0,1,18.208-12.666h0.475q13.457,15.2,19.634,23.275a8.361,8.361,0,0,1,2.137.475,8.369,8.369,0,0,0,2.3.475,2.791,2.791,0,0,0,2.375-1.425q5.38-6.332,9.342-10.134,1.105-.949,2.216-1.979a2.284,2.284,0,0,0,.95-1.979l-7.758-8.233-0.792-.159a7.823,7.823,0,0,1-3.641.159,1.084,1.084,0,0,0-.792,1.266q0,1.11-.95.95-1.11-2.055-1.583-3.008a2.257,2.257,0,0,1,1.108-2.85,3.665,3.665,0,0,0,2.217.475q0.949-.315.316-1.267-9.5-11.715-14.725-17.416a13.017,13.017,0,0,1-2.691-.4,13.264,13.264,0,0,0-2.692-.4l-2.533,1.584-1.584-2.534a1.843,1.843,0,0,0-1.741-1.425c-1.584-.42-2.43-0.633-2.534-0.633q-4.434,1.9-6.65,2.692-29.925,14.249-42.75,25.174a1.162,1.162,0,0,0,.317,1.584,37.584,37.584,0,0,1,6.175,6.016q-0.319,21.535.633,50.825-5.225,6.175-7.916,9.184l-0.317-.317a2.271,2.271,0,0,0,0,2.058l8.233,6.809q0.317,3.009.475,4.591,0.951,0.8,3.325.4a4.894,4.894,0,0,1,3.325.238l20.584,15.675,7.283,4.908,6.333-.95,0.792-.792a0.567,0.567,0,0,0,.792,0,0.879,0.879,0,0,1,1.108-.158,3.152,3.152,0,0,0,.95.633,61.223,61.223,0,0,1,5.383,3.325q4.751-.474,5.7-2.375l18.05-22.641,8.867-9.659a1.758,1.758,0,0,0,.158-1.583,41.951,41.951,0,0,0-6.808-.792h0ZM201.9,481.789L189.7,467.856h1.9q8.391,9.659,12.667,14.249Zm12.825,13.775a21.566,21.566,0,0,0-2.217-.792q-2.375-3.006-3.483-4.592a2.272,2.272,0,0,0,2.058,0,29.95,29.95,0,0,1,5.383,5.859,4.8,4.8,0,0,1-1.741-.475h0Zm-16.625-13.3q-4.275-3.006-6.492-4.275-5.225-8.706-5.225-8.867l1.108-.95q7.757,8.394,11.559,12.825Zm3.8,4.75a6.446,6.446,0,0,1-1.584-3.484,4.594,4.594,0,0,0,2.217.317,4.53,4.53,0,0,0-.633,3.167h0Zm-13.459-9.342a3.637,3.637,0,0,0-1.425-.475q-6.174-9.656-7.758-12.666a2.993,2.993,0,0,1,2.85,1.425,24.328,24.328,0,0,1,1.821,3.008,3.844,3.844,0,0,0,1.346,1.742,64.287,64.287,0,0,0,4.591,7.441A3.647,3.647,0,0,1,188.436,477.672Zm12.192,12.667q-6.969-3.165-10.292-6.334a9.2,9.2,0,0,0,2.059-2.375l-0.475-1.266a1.007,1.007,0,0,0,.791-0.634q1.9,1.27,3.8,2.375a6.138,6.138,0,0,1,2.534,3.8q4.429,6.651,8.233,6.017l0.475-.475,3.325,4.908a63.334,63.334,0,0,0-10.45-6.016h0Zm3.958,19-1.266-.475q7.6-9.5,10.291-11.559l2.534,0.475q-8.87,8.076-11.559,11.559h0Zm3.009-8.55H207.12q-2.7-2.85-10.925-6.809-7.286-3.48-10.134-8.075l3.325-1.425q3.326,3.325,11,6.888a58.774,58.774,0,0,1,10.688,5.937q-2.22,2.376-3.483,3.484h0Zm-1.9,1.741q-4.594-4.59-14.567-7.916a9.381,9.381,0,0,1-3.958-3.325q-1.744-2.056-3.325-4.275,1.105-.79,1.583-0.475l3.325,3.8q2.531,2.85,9.025,5.7t9.025,5.383Zm-1.109.95q-3.009-2.055-6.175-3.958a18.768,18.768,0,0,0-6.65-2.692l-1.425-1.583q5.7,2.374,8.709,3.483l6.016,4.275a1.018,1.018,0,0,1-.475.475h0Zm-1.9,2.217q-4.595-3.956-6.808-3.958-2.22-2.376-3.325-3.8a20.077,20.077,0,0,1,5.7,2.454q3.006,1.823,5.7,3.562Zm-1.741,1.742-4.117-4.592a12.232,12.232,0,0,1,5.067,3.483ZM176.878,482.9a28.147,28.147,0,0,1-8.867,3.167,56.97,56.97,0,0,1-6.808,2.216q0.156-1.9-.475-2.058a28.271,28.271,0,0,0-5.7,3.642q-8.869,7.6-13.3,11.4l-1.742-2.217a26.2,26.2,0,0,1,3.484-3.483q0.63,0.635.95,0.95c0.42,0,.633-0.159.633-0.475l-0.475-1.742q9.5-9.18,12.033-11.242,7.125-5.855,14.25-7.283t10.45-3.325c0-.42-0.106-0.633-0.316-0.633l-13.3,3.8q-7.76,2.375-11.875,6.491L144.578,493.03c-0.106-.95-0.265-1.4-0.475-1.345s-0.371-.1-0.475-0.475a0.644,0.644,0,0,0-.633-0.555,4.31,4.31,0,0,0-3.167,3.8,1.755,1.755,0,0,0,.95,1.425h0.95l-2.375,2.217H139.2q-1.9-2.53-3.009-3.8,12.507-9.656,18.525-13.458a63.735,63.735,0,0,1,20.584-8.392,1.85,1.85,0,0,0,2.375-.158,1.527,1.527,0,0,1,1.187-.95,1.662,1.662,0,0,0,1.188-.792,2.366,2.366,0,0,0-1.584.159,1.675,1.675,0,0,0-.95-2.059,2.672,2.672,0,0,0-2.216,1.584l-0.317,1.266q-9.975,1.745-20.9,8.55-4.751,3.01-18.683,13.458l-1.109-1.266q10.291-7.125,15.675-10.45,13.456-8.076,20.742-9.817v-0.316a31.594,31.594,0,0,0-12.192,3.958q-5.544,3.324-11.083,6.65-9.025,6.335-13.617,9.183c-0.529-.527-0.9-0.895-1.108-1.108a179.184,179.184,0,0,1,41.325-23.908l3.642-1.425q2.69,4.434,7.125,12.983-3.96,2.535-7.917,4.908h0Zm-17.1,14.883a10.9,10.9,0,0,1-3.008,1.742,57.46,57.46,0,0,1-6.175,4.908l-2.375,2.217-2.375-.792q16.149-11.4,41.8-26.916l1.266,0.475Zm6.808-8.233q-0.95.16-4.275,0.95a13.118,13.118,0,0,1-4.275.475q-7.443,6.176-11.241,9.183l-0.634.475-3.008,2.692-0.95-1.108q10.924-9.026,16.15-13.934l1.583-.791V488.6c-0.106.53,0.052,0.792,0.475,0.792q8.076-2.216,11.875-3.642Zm-22.325,15.2c0.317-.1.1-0.317-0.633-0.633l14.408-11.875a8.344,8.344,0,0,0,3.4-.475q1.978-.631,2.771-0.792-13.143,9.185-19.95,13.775h0Zm55.1,54.308-1.266,1.109a1.421,1.421,0,0,1-1.425.158q3.165-9.18,3.641-11.558l2.375,0.316q-2.06,6.81-3.325,9.975h0Zm-43.541-41.8-1.109-1.425a43.872,43.872,0,0,1,.159-6.966c0.1-.527.21-1.109,0.316-1.742a1.016,1.016,0,0,1,1.109-.95Zm48.291,45.125a1.94,1.94,0,0,1-1.266,1.425l-1.742.159a21.942,21.942,0,0,1,1.425-3.325c0.95-.1,1.635-0.159,2.058-0.159a7.029,7.029,0,0,0-.475,1.9h0ZM154.87,525.964q-2.535-3.956-2.534-10.292a31.248,31.248,0,0,1,.95-7.6l0.634-.475q0,0.95-.238,3.088t-0.237,3.087a5.39,5.39,0,0,0,1.741,4.433h0.634a34.331,34.331,0,0,1-.95,7.759h0Zm0.475,9.183a9.923,9.923,0,0,1-3.8-6.492q-0.795-4.275-1.267-8.391l0.475-10.609,0.95-.316q-0.95,10.924,1.9,16.941,1.106,1.11,1.9.475-0.159,5.546-.158,8.392h0Zm3.325,17.1-1.109-.633L157.4,524.38l0.792-19.633a3.372,3.372,0,0,0,1.108-.633q-0.95,29.45-.633,48.133h0Zm37.05,4.275q-8.55,7.92-10.925,12.983a3.684,3.684,0,0,0-1.346-.791,6.311,6.311,0,0,1-1.346-.634q9.975-11.4,15.358-16.941a23.8,23.8,0,0,1-1.741,5.383h0Zm-4.275,34.358-3.642.634q16.15-21.056,24.383-31.35,2.376-.315,3.642-0.475-16.785,20.744-24.383,31.191h0Zm-2.375-23.908q-2.059,3.17-2.059,3.8l-1.425-.792q1.581-4.429,9.342-11.4a40.911,40.911,0,0,1-5.858,8.392h0Zm11.558,5.067a2.091,2.091,0,0,0-1.267-2.217q-2.218-.156-4.275,3.167-3.8,6.334-4.116,11.241l-3.009,4.117a44.556,44.556,0,0,1,7.6-23.275l4.592-3.642-2.375,5.859c0,0.633.262,0.9,0.792,0.791a14.81,14.81,0,0,0,5.066-2.216q2.215-1.581,4.592-3.167Zm-55.417-28.817H144.1a55.251,55.251,0,0,0-1.9-11.083,89.409,89.409,0,0,1-2.375-10.925q-0.159-5.381.475-17.575l1.425,2.058q-1.584,16.47,2.058,27.55,1.107,6.649,1.584,9.975a0.551,0.551,0,0,0,.475-0.475,100.425,100.425,0,0,0-3.325-19.633,108.358,108.358,0,0,1,.158-15.834l2.375,1.109q0.156,2.059.317,9.183a43.2,43.2,0,0,0,.95,8.867,1.3,1.3,0,0,0,.475-0.792q-0.634-11.24-.475-16.942,2.531,0.8,3.166.475-0.635,16.311,1.742,22.484,1.425,3.8,4.117,4.275,0-.79.475,14.25-7.92-5.38-10.609-6.967h0Zm51.3,34.042q-0.159-.791,1.267-1.9ZM189.228,576l-1.267-.633a25.91,25.91,0,0,0,1.267-2.692,0.954,0.954,0,0,0-.713-0.792,1.2,1.2,0,0,1-.712-0.475,0.91,0.91,0,0,1,.317-0.633,19.047,19.047,0,0,1,3.325-5.383l0.95-1.267a1.594,1.594,0,0,0,.475,1.9l0.95-.158q-4.594,9.819-4.592,10.133h0Zm9.658-1.742a2.037,2.037,0,0,0-2.137.634,12.228,12.228,0,0,0-1.9,3.8,7.523,7.523,0,0,1-2.454,3.8q0.315-4.275,4.75-10.609,2.055-1.425,2.375-.316a5.045,5.045,0,0,1-.634,2.691h0Zm-58.108-30.162q-0.949,1.032-1.9,2.137l-0.792-45.441v-0.317L139.2,501.9q0,0.161-.475,11.717a53.641,53.641,0,0,0,.475,11.4A88.861,88.861,0,0,1,143,543.38,2.142,2.142,0,0,0,140.778,544.093Zm40.058,28.1L158.511,557Q148.218,549.716,143,545.914A5.2,5.2,0,0,1,146,545.6q27.075,20.111,38.317,26.283-1.11.951-3.484,0.317h0Zm-5.937-.4a6.065,6.065,0,0,1-2.613-2.771q3.166,2.22,4.75,3.167A2.719,2.719,0,0,1,174.9,571.8Zm0.237,2.929q-3.958-.474-5.858-7.916a4.443,4.443,0,0,1,1.979,2.454,5.982,5.982,0,0,0,1.821,2.612,3.993,3.993,0,0,0,4.117,1.267l0.475-.475,0.316,0.317a8.884,8.884,0,0,1-2.85,1.741h0Zm11.875,14.725a1.368,1.368,0,0,1-.237.555,1.416,1.416,0,0,0-.238.712l-4.591-2.217a21.3,21.3,0,0,1,1.741-3.958q0.316,3.169.317,4.75h0.475q0.156-5.539.633-6.808l3.484-4.75a60.117,60.117,0,0,0-1.584,11.716h0Zm-12.825-4.908a20.322,20.322,0,0,1-4.037-6.017q-1.663-3.639-2.929-7.125a40.041,40.041,0,0,1-1.9-7.441,17.238,17.238,0,0,1,2.691,1.9q1.9,8.235,6.017,9.816a4.621,4.621,0,0,0-1.267,4.117,2.637,2.637,0,0,0,1.742.95q2.216-2.85,2.217-3.8A2.381,2.381,0,0,1,176.4,576a1.961,1.961,0,0,1,1.108-1.187,2.67,2.67,0,0,0,1.267-1.346c1.267,0,1.687.423,1.267,1.266q-3.8,6.651-5.859,9.817h0Zm3.484,4.275-4.434.792q6.017-10.131,8.709-15.359,2.375-.315,3.641-0.475-5.859,10.611-7.916,15.042h0Zm-6.175.633q-8.711-6.174-12.984-9.658-2.85-3.956-3.8-12.508-1.108-9.5-2.691-12.984a3.36,3.36,0,0,1,2.85,2.85q0.474,2.376.95,4.75a57.274,57.274,0,0,0,5.383,18.367,9.628,9.628,0,0,0,3.008,3.958,2.509,2.509,0,0,1,.634-0.475q-6.651-9.339-8.709-26.441l3.009,2.216a56.428,56.428,0,0,0,11.716,28.659q0.317,0.159.475-.317-9.185-14.089-11.241-27.708l4.116,3.166q0.79,7.285,6.65,19l2.85,3.325Zm-20.584-15.2q-1.9-6.489-2.691-9.816c-0.317-.317-0.53-0.421-0.634-0.317l0.634,4.433,1.108,4.434a24.352,24.352,0,0,1-2.058-5.859,32.01,32.01,0,0,1-.159-6.966q-0.159-.791-0.475-5.225a13.934,13.934,0,0,0-.95-4.909q5.382,1.745,7.284,11.559,0.474,4.275,1.108,8.391a26.991,26.991,0,0,0,2.058,8.075Zm-5.383-7.441q-0.635-2.53-1.108-5.225l-0.634-.159a33.155,33.155,0,0,0,1.584,8.392q-4.595-3.8-6.967-5.7a23.543,23.543,0,0,0-1.742-10.45l-0.475-.633,4.592-5.859q3.641,1.425,4.275,3.959a15.844,15.844,0,0,1,.633,6.333,3.294,3.294,0,0,1-1.108.633c-0.213-1.476-.633-2.375-1.267-2.691a11.713,11.713,0,0,0-2.85,3.958q-0.474,2.22.792,2.85,0.632,0.319,1.9-.792a2.637,2.637,0,0,0,.792-1.108,1.876,1.876,0,0,1,1.108-1.108,4.635,4.635,0,0,1,.95,3.325,17.632,17.632,0,0,0,.158,3.483l1.267,5.383q-1.11-.789-1.9-4.591h0Zm-14.092-7.759v-0.316l3.959-4.75a26.465,26.465,0,0,1,2.375,9.658Zm43.7-89.458a2.874,2.874,0,0,1-1.266.238q-1.11.081-.95,0.871l0.791,0.158c1.054-.527,1.584-0.95,1.584-1.267h-0.159Zm5.384,5.858a3.714,3.714,0,0,0-2.375,2.059q-0.32,1.584.475,2.058,0.63,0.476,2.216-.317a4.338,4.338,0,0,0,.95-2.691,1.128,1.128,0,0,0-1.266-1.109h0Zm-33.567,53.517h-0.475q-0.159,4.909.95,6.808a34.542,34.542,0,0,0-.475-6.808h0ZM289.768,563.33c-0.213-.316,0-0.843.633-1.583q0.156-11.556,1.583-17.733c0-.1.1-0.792,0.317-2.059a1.278,1.278,0,0,0-.792-1.583l-4.591.95a2.41,2.41,0,0,1-.95.317,1.322,1.322,0,0,1-.871-1.109,5.327,5.327,0,0,0-.554-1.266q-2.059-8.231-3.959-16.467a156.747,156.747,0,0,1-3.483-16.942,25.059,25.059,0,0,0-.713-4.829,24.965,24.965,0,0,1-.712-4.829,6.806,6.806,0,0,1,1.267-4.117q0.315-1.74,0-2.058A99.151,99.151,0,0,1,260,488.6q-4.434,2.375-6.65,3.483-2.694,9.186-3.8,12.509v1.583a3.852,3.852,0,0,0,2.692,0q-0.635,3.96-2.692,5.383a6.317,6.317,0,0,1-.158-2.375l-0.95-.95v0.475q-7.76,27.075-11.717,40.534-4.275,3.485-6.333,5.066l-0.317.792a41.891,41.891,0,0,1,3.167,8.867l-8.867,24.225,0.158,0.95a3.881,3.881,0,0,0,1.742.633q9.5,0.319,14.408.475a13.67,13.67,0,0,0,3.009,0q3.8-2.375,4.433-3.483a110.567,110.567,0,0,1,5.383-16.15q10.131-1.425,15.042-2.375,3.641,15.519,5.067,23.433l0.633,0.633a74.961,74.961,0,0,1,9.658.792q7.915,0.95,9.5,1.108,0.951-1.106,1.979-2.3a3.724,3.724,0,0,0,1.03-2.455q-3.8-13.774-6.65-26.125h0Zm-19-70.141q-8.869-.632-13.142-1.109a4.112,4.112,0,0,1,3.008-1.266,16.163,16.163,0,0,1,2.534.316,15.982,15.982,0,0,0,2.691.317q-1.269,0,6.967.158Zm10.925,48.925-7.917-37.842,0.792-2.692q4.905,26.125,8.075,38.95a1.751,1.751,0,0,0,.316,1.267,2.234,2.234,0,0,1-1.266.317h0Zm-5.859,1.108-1.425.158a50.506,50.506,0,0,1,0-8.075q0.476-6.489.475-8.233a53.024,53.024,0,0,0-2.85-16.467,17.026,17.026,0,0,1,.792-2.058q4.906,22.8,4.908,23.117-2.85,3.324-1.9,11.558h0Zm-9.5-23.354q-5.7,17.656-8.075,26.679-1.269.319-1.9,0.475,10.131-35.149,15.675-52.408l2.375-1.425Q272.035,502.213,266.334,519.868Zm5.225,24.146q0-1.425.792-9.025a37.624,37.624,0,0,0,.158-9.025q-0.95-6.651-2.691-9.5l1.741-4.75q3.481,11.72,1.9,28.341l0.475,3.325q-1.584.476-2.375,0.634h0ZM262.059,519q-1.269,1.586-.475,4.75l-0.95,2.533q-1.109-2.531.634-8.391a5.29,5.29,0,0,1,1.583-2.217q-0.32,3.01-.792,3.325h0Zm15.992,23.75a5.644,5.644,0,0,0-1.583.158q-0.635-6.965,1.425-10.291l1.108,3.8a16.087,16.087,0,0,0-.95,6.333h0Zm0.95-.158a6.935,6.935,0,0,1,.317-4.592l0.95,4.275a5.388,5.388,0,0,0-1.267.317h0Zm-8.233,1.583-1.9.317q0.156-1.106.95-6.809a70.257,70.257,0,0,0,.475-7.125,17.747,17.747,0,0,0-2.217-9.341l1.425-3.959a38.008,38.008,0,0,1,2.375,13.617q-0.635,8.87-1.108,13.3h0Zm-1.109-46.708q-9.5,3.96-12.666,16.308c0,0.107.1,0.158,0.316,0.158q3.481-8.55,7.6-12.35,2.85-2.214,4.275-3.166l-1.266,4.75q-2.85-.156-5.7,3.483-5.861,7.6-7.284,19a96.6,96.6,0,0,0-.633,10.767,76.909,76.909,0,0,1-.792,10.608c0.1,0.213.263,0.213,0.475,0q0.951-3.956,1.267-15.042,0.315-9.5,2.375-14.408a75.9,75.9,0,0,1,3.483-7.758,12.7,12.7,0,0,1,6.175-5.7h0.159L263.8,517.1a2.577,2.577,0,0,0-.633-2.217q-0.951-.474-2.059,1.267a16.115,16.115,0,0,0-1.741,9.025,2.416,2.416,0,0,0,1.108,1.742,78.608,78.608,0,0,0-2.692,9.183,53.444,53.444,0,0,1,3.167-21.533,28.237,28.237,0,0,1,3.008-3.959,0.983,0.983,0,0,0,.792.792,1.9,1.9,0,0,0,0-1.583,1.15,1.15,0,0,0-1.583,0,14.906,14.906,0,0,0-4.038,7.362q-1.188,4.673-1.979,8.946-0.476,9.345-.317,13.933l-2.216,7.125-2.692.475a40.89,40.89,0,0,0,.792-16.941,0.47,0.47,0,0,0-.317-0.159l-0.158.317a54.654,54.654,0,0,1-.95,16.942l-7.125.791q0.474-2.214,1.583-9.025a40.791,40.791,0,0,1,2.217-8.708q0.95-4.114,4.591-16.625a136.435,136.435,0,0,0,4.275-16.942l1.109-3.325h0.95q-0.475,1.9-.634,2.692a2.078,2.078,0,0,0-1.108.475,4.016,4.016,0,0,0,0,3.8,97.3,97.3,0,0,1-3.008,10.45q-5.226,19.95-7.284,30.242a15.911,15.911,0,0,0-.316,2.533,32.716,32.716,0,0,0,1.741-6.333q2.85-11.715,4.117-17.734,3.325-11.874,5.225-17.891a1.534,1.534,0,0,1,.633.4,0.74,0.74,0,0,0,.792.237,6.224,6.224,0,0,0,.792-3.167l1.741,1.109a0.844,0.844,0,0,0,.475-0.634,2.151,2.151,0,0,0-.871-1.266,1.55,1.55,0,0,1-.712-1.425c-0.846,0-1.056-.1-0.633-0.317l-0.792,1.108-0.475-.95,0.95-3.325,10.925,0.475Zm19.159,63.65-0.792,1.108q-0.635-10.925-.633-16.467l2.375-2.375q-0.795,6.81-.95,17.734h0Zm-22.325-16.15q-0.16-1.425-.95-5.7a28.517,28.517,0,0,1-.792-5.7,9.866,9.866,0,0,1,1.108-4.75,64.255,64.255,0,0,1-.316,9.025L265.7,538a26.391,26.391,0,0,0,.95-6.017q-0.159-2.85-.317-4.591l1.425-5.225a18.992,18.992,0,0,1,1.742,8.55,70,70,0,0,1-.475,7.125q-0.793,5.544-.95,6.808a10.429,10.429,0,0,0-1.583.317h0Zm-14.725-30.559q-4.594,15.836-6.492,23.75l-1.583,10.45h-2.534a32.148,32.148,0,0,0,1.425-13.458l5.542-20.267a3.637,3.637,0,0,0,.475-1.425,2.65,2.65,0,0,0,2.692-1.5q0.949-1.662,1.741-3.246a6.53,6.53,0,0,0,.317-5.225,5.548,5.548,0,0,0-1.583-.791,69.67,69.67,0,0,1,3.325-9.025,11.006,11.006,0,0,1,2.058.158q-3.96,13.62-5.383,20.583h0ZM263.959,545.6L260,546.23q1.581-6.33,2.533-9.5,1.425,5.7,1.9,8.55Zm14.409,18.842a5.176,5.176,0,0,1,.633-1.188,1.484,1.484,0,0,0,.317-1.5,13.165,13.165,0,0,0-1.9,2.85l-1.742.317a41.456,41.456,0,0,1,2.692-5.384l-0.317-.316a58.411,58.411,0,0,0-3.325,5.858l-1.9.475a102.286,102.286,0,0,1,5.7-9.658q-0.159-.476-0.633,0-4.119,5.859-6.334,9.816l-3.641.634a27.834,27.834,0,0,1,3.166-6.017q0.476-.63,4.434-5.858a91.8,91.8,0,0,1,7.758-7.125q2.531-.315,2.692-0.317,0.315,10.451.95,15.833-5.7,1.11-8.55,1.584h0Zm-3.959-9.659q-1.425,1.9-6.016,8.234l-1.425,3.641-1.425.159q1.105-8.076,7.916-17.575,5.541-.951,8.392-1.584a39.018,39.018,0,0,0-7.442,7.125h0Zm18.684,36.259q-4.119-16.466-5.859-24.859,0.951-.789,1.425-1.108,3.641,16.31,5.542,24.542a9.77,9.77,0,0,1-1.108,1.425h0Zm-6.967-45.6-16.308,2.375-22.325,4.116a0.567,0.567,0,0,1-.792,0,31.306,31.306,0,0,1-4.908,1.109q-5.7.793-8.392,1.425a26.059,26.059,0,0,1,3.483-2.85,40.247,40.247,0,0,0,6.492-.634q5.065-.95,6.333-1.108,19.315-3.165,28.659-5.225,3.006-.63,8.866-1.742l0.159,0.317,0.791-.158Zm-21.375,21.533a6.732,6.732,0,0,1-1.742.317q0.79-11.08,5.542-17.1a41.134,41.134,0,0,1,4.117-.792q-6.969,9.819-7.917,17.575h0Zm24.225,25.017q-0.793-2.216-1.583-12.034-0.634-7.6-3.959-10.925a2.118,2.118,0,0,0-1.583-.316q-2.059,1.584-1.742,7.125,3.167,8.869,5.225,13.141l0.317,2.534-4.908-.792q-2.535-10.765-2.534-14.725a17.9,17.9,0,0,1,1.9-8.392,20.515,20.515,0,0,1,3.167-.475l2.85,0.159q4.59,21.219,5.542,24.541l0.475,0.475Zm-26.758-24.542-1.9.317q-0.16-3.956,2.058-11.559a3.03,3.03,0,0,0-.475-2.375,3.579,3.579,0,0,0-1.742-.95q-1.425-.474-1.266-1.425a88.232,88.232,0,0,1,8.866-1.266q-4.749,6.494-5.541,17.258h0Zm24.858,24.383c-0.529-.1-0.74-0.316-0.633-0.633a42.222,42.222,0,0,0-2.771-7.6,52.2,52.2,0,0,1-2.771-7.125q-0.32-5.539,1.267-6.967,0.63,0,2.375,2.217a32.059,32.059,0,0,1,2.058,8.708q0.315,4.595.792,9.184a15.3,15.3,0,0,0,.791,2.216h-1.108Zm-8.708-1.583q-0.16-1.74-1.267-7.6a48.549,48.549,0,0,1-.792-7.6,17.593,17.593,0,0,1,1.425-7.283,6.951,6.951,0,0,1,1.267-.159,19.341,19.341,0,0,0-1.583,8.075q0,4.595,2.691,14.884Zm-38-41.325a3.117,3.117,0,0,1-1.425,0q2.215-7.44,3.008-11.242a33.035,33.035,0,0,1-1.583,11.242h0Zm34.991,41.008-4.116-20.425-0.159-.791,2.692-.317a14.98,14.98,0,0,0-.633,4.433q0,0.319,1.741,11.875l0.317,0.159,0.158-.159a47.479,47.479,0,0,0-.791-5.858,35.818,35.818,0,0,1-.634-5.858,14,14,0,0,1,.792-4.75,3.168,3.168,0,0,1,.95-0.238,9.222,9.222,0,0,1,1.108-.079,48.357,48.357,0,0,0-1.266,9.183q1.265,8.711,2.058,12.984Zm-15.041-28.658a18.4,18.4,0,0,0-.634,6.492,13.029,13.029,0,0,1-1.741.158,39.307,39.307,0,0,1,1.108-5.7,20.4,20.4,0,0,0,.792-6.017,5.42,5.42,0,0,0-5.067-3.166q-4.434.474-6.333,0.791a1.894,1.894,0,0,1-.792-0.316q6.332-1.425,10.608-2.059a1.446,1.446,0,0,0,.95,2.059c1.371,0.316,2.163.846,2.375,1.583a39.987,39.987,0,0,1-1.266,6.175h0Zm-3.009,6.808q-5.544.795-8.391,1.109a3.037,3.037,0,0,1,.633-1.425,3.067,3.067,0,0,0,.633-1.425,1.3,1.3,0,0,0-.475-0.792,7.127,7.127,0,0,0-4.275,4.117c-0.633.106-1,.158-1.108,0.158q0.315-3.8,4.908-7.125a4.753,4.753,0,0,0,.95-0.317l0.475,0.792c0.634-.1.738-0.42,0.317-0.95q-0.476-.949-2.375-0.317-4.75,4.121-4.908,8.075-1.9.319-2.85,0.475a6.771,6.771,0,0,1,1.425-5.225,37.794,37.794,0,0,1,3.641-4.433q4.275-3.48,6.334-3.325c0.21,0,.341.238,0.4,0.713a0.811,0.811,0,0,0,.238.712,0.941,0.941,0,0,0,.475-0.475,1.631,1.631,0,0,0-1.108-1.9q-1.269-.315-4.434,1.583-8.55,7.444-7.758,12.509l-3.642.633c-0.106-.42-0.316-1.425-0.633-3.008a10.155,10.155,0,0,1-.633-3.009,4.416,4.416,0,0,1,1.108-3.008,58.15,58.15,0,0,1,4.592-7.6,6.822,6.822,0,0,1,1.741-.317q-1.425,2.7-2.216,4.117l0.158,0.158a29.9,29.9,0,0,0,3.008-4.433q-0.159,0,2.375-.475a1.542,1.542,0,0,1,1.9.95l0.95,0.158q6.807-.949,5.859-0.95a4.542,4.542,0,0,1,4.433,2.534,89.52,89.52,0,0,1-1.742,11.716h0Zm-9.025.634a1.325,1.325,0,0,1-1.741.791,7.393,7.393,0,0,1,2.533-2.85C248.863,567.289,248.6,567.977,248.284,568.714Zm-13.3-5.542a3.117,3.117,0,0,1-.316-1.425,5.957,5.957,0,0,1,1.187-3.325q1.188-1.74,2.138-3.325a9.818,9.818,0,0,0,1.583-.317q-3.96,6.81-4.592,8.392h0Zm-0.633-3.325a19.622,19.622,0,0,1-.95-3.958q2.215-.315,3.483-0.634Zm11.875,26.125a8.042,8.042,0,0,0-2.058,1.108,137.206,137.206,0,0,1,5.066-14.25,12.62,12.62,0,0,1,1.742-.633Zm-3.958,2.533-3.325-.158q0.474-.79,3.166-7.917a31.453,31.453,0,0,1,4.117-7.6,1.06,1.06,0,0,0,.712.08,3.426,3.426,0,0,1,.555-0.08q-3.645,10.451-5.225,15.675h0Zm-4.117-.316h-1.108q4.114-9.34,5.858-14.409a3.047,3.047,0,0,1,2.058-.633,116.481,116.481,0,0,0-6.808,15.042h0Zm1.187-7.521a39.355,39.355,0,0,1-3.087,7.362l-2.533-.158q0.95-3.48,1.9-6.967a37.933,37.933,0,0,0,1.266-7.441,1.541,1.541,0,0,1,.634.791l4.591-.791A60.6,60.6,0,0,0,239.338,580.668Zm-4.354.079q-1.584,6.019-1.741,7.125h-1.9a59.624,59.624,0,0,0,1.741-10.45,16.693,16.693,0,0,0-.633-4.592l1.583-4.116q0.791,3.169,1.109,4.75a2.577,2.577,0,0,0,.791.158,24.133,24.133,0,0,1-.95,7.125h0Zm-4.433,6.967-0.95.158a11.975,11.975,0,0,1,.4-2.612,11.993,11.993,0,0,0,.4-2.455v-4.433l1.741-4.592q0.951,5.226-1.583,13.934h0Zm-2.058.158h-1.425a75.477,75.477,0,0,1,2.691-7.758,30.126,30.126,0,0,1-1.266,7.758h0Zm52.566-34.517A3.386,3.386,0,0,0,279,557c0.1,0.846.579,1.108,1.425,0.792q2.057-1.105,1.742-3.959-0.32-.95-1.109-0.475h0Zm4.117,29.767a32.256,32.256,0,0,1-2.058-8.708l0.158-.317a5.555,5.555,0,0,1,.792,1.583,4.385,4.385,0,0,0,.158-0.95q-0.635-2.214-1.742-1.108a16.479,16.479,0,0,0,2.534,9.5h0.158Zm-44.1-20.9a1.257,1.257,0,0,1-.554-0.792l0.158-1.425q0.317-.95-0.633-0.95a14.848,14.848,0,0,0-2.217,3.484,2.339,2.339,0,0,0,.159,1.583,12.1,12.1,0,0,0,1.9-1.425,2.537,2.537,0,0,0,1.583.475A0.879,0.879,0,0,0,241.08,562.222Zm125.637-48.45q-21.534-15.99-31.825-25.017l-0.475-.158a5.341,5.341,0,0,1-2.771.4,4.285,4.285,0,0,0-2.771.554q-6.808,7.6-10.291,11.4l-0.159-.158q-0.159,0-2.691.316a2.634,2.634,0,0,0-2.217,1.584l-0.317-.159h-0.158v0.475a26.075,26.075,0,0,1-4.433,3.167q1.106,7.76,2.058,11.558l4.117,23.75q0.63,2.535.791,3.642a3.6,3.6,0,0,0,1.267.317l-1.108,3.641,0.316,1.584q5.856,1.425,6.492,1.583l19.95,5.7q0.791,7.92,1.267,11.875-9.819,2.85-14.567,4.433-0.793.476-1.267-.791-7.918-7.281-11.875-11.242-0.159-.79-2.216-0.317v0.317a6.765,6.765,0,0,0-2.375.317,18.392,18.392,0,0,0-4.592,3.958,1.434,1.434,0,0,0,.633,1.425q-0.159,0-2.058-.158-0.159.159-3.008,2.691a9.467,9.467,0,0,0-2.375,3.009q19.474,16.625,21.85,18.841l0.633,0.159a8.3,8.3,0,0,1,3.008-.317,28.418,28.418,0,0,1,3.009,2.058q5.539-1.425,8.233-2.216l18.683-5.859a1.132,1.132,0,0,0,.634-1.583,16.159,16.159,0,0,1-.634-1.9l0.159-.158q5.856-.476,5.541-0.634a14.249,14.249,0,0,0,2.85-3.008q0.791-2.055,1.267-3.008l-4.908-33.092a1.683,1.683,0,0,0-1.425-1.425l-4.275,1.267-0.159-.317q-12.35-4.905-18.841-6.967l-0.475-1.741q-1.425-12.825-2.217-19.317a17.926,17.926,0,0,1,1.742,1.108,6.742,6.742,0,0,0,.95.634q12.349,9.819,18.525,14.566a1.968,1.968,0,0,0,1.583,0q1.106-.315,2.454-0.633a2.531,2.531,0,0,0,1.821-1.267q-4.119-8.23-6.175-12.35h0.95a0.919,0.919,0,0,0,.158-0.633V515.2c0.211,0,1,.055,2.375.158,0.211-.316.211-0.526,0-0.633a8.855,8.855,0,0,0,3.642,1.425,30.5,30.5,0,0,1,6.333-.95,1.779,1.779,0,0,0-.633-1.425h0Zm-4.75.317-20.9-16.467q-6.176-4.59-9.183-6.808l2.058-.475,25.967,20.108q2.69,2.059,4.75,3.483Zm-8.075-.317-0.475-1.425q1.74,0.95,2.692,1.583a17.049,17.049,0,0,1-2.217-.158h0Zm2.692-1.267a8.568,8.568,0,0,0-3.642-1.741l-7.442-5.542-0.475.317q4.751,3.8,6.967,5.383-0.635.475,0.158,2.85a1.534,1.534,0,0,1-1.108-.158,0.8,0.8,0,0,0-.95.316l0.317,0.95a6.956,6.956,0,0,1-1.584-.633q-0.159-.156-6.175-3.008a10.814,10.814,0,0,1-5.225-4.909q-2.534-5.224-10.608-11.241l0.792-.95q2.375,2.535,4.987,5.225a8.531,8.531,0,0,0,5.146,2.929c1.687,0.158,2.692.45,3.008,0.871l2.217,3.325q-2.85-2.53-4.75-2.534-0.319.161,0,1.584,3.165,5.385,6.017,5.225a1.353,1.353,0,0,0,.316-1.584q3.166,3.96,4.909,4.75c0.21,0,.316-0.158.316-0.475a16.018,16.018,0,0,1-4.433-4.75q-1.9-3-3.483-5.858a2.907,2.907,0,0,0-2.534-1.108,13.682,13.682,0,0,1-2.85-.159,105.6,105.6,0,0,1-8.233-7.916,1.794,1.794,0,0,1,.317-0.475l7.6,6.966c0.21,0,.316-0.051.316-0.158v-0.158q-3.485-3.325-7.283-7.125a24.8,24.8,0,0,0,4.275,3.325l0.158-.159a15.121,15.121,0,0,0-3.958-3.483,1.528,1.528,0,0,1,.633-0.792,0.805,0.805,0,0,1,.95.317l28.025,21.85,0.792,0.633A11.585,11.585,0,0,1,356.584,512.505Zm-17.1-6.175-0.475-1.741a6.928,6.928,0,0,1,4.908,5.383q-1.744,0-4.433-3.642h0Zm16.783,22.325q-6.175-10.925-6.65-11.558,2.056-.79,2.692-0.475,3.955,6.81,5.7,10.45l0.158,0.95Zm-8.708-12.35,0.316,1.109-1.266-.475q-7.76-5.541-12.984-5.7a39.317,39.317,0,0,1-.475-4.434,7.273,7.273,0,0,0-1.425-3.958q0-1.9-1.425-1.9a9.136,9.136,0,0,0-1.425.238,8.738,8.738,0,0,1-1.583.237,2.193,2.193,0,0,1-.95-0.158l-5.067-.159,4.909-5.383a30.217,30.217,0,0,1,11.241,12.033,9.059,9.059,0,0,0,4.909,4.275q2.85,1.27,5.858,2.534a1.193,1.193,0,0,0-.633,1.741h0Zm0.4,3.246a10.337,10.337,0,0,0-1.346-1.029,32.62,32.62,0,0,0-9.817-3.642l-2.85-2.058v-0.633a16.483,16.483,0,0,1,7.917,2.375q3.48,2.219,6.966,4.275l0.95,1.583A2.992,2.992,0,0,1,347.955,519.551Zm-0.713,2.929a40.17,40.17,0,0,1,4.117,2.692l1.583,0.792,1.108,2.375Zm1.267-.158a11.74,11.74,0,0,0-3.8-1.742l-6.334-4.591a16.381,16.381,0,0,1,6.492,2.375q2.85,1.9,5.858,3.8l1.584,2.691q-0.476-.315-3.8-2.533h0Zm-23.117-17.575-13.3,1.108,3.167-2.216a102.809,102.809,0,0,1,12.033-.792Zm6.492,29.45-4.117-28.025a0.9,0.9,0,0,1-.317-0.633,12.521,12.521,0,0,0,1.742-2.059c0.21,0.213.421,0.159,0.633-.158l3.959,31.35Zm-3.959-1.425q-0.793-2.53-.95-9.658-0.159-6.332-1.583-9.5a16.8,16.8,0,0,1,.317-7.125h0.158q3.165,17.894,4.117,27.075Zm27.234,13.142-10.134,2.375q0.632-2.376,3.642-2.85,4.59-.79,4.908-1.109a15.818,15.818,0,0,0,3.959-1.266,9.9,9.9,0,0,1-2.375,2.85h0ZM311.3,512.03l-0.633-3.483a6.828,6.828,0,0,1,1.742-.317Zm0.792,3.8q-0.793-1.9,1.108-7.758a1.657,1.657,0,0,1,.95-0.158q-1.269,5.225-2.058,7.916h0Zm14.092,15.834a36.124,36.124,0,0,1-.634-8.392,25.344,25.344,0,0,0-1.266-8.075,8.429,8.429,0,0,1-1.742-2.217,0.932,0.932,0,0,1,.475-0.791,0.923,0.923,0,0,0,.475-0.475,2.312,2.312,0,0,0,.792-2.534,1.362,1.362,0,0,0-1.346-.633,1.058,1.058,0,0,1-1.188-.95,1.985,1.985,0,0,1-.475.792,1.765,1.765,0,0,1,0,1.108q-1.425,1.9-.95,2.85a1.935,1.935,0,0,0,1.425.475,3.629,3.629,0,0,0,.634,2.058,3.151,3.151,0,0,1,1.741,2.613q0.317,1.981.475,3.721a86.076,86.076,0,0,0,.95,10.925l-2.216-.475q-0.161-8.391,0-12.667a6.292,6.292,0,0,0-.792-1.108,1.264,1.264,0,0,0-1.5.871c-0.265.687-.554,1.345-0.871,1.979q-2.06,5.544-.633,13.775l-0.317.316a19.1,19.1,0,0,1-.95,3.325,16.708,16.708,0,0,1-1.583-7.283q0-2.53,3.325-16.15a4.336,4.336,0,0,0-.634-2.217,10.512,10.512,0,0,1,1.109-5.383,21.306,21.306,0,0,0,2.216-.158c0.95-.1,1.636-0.159,2.059-0.159a16.158,16.158,0,0,0,.791,10.609q0.156,1.425.475,7.6a48.029,48.029,0,0,0,.95,7.441c-0.633,0-.9-0.262-0.791-0.791h0Zm-9.421-19.079a20.781,20.781,0,0,1-.079,4.987q-1.9,5.544-3.009,8.233-0.318-1.74.95-6.175,2.532-5.7,1.425-9.658l0.475-2.375h0.634A12.121,12.121,0,0,0,316.763,512.585Zm-1.346.554a9.622,9.622,0,0,1-.712,5.383,15.661,15.661,0,0,0-1.5,3.958l-0.95-5.383q1.741-6.175,2.692-9.342l0.633-.158a16.768,16.768,0,0,0-.158,5.542h0ZM349.3,544.014l-27.708-8.55a4.526,4.526,0,0,0,1.583-1.267,2.759,2.759,0,0,1,1.584-.792,2.115,2.115,0,0,1,1.266.475l0.159,0.317h0.633q17.256,5.7,25.808,8.867Zm13.142,32.933c0.21,0.213.131,0.554-.237,1.029s-0.609.767-.713,0.871l-1.267-6.967L356.742,549.4l-0.317-2.533a12.34,12.34,0,0,0,2.375-2.375l2.375,18.208,2.059,13.617a1.711,1.711,0,0,1-.792.633h0ZM322.067,526.6a4.3,4.3,0,0,0-1.108.95,10.163,10.163,0,0,0-.317,5.067l0.633,0.475,0.159-.317a11.818,11.818,0,0,1,.316-4.908,38.8,38.8,0,0,1,.475,5.066q-1.269.636-1.9,0.95-1.743-8.7,1.742-15.041c0.21-.1.369,0.106,0.475,0.633a56.716,56.716,0,0,1,.158,7.758Zm36.417,53.833,0.158-.316q-1.9-12.351-3.167-18.367a4.406,4.406,0,0,0-1.583-2.533,1.34,1.34,0,0,0-1.108.158,9.848,9.848,0,0,1-.475-5.542,11.933,11.933,0,0,0,0-5.541h0.316q0.79,5.385,1.267,8.075a1.714,1.714,0,0,0,.475.316l0.158-.316q-0.793-5.541-1.108-8.392a1.65,1.65,0,0,1,1.425,0l3.325,20.583,2.217,11.717a3.463,3.463,0,0,0-1.9.158h0Zm-39.267-66.5a82.42,82.42,0,0,1-1.9,8.075,31.969,31.969,0,0,0-1.425,8.234q0,5.7,2.058,8.708-0.793,2.694-1.266,4.117a3.688,3.688,0,0,0-.317-1.267,3.846,3.846,0,0,1-.317-1.425l-0.158-.158q-0.159-1.74-.95-5.859a35.353,35.353,0,0,1-.633-5.7,23.237,23.237,0,0,1,1.741-7.283,23.256,23.256,0,0,0,1.742-7.283,12.2,12.2,0,0,1,.317-6.809h1.266q-1.425,5.07-.158,6.65h0Zm25.017,32.142q-1.269-.156-6.65-1.583a19.349,19.349,0,0,0-6.967-.792,14.079,14.079,0,0,1-6.967-.158,7.362,7.362,0,0,0,.792-2.375q6.649,1.425,6.967,1.425l-0.634-.475L324.6,540.53a1.1,1.1,0,0,0-.95-0.95,4.627,4.627,0,0,1-2.533,0,0.466,0.466,0,0,0-.158-0.316h-0.317l2.375,0.158a4.582,4.582,0,0,1,.475-0.633,4.881,4.881,0,0,1-1.662-.4,4.9,4.9,0,0,0-1.5-.4l0.317-.792q16.625,4.595,24.858,7.6a6.968,6.968,0,0,0-1.266,1.267h0Zm13.141,34.517q-1.269-5.226-2.691-10.292a36.393,36.393,0,0,0-4.117-9.658,17.37,17.37,0,0,0-3.008-1.742,3.6,3.6,0,0,1-2.059-2.692,38.063,38.063,0,0,1-1.108-5.858l-0.317.475q-0.159,6.969,3.642,9.025a3.455,3.455,0,0,1,2.217,1.267q0.315,0.474,1.425,2.375a31.712,31.712,0,0,1,3.008,8.233q1.105,4.436,2.058,8.867c-0.316.316-.475,0.213-0.475-0.317q-0.318-1.9-.712-3.879a5.9,5.9,0,0,0-1.5-3.088,1.42,1.42,0,0,0-1.109-1.5,3.779,3.779,0,0,1-1.583-1.029q-0.319-2.375-.712-4.987a6.554,6.554,0,0,0-1.98-4.038q-5.225-3.165-5.066-10.133a1.045,1.045,0,0,1,.791-1.346c0.634-.158,1.267-0.341,1.9-0.554l5.384-1.109a12.906,12.906,0,0,1,.237,5.463q-0.4,3.882.713,5.779a1.964,1.964,0,0,1,2.058,1.267q2.691,12.825,3.8,19.316ZM341.7,549.08q-9.5-2.53-13.933-2.058a13.324,13.324,0,0,1-5.067,1.108,5.559,5.559,0,0,1-4.116-1.583l-0.317-.317,0.95-3.325a4.52,4.52,0,0,0,1.346.475,2.218,2.218,0,0,1,1.5.95,26.34,26.34,0,0,1,4.75.317q7.44-.315,9.5.317a76.083,76.083,0,0,0,7.442,1.741,8,8,0,0,1-2.059,2.375h0Zm5.384,19.634-1.584.316-1.425-10.291a6.211,6.211,0,0,0,2.375,2.612,6.719,6.719,0,0,1,2.375,2.454,39.756,39.756,0,0,1,1.267,6.492q-2.218-1.74-3.008-1.583h0ZM325.234,551.3a14.231,14.231,0,0,1,6.65-1.742,7.668,7.668,0,0,1,5.066,1.584,43.11,43.11,0,0,0,4.592,1.9q0.476,2.06.633,3.166Zm11.637-.95a12.923,12.923,0,0,0-5.3-1.583,8.068,8.068,0,0,0-2.217.316,10.877,10.877,0,0,1-5.7,1.425,14.619,14.619,0,0,1-6.016-1.266l0.316-1.9a7.167,7.167,0,0,0,4.75,1.583,14.666,14.666,0,0,0,5.7-1.267q4.751-.315,12.825,2.059l0.317,2.533A24.754,24.754,0,0,1,336.871,550.347Zm-15.437-8.708a1.085,1.085,0,0,1-.792.95,8.98,8.98,0,0,0-.95-0.554,0.425,0.425,0,0,1-.158-0.713l0.316-1.267,2.217,0.475A1.969,1.969,0,0,0,321.434,541.639Zm32.458,43.383a26.79,26.79,0,0,0-2.058-2.137,2.943,2.943,0,0,1-1.109-2.138q-1.109-6.175-1.9-9.183l3.167,2.375,2.217,11.083h-0.317Zm-7.283-13.775a2.585,2.585,0,0,0,.316,1.425,23.988,23.988,0,0,1-7.283.633l7.442-2.375a0.656,0.656,0,0,1,.158.475,1.447,1.447,0,0,0-.633-0.158h0Zm-11.084,3.325a18.471,18.471,0,0,1,5.78-.554,18.324,18.324,0,0,0,5.779-.554l0.475-.475q0.156,1.584.158,2.375a96.006,96.006,0,0,1-12.192-.792h0Zm12.509,1.583,0.316,0.792q0.156,0.476-.475.475-2.375.476-4.591,0.95a11.878,11.878,0,0,1-5.067.158,21.784,21.784,0,0,0-11.242-1.425l6.492-2.058a59.437,59.437,0,0,1,6.967.633,59.123,59.123,0,0,0,7.283.634ZM336,583.439a2.812,2.812,0,0,0-2.375.633q-3.8.95-8.391,1.9c0-.95.158-1.37,0.475-1.267a42.746,42.746,0,0,0,8.075-1.741c0.1-.1.052-0.21-0.159-0.317q-5.859,1.11-8.866,1.583l-1.267-6.175a9.49,9.49,0,0,1,1.267-.316q-0.951.635-.792,0.95l0.317,0.316a11.977,11.977,0,0,1,5.7-1.266,18.664,18.664,0,0,1,7.125,1.425q3.955,0.95,11.241-1.109,0.631,1.11,0,1.267-1.743.476-5.462,1.346a53.219,53.219,0,0,0-5.463,1.5,0.447,0.447,0,0,0,.159.317q9.18-2.056,11.241-2.692a4.219,4.219,0,0,0,.159.95q-9.975,3.011-12.984,2.692h0Zm-9.975,5.225a9.617,9.617,0,0,1-.633-1.9,27.531,27.531,0,0,1,5.067-1.109,12.983,12.983,0,0,0,4.908-1.741q0.476,0.319,4.433.316,6.332-1.74,9.342-2.691l0.317,0.95Zm3.325,3.958a25.012,25.012,0,0,0-2.85-2.533q8.232-2.376,23.434-6.017l0.316-.317q1.425,1.11,2.217,1.742-15.36,4.91-23.117,7.125h0Zm-4.591-17.258q-7.92-7.44-11.875-11.242l1.741-.792q8.076,7.444,12.192,11.559a7.575,7.575,0,0,1-2.058.475h0Zm-2.375.475q-0.635-.632-6.017-5.225a23.9,23.9,0,0,1-5.383-5.859l0.158-.158q7.916,7.444,11.717,11.242h-0.475Zm-0.95.475-1.267-1.584a9.151,9.151,0,0,1,1.742,1.584q-0.319.32-.475,0h0Zm-3.484-2.534a24.183,24.183,0,0,1,3.325,3.325v1.425l0.317,1.267q-3.484-5.225-3.642-6.017h0Zm3.642,7.917a183.65,183.65,0,0,1-11.4-15.992l0.317-.633a27.213,27.213,0,0,0,7.6,7.917,0.755,0.755,0,0,0-1.109.475q0.79,3.009,5.067,7.6a4.614,4.614,0,0,0,.158,1.108,0.62,0.62,0,0,0-.633-0.475h0Zm1.742,6.492q-1.11-1.581-4.275-6.65a35.237,35.237,0,0,0-4.75-6.334,5.211,5.211,0,0,0-1.9-3.325h-0.317a44.793,44.793,0,0,1-3.167-4.75l0.792-.95q1.425,1.745,6.175,8.867a44.494,44.494,0,0,0,6.967,8.55q0.474,2.85.791,4.275Zm-15.675-18.842a2.718,2.718,0,0,0,1.108-.158l2.533,3.483Zm14.091,20.9-4.908-4.117a31.951,31.951,0,0,0-11.083-14.883l-1.109-.633,0.792-1.109,7.6,5.859a22.071,22.071,0,0,1,3.167,3.166q4.59,6.81,6.808,10.292-0.793.95-1.267,1.425h0Zm-8.866-7.917a11.3,11.3,0,0,0-3.484-5.462,9.848,9.848,0,0,0-5.383-2.771l-0.317.475a3.546,3.546,0,0,0-1.266-1.108l2.058-2.375a30.974,30.974,0,0,1,11.4,13.933Zm-8.867-7.441a10.071,10.071,0,0,1,7.758,6.175Zm44.967-24.225a5.79,5.79,0,0,0-2.375,2.85c-0.107.95,0,1.479,0.316,1.583q1.425,0.476,3.009-1.267a3.311,3.311,0,0,0,.791-2.216q-0.159-.951-1.741-0.95h0Zm-19.871,30.083a1.853,1.853,0,0,1-.871-1.583,0.579,0.579,0,0,0-.475-0.792,1.055,1.055,0,0,0-.95.158,4.566,4.566,0,0,0-1.425,3.484,1.309,1.309,0,0,0,1.425,1.108A7.3,7.3,0,0,0,328.4,581.7a7.8,7.8,0,0,0,1.425.633C330.036,581.91,329.8,581.38,329.113,580.747ZM436.224,563.33c-0.213-.316,0-0.843.633-1.583q0.156-11.556,1.584-17.733c0-.1.1-0.792,0.316-2.059a1.278,1.278,0,0,0-.791-1.583l-4.592.95a2.41,2.41,0,0,1-.95.317,1.322,1.322,0,0,1-.871-1.109,5.327,5.327,0,0,0-.554-1.266q-2.06-8.231-3.958-16.467a156.781,156.781,0,0,1-3.484-16.942,25.038,25.038,0,0,0-.712-4.829,24.986,24.986,0,0,1-.713-4.829,6.806,6.806,0,0,1,1.267-4.117q0.315-1.74,0-2.058a99.168,99.168,0,0,1-16.942-1.425q-4.434,2.375-6.65,3.483-2.694,9.186-3.8,12.509v1.583a3.852,3.852,0,0,0,2.692,0q-0.635,3.96-2.692,5.383a6.358,6.358,0,0,1-.158-2.375l-0.95-.95v0.475q-7.76,27.075-11.717,40.534-4.275,3.485-6.333,5.066l-0.317.792a41.834,41.834,0,0,1,3.167,8.867l-8.867,24.225,0.159,0.95a3.874,3.874,0,0,0,1.741.633q9.5,0.319,14.409.475a13.661,13.661,0,0,0,3.008,0q3.8-2.375,4.433-3.483a110.678,110.678,0,0,1,5.384-16.15q10.131-1.425,15.041-2.375,3.641,15.519,5.067,23.433l0.633,0.633a74.975,74.975,0,0,1,9.659.792q7.915,0.95,9.5,1.108,0.95-1.106,1.979-2.3a3.727,3.727,0,0,0,1.029-2.455q-3.8-13.774-6.65-26.125h0Zm-19-70.141q-8.87-.632-13.142-1.109a4.112,4.112,0,0,1,3.009-1.266,16.154,16.154,0,0,1,2.533.316,15.98,15.98,0,0,0,2.692.317q-1.269,0,6.966.158Zm10.925,48.925-7.917-37.842,0.792-2.692q4.907,26.125,8.075,38.95a1.754,1.754,0,0,0,.317,1.267,2.239,2.239,0,0,1-1.267.317h0Zm-5.858,1.108-1.425.158a50.27,50.27,0,0,1,0-8.075q0.474-6.489.475-8.233a53.024,53.024,0,0,0-2.85-16.467,17.061,17.061,0,0,1,.791-2.058q4.906,22.8,4.909,23.117-2.85,3.324-1.9,11.558h0Zm-9.5-23.354q-5.7,17.656-8.075,26.679-1.269.319-1.9,0.475,10.131-35.149,15.675-52.408l2.375-1.425Q418.49,502.213,412.791,519.868Zm5.225,24.146q0-1.425.791-9.025a37.683,37.683,0,0,0,.159-9.025q-0.951-6.651-2.692-9.5l1.742-4.75q3.48,11.72,1.9,28.341l0.475,3.325q-1.586.476-2.375,0.634h0ZM408.516,519q-1.269,1.586-.475,4.75l-0.95,2.533q-1.11-2.531.633-8.391a5.29,5.29,0,0,1,1.583-2.217q-0.318,3.01-.791,3.325h0Zm15.991,23.75a5.653,5.653,0,0,0-1.583.158q-0.635-6.965,1.425-10.291l1.108,3.8a16.105,16.105,0,0,0-.95,6.333h0Zm0.95-.158a6.941,6.941,0,0,1,.317-4.592l0.95,4.275a5.418,5.418,0,0,0-1.267.317h0Zm-8.233,1.583-1.9.317q0.156-1.106.95-6.809a69.964,69.964,0,0,0,.475-7.125,17.747,17.747,0,0,0-2.217-9.341l1.425-3.959a38.008,38.008,0,0,1,2.375,13.617q-0.635,8.87-1.108,13.3h0Zm-1.108-46.708q-9.5,3.96-12.667,16.308c0,0.107.1,0.158,0.317,0.158q3.48-8.55,7.6-12.35,2.85-2.214,4.275-3.166l-1.267,4.75q-2.85-.156-5.7,3.483-5.859,7.6-7.283,19a96.28,96.28,0,0,0-.634,10.767,77.1,77.1,0,0,1-.791,10.608q0.156,0.319.475,0,0.95-3.956,1.266-15.042,0.317-9.5,2.375-14.408a75.821,75.821,0,0,1,3.484-7.758,12.694,12.694,0,0,1,6.175-5.7H413.9L410.257,517.1a2.577,2.577,0,0,0-.633-2.217q-0.95-.474-2.058,1.267a16.115,16.115,0,0,0-1.742,9.025,2.416,2.416,0,0,0,1.108,1.742,78.361,78.361,0,0,0-2.691,9.183,53.443,53.443,0,0,1,3.166-21.533,28.2,28.2,0,0,1,3.009-3.959,0.982,0.982,0,0,0,.791.792,1.894,1.894,0,0,0,0-1.583,1.15,1.15,0,0,0-1.583,0,14.906,14.906,0,0,0-4.038,7.362q-1.187,4.673-1.979,8.946-0.474,9.345-.316,13.933l-2.217,7.125-2.692.475a40.89,40.89,0,0,0,.792-16.941,0.468,0.468,0,0,0-.317-0.159l-0.158.317a54.654,54.654,0,0,1-.95,16.942l-7.125.791q0.475-2.214,1.583-9.025a40.851,40.851,0,0,1,2.217-8.708q0.95-4.114,4.592-16.625a136.8,136.8,0,0,0,4.275-16.942l1.108-3.325h0.95q-0.476,1.9-.633,2.692a2.079,2.079,0,0,0-1.109.475,4.016,4.016,0,0,0,0,3.8A96.83,96.83,0,0,1,400.6,511.4q-5.224,19.95-7.283,30.242a15.824,15.824,0,0,0-.317,2.533,32.805,32.805,0,0,0,1.742-6.333q2.85-11.715,4.116-17.734,3.325-11.874,5.225-17.891a1.541,1.541,0,0,1,.634.4,0.739,0.739,0,0,0,.791.237,6.213,6.213,0,0,0,.792-3.167l1.742,1.109a0.846,0.846,0,0,0,.475-0.634,2.151,2.151,0,0,0-.871-1.266,1.549,1.549,0,0,1-.713-1.425c-0.846,0-1.056-.1-0.633-0.317l-0.792,1.108-0.475-.95,0.95-3.325,10.925,0.475Zm19.158,63.65-0.792,1.108q-0.635-10.925-.633-16.467l2.375-2.375q-0.793,6.81-.95,17.734h0Zm-22.325-16.15q-0.159-1.425-.95-5.7a28.591,28.591,0,0,1-.792-5.7,9.855,9.855,0,0,1,1.109-4.75,64.1,64.1,0,0,1-.317,9.025L412.157,538a26.335,26.335,0,0,0,.95-6.017q-0.159-2.85-.316-4.591l1.425-5.225a19.006,19.006,0,0,1,1.741,8.55,70,70,0,0,1-.475,7.125q-0.794,5.544-.95,6.808a10.484,10.484,0,0,0-1.583.317h0Zm-14.725-30.559q-4.594,15.836-6.492,23.75l-1.583,10.45h-2.533a32.148,32.148,0,0,0,1.425-13.458l5.541-20.267a3.637,3.637,0,0,0,.475-1.425,2.648,2.648,0,0,0,2.692-1.5q0.949-1.662,1.742-3.246a6.53,6.53,0,0,0,.316-5.225,5.535,5.535,0,0,0-1.583-.791,69.819,69.819,0,0,1,3.325-9.025,11,11,0,0,1,2.058.158q-3.959,13.62-5.383,20.583h0ZM410.416,545.6l-3.959.633q1.581-6.33,2.534-9.5,1.425,5.7,1.9,8.55Zm14.408,18.842a5.176,5.176,0,0,1,.633-1.188,1.484,1.484,0,0,0,.317-1.5,13.2,13.2,0,0,0-1.9,2.85l-1.742.317a41.456,41.456,0,0,1,2.692-5.384l-0.317-.316a58.614,58.614,0,0,0-3.325,5.858l-1.9.475a102.286,102.286,0,0,1,5.7-9.658c-0.106-.317-0.316-0.317-0.633,0q-4.119,5.859-6.333,9.816l-3.642.634a27.8,27.8,0,0,1,3.167-6.017q0.474-.63,4.433-5.858a91.955,91.955,0,0,1,7.758-7.125q2.532-.315,2.692-0.317,0.315,10.451.95,15.833-5.7,1.11-8.55,1.584h0Zm-3.958-9.659q-1.425,1.9-6.017,8.234l-1.425,3.641-1.425.159q1.105-8.076,7.917-17.575,5.539-.951,8.391-1.584a39.015,39.015,0,0,0-7.441,7.125h0Zm18.683,36.259q-4.119-16.466-5.858-24.859,0.95-.789,1.425-1.108,3.641,16.31,5.541,24.542a9.7,9.7,0,0,1-1.108,1.425h0Zm-6.967-45.6-16.308,2.375-22.325,4.116a0.567,0.567,0,0,1-.792,0,31.281,31.281,0,0,1-4.908,1.109q-5.7.793-8.392,1.425a26.054,26.054,0,0,1,3.484-2.85,40.246,40.246,0,0,0,6.491-.634q5.066-.95,6.334-1.108,19.315-3.165,28.658-5.225,3.006-.63,8.867-1.742l0.158,0.317,0.792-.158Zm-21.375,21.533a6.726,6.726,0,0,1-1.741.317q0.79-11.08,5.541-17.1a41.189,41.189,0,0,1,4.117-.792q-6.969,9.819-7.917,17.575h0Zm24.225,25.017q-0.793-2.216-1.583-12.034-0.635-7.6-3.958-10.925a2.123,2.123,0,0,0-1.584-.316q-2.059,1.584-1.741,7.125,3.165,8.869,5.225,13.141l0.316,2.534-4.908-.792q-2.535-10.765-2.533-14.725a17.884,17.884,0,0,1,1.9-8.392,20.492,20.492,0,0,1,3.166-.475l2.85,0.159q4.591,21.219,5.542,24.541L438.6,592.3Zm-26.758-24.542-1.9.317q-0.159-3.956,2.058-11.559a3.026,3.026,0,0,0-.475-2.375,3.569,3.569,0,0,0-1.741-.95q-1.425-.474-1.267-1.425a88.233,88.233,0,0,1,8.867-1.266q-4.751,6.494-5.542,17.258h0Zm24.858,24.383c-0.529-.1-0.739-0.316-0.633-0.633a42.222,42.222,0,0,0-2.771-7.6,52.2,52.2,0,0,1-2.771-7.125q-0.318-5.539,1.267-6.967,0.631,0,2.375,2.217a32.059,32.059,0,0,1,2.058,8.708q0.316,4.595.792,9.184a15.273,15.273,0,0,0,.792,2.216h-1.109Zm-8.708-1.583q-0.159-1.74-1.267-7.6a48.527,48.527,0,0,1-.791-7.6,17.593,17.593,0,0,1,1.425-7.283,6.952,6.952,0,0,1,1.266-.159,19.341,19.341,0,0,0-1.583,8.075q0,4.595,2.692,14.884Zm-38-41.325a3.118,3.118,0,0,1-1.425,0q2.215-7.44,3.008-11.242a32.986,32.986,0,0,1-1.583,11.242h0Zm34.992,41.008L417.7,569.505l-0.158-.791,2.691-.317a14.98,14.98,0,0,0-.633,4.433q0,0.319,1.742,11.875l0.316,0.159,0.159-.159a47.561,47.561,0,0,0-.792-5.858,35.8,35.8,0,0,1-.633-5.858,14,14,0,0,1,.791-4.75,3.176,3.176,0,0,1,.95-0.238,9.224,9.224,0,0,1,1.109-.079,48.376,48.376,0,0,0-1.267,9.183q1.266,8.711,2.058,12.984Zm-15.042-28.658a18.4,18.4,0,0,0-.633,6.492,13.041,13.041,0,0,1-1.742.158,39.307,39.307,0,0,1,1.108-5.7,20.365,20.365,0,0,0,.792-6.017,5.42,5.42,0,0,0-5.067-3.166q-4.434.474-6.333,0.791a1.894,1.894,0,0,1-.792-0.316q6.331-1.425,10.609-2.059a1.446,1.446,0,0,0,.95,2.059c1.37,0.316,2.162.846,2.375,1.583a39.915,39.915,0,0,1-1.267,6.175h0Zm-3.008,6.808q-5.544.795-8.392,1.109a3.037,3.037,0,0,1,.633-1.425,3.071,3.071,0,0,0,.634-1.425,1.3,1.3,0,0,0-.475-0.792,7.127,7.127,0,0,0-4.275,4.117c-0.634.106-1,.158-1.109,0.158q0.317-3.8,4.909-7.125a4.8,4.8,0,0,0,.95-0.317l0.475,0.792q0.95-.156.316-0.95-0.474-.949-2.375-0.317-4.749,4.121-4.908,8.075-1.9.319-2.85,0.475a6.771,6.771,0,0,1,1.425-5.225,37.871,37.871,0,0,1,3.642-4.433q4.275-3.48,6.333-3.325c0.21,0,.341.238,0.4,0.713a0.812,0.812,0,0,0,.237.712,0.938,0.938,0,0,0,.475-0.475,1.63,1.63,0,0,0-1.108-1.9q-1.269-.315-4.433,1.583-8.55,7.444-7.759,12.509l-3.641.633c-0.107-.42-0.317-1.425-0.634-3.008a10.155,10.155,0,0,1-.633-3.009,4.421,4.421,0,0,1,1.108-3.008,58.266,58.266,0,0,1,4.592-7.6,6.828,6.828,0,0,1,1.742-.317q-1.425,2.7-2.217,4.117l0.158,0.158a30,30,0,0,0,3.009-4.433q-0.16,0,2.375-.475a1.542,1.542,0,0,1,1.9.95l0.95,0.158q6.805-.949,5.858-0.95a4.542,4.542,0,0,1,4.433,2.534,89.731,89.731,0,0,1-1.741,11.716h0Zm-9.025.634a1.327,1.327,0,0,1-1.742.791,7.4,7.4,0,0,1,2.533-2.85C395.32,567.289,395.057,567.977,394.741,568.714Zm-13.3-5.542a3.105,3.105,0,0,1-.317-1.425,5.964,5.964,0,0,1,1.187-3.325q1.188-1.74,2.138-3.325a9.794,9.794,0,0,0,1.583-.317q-3.959,6.81-4.591,8.392h0Zm-0.634-3.325a19.69,19.69,0,0,1-.95-3.958q2.215-.315,3.484-0.634Zm11.875,26.125a8.042,8.042,0,0,0-2.058,1.108,137.02,137.02,0,0,1,5.067-14.25,12.57,12.57,0,0,1,1.741-.633Zm-3.958,2.533-3.325-.158q0.476-.79,3.167-7.917a31.419,31.419,0,0,1,4.116-7.6,1.063,1.063,0,0,0,.713.08,3.418,3.418,0,0,1,.554-0.08q-3.644,10.451-5.225,15.675h0Zm-4.117-.316H383.5q4.116-9.34,5.858-14.409a3.048,3.048,0,0,1,2.059-.633,116.518,116.518,0,0,0-6.809,15.042h0Zm1.188-7.521a39.413,39.413,0,0,1-3.088,7.362l-2.533-.158q0.95-3.48,1.9-6.967a38.018,38.018,0,0,0,1.267-7.441,1.539,1.539,0,0,1,.633.791l4.592-.791A60.246,60.246,0,0,0,385.8,580.668Zm-4.354.079q-1.585,6.019-1.742,7.125h-1.9a59.659,59.659,0,0,0,1.742-10.45,16.694,16.694,0,0,0-.634-4.592l1.584-4.116q0.79,3.169,1.108,4.75a2.583,2.583,0,0,0,.792.158,24.166,24.166,0,0,1-.95,7.125h0Zm-4.434,6.967-0.95.158a11.975,11.975,0,0,1,.4-2.612,11.993,11.993,0,0,0,.4-2.455v-4.433l1.742-4.592q0.949,5.226-1.584,13.934h0Zm-2.058.158h-1.425a75.186,75.186,0,0,1,2.692-7.758,30.09,30.09,0,0,1-1.267,7.758h0Zm52.567-34.517A3.386,3.386,0,0,0,425.457,557c0.1,0.846.579,1.108,1.425,0.792q2.056-1.105,1.742-3.959-0.32-.95-1.108-0.475h0Zm4.116,29.767a32.294,32.294,0,0,1-2.058-8.708l0.158-.317a5.529,5.529,0,0,1,.792,1.583,4.385,4.385,0,0,0,.158-0.95q-0.635-2.214-1.741-1.108a16.47,16.47,0,0,0,2.533,9.5h0.158Zm-44.1-20.9a1.257,1.257,0,0,1-.554-0.792l0.159-1.425c0.21-.633,0-0.95-0.634-0.95a14.837,14.837,0,0,0-2.216,3.484,2.334,2.334,0,0,0,.158,1.583,12.1,12.1,0,0,0,1.9-1.425,2.54,2.54,0,0,0,1.583.475A0.879,0.879,0,0,0,387.536,562.222ZM536.29,574.255l-4.592-8.866,3.167-81.7q0.315-12.825.317-19.317c-0.634-.95-1.267-1.37-1.9-1.266a63.023,63.023,0,0,0-6.334,3.8c0,0.423.052,0.633,0.159,0.633q-2.376,6.176-3.484,9.183a48.253,48.253,0,0,0-3.483-4.117,1.23,1.23,0,0,0-1.425.475,2.327,2.327,0,0,1-1.108.792,51.713,51.713,0,0,1-3.642-9.025q-1.584-1.581-2.058-1.425a30.9,30.9,0,0,1-7.442,1.267,1.994,1.994,0,0,0-.792,1.9q1.741,31.509.317,47.183l-20.108-35.625-0.475-1.425a1.857,1.857,0,0,0-2.217-1.742q-3.643.16-3.167,0.317l0.475-6.333q-0.159-5.065-.791-5.542-9.025-.474-13.617-0.316l-0.317-.317a80.181,80.181,0,0,1-8.866-.475l-0.317.633a42.374,42.374,0,0,0-3.642,2.375,11.873,11.873,0,0,1-3.958,1.9,0.852,0.852,0,0,0-.475.634,366.425,366.425,0,0,1,2.217,41.166l0.158,28.658a7.753,7.753,0,0,0,0,3.167q-1.425,32.145-.633,49.242,0,1.11,1.425.95a185,185,0,0,1,22.483-1.109,31.12,31.12,0,0,1,3.958-2.691q2.532-1.581,2.534-3.484a5.3,5.3,0,0,0-.159-1.266l0.159-24.384q0.156-30.4.316-32.933,15.992,29.135,24.067,43.7l-1.108,23.592,1.108,1.266a26.662,26.662,0,0,0,5.225.475q2.375,0,8.075-.633a50.866,50.866,0,0,1,8.233-.475,1.425,1.425,0,0,1,1.267-.475l4.275-3.483a6.814,6.814,0,0,1,.633-0.95l0.475-8.075q3.482-2.376,5.384-3.642c-0.107-.95-0.213-1.687-0.317-2.217h0Zm-14.883-91.991a20.627,20.627,0,0,1-2.85-4.434l1.583-1.266q1.581,2.374,2.375,2.691Zm-6.65-1.425q-3.96-9.5-6.334-14.092a21.938,21.938,0,0,1,2.534-.633l5.066,9.341a23.689,23.689,0,0,0-1.266,5.384h0Zm11.716,14.25-0.95,1.425q-3.484,7.125-6.966,14.25a45.044,45.044,0,0,0-4.275,15.2l-0.475,5.541-6.492-11.875q-0.476-13.455-.475-25.333l-0.158-24.858,1.425,2.375q0.474,6.81.158,21.375-0.159,13.935.475,21.375a0.449,0.449,0,0,0,.317.158l0.158-.317q-0.319-6.805-.158-20.266T508.9,473.872l1.425,3.008q0.317,9.66.317,14.725l0.475-.633,0.158-11.875q2.215,3.645,2.375,10.133v11.084a208.572,208.572,0,0,0-.158,21.533c0.421,0.213.579,0.317,0.475,0.317l0.158-.317q-0.159-5.224.159-17.733,0.315-11.241,0-17.892a2.443,2.443,0,0,0,1.266,1.425,1.342,1.342,0,0,0,.792-0.475q0.156,1.425.158,6.492a33.678,33.678,0,0,0,.475,6.333q0.317,0,.317-0.475,0.156-2.215,0-9.342a34.168,34.168,0,0,1,.475-9.183,3.611,3.611,0,0,1,1.346,2.613q0.237,1.821.4,3.562a1.954,1.954,0,0,0,.475-1.108v-1.742l1.741,1.108a7.509,7.509,0,0,0,2.217-2.533l3.167-7.6q-0.16,13.144-.634,19.792h0Zm3.642,58.108q-0.159,6.019-.317,8.233l-2.691-5.225,1.9-78.375,0.158-7.758a5.169,5.169,0,0,1,3.958-2.85Zm-56.842-76.633-0.316-6.65,2.85-2.217,0.316,7.917Zm-2.85-8.55-8.233-.317q-0.793-1.106-1.267,0l-9.025.159,3.8-2.534,18.05,0.475Zm55.734,46.075a35.456,35.456,0,0,0-3.642,7.441q-2.375,10.77-2.375,13.775a16.466,16.466,0,0,0,1.742,7.759q1.425,1.425,2.375.791l1.108-1.108-0.158,9.975q-2.535-5.065-5.067-9.975a19.687,19.687,0,0,1-2.058-11.4,68.291,68.291,0,0,1,8.233-24.7,1.943,1.943,0,0,0-.317-0.475h-0.316q-5.861,9.025-8.234,23.117a25.764,25.764,0,0,0,0,9.025q-2.85-5.7-2.85-7.917a11.384,11.384,0,0,1,.159-1.9,47.8,47.8,0,0,1,4.433-16.15q3.64-7.6,7.283-15.042ZM526,529.764a8.234,8.234,0,0,1-1.266,4.908,9.278,9.278,0,0,1-.634-3.483,13.306,13.306,0,0,1,1.9-6.65v5.225h0Zm-0.791-6.017a14.954,14.954,0,0,0-2.059,7.442,10.13,10.13,0,0,0,.713,3.721q0.712,1.821,1.979.237-0.159,2.059-.237,4.433a3.55,3.55,0,0,1-1.98,3.325,0.64,0.64,0,0,1-.475.159q-2.694-3.481-2.058-10.767,2.375-11.4,5.067-16.308v7.758a1.331,1.331,0,0,0-.95,0h0ZM461.24,482.264a43.7,43.7,0,0,1,.792-12.35h0.633l0.158,9.658,0.475,0.158,0.159-.316,0.316-9.658h0.634l0.316,4.749a0.5,0.5,0,0,0,.475-0.316l0.317-4.433,5.067,0.158,0.316,7.6Zm-1.267.633-2.85,1.742a103.363,103.363,0,0,1,1.425-12.034,1.675,1.675,0,0,0,.792-1.108l-0.158-1.583h1.583Zm69.509,88.033-19.475-36.891-18.842-33.725-12.508-21.375a5.26,5.26,0,0,1,1.9-.95q8.074,12.669,11.4,19.316,6.33,10.926,7.283,13.142l1.267,1.583L514.6,537.205q8.076,14.726,11.717,22.642a9.7,9.7,0,0,0,.317,1.425c0.316,0.107.475,0.107,0.475,0l6.016,11.558a24.964,24.964,0,0,0-3.641-1.9h0Zm-70.617-83.6a1.6,1.6,0,0,1,1.425-1.108l2.217,6.808Zm53.992,88.192a98.929,98.929,0,0,1-1.742-14.883,87.363,87.363,0,0,0-1.9-15.042,23.9,23.9,0,0,0-3.008-8.392q-2.22-3.956-4.434-7.758-4.434-6.649-8.708-13.3a51.734,51.734,0,0,1-6.492-14.408l-1.9-7.759,12.667,20.742q9.975,18.369,14.567,27.708l4.75,29.45a4.653,4.653,0,0,0-3.8,3.642h0Zm0.158,7.125-2.375-4.592,0.317-.475q-2.535-5.38-3.642-16.15-1.269-12.189-2.692-16.466-4.593-15.2-10.766-23.275-15.519-15.2-17.259-41.642,4.591,7.76,6.65,11.717,3.325,19.635,12.984,31.983,12.825,16.625,13.141,29.45,0.476,7.444.95,14.883,0.632,8.55,3.959,13.459Zm-10.45-19.95a70.2,70.2,0,0,0-2.692-15.2q-2.219-7.281-4.275-14.567a17.752,17.752,0,0,0-3.008-6.175l-0.317.475q6.807,19.476,9.025,33.25l-2.533-4.591,0.317-.634q-3.8-15.829-7.125-28.658-2.535-9.341-17.259-21.058a64.521,64.521,0,0,1-8.866-12.984,9.175,9.175,0,0,0,2.375-1.583,3.067,3.067,0,0,1,1.187,1.267,1.958,1.958,0,0,0,1.188,1.108,0.91,0.91,0,0,0,.633-0.317,17.3,17.3,0,0,0-1.583-3.8,11.981,11.981,0,0,0,.791-2.058,0.966,0.966,0,0,0-.791-1.425,2.723,2.723,0,0,0-3.167.713,15.463,15.463,0,0,0-1.9,2.929l-1.9-4.592q8.23-4.275,12.508-6.175,2.056,27.87,16.784,42.908Q504.621,538,507,569.505a18.831,18.831,0,0,0,.634,2.534Zm-14.25-26.442q-2.219-10.449-3.167-13.3a31.158,31.158,0,0,0-6.333-11.716,14.413,14.413,0,0,0-3.483-2.059q-1.586.951-1.584,1.5a1.079,1.079,0,0,1-.158.712q-6.81-11.556-8.708-14.567-2.535-6.33-3.959-11.241l0.95-.475a57.06,57.06,0,0,0,19.95,28.341q7.125,5.7,10.45,16.625,2.215,9.66,4.275,19.317l1.267,4.592q-6.175-11.876-9.5-17.734h0Zm-10.292-17.416q-0.474-2.057.159-2.534a13.218,13.218,0,0,1,2.85,4.117l2.691,7.758Zm7.917,13.616a4.5,4.5,0,0,1-.95-2.85q-0.159-.474-2.217-6.808a41.721,41.721,0,0,0-2.85-6.65q-1.584-1.265-2.375-.633l-0.791,1.266a16.48,16.48,0,0,0-1.425-2.216,5.331,5.331,0,0,1-.792-2.534,3.062,3.062,0,0,1,.475-1.583,5.586,5.586,0,0,1,3.8,2.217q0.476,0.635,2.692,3.8a70,70,0,0,1,5.7,18.208A15.5,15.5,0,0,0,485.94,532.455Zm38,42.275-0.317-1.583a5.4,5.4,0,0,0,2.534-2.217,1.262,1.262,0,0,0-.554-1.5,1.893,1.893,0,0,1-.871-1.187,0.448,0.448,0,0,0-.317.316,1.022,1.022,0,0,1-.475.475,1.009,1.009,0,0,0-.95.317l-0.95-8.075,5.7,10.767a29.7,29.7,0,0,1-3.8,2.691h0Zm-2.533,1.9q-2.694-15.675-3.642-23.591,2.53,2.694,3.325,7.916,0.476,4.595.95,9.184a2.422,2.422,0,0,0-1.108,2.533,1.529,1.529,0,0,0,1.741.792l0.475,1.741Zm-1.425-1.662a6.967,6.967,0,0,1,.475,1.821,1.613,1.613,0,0,1-1.584,1.583,12.459,12.459,0,0,1-.791-6.017l-0.634-.633L513.332,544.8l2.691,5.225-0.158.317q3.006,14.885,3.8,22.642A3.819,3.819,0,0,0,519.982,574.968ZM518.715,585.5q-2.06-.949-3.167-1.425a83.582,83.582,0,0,1,13.934-9.183l3.8,0.791a115.536,115.536,0,0,0-14.567,9.817h0Zm9.975-3.958-0.158,4.433A2.662,2.662,0,0,1,526,588.98a30.146,30.146,0,0,0,.317-4.433q0-2.689,2.375-3.008h0ZM450.157,509.5l-0.317-.95H450l0.159,0.792V509.5Zm6.016,38q0-5.065-2.454-14.725t-2.3-15.358l-0.95-31.35L450,469.756l4.117,0.158a92.8,92.8,0,0,0-2.217,21.85q0-3.165.95,25.491,3.957,21.535,3.959,29.767a47.335,47.335,0,0,1-1.9,13.933,0.741,0.741,0,0,1-1.267.159,7.826,7.826,0,0,1-2.217-5.384v-3.008a2.363,2.363,0,0,0,1.425,1.583,2.4,2.4,0,0,0,2.375-.791l0.475-1.267a22.611,22.611,0,0,0,.475-4.75h0Zm58.9,33.408a37.33,37.33,0,0,1-1.741-3.8q1.74,0.795,3.8-1.425,0.63,4.595.791,3.484-1.9,1.11-2.85,1.741h0Zm8.392,9.659a8,8,0,0,1-3.008-3.009q2.69-2.055,3.008-2.85l0.317,0.317Zm-62.542-31.35a54,54,0,0,1-2.375,15.358,6.152,6.152,0,0,1-1.741,2.058,5.344,5.344,0,0,1-2.692-.475q-2.694-2.689-2.85-7.758v-8.708a3.78,3.78,0,0,0,2.375,2.375,1.641,1.641,0,0,0,1.821-.159,2.5,2.5,0,0,0,1.029-1.741,49.783,49.783,0,0,0,1.583-12.984,103.838,103.838,0,0,0-1.583-16.308q-1.269-7.915-2.533-15.833-0.795-24.856-.792-22.8,0-13.457,2.217-22.325l2.216,0.158q-1.109,15.675-1.108,15.042-1.584,1.745-1.267,2.533a1.347,1.347,0,0,1,.08,1.5,1.173,1.173,0,0,0,.237,1.5l0.95,1.9,1.425,23.275,2.85,26.917q0,22.325.158,16.467h0Zm58.742,31.825v-0.317a7.815,7.815,0,0,1-2.533-2.375,2.687,2.687,0,0,0,2.533,0,24.107,24.107,0,0,0,2.85,2.533Zm-9.183-.317-0.159-3.8a15.833,15.833,0,0,0,5.225,1.267l2.85,2.691Zm-3.009.158,0.159-10.291a10.915,10.915,0,0,1,1.425,4.671q0.315,2.931.633,5.462Zm-2.375.159,0.634-14.884,0.95,3.167-0.159,10.925a1.093,1.093,0,0,0,.475.633Zm-28.975-8.392a1.953,1.953,0,0,1-.87,1.9c-0.688.53-1.346,1.057-1.98,1.583H472.64l0.792-66.183,3.008,3.958Zm-4.591-54.467q-0.319,9.821-.317,12.984l-0.158,25.966q-0.32,13.144-.792,19.634a147.053,147.053,0,0,0-19.317,1.583q0-.63.159-6.967,2.374,3.96,4.433,4.75,1.105,0.476,2.85-1.108,2.216-5.381,2.217-6.65l-0.317-.158a33.182,33.182,0,0,0-1.742,4.275,6.917,6.917,0,0,1-1.9,2.533,3.55,3.55,0,0,1-3.166-1.742q-0.8-1.58-1.742-3.325a20.454,20.454,0,0,1-.475-6.333,5.308,5.308,0,0,0,3.167,3.958q2.531,0.476,3.166-.158a13.619,13.619,0,0,0,3.484-6.967,61.319,61.319,0,0,0,.791-8.075,158.06,158.06,0,0,0-.475-25.808l-2.691-25.017-0.95-17.575q4.9,6.81,6.966,10.292a75.223,75.223,0,0,0-.475,9.817,1.2,1.2,0,0,0,.475.158,68.666,68.666,0,0,0,.792-8.708l1.425,2.058q-1.425,22.485-2.217,33.567a2.488,2.488,0,0,0,.95.633q1.425-21.851,2.217-32.617l1.9,3.009-1.9,27.866q-0.635,19.32-.633,29.292l0.316,0.158a4.374,4.374,0,0,0,.792-2.85q-0.159-3.324-.158-3.483V549.08l2.691-35.308,0.792,1.267q0.156,5.069-.158,13.141h0ZM452.848,553.2a7.006,7.006,0,0,1-1.583-2.058l0.158-3.325a1.374,1.374,0,0,0,1.425-.159,12.965,12.965,0,0,0,.634-4.116,21.882,21.882,0,0,0-2.217-8.867l-0.158-9.342q1.264,5.385,2.375,10.925a50.887,50.887,0,0,1,1.425,10.925,29.242,29.242,0,0,1-.475,5.384,1.575,1.575,0,0,1-1.584.633h0Zm-1.583-6.967v-8.866q1.9,6.649.95,9.658c-0.633.317-.95,0.055-0.95-0.792h0Zm12.825-29.291q-0.635,1.11-.475,5.066h0.475a19.733,19.733,0,0,0,0-5.066h0Zm159.441-48.45a4.893,4.893,0,0,0-.159-2.692,6.207,6.207,0,0,1,.159-2.533l-0.792-.633-0.792-.317a247.768,247.768,0,0,0-30.083.792q-28.185,1.425-42.433,1.583l-8.075,6.65q-0.791.95,0.475,1.741,11.08,5.385,16.783,7.6a41.049,41.049,0,0,0-3.008,3.8q-0.476,1.425,1.266,3.167a51.457,51.457,0,0,1-4.116,4.908v1.109a16.627,16.627,0,0,0,5.066,1.583,4.621,4.621,0,0,0,3.325,1.267l3.8,0.158-0.791,35.783L562.414,560.8l-2.533,29.45-0.159,3.958a39.755,39.755,0,0,0,4.909-.633,16.829,16.829,0,0,1,5.066-.158,7.852,7.852,0,0,0,1.821-1.584,3.226,3.226,0,0,1,2.138-1.266,4.958,4.958,0,0,0-.317,1.425,0.659,0.659,0,0,0,.317,1.108,16.945,16.945,0,0,1,3.325,0,13.893,13.893,0,0,0,3.008,0,8.074,8.074,0,0,0,2.85-.792,33.471,33.471,0,0,1,4.117-4.908q2.53-30.716,3.166-46.392l15.675-2.85a61.387,61.387,0,0,1,5.225-3.958q0.156-5.065-.475-6.017l0.792-14.883-0.633-.633a0.77,0.77,0,0,1-.95,0,68.172,68.172,0,0,0-9.342.791q-7.76,1.11-9.025,1.267,0.791-16.15.633-19l0.317-.317q17.73-.474,26.6-0.475a16.436,16.436,0,0,0,4.592-4.908q-0.16-10.6,0-21.533h0Zm-4.592,22.483q0.156-3.006-.158-10.292a65.178,65.178,0,0,1-.159-9.974,9.191,9.191,0,0,1-.475-2.375l2.534-2.217q0.315,5.069,0,23.116Zm-10.608-20.425a36.285,36.285,0,0,0-7.125.792,1.627,1.627,0,0,0,.633,1.108q8.865-.949,13.458-0.95-19.635,2.535-29.133,4.592c-0.95,0-1.425-.262-1.425-0.792a6.8,6.8,0,0,1,.475-1.583,2.324,2.324,0,0,0,.158-1.425,5.783,5.783,0,0,0-3.166-1.346,30.684,30.684,0,0,0-3.8-.237l9.975-.317a1.816,1.816,0,0,1-.555,1.425,1.746,1.746,0,0,0-.395,1.741q0.63,1.11,3.166.792,6.015-1.74,8.392-4.116,11.08-.631,16.625-0.792l0.158,0.475v0.317q-1.425.159-7.441,0.316h0ZM588.7,472.922a2.543,2.543,0,0,1,.554-1.108,2.573,2.573,0,0,0,.555-1.425,2.633,2.633,0,0,1,.791-0.158,1.7,1.7,0,0,0,.95,1.108,9.1,9.1,0,0,0,2.85-.713,4.612,4.612,0,0,1,2.85-.395,15.5,15.5,0,0,1-8.55,2.691h0Zm26.125-5.383-59.058,1.742q-7.444.159-7.125,0.158l2.692-2.692a15.982,15.982,0,0,0,2.691.317l50.509-1.583q8.7-.317,13.3-0.634a9.11,9.11,0,0,1-3.009,2.692h0ZM600.1,489.389q-26.124,1.269-39.425,1.425,1.266-1.266.95-1.9,6.332-.315,12.825-0.475a87.915,87.915,0,0,1,12.984,0q11.874-.632,16.941-3.959a2.574,2.574,0,0,0,.634-2.216,3.839,3.839,0,0,0-2.93-1.425q-1.982-.156-3.72-0.317a1.252,1.252,0,0,1-.792.158c-0.423,0-.633.159-0.633,0.475l0.316,0.159q5.856,0.95,6.65,1.425,0.156,0.474-1.583,1.9-6.495,2.535-17.733,2.533-14.25,0-18.05.633h-5.859a6.721,6.721,0,0,1-1.108-1.425q3.8-.315,15.675-0.158a91.429,91.429,0,0,0,15.517-.792q3.324-1.74,3.483-2.216a1.43,1.43,0,0,0-1.267-1.9,5.136,5.136,0,0,0-3.166.316,13.49,13.49,0,0,0,3.641,1.109l-1.425,1.266q-6.174,1.586-16.466,1.425-12.67-.315-16.625.159l-0.159-.159a5.787,5.787,0,0,1,2.217-.475,3.309,3.309,0,0,0,2.375-.95,18.644,18.644,0,0,1-.95-3.325,29.405,29.405,0,0,0-4.433-2.691l4.75-.634,0.475-.475a14.719,14.719,0,0,0-4.434,0,9.1,9.1,0,0,1-4.116-.475q7.28-.789,11.241-0.95c0.1-.21,0-0.368-0.316-0.475l-13.775.317-6.65-2.85q15.356-1.425,19.95-.791l5.7-.159a37.752,37.752,0,0,0,6.966.159,15.474,15.474,0,0,1,6.65,1.108,5.041,5.041,0,0,0-.633,3.325q0.791,1.584,3.325,1.108l23.908-4.117q3.165-.315,4.909-0.316a1.447,1.447,0,0,1,.158.633,48.606,48.606,0,0,0-8.075.95c-0.317.317-.423,0.53-0.317,0.633l0.317,0.317,7.917-.792a116.661,116.661,0,0,1,.316,12.034,132.483,132.483,0,0,1-16.15,2.85h0Zm-12.191,3.958a3.4,3.4,0,0,0-2.059,0l-25.175.792-3.325-1.267,0.792-.633q15.514-.791,23.433-0.634a195.839,195.839,0,0,0,31.984-3.008l2.533-.792v4.275Zm1.9,12.35a85.345,85.345,0,0,0-.95,9.5l-1.267.317q0.63-18.525.633-18.842a4,4,0,0,1,1.9-.633,52.714,52.714,0,0,1-.316,9.658h0Zm16.308,28.975q-0.8-9.814-1.108-14.725a25.141,25.141,0,0,1,3.8-2.85q0.154,13.62.158,14.883a10.073,10.073,0,0,0-2.85,2.692h0Zm-6.333-13.3q2.214-.476,2.85-0.633,0.474,2.694.633,3.958a6.994,6.994,0,0,1-3.483-3.325h0ZM585.689,504.43q-0.319,4.121-.317,4.434c-0.316,0-.846.581-1.583,1.741a19,19,0,0,0-.95,5.7l-0.633.159q-0.476-9.816,3.325-16.467a19.917,19.917,0,0,1,.158,4.433h0ZM602.947,519q-21.849,2.535-27.233,3.8l3.167-3.008,7.6-1.425v0.158q14.88-2.53,22.483-3.642v0.159A17.565,17.565,0,0,0,602.947,519h0Zm-17.891-3.167c-0.847.107-1.163,0.159-.95,0.159a11.828,11.828,0,0,1,1.108-5.7Zm13.933,21.534a45.188,45.188,0,0,0-8.075-3.009v-3.641q1.264-3.8-.792-6.175l-1.583-1.584a5.13,5.13,0,0,1,1.9-.316,1.205,1.205,0,0,0-.158.475,2.835,2.835,0,0,0,1.425.475q1.425,0.793,1.108,6.016a5.62,5.62,0,0,1-.4,1.742,5.513,5.513,0,0,0-.4,1.583,1.426,1.426,0,0,0,.792,1.267q5.856,1.745,8.708,2.692l0.159-.792-8.55-3.167a15.29,15.29,0,0,1,.554-3.008,15.409,15.409,0,0,0,.554-3.483,4,4,0,0,0-2.375-3.959l2.85-.475q3.8,6.5,8.708,6.334a0.64,0.64,0,0,0,.317-0.634q-4.436-.789-7.758-5.7a11.347,11.347,0,0,1,2.85-.475l0.95,1.584a8.657,8.657,0,0,0,3.641,2.533q0.476,5.385.475,8.075l-5.858-3.958a0.567,0.567,0,0,0-.792.316V530.4q4.431,3.326,6.809,4.75l0.158,1.425ZM588.7,538.63a13.315,13.315,0,0,1-4.433,1.109l-7.125,1.741q-1.425-13.455-2.217-15.991l0.475-.317q7.125-1.106,10.767-1.9,1.425-.476,3.642,3.167a8.849,8.849,0,0,1,0,4.116,12.1,12.1,0,0,0-.159,4.275,5.959,5.959,0,0,0,3.484,1.584,8.041,8.041,0,0,1,3.483,1.266,53.824,53.824,0,0,1-7.917.95h0Zm-4.908-38.316a43.053,43.053,0,0,0-2.692,16.308,5.508,5.508,0,0,1-1.583.158,1.853,1.853,0,0,0-1.583.634q-4.121,4.275-6.334,6.175-0.319,2.535.317,3.325a26.431,26.431,0,0,1,2.375,8.075q1.264,8.235,1.267,8.391a1.773,1.773,0,0,1,1.425,1.109,1.394,1.394,0,0,0,1.425.95,57.83,57.83,0,0,0,5.7-1.9q-0.951,11.719-1.742,23.433-0.95,14.094-2.375,23.275H579.2q0.951-18.84.634-28.183,0.95-10.766,1.425-15.992a3.983,3.983,0,0,0-.475-0.792l-0.317.792q-1.11,13.62-2.058,20.108v22.642a1.877,1.877,0,0,0-.317,1.425c-2.007,0-2.746.055-2.217,0.158v-7.758a21.6,21.6,0,0,0-1.266-7.283,2.059,2.059,0,0,0-1.425-.317l-0.475.633q-2.376,10.451-3.642,15.517h-1.742q2.215-26.755,3.8-33.408a20.034,20.034,0,0,1,.634-2.059,2.4,2.4,0,0,1,1.425-1.583,40.84,40.84,0,0,1,.316,8.392,2.135,2.135,0,0,0,.792-0.95,21.365,21.365,0,0,0,.317-3.8,23.19,23.19,0,0,0-.317-3.8q-0.795-1.74-2.058-.792a16.008,16.008,0,0,0-2.692,5.858q-2.059,10.451-2.85,32.142h-3.958l2.216-31.192q2.215-31.5,2.375-57.95a2.506,2.506,0,0,0,.317-1.583,5.053,5.053,0,0,1,0-1.9,0.952,0.952,0,0,1,1.267-.792l-2.059,52.25a2.776,2.776,0,0,0,.317,1.267h0.158l1.584-28.975q0.95-21.215.95-24.858h0.95q0.154,1.745,0,9.975a54.427,54.427,0,0,0,.475,10.133,0.621,0.621,0,0,0,.475-0.633q0-1.106.316-19.634l2.375-.158q-0.474,6.649-.633,13.3l0.633,0.475a53.1,53.1,0,0,0,.634-9.025l0.633-4.75a4.279,4.279,0,0,1,1.9-.158,59.591,59.591,0,0,1-.554,9.025,48.516,48.516,0,0,0-.4,9.5,0.906,0.906,0,0,1,.317.475l0.475-.475a87.72,87.72,0,0,1,.633-9.342q0.63-6.806.633-9.183,4.907-.156,7.125-0.159v2.059q-1.11-.156-2.058,1.425h0Zm0.95,85.658-2.217,2.217,3.325-44.65a5.078,5.078,0,0,1,1.425-.317q-1.745,28.5-2.533,42.75h0Zm-12.508,2.217,1.108-6.334v5.225Zm40.058-107.825a2.83,2.83,0,0,0,0,1.9,9.494,9.494,0,0,1-.792,1.741h0.317q1.9-1.425,1.425-2.533a2.052,2.052,0,0,0-.95-1.108h0Zm-3.008,1.741q-2.22-2.69-3.642-2.691l-0.158.633a7.368,7.368,0,0,1,2.375,1.742q1.74,1.425-.634,2.85a0.945,0.945,0,0,1-.791.4,0.5,0.5,0,0,0-.475.712q0.95,0.319,3.325-1.742,0.474-.474,0-1.9h0Zm-30.4-1.82a0.775,0.775,0,0,1-.95-0.4,4.449,4.449,0,0,0,.633-2.534,1.86,1.86,0,0,0-1.583-.633,14.7,14.7,0,0,0-2.375.633,1,1,0,0,1-.4.95,2.261,2.261,0,0,0-.554.792q-1.27,1.745,0,2.85a3.6,3.6,0,0,0,3.166-.95l1.584,0.475,0.158,2.375h0.317a4.989,4.989,0,0,0,.95-3.167A0.781,0.781,0,0,0,578.881,480.285Zm2.375,45.52q-1.11,0-3.009,3.167-0.635,2.06.475,2.85,1.266,0.795,2.375-.633a5.9,5.9,0,0,0,1.267-4.75,1.747,1.747,0,0,0-1.108-.634h0Zm-0.317,7.125a3.862,3.862,0,0,0-1.742,4.117q0.315,1.269,1.9.95a5.576,5.576,0,0,0,1.742-4.275,2.187,2.187,0,0,0-1.9-.792h0Zm-6.492,16.625c-0.633,0-.9.372-0.791,1.109a1.147,1.147,0,0,0,.95.158,25.869,25.869,0,0,1,.475,5.067,67.945,67.945,0,0,1-.555,7.283,66.741,66.741,0,0,0-.554,6.967l0.317,0.316q2.216-11.555,1.9-16.466-0.319-3.956-1.742-4.434h0Zm-2.375,12.984a1.118,1.118,0,0,0-.95.95,30.155,30.155,0,0,0-.633,10.45,14.814,14.814,0,0,0,.792-4.829,14.648,14.648,0,0,1,.791-4.83l0.792,0.634a2.916,2.916,0,0,0,.158-1.584,0.706,0.706,0,0,0-.95-0.791h0ZM730.88,495.722a5.275,5.275,0,0,1-2.217-1.583,7.011,7.011,0,0,0-4.987-4.2q-3.723-1.028-7.2-1.979,0.156,0,2.85-1.109a3.9,3.9,0,0,0,2.058-2.058l-2.85-3.167,9.5-5.225q2.216-1.264,1.583-3.008a29.005,29.005,0,0,0-1.82-2.85,2.986,2.986,0,0,0-2.455-1.425,3.038,3.038,0,0,0-.95.159q-22.959,1.425-34.041,2.691v-4.591q0-.79-1.742-1.109l-5.067,3.959a14.281,14.281,0,0,1-1.741,2.533,1.281,1.281,0,0,0-.95-0.633,2.859,2.859,0,0,0-1.346.554,2.849,2.849,0,0,1-1.346.554,10.724,10.724,0,0,0-1.583-2.533q-0.476-.317-2.375.316a11.856,11.856,0,0,0-1.821,1.267,3.588,3.588,0,0,1-2.138.95,1.691,1.691,0,0,1-.95-0.317q-2.694-5.7-3.958-8.55-1.269-2.216-2.533-2.058l-6.017,2.375a45.759,45.759,0,0,0,0,7.758q-17.893-.315-27.075-0.316l-0.792.791a92.426,92.426,0,0,1-1.108,24.225,18.665,18.665,0,0,0,4.433,7.125q4.116,0.32,25.334-1.108-0.16,12.194-.317,18.525,0-.476-0.158,12.35a99.208,99.208,0,0,0,.633,12.35,3.828,3.828,0,0,0,2.058.95,1.08,1.08,0,0,0,.95-0.792q0.631-1.74,2.059-1.583a7.98,7.98,0,0,1,1.108,2.533v4.75a2.333,2.333,0,0,1-1.029-1.346,1.712,1.712,0,0,0-1.029-1.187,31.145,31.145,0,0,1-4.117,3.166q-1.269,26.445-1.425,39.9l0.792,1.109a158.691,158.691,0,0,0,26.916-.634l5.384-5.383q0.474-20.425.633-19.158l-0.158-23.434,0.475-27.075q0-1.9.158-8.233a73.827,73.827,0,0,0,.158-8.075q3.64-.315,20.267-0.95a98.254,98.254,0,0,0,19.792-2.375l1.266-.792a1.766,1.766,0,0,0-1.108-2.058h0Zm-13.3-15.675-3.8-.633q1.9-1.266,5.858-3.4t5.859-3.4l1.583,1.9q-6.335,3.8-9.5,5.542h0Zm-2.85,6.333a7.66,7.66,0,0,0-2.375-1.583l3.483-1.583a12.744,12.744,0,0,1,2.375,1.741Zm-23.275-4.116a40.424,40.424,0,0,1,.792-8.075l14.408-.95q-7.284,3.17-10.925,4.591a0.444,0.444,0,0,0,.317.317,122.223,122.223,0,0,0,15.675-5.225,25.784,25.784,0,0,1,4.75-.475,181.6,181.6,0,0,0-25.017,9.817h0Zm14.725-2.217V481q-12.984,5.385-15.358,6.808l0.316-4.116a103.98,103.98,0,0,1,21.85-8.867l6.967-2.058a2.754,2.754,0,0,1,1.583-.792q-10.134,5.385-15.358,8.075h0Zm0.317,13.775h-5.225a91.02,91.02,0,0,1,11.716-4.433q5.226,1.745,10.925,3.166a103,103,0,0,1-17.416,1.267h0Zm1.425-8.708a6.867,6.867,0,0,1,.158,1.108q2.215,0.476,3.325.633v0.475a21.112,21.112,0,0,0-8.471,1.9q-4.356,1.9-8.312,3.8a5.01,5.01,0,0,1-3.8,1.584h-0.159a45.618,45.618,0,0,1,0-5.384,163.933,163.933,0,0,1,17.575-7.758l5.542,0.475q-3.8,2.059-5.858,3.167h0Zm-9.025,9.025-4.117.158q10.607-5.7,16.308-6.017l0.317-.316,0.317,0.633a43.556,43.556,0,0,0-12.825,5.542h0Zm-1.425,4.908q-3.485,0-6.967-.158l0.158-2.059q22.641-1.579,34.2-2.216l2.375,1.9q-21.059,2.535-29.766,2.533h0ZM679.9,477.039a0.982,0.982,0,0,1-.792-0.792,1.9,1.9,0,0,1,.792-1.187,2.765,2.765,0,0,0,.791-0.871l0.634,0.316Zm-4.592.95a3.819,3.819,0,0,0-.792-1.821,3.894,3.894,0,0,1-.791-1.663q0-.789,1.425-1.425l1.9,2.375Zm-7.125,2.85q-1.584-3.641-3.167-7.442a21.582,21.582,0,0,0-4.275-6.808l2.059-1.425a58.5,58.5,0,0,1,6.65,12.983Zm-24.225.791a34.088,34.088,0,0,0-11.558,8.55v-1.9a1.576,1.576,0,0,1,1.108-1.741,25.783,25.783,0,0,1,7.125-5.384l7.917-3.8q7.915-2.055,8.391-2.058v1.108q-6.493,2.535-12.983,5.225h0Zm-3.167-2.058a25.415,25.415,0,0,0-8.233,6.808,15.832,15.832,0,0,1-.158-3.641l0.316,0.158a27.711,27.711,0,0,1,15.2-7.758h2.217q-8.55,3.96-9.342,4.433h0Zm-8.233,2.533a14.413,14.413,0,0,1-.317-3.8,9.834,9.834,0,0,0-.633-4.116l11.717,0.791a25.7,25.7,0,0,0-10.767,7.125h0ZM687.18,581.38v3.959a3.2,3.2,0,0,1-2.058,3.325q-0.319-6.806,0-17.575,0.63-14.406.633-17.734l0.158-40.058q0-4.905.317-16.942,0.156-11.081.158-17.575,0-7.755.159-6.966l1.425-1.425Zm-55.1-84.55a1.008,1.008,0,0,1-.792,0l0.95-5.541a41.383,41.383,0,0,1,11.717-8.234q3.955-1.9,12.983-5.225v4.909q-10.134,2.219-13.616,8.55a1.636,1.636,0,0,0,.95,1.9,20.524,20.524,0,0,0,6.808-.634q1.581-.474,3.246-0.95a2.911,2.911,0,0,0,2.137-2.058c-0.106-.1-0.316-0.025-0.633.238a1.375,1.375,0,0,1-.792.395q-7.125,2.061-10.45,1.267,0.156-1.106,2.217-2.85,3.165-2.53,10.133-4.433a6.972,6.972,0,0,1,.159,1.266q-1.9.476-3.959,0.95a3.887,3.887,0,0,0-2.85,2.217q-0.318.8,0.95,1.583,0.316,0.16,1.267-.95v-0.158a9.167,9.167,0,0,0-1.108-.475,19.246,19.246,0,0,1,5.858-1.742l0.158,9.5Zm51.3,41.484a7.15,7.15,0,0,1,.317-3.009,21.946,21.946,0,0,0-.317,3.009h0Zm0.158-5.225q-2.06,3.484-.95,5.7a0.866,0.866,0,0,0,.95.475q0,3.96-1.266,4.433a17.181,17.181,0,0,1-.634-4.75,16.092,16.092,0,0,1,2.375-8.708q0.476,2.374-.475,2.85h0ZM634.3,501.422q-1.11-1.74-1.742-2.533,3.641-.315,12.508-0.159a123.039,123.039,0,0,0,12.35-.475l0.159,2.059a126.187,126.187,0,0,1-23.275,1.108h0Zm34.675,7.442q-5.226,15.995-5.542,16.941a80.015,80.015,0,0,0-3.008,17.892c-0.74.317-.95,0.53-0.634,0.633l-0.158-17.258q1.266,1.586,2.217,1.108a3.127,3.127,0,0,0,.791-1.108,1.56,1.56,0,0,0-1.583.158,5.932,5.932,0,0,1-.95-3.008v-3.483a12.522,12.522,0,0,1-.475-4.117,0.887,0.887,0,0,0,.475-0.317,5.568,5.568,0,0,1-.475-2.216,10.527,10.527,0,0,1,.95-4.117q0.949-2.215,1.742-4.275,3.006-5.539,5.858-6.967,2.057,0,2.375,1.425a28.851,28.851,0,0,1-1.583,8.709h0Zm12.666,23.75a16.1,16.1,0,0,0-.158,11.558,1.16,1.16,0,0,0,1.583.475l0.475-.317q-0.318,6.495-1.9,8.075a5.089,5.089,0,0,1-1.82-3.245q-0.4-2.137-.713-4.038a46.96,46.96,0,0,1,3.483-19.158l1.425-1.9,0.159,4.433a19.731,19.731,0,0,0-2.534,4.117h0Zm2.85-50.034a138.766,138.766,0,0,1-4.908,13.934,137.667,137.667,0,0,0-4.908,13.933q-6.969,26.445-6.967,47.025a117.471,117.471,0,0,0,1.267,17.575,87.4,87.4,0,0,0,4.591,15.833H670.4a131.168,131.168,0,0,1-5.384-18.208,70.427,70.427,0,0,1-1.425-13.458q2.691-3.006,2.692-8.234a18.183,18.183,0,0,0-1.583-7.6,3.481,3.481,0,0,0-1.267-1.425,76.733,76.733,0,0,1,4.592-20.583q1.264-3.165,8.233-19.158,1.74-5.226-.792-7.759t-6.808-.791q-1.269.95-1.9,1.425l0.475,0.475a14.731,14.731,0,0,1,4.75-1.584,3.365,3.365,0,0,1,2.217.792q2.375,2.06.95,6.967-4.119,9.66-8.234,19.475a71.309,71.309,0,0,0-4.591,20.9l-0.475.316a79.21,79.21,0,0,1,3.483-19q3.006-9.024,5.858-18.05,0.317-1.74.475-3.325a3.929,3.929,0,0,0-.475-3.008q-1.109-1.74-3.8-1.267a13.539,13.539,0,0,0-4.75,5.225q-0.474.8-3.008,6.175l-0.158-34.041-0.317-5.7,1.425,2.058q0.79,15.519,1.267,23.117l0.475-.634a99.835,99.835,0,0,0-.317-10.45,97.089,97.089,0,0,1-.317-10.291l1.109,1.9,0.316,8.233a18.535,18.535,0,0,0,.792-5.7l3.483,7.125,1.584,0.475q2.531-5.065,3.641-7.758a26.886,26.886,0,0,1,2.059,5.066,4.085,4.085,0,0,0,1.741-1.9l1.109-2.058q1.9,2.694,2.85,2.375,0.474,0.476.95-.475,2.215-5.224,3.483-8.075a95,95,0,0,0-.317,10.133h0Zm-0.475,27.392v12.667a8.35,8.35,0,0,0-2.375,2.375A37.59,37.59,0,0,0,678,541.48a33.493,33.493,0,0,0,1.425,9.975,3.869,3.869,0,0,0,2.216,2.059q1.266,0.159,1.9-1.584,0,2.376-.237,5.067a3.39,3.39,0,0,1-2.613,3.325,38.984,38.984,0,0,1-2.533-7.6c-0.423-.42-0.74-0.527-0.95-0.317l-0.158.475q0.474,2.376,1.108,4.75a5.717,5.717,0,0,0,2.533,3.959q1.107,0.159,2.85-1.9c0,0.529-.106.791-0.316,0.791q-1.425,2.376-2.534,2.534a1.657,1.657,0,0,0-1.266-.634q-0.32,1.11,1.266,1.9a2.9,2.9,0,0,0,2.375-1.108l0.475-.792a5.813,5.813,0,0,1-1.9,4.592l-0.158-.158-0.158.95a0.837,0.837,0,0,0,1.425,0l0.316-.475q0,10.768-.633,20.741l-2.217-9.341-0.475-.634-0.316.634q1.581,8.075,2.691,12.033a9.72,9.72,0,0,0-1.425-.158,62.658,62.658,0,0,1-2.295-11.4,72.834,72.834,0,0,0-2.138-11.242h-0.317q1.581,11.561,2.534,17.417,0.95,3.484,1.425,5.225h-0.475a119.425,119.425,0,0,1-5.859-38,112.355,112.355,0,0,1,3.642-29.134q3.326-10.449,5.383-15.675a1.274,1.274,0,0,0-.791-0.158q-9.819,20.111-9.5,50.35,0.156,12.669,6.016,32.617H676.73a9.911,9.911,0,0,1-1.583.158q-6.335-13.455-6.334-33.408a177.783,177.783,0,0,1,3.009-30.875q3.006-16.465,12.666-39.9v4.591l-5.541,13.617a8.731,8.731,0,0,0,2.691-3.8l2.85-7.125q-0.318,10.77-.475,16.15h0Zm-22.641,45.917a2.352,2.352,0,0,1-1.9-2.217l1.9-1.267a4.708,4.708,0,0,0,2.216,2.059,14.05,14.05,0,0,0-2.216,1.425h0Zm-2.059,35.625L659,587.555l0.633-29.45a3.96,3.96,0,0,0,2.85,1.584q0.476,14.094,6.808,31.191Zm16.625-105.925q-2.533,1.745-2.216,3.008a4.391,4.391,0,0,0,2.533.633l1.267,1.9a3.328,3.328,0,0,0,.633-2.691l1.9-2.059q-1.269-2.531-4.117-.791h0Zm-10.291,3.483a3.479,3.479,0,0,0-1.109,2.692q0.951,0.949,3.325.158c0.634-.317,1.292-0.685,1.98-1.108a1.277,1.277,0,0,0,.712-1.584q-2.059-2.69-4.908-.158h0Zm1.425,12.667a3.172,3.172,0,0,0-1.109.95q-3.168,8.075-3.166,9.183-0.476,2.22.791,3.008l1.109-.791q2.69-4.275,3.483-11.717a0.9,0.9,0,0,0-1.108-.633h0Zm-21.534-16.15a9.421,9.421,0,0,0-5.066,4.591q-0.795,2.061.554,2.85t1.662,0.475a0.141,0.141,0,0,0-.158-0.158,1.423,1.423,0,0,1,0-.95,2.158,2.158,0,0,1-1.583-.95q0.474-2.375,5.066-4.75,0.476-.79-0.475-1.108h0Zm-6.333,3.008a1.8,1.8,0,0,0-1.267,1.267q-0.793,2.219-.475,2.85a4.115,4.115,0,0,0,.95-1.742,3.48,3.48,0,0,1,.792-0.871,1,1,0,0,0,.475-1.029,0.55,0.55,0,0,0-.475-0.475h0Zm22.483,31.667a12.66,12.66,0,0,1,.159-7.125,6.8,6.8,0,0,0,.158-1.109,0.571,0.571,0,0,0-.792-0.633,18.777,18.777,0,0,0-.791,8.392q0.474,1.745,1.425,1.583a3.778,3.778,0,0,0,2.533-3.325,12.97,12.97,0,0,0-2.692,2.217h0Zm1.9-6.809a22.6,22.6,0,0,1,3.642-10.45q-0.95,7.286-3.642,10.45h0Z"/>
  <path id="HOUSE_OF_NFTS_by_Evan_Luthra" data-name="HOUSE OF NFTS by Evan Luthra" class="cls-2" d="M288.692,640.387v5.521h-4.979v-5.521H279.63v14.687h4.083v-5.895h4.979v5.895h4.084V640.387h-4.084Zm13.459,14.833a7.623,7.623,0,0,0,3.791-.969,7.129,7.129,0,0,0,2.729-2.687,8.049,8.049,0,0,0,0-7.771,7.081,7.081,0,0,0-2.718-2.677,8,8,0,0,0-7.594,0,7.144,7.144,0,0,0-2.74,2.677,7.979,7.979,0,0,0,0,7.771,7.213,7.213,0,0,0,2.74,2.687,7.626,7.626,0,0,0,3.792.969h0Zm0-3.791a3.142,3.142,0,0,1-2.48-1.011,4.672,4.672,0,0,1,0-5.5,3.535,3.535,0,0,1,4.948,0,4.607,4.607,0,0,1,0,5.49,3.134,3.134,0,0,1-2.468,1.021h0Zm9.291-11.042v8.521a6.917,6.917,0,0,0,.8,3.458,5.232,5.232,0,0,0,2.208,2.135,6.92,6.92,0,0,0,3.2.719,7.307,7.307,0,0,0,3.261-.719,5.455,5.455,0,0,0,2.323-2.145,6.6,6.6,0,0,0,.854-3.448v-8.521h-4.083v8.521a2.686,2.686,0,0,1-.573,1.823,2.136,2.136,0,0,1-1.7.656,2.082,2.082,0,0,1-1.677-.646,2.734,2.734,0,0,1-.552-1.833v-8.521h-4.063Zm20.437,14.833a6.609,6.609,0,0,0,2.927-.6,4.5,4.5,0,0,0,1.9-1.646,4.318,4.318,0,0,0,.657-2.354,3.37,3.37,0,0,0-.657-2.135,4.7,4.7,0,0,0-1.562-1.313,17.57,17.57,0,0,0-2.3-.948q-0.937-.333-1.417-0.552a2.941,2.941,0,0,1-.8-0.521,0.947,0.947,0,0,1-.323-0.718,1,1,0,0,1,.292-0.771,1.055,1.055,0,0,1,.75-0.271,1.459,1.459,0,0,1,.989.333,1.311,1.311,0,0,1,.407,1h4.437a4.311,4.311,0,0,0-1.635-3.364,6.465,6.465,0,0,0-4.094-1.2,7.307,7.307,0,0,0-2.833.521,4.375,4.375,0,0,0-1.959,1.531,4.123,4.123,0,0,0-.708,2.427,3.64,3.64,0,0,0,.656,2.26,4.454,4.454,0,0,0,1.542,1.313,17.471,17.471,0,0,0,2.323.927,10.7,10.7,0,0,1,1.958.792,1.1,1.1,0,0,1,.6,1,0.934,0.934,0,0,1-.364.781,1.659,1.659,0,0,1-1.948-.073,1.626,1.626,0,0,1-.459-1.125H325.9A4.4,4.4,0,0,0,327.671,654a6.882,6.882,0,0,0,4.208,1.219h0Zm16.771-11.562v-3.271h-9.4v14.687h9.4V651.8h-5.312v-2.646h4.687v-3.1h-4.687v-2.4h5.312Zm13.041,11.562a7.626,7.626,0,0,0,3.792-.969,7.129,7.129,0,0,0,2.729-2.687,8.049,8.049,0,0,0,0-7.771,7.083,7.083,0,0,0-2.719-2.677,8,8,0,0,0-7.593,0,7.144,7.144,0,0,0-2.74,2.677,7.979,7.979,0,0,0,0,7.771,7.213,7.213,0,0,0,2.74,2.687,7.62,7.62,0,0,0,3.791.969h0Zm0-3.791a3.141,3.141,0,0,1-2.479-1.011,4.668,4.668,0,0,1,0-5.5,3.535,3.535,0,0,1,4.948,0,4.611,4.611,0,0,1,0,5.49,3.135,3.135,0,0,1-2.469,1.021h0Zm9.354-11.042v14.687h4.084v-5.75h4.333v-3.1h-4.333v-2.583H381v-3.25h-9.959Zm29.271,0h-4.084V648.7l-5.437-8.312h-4.083v14.687H390.8v-8.208l5.437,8.208h4.084V640.387Zm2.333,0v14.687h4.083v-5.75h4.334v-3.1h-4.334v-2.583h5.875v-3.25h-9.958Zm10.875,0v3.25H417.4v11.437h4.083V643.637H425.4v-3.25H413.524Zm18.937,14.833a6.609,6.609,0,0,0,2.927-.6,4.5,4.5,0,0,0,1.9-1.646,4.318,4.318,0,0,0,.656-2.354,3.369,3.369,0,0,0-.656-2.135,4.7,4.7,0,0,0-1.562-1.313,17.591,17.591,0,0,0-2.3-.948q-0.937-.333-1.416-0.552a2.941,2.941,0,0,1-.8-0.521,0.947,0.947,0,0,1-.323-0.718,1,1,0,0,1,.291-0.771,1.059,1.059,0,0,1,.75-0.271,1.46,1.46,0,0,1,.99.333,1.31,1.31,0,0,1,.406,1h4.438a4.309,4.309,0,0,0-1.636-3.364,6.46,6.46,0,0,0-4.093-1.2,7.316,7.316,0,0,0-2.834.521,4.378,4.378,0,0,0-1.958,1.531,4.123,4.123,0,0,0-.708,2.427,3.634,3.634,0,0,0,.656,2.26,4.445,4.445,0,0,0,1.542,1.313,17.507,17.507,0,0,0,2.322.927,10.687,10.687,0,0,1,1.959.792,1.105,1.105,0,0,1,.6,1,0.932,0.932,0,0,1-.365.781,1.659,1.659,0,0,1-1.948-.073,1.625,1.625,0,0,1-.458-1.125h-4.354A4.4,4.4,0,0,0,428.253,654a6.882,6.882,0,0,0,4.208,1.219h0Zm13.292-9v-6.562h-1.438v15.416h1.438v-2.5a4.4,4.4,0,0,0,1.718,1.927,5.151,5.151,0,0,0,2.8.74,5.387,5.387,0,0,0,2.782-.729,5.052,5.052,0,0,0,1.937-2.063,7.136,7.136,0,0,0,0-6.156,5.026,5.026,0,0,0-1.927-2.042,5.43,5.43,0,0,0-2.792-.718,5.065,5.065,0,0,0-2.781.75,4.614,4.614,0,0,0-1.739,1.937h0Zm8.458,3.146a5.193,5.193,0,0,1-.552,2.448,3.882,3.882,0,0,1-1.511,1.6,4.261,4.261,0,0,1-2.166.552,4.178,4.178,0,0,1-2.136-.562,4.014,4.014,0,0,1-1.531-1.6,5.478,5.478,0,0,1,0-4.834,4.014,4.014,0,0,1,1.531-1.6,4.178,4.178,0,0,1,2.136-.562,4.326,4.326,0,0,1,2.166.541,3.848,3.848,0,0,1,1.511,1.573,5.12,5.12,0,0,1,.552,2.448h0Zm12.041-5.667-3.75,9.709-3.875-9.709h-1.6l4.667,11.313-2.209,5.417H461l6.75-16.73h-1.5Zm16.792-2v-1.208h-7.6v14.583h7.6v-1.208H476.9v-5.521h5.521v-1.208H476.9V641.7h6.146Zm3.083,2h-1.563l4.563,11.375h1.646l4.562-11.375h-1.542l-3.833,9.959Zm10.521,5.667a6.552,6.552,0,0,0,.7,3.083,5.055,5.055,0,0,0,1.938,2.063,5.381,5.381,0,0,0,2.781.729,5.049,5.049,0,0,0,2.8-.76,4.565,4.565,0,0,0,1.719-1.927v2.52h1.458V643.7h-1.458v2.5a4.365,4.365,0,0,0-1.7-1.916,5.1,5.1,0,0,0-2.8-.75,5.482,5.482,0,0,0-2.8.718,5.006,5.006,0,0,0-1.938,2.042,6.494,6.494,0,0,0-.7,3.073h0Zm9.937,0.021a5.01,5.01,0,0,1-.562,2.417,4.017,4.017,0,0,1-1.532,1.6,4.174,4.174,0,0,1-2.135.562,4.262,4.262,0,0,1-2.167-.552,3.88,3.88,0,0,1-1.51-1.6,5.193,5.193,0,0,1-.552-2.448,5.12,5.12,0,0,1,.552-2.448,3.846,3.846,0,0,1,1.51-1.573,4.327,4.327,0,0,1,2.167-.541,4.174,4.174,0,0,1,2.135.562,4.017,4.017,0,0,1,1.532,1.6,5.01,5.01,0,0,1,.562,2.417h0Zm10.125-5.9a4.784,4.784,0,0,0-2.313.552,3.726,3.726,0,0,0-1.562,1.594V643.7h-1.459v11.375h1.459v-6.208a4.313,4.313,0,0,1,.979-3.062,3.43,3.43,0,0,1,2.625-1.042,3.318,3.318,0,0,1,2.531.979,3.968,3.968,0,0,1,.927,2.833v6.5h1.438v-6.666a4.884,4.884,0,0,0-1.292-3.657,4.572,4.572,0,0,0-3.333-1.26h0Zm15.02-2.979h-1.458v14.562h6.687v-1.187H531.73V640.512Zm15.708,3.187v6.188a4.313,4.313,0,0,1-.979,3.062,3.43,3.43,0,0,1-2.625,1.042,3.318,3.318,0,0,1-2.531-.979,3.968,3.968,0,0,1-.927-2.833V643.7h-1.438v6.646A4.879,4.879,0,0,0,540.23,654a4.569,4.569,0,0,0,3.333,1.261,4.836,4.836,0,0,0,2.334-.563,3.492,3.492,0,0,0,1.541-1.625v2H548.9V643.7h-1.459Zm9.813,1.23V643.7h-3.125v-2.854h-1.479V643.7h-1.584v1.23h1.584v7.062a3.169,3.169,0,0,0,.75,2.365,3.2,3.2,0,0,0,2.291.718h1.563v-1.25h-1.334a1.946,1.946,0,0,1-1.395-.395,2.023,2.023,0,0,1-.4-1.438v-7.062h3.125Zm7.812-1.438a4.939,4.939,0,0,0-2.365.563,3.772,3.772,0,0,0-1.593,1.583v-5.979h-1.459v15.416h1.459v-6.208a4.313,4.313,0,0,1,.979-3.062,3.43,3.43,0,0,1,2.625-1.042,3.318,3.318,0,0,1,2.531.979,3.968,3.968,0,0,1,.927,2.833v6.5h1.438v-6.666a5.718,5.718,0,0,0-.594-2.719,3.863,3.863,0,0,0-1.625-1.656,4.922,4.922,0,0,0-2.323-.542h0Zm9.229,2.229V643.7h-1.458v11.375h1.458V648.72a3.2,3.2,0,0,1,3.5-3.708h0.4v-1.521a4.712,4.712,0,0,0-2.427.583,3.563,3.563,0,0,0-1.469,1.646h0Zm5.417,3.646a6.54,6.54,0,0,0,.7,3.083,5.052,5.052,0,0,0,1.937,2.063,5.381,5.381,0,0,0,2.781.729,5.046,5.046,0,0,0,2.8-.76,4.565,4.565,0,0,0,1.719-1.927v2.52h1.459V643.7h-1.459v2.5a4.365,4.365,0,0,0-1.7-1.916,5.1,5.1,0,0,0-2.8-.75,5.485,5.485,0,0,0-2.8.718,5,5,0,0,0-1.937,2.042,6.482,6.482,0,0,0-.7,3.073h0Zm9.937,0.021a5.01,5.01,0,0,1-.562,2.417,4.017,4.017,0,0,1-1.532,1.6,4.171,4.171,0,0,1-2.135.562,4.262,4.262,0,0,1-2.167-.552,3.88,3.88,0,0,1-1.51-1.6,5.193,5.193,0,0,1-.552-2.448,5.12,5.12,0,0,1,.552-2.448,3.846,3.846,0,0,1,1.51-1.573,4.327,4.327,0,0,1,2.167-.541,4.171,4.171,0,0,1,2.135.562,4.017,4.017,0,0,1,1.532,1.6,5.01,5.01,0,0,1,.562,2.417h0Z"/>
  <path class="cls-3" d="M317,367s19.95,15.15,29-6c16.65,22.05,29.95,8.15,35,1,4.85,6.85,23.75,18.15,33-2,5.85,8.65,21.95,20.35,34,1,6.65,8.85,22.35,18.15,34,0,5.85,11.25,24.95,17.75,34-2,4.85,13.25,19.95,15.55,29,9"/>
  <path id="Shape_1_copy" data-name="Shape 1 copy" class="cls-3" d="M346,393s11.75,2.15,16-10c16.65,22.05,29.95,8.15,35,1,4.85,6.85,23.75,18.15,33-2,5.85,8.65,21.95,20.35,34,1,6.65,8.85,22.35,18.15,34,0,5.85,11.25,7.95,9.15,19,11"/>
  <path id="Shape_1_copy_2" data-name="Shape 1 copy 2" class="cls-3" d="M369,416s5.75,0.15,10-12c16.65,22.05,29.95,8.15,35,1,4.85,6.85,23.75,18.15,33-2,5.85,8.65,21.95,20.35,34,1,6.65,8.85,7.95,10.15,15,12"/>
  <path class="cls-4" d="M366,260s-40.5,57.167,10,109"/>
  <path id="Shape_2_copy" data-name="Shape 2 copy" class="cls-4" d="M503.5,260s40.5,57.167-10,109"/>
  <g>
    <path id="Rounded_Rectangle_1" data-name="Rounded Rectangle 1" class="cls-5" d="M220.505,152.728l38.953,25.446c4.55,2.972,8.032,10.193,8.032,16.294v47.507c0,6.1-3.482,10.565-8.032,9.934L220.505,246.5c-7.931-1.1-14.885-9.275-14.885-18.167V159.1C205.62,150.214,212.574,147.548,220.505,152.728Z"/>
    <path id="Rounded_Rectangle_1_copy" data-name="Rounded Rectangle 1 copy" class="cls-5" d="M282.338,210.824l18.339,9.284c2.33,1.18,4.143,5.679,4.143,10.1v34.4c0,4.419-1.813,8.015-4.143,8.034l-18.339.15c-3.412.028-6.324-4.583-6.324-10.3V217.975C276.014,212.257,278.926,209.1,282.338,210.824Z"/>
    <path id="Rounded_Rectangle_1_copy_2" data-name="Rounded Rectangle 1 copy 2" class="cls-5" d="M220.505,265.852l38.953,1.272c4.55,0.148,8.032,5.209,8.032,11.31v47.507c0,6.1-3.482,12.726-8.032,14.918l-38.953,18.766c-7.931,3.82-14.885-.038-14.885-8.93v-69.23C205.62,272.574,212.574,265.593,220.505,265.852Z"/>
    <path id="Rounded_Rectangle_1_copy_3" data-name="Rounded Rectangle 1 copy 3" class="cls-5" d="M282.338,288.526l18.339-2.545c2.33-.324,4.143,3.006,4.143,7.424v34.4c0,4.419-1.813,9.184-4.143,10.707l-18.339,11.979c-3.412,2.229-6.324-.5-6.324-6.221V299.756C276.014,294.039,278.926,289,282.338,288.526Z"/>
  </g>
  <g id="Group_1_copy" data-name="Group 1 copy">
    <path id="Rounded_Rectangle_1-2" data-name="Rounded Rectangle 1" class="cls-5" d="M635.473,152.728l-38.954,25.446c-4.549,2.972-8.031,10.193-8.031,16.294v47.507c0,6.1,3.482,10.565,8.031,9.934l38.954-5.407c7.931-1.1,14.885-9.275,14.885-18.167V159.1C650.358,150.214,643.4,147.548,635.473,152.728Z"/>
    <path id="Rounded_Rectangle_1_copy-2" data-name="Rounded Rectangle 1 copy" class="cls-5" d="M573.639,210.824L555.3,220.108c-2.331,1.18-4.144,5.679-4.144,10.1v34.4c0,4.419,1.813,8.015,4.144,8.034l18.338,0.15c3.413,0.028,6.324-4.583,6.324-10.3V217.975C579.963,212.257,577.052,209.1,573.639,210.824Z"/>
    <path id="Rounded_Rectangle_1_copy_2-2" data-name="Rounded Rectangle 1 copy 2" class="cls-5" d="M635.473,265.852l-38.954,1.272c-4.549.148-8.031,5.209-8.031,11.31v47.507c0,6.1,3.482,12.726,8.031,14.918l38.954,18.766c7.931,3.82,14.885-.038,14.885-8.93v-69.23C650.358,272.574,643.4,265.593,635.473,265.852Z"/>
    <path id="Rounded_Rectangle_1_copy_3-2" data-name="Rounded Rectangle 1 copy 3" class="cls-5" d="M573.639,288.526L555.3,285.981c-2.331-.324-4.144,3.006-4.144,7.424v34.4c0,4.419,1.813,9.184,4.144,10.707l18.338,11.979c3.413,2.229,6.324-.5,6.324-6.221V299.756C579.963,294.039,577.052,289,573.639,288.526Z"/>
  </g>
  <g>
    <path class="cls-5" d="M418,367s9.833-153.167,15-143,10.167,134.5,11,144"/>
    <circle class="cls-6" cx="433" cy="229" r="7.75"/>
    <g>
      <path class="cls-7" d="M375,266s-10.25,12.95,4,29"/>
      <path id="Shape_5_copy" data-name="Shape 5 copy" class="cls-7" d="M383,260s-10.25,12.95,4,29"/>
      <path id="Shape_5_copy_2" data-name="Shape 5 copy 2" class="cls-7" d="M390,251s-10.25,12.95,4,29"/>
      <path id="Shape_5_copy_3" data-name="Shape 5 copy 3" class="cls-7" d="M404.751,244.184s-13.43,9.612-4.171,28.976"/>
      <path id="Shape_5_copy_4" data-name="Shape 5 copy 4" class="cls-7" d="M427.58,232.883s-16.45,1.468-18.3,22.851"/>
      <path class="cls-4" d="M429,232s-71.5,19.167-61,70"/>
    </g>
    <g id="Group_5_copy_4" data-name="Group 5 copy 4">
      <path class="cls-7" d="M398.969,174.5s-12.95-10.25-29,4"/>
      <path id="Shape_5_copy-2" data-name="Shape 5 copy" class="cls-7" d="M404.969,182.5s-12.95-10.25-29,4"/>
      <path id="Shape_5_copy_2-2" data-name="Shape 5 copy 2" class="cls-7" d="M413.969,189.5s-12.95-10.25-29,4"/>
      <path id="Shape_5_copy_3-2" data-name="Shape 5 copy 3" class="cls-7" d="M420.785,204.251s-9.613-13.43-28.976-4.171"/>
      <path id="Shape_5_copy_4-2" data-name="Shape 5 copy 4" class="cls-7" d="M432.086,227.08s-1.468-16.45-22.851-18.3"/>
      <path class="cls-4" d="M432.969,228.5s-19.167-71.5-70-61"/>
    </g>
    <g id="Group_5_copy_5" data-name="Group 5 copy 5">
      <path class="cls-7" d="M468,174.5s12.95-10.25,29,4"/>
      <path id="Shape_5_copy-3" data-name="Shape 5 copy" class="cls-7" d="M462,182.5s12.95-10.25,29,4"/>
      <path id="Shape_5_copy_2-3" data-name="Shape 5 copy 2" class="cls-7" d="M453,189.5s12.95-10.25,29,4"/>
      <path id="Shape_5_copy_3-3" data-name="Shape 5 copy 3" class="cls-7" d="M446.184,204.251s9.612-13.43,28.976-4.171"/>
      <path id="Shape_5_copy_4-3" data-name="Shape 5 copy 4" class="cls-7" d="M434.883,227.08s1.468-16.45,22.851-18.3"/>
      <path class="cls-4" d="M434,228.5s19.167-71.5,70-61"/>
    </g>
    <g id="Group_5_copy_2" data-name="Group 5 copy 2">
      <path class="cls-7" d="M355,220c-0.035.015-14.813,6.639-15,23"/>
      <path id="Shape_5_copy-4" data-name="Shape 5 copy" class="cls-7" d="M376.139,217.254S353.61,218.8,351,248"/>
      <path id="Shape_5_copy_2-4" data-name="Shape 5 copy 2" class="cls-7" d="M387.473,216.018S363.41,221.4,363,249"/>
      <path id="Shape_5_copy_3-4" data-name="Shape 5 copy 3" class="cls-7" d="M402.634,221.868S383.062,219.076,376,246"/>
      <path id="Shape_5_copy_4-4" data-name="Shape 5 copy 4" class="cls-7" d="M426.636,230.4S402.042,219.046,390,241"/>
      <path class="cls-4" d="M428.258,230.8S375.4,186.81,326,244"/>
    </g>
    <g id="Group_5_copy_3" data-name="Group 5 copy 3">
      <path class="cls-7" d="M508.781,220c0.035,0.015,14.813,6.639,15,23"/>
      <path id="Shape_5_copy-5" data-name="Shape 5 copy" class="cls-7" d="M487.642,217.254S510.171,218.8,512.781,248"/>
      <path id="Shape_5_copy_2-5" data-name="Shape 5 copy 2" class="cls-7" d="M476.308,216.018S500.371,221.4,500.781,249"/>
      <path id="Shape_5_copy_3-5" data-name="Shape 5 copy 3" class="cls-7" d="M461.148,221.868s19.571-2.792,26.633,24.132"/>
      <path id="Shape_5_copy_4-5" data-name="Shape 5 copy 4" class="cls-7" d="M437.145,230.4s24.594-11.353,36.636,10.6"/>
      <path class="cls-4" d="M435.523,230.8S488.382,186.81,537.781,244"/>
    </g>
    <g id="Group_5_copy" data-name="Group 5 copy">
      <path class="cls-7" d="M488.5,266s10.25,12.95-4,29"/>
      <path id="Shape_5_copy-6" data-name="Shape 5 copy" class="cls-7" d="M480.5,260s10.25,12.95-4,29"/>
      <path id="Shape_5_copy_2-6" data-name="Shape 5 copy 2" class="cls-7" d="M473.5,251s10.25,12.95-4,29"/>
      <path id="Shape_5_copy_3-6" data-name="Shape 5 copy 3" class="cls-7" d="M458.749,244.184s13.43,9.612,4.171,28.976"/>
      <path id="Shape_5_copy_4-6" data-name="Shape 5 copy 4" class="cls-7" d="M435.92,232.883s16.45,1.468,18.3,22.851"/>
      <path class="cls-4" d="M434.5,232s71.5,19.167,61,70"/>
    </g>
  </g>
</svg>
