<svg xmlns="http://www.w3.org/2000/svg" width="158" height="25"><defs><style>.cls-1{fill:#fff;fillRule:evenodd}.cls-3{fill:#f1333e}</style></defs><g id="explara_logo_copy" data-name="explara logo copy" transform="translate(-19.4 -16)"><path id="Path_8413" d="M46.11 36.24h18.37s.49-10.17-9.3-11.14c-.03.02-9.93 1.62-9.07 11.14z" className="cls-1" data-name="Path 8413" transform="translate(-20.752 -7.084)"/><path id="Path_8414" fillRule="evenodd" d="M70.96 43.8c-2.57 0-4.65 2.3-4.76 5.2h9.53c-.11-2.87-2.22-5.2-4.77-5.2z" data-name="Path 8414" transform="translate(-36.431 -21.652)"/><path id="Path_8415" d="M58.17 28.15C58.17 22.1 54.33 16 47 16a11.09 11.09 0 00-8.26 3.65 13.1 13.1 0 00-3.24 8.8v.1c0 7.1 5.14 12.45 11.99 12.45a12.2 12.2 0 009.04-3.6 1.71 1.71 0 00-1.16-3.04 1.8 1.8 0 00-1.15.47 9.47 9.47 0 01-6.65 2.67c-4.3 0-7.5-3-8.04-7.52h16.8a1.83 1.83 0 001.84-1.83zm-3.97-1.2H39.51c.53-4.45 3.57-7.56 7.4-7.56 4.79 0 6.89 3.87 7.29 7.56z" className="cls-3" data-name="Path 8415" transform="translate(-12.533)"/><path id="Path_8416" d="M75.51 44.2a1.3 1.3 0 01-2.61 0 1.31 1.31 0 011.3-1.3 1.3 1.3 0 011.31 1.3z" className="cls-1" data-name="Path 8416" transform="translate(-41.646 -20.95)"/><path id="Path_8417" d="M141.3 39.3l7.1-8.8-6.7-8.27a2.75 2.75 0 01-.65-1.57 2.03 2.03 0 012.08-2.05 2.13 2.13 0 011.9 1.01l6.06 7.95 5.98-7.81a2.37 2.37 0 012.06-1.15 1.92 1.92 0 011.9 1.9 2.57 2.57 0 01-.64 1.61l-6.69 8.32 7.05 8.76a2.63 2.63 0 01.64 1.57 2.03 2.03 0 01-2.08 2.05 2.13 2.13 0 01-1.9-1.01l-6.43-8.37-6.32 8.24a2.4 2.4 0 01-2.06 1.14 1.91 1.91 0 01-1.9-1.94 2.45 2.45 0 01.6-1.57z" className="cls-3" data-name="Path 8417" transform="translate(-94.458 -2.024)"/><path id="Path_8418" d="M246.3 21.42a2.1 2.1 0 012.13-2.12h7.3c5.62 0 9.1 3.16 9.1 7.99v.06c0 5.36-4.3 8.16-9.58 8.16h-4.74v5.78a2.1 2.1 0 01-4.21 0zm9.08 10.31c3.17 0 5.17-1.77 5.17-4.27v-.06c0-2.79-2.02-4.27-5.17-4.27h-4.9v8.6z" className="cls-3" data-name="Path 8418" transform="translate(-176.698 -2.569)"/><path id="Path_8419" d="M415.07 39.3l8.88-19.8a2.66 2.66 0 012.53-1.7h.2a2.63 2.63 0 012.5 1.7l8.88 19.8a1.79 1.79 0 01.25.89 1.97 1.97 0 01-1.98 2 2.17 2.17 0 01-2.06-1.45l-1.95-4.47h-11.6l-2.02 4.6a2 2 0 01-1.95 1.33 1.94 1.94 0 01-1.95-1.95 2 2 0 01.27-.95zm15.64-6.75l-4.21-9.64-4.21 9.65z" className="cls-3" data-name="Path 8419" transform="translate(-307.921 -1.401)"/><path id="Path_8420" d="M530.5 21.42a2.1 2.1 0 012.13-2.12h8.55a9.67 9.67 0 016.91 2.39 7.24 7.24 0 011.97 5.15v.07a7.04 7.04 0 01-5.42 7.12l4.58 5.78a2.47 2.47 0 01.69 1.59 2 2 0 01-2.02 1.95 2.45 2.45 0 01-2.06-1.09l-5.8-7.4h-5.3v6.4a2.1 2.1 0 01-4.2 0V21.43zm10.35 9.74c3.01 0 4.92-1.57 4.92-3.98v-.07c0-2.57-1.84-3.96-4.97-3.96h-6.11v8z" className="cls-3" data-name="Path 8420" transform="translate(-398.019 -2.569)"/><path id="Path_8421" d="M627.56 39.3l8.88-19.8a2.66 2.66 0 012.53-1.7h.2a2.63 2.63 0 012.5 1.7l8.88 19.8a1.79 1.79 0 01.25.89 1.97 1.97 0 01-1.98 2 2.17 2.17 0 01-2.06-1.45l-1.95-4.47h-11.6l-2.02 4.6a2 2 0 01-1.95 1.33 1.94 1.94 0 01-1.95-1.95 1.78 1.78 0 01.27-.95zm15.64-6.74l-4.21-9.65-4.21 9.65z" className="cls-3" data-name="Path 8421" transform="translate(-473.398 -1.401)"/><path id="Path_8422" d="M26.24 46.4a1.52 1.52 0 01-.29-.05l-4.58-1.6a.85.85 0 11.55-1.62l4.59 1.6a.86.86 0 01.53 1.09.83.83 0 01-.8.57z" className="cls-3" data-name="Path 8422" transform="translate(-1.081 -21.097)"/><path id="Path_8423" d="M35.42 30.79a.89.89 0 01-.5-.18l-3.9-2.9a.85.85 0 111.01-1.37l3.88 2.92a.87.87 0 01.17 1.2.82.82 0 01-.66.33z" className="cls-3" data-name="Path 8423" transform="translate(-8.776 -7.919)"/><path id="Path_8424" d="M25.12 64.22l-4.88-.11a.85.85 0 11.02-1.71h.03l4.85.11a.86.86 0 01.84.86.88.88 0 01-.86.85z" className="cls-3" data-name="Path 8424" transform="translate(0 -36.136)"/><path id="Path_8425" d="M354.27 38.84h-8.06V20.68a2.1 2.1 0 00-4.21 0v19.87a2.1 2.1 0 002.13 2.12h10.1a1.93 1.93 0 001.97-1.9 1.91 1.91 0 00-1.92-1.93z" className="cls-3" data-name="Path 8425" transform="translate(-251.221 -2.024)"/></g></svg>