<svg width="55" height="54" viewBox="0 0 55 54" fill="none" xmlns="http://www.w3.org/2000/svg">
<rect opacity="0.23" width="45.8085" height="45.8085" rx="13" fill="url(#paint0_radial_526_604)"/>
<path d="M29.1207 13C29.0215 13.0016 28.9269 13.0425 28.8578 13.1136C28.7886 13.1847 28.7504 13.2804 28.7516 13.3796V13.7547H28.3766C28.2771 13.7547 28.1817 13.7942 28.1114 13.8645C28.0411 13.9348 28.0015 14.0303 28.0015 14.1297C28.0015 14.2292 28.0411 14.3246 28.1114 14.3949C28.1817 14.4652 28.2771 14.5048 28.3766 14.5048H28.7516V14.8798C28.7516 14.9793 28.7912 15.0747 28.8615 15.145C28.9318 15.2153 29.0272 15.2549 29.1267 15.2549C29.2262 15.2549 29.3215 15.2153 29.3919 15.145C29.4622 15.0747 29.5017 14.9793 29.5017 14.8798V14.5048H29.8768C29.9762 14.5048 30.0716 14.4652 30.142 14.3949C30.2123 14.3246 30.2518 14.2292 30.2518 14.1297C30.2518 14.0303 30.2123 13.9348 30.142 13.8645C30.0716 13.7942 29.9762 13.7547 29.8768 13.7547H29.5017V13.3796C29.5023 13.3295 29.4929 13.2797 29.4739 13.2333C29.455 13.1869 29.4269 13.1447 29.3914 13.1093C29.3559 13.0739 29.3136 13.0461 29.2671 13.0273C29.2206 13.0085 29.1708 12.9992 29.1207 13ZM39.6325 13.7607C39.0152 13.7607 38.5074 14.2685 38.5074 14.8858C38.5074 15.5024 39.0152 16.011 39.6325 16.011C40.2491 16.011 40.7577 15.5024 40.7577 14.8858C40.7577 14.2685 40.2491 13.7607 39.6325 13.7607ZM39.6325 14.5108C39.8441 14.5108 40.0076 14.6743 40.0076 14.8858C40.0076 15.0973 39.8441 15.2609 39.6325 15.2609C39.5831 15.2616 39.534 15.2524 39.4882 15.2338C39.4424 15.2152 39.4007 15.1876 39.3658 15.1526C39.3308 15.1176 39.3032 15.076 39.2846 15.0302C39.266 14.9843 39.2568 14.9353 39.2575 14.8858C39.2575 14.6743 39.421 14.5108 39.6325 14.5108ZM25.1827 16.764C24.9126 16.776 24.6989 16.8466 24.5511 16.9628C24.1565 17.2741 24.146 17.8742 24.4063 18.7361C24.6666 19.5972 25.2217 20.7313 26.085 22.1302C26.3236 22.5165 26.5831 22.9148 26.8546 23.3199C25.6402 25.1545 24.9934 27.3065 24.9952 29.5067C24.9952 30.3363 25.0927 31.1494 25.2704 31.9385C23.9053 31.3384 23.0787 30.6918 22.8341 30.163C22.6571 29.7805 22.6916 29.4677 23.0014 29.0686C23.3112 28.6696 23.939 28.23 24.9029 27.8355L24.5999 27.1409C23.5677 27.5639 22.8371 28.0387 22.4036 28.5968C21.9693 29.1556 21.874 29.8457 22.1575 30.4593C22.5963 31.4089 23.744 32.1928 25.5225 32.8634C26.3329 35.4103 28.0221 37.5863 30.2886 39.0029C30.1138 39.1402 29.936 39.2842 29.765 39.4132C28.4636 40.3981 27.4075 41.0424 26.7061 41.35C26.3558 41.5037 26.1053 41.5728 25.926 41.5915C25.746 41.6103 25.611 41.5915 25.4932 41.5015C25.2562 41.3245 25.1774 40.8429 25.4107 40.0523C25.6455 39.2617 26.1683 38.174 27.0054 36.8126L26.0543 36.9326C25.1977 38.3278 24.6494 39.4552 24.3966 40.3103C24.1423 41.1655 24.1603 41.7595 24.5661 42.0618C24.7686 42.2133 25.0919 42.2793 25.5022 42.2366C25.9118 42.1931 26.3828 42.046 26.8809 41.8278C27.8755 41.3912 29.0224 40.6666 30.3951 39.627C30.5264 39.528 30.6621 39.4169 30.7949 39.3134V43.0055H29.8708C29.7713 43.0055 29.6759 43.0449 29.6056 43.1152C29.5352 43.1856 29.4957 43.281 29.4957 43.3805V44.5821C29.0629 44.7434 28.7456 45.1485 28.7456 45.6308C28.7456 46.1139 29.0629 46.5166 29.4957 46.6787V47.5825C29.0629 47.7438 28.7456 48.1489 28.7456 48.6312C28.7456 49.1142 29.0629 49.517 29.4957 49.679V50.8815C29.4957 50.9809 29.5352 51.0763 29.6056 51.1466C29.6759 51.217 29.7713 51.2565 29.8708 51.2565H31.746V52.3817C31.746 52.4811 31.7855 52.5765 31.8559 52.6468C31.9262 52.7172 32.0216 52.7567 32.1211 52.7567H33.9963V53.5068H34.7464V52.7567H37.7468V53.5068H38.4969V52.7567H40.3721C40.4716 52.7567 40.567 52.7172 40.6373 52.6468C40.7077 52.5765 40.7472 52.4811 40.7472 52.3817V51.2565H42.6224C42.7219 51.2565 42.8173 51.217 42.8876 51.1466C42.958 51.0763 42.9975 50.9809 42.9975 50.8815V49.679C43.4303 49.517 43.7476 49.1142 43.7476 48.6312C43.7476 48.1489 43.4303 47.7438 42.9975 47.5825V46.6787C43.4303 46.5166 43.7476 46.1139 43.7476 45.6308C43.7476 45.1485 43.4303 44.7434 42.9975 44.5821V43.3805C42.9975 43.281 42.958 43.1856 42.8876 43.1152C42.8173 43.0449 42.7219 43.0055 42.6224 43.0055H41.6983V39.3134C41.8311 39.4169 41.9668 39.528 42.0981 39.627C43.4708 40.6666 44.6177 41.3912 45.6123 41.8278C46.1104 42.0453 46.5814 42.1931 46.991 42.2366C47.4013 42.2801 47.7246 42.2133 47.9271 42.0618C48.3329 41.7595 48.3509 41.1647 48.0974 40.3103C47.8438 39.4552 47.2955 38.327 46.4389 36.9334L45.4878 36.8134C46.3241 38.1741 46.8477 39.2617 47.0817 40.0523C47.3158 40.8429 47.237 41.3244 46.9992 41.5007C46.8815 41.5892 46.7472 41.611 46.5679 41.5915C46.3879 41.5728 46.1374 41.5037 45.7871 41.35C45.0857 41.0424 44.0296 40.3981 42.7282 39.4132C42.5572 39.2842 42.3794 39.1402 42.2046 39.0029C44.1803 37.7689 45.7258 35.954 46.6294 33.807C47.7921 33.5032 48.7447 33.1476 49.4625 32.7403C50.2584 32.288 50.7977 31.7727 51.01 31.1576C51.115 30.8501 51.1225 30.5253 51.04 30.2073C50.9469 29.8675 50.7761 29.5539 50.5412 29.2914C50.0461 28.7213 49.263 28.212 48.1791 27.7372L47.8948 28.4228C48.915 28.8699 49.6088 29.3454 49.9816 29.7752C50.3537 30.2043 50.4242 30.5328 50.3004 30.8928C50.1766 31.2529 49.7866 31.6805 49.0777 32.084C48.5399 32.3893 47.8251 32.6788 46.9475 32.9376C47.3097 31.8299 47.4955 30.6721 47.498 29.5067C47.498 27.2212 46.8117 25.0961 45.6386 23.3199C45.9101 22.9148 46.1696 22.5173 46.4082 22.1302C47.2708 20.7313 47.8258 19.5972 48.0869 18.7361C48.3479 17.8742 48.3367 17.2734 47.9421 16.9628C47.7448 16.8076 47.4313 16.7348 47.0247 16.7731C46.6189 16.8106 46.1449 16.9531 45.6491 17.1683C44.6574 17.5974 43.5173 18.316 42.1476 19.3481L42.7747 19.5656C44.0716 18.5875 45.1225 17.95 45.8148 17.6499C46.1606 17.4999 46.4059 17.4354 46.5822 17.4189C46.7592 17.4024 46.8935 17.4264 47.0097 17.5186C47.2438 17.7024 47.3143 18.1937 47.0735 18.9911C46.832 19.7884 46.3016 20.8813 45.4585 22.2472C45.3708 22.3898 45.2703 22.539 45.1772 22.6838C43.1205 19.9955 39.8891 18.2522 36.2466 18.2522C32.6034 18.2522 29.3727 19.9955 27.316 22.6838C27.2229 22.539 27.1224 22.3898 27.0347 22.2472C26.1916 20.8813 25.662 19.7884 25.4197 18.9911C25.1789 18.193 25.2509 17.7024 25.4842 17.5186C25.6012 17.4264 25.7355 17.4024 25.9118 17.4189C26.0888 17.4354 26.3341 17.5007 26.6799 17.6499C27.3722 17.95 28.4216 18.5875 29.7178 19.5649L30.3471 19.3481C28.9774 18.316 27.8358 17.5974 26.8441 17.1683C26.3483 16.9538 25.8765 16.8113 25.47 16.7731C25.3745 16.7635 25.2785 16.7605 25.1827 16.764ZM21.3017 18.2553C21.2267 18.2548 21.1533 18.2768 21.091 18.3184C21.0287 18.3601 20.9803 18.4195 20.952 18.4889C20.9238 18.5583 20.917 18.6346 20.9325 18.7079C20.948 18.7813 20.9852 18.8483 21.0391 18.9003L21.3047 19.1651L21.0399 19.4306C21.0041 19.4652 20.9755 19.5066 20.9558 19.5524C20.9362 19.5981 20.9258 19.6473 20.9254 19.6971C20.925 19.7469 20.9345 19.7963 20.9533 19.8424C20.9722 19.8885 21 19.9304 21.0352 19.9656C21.0705 20.0008 21.1123 20.0287 21.1584 20.0475C21.2045 20.0664 21.2539 20.0759 21.3037 20.0754C21.3535 20.075 21.4027 20.0647 21.4485 20.045C21.4942 20.0254 21.5356 19.9968 21.5702 19.961L21.835 19.6954L22.1005 19.961C22.1351 19.9968 22.1765 20.0254 22.2223 20.045C22.268 20.0647 22.3172 20.075 22.367 20.0754C22.4168 20.0759 22.4662 20.0664 22.5123 20.0475C22.5584 20.0287 22.6003 20.0008 22.6355 19.9656C22.6707 19.9304 22.6986 19.8885 22.7174 19.8424C22.7363 19.7963 22.7458 19.7469 22.7453 19.6971C22.7449 19.6473 22.7346 19.5981 22.7149 19.5524C22.6952 19.5066 22.6667 19.4652 22.6309 19.4306L22.3653 19.1651L22.6309 18.9003C22.6855 18.8477 22.723 18.7797 22.7382 18.7053C22.7535 18.631 22.7458 18.5538 22.7162 18.4839C22.6866 18.414 22.6365 18.3547 22.5725 18.3139C22.5085 18.273 22.4337 18.2526 22.3578 18.2553C22.2605 18.2584 22.1682 18.2993 22.1005 18.3693L21.835 18.6348L21.5702 18.3693C21.5353 18.3333 21.4936 18.3046 21.4475 18.2851C21.4014 18.2655 21.3518 18.2554 21.3017 18.2553ZM36.2466 19.0023C39.7488 19.0023 42.8399 20.7185 44.7467 23.3506C42.8474 26.1905 40.1186 29.4804 37.2532 32.5071H35.24C32.8037 29.9343 30.4769 27.1806 28.6654 24.6618C30.2631 22.164 33.0572 20.5063 36.2466 20.5063V19.7562C32.9049 19.7562 29.9555 21.4409 28.1981 24.007C28.045 23.7872 27.8905 23.5652 27.7465 23.3506C29.654 20.7185 32.7444 19.0023 36.2466 19.0023ZM51.6236 22.7513C51.5244 22.7529 51.4298 22.7937 51.3607 22.8648C51.2915 22.936 51.2533 23.0317 51.2545 23.1309V23.5059H50.8795C50.78 23.5059 50.6846 23.5454 50.6143 23.6158C50.5439 23.6861 50.5044 23.7815 50.5044 23.881C50.5044 23.9804 50.5439 24.0758 50.6143 24.1461C50.6846 24.2165 50.78 24.256 50.8795 24.256H51.2545V24.6311C51.2545 24.7305 51.294 24.8259 51.3644 24.8962C51.4347 24.9666 51.5301 25.0061 51.6296 25.0061C51.729 25.0061 51.8244 24.9666 51.8948 24.8962C51.9651 24.8259 52.0046 24.7305 52.0046 24.6311V24.256H52.3797C52.4791 24.256 52.5745 24.2165 52.6449 24.1461C52.7152 24.0758 52.7547 23.9804 52.7547 23.881C52.7547 23.7815 52.7152 23.6861 52.6449 23.6158C52.5745 23.5454 52.4791 23.5059 52.3797 23.5059H52.0046V23.1309C52.0052 23.0807 51.9958 23.031 51.9768 22.9846C51.9579 22.9381 51.9298 22.896 51.8943 22.8606C51.8587 22.8252 51.8165 22.7973 51.77 22.7785C51.7235 22.7598 51.6737 22.7505 51.6236 22.7513ZM27.3175 23.9942C27.4697 24.2125 27.6347 24.4368 27.7945 24.6588C26.9433 26.1327 26.4952 27.8047 26.4953 29.5067H27.2454C27.2454 27.9915 27.6227 26.5663 28.2828 25.3136C30.023 27.6629 32.1286 30.1488 34.3594 32.5071H32.4961V33.2572H33.9963V33.8167C31.629 33.6172 29.3487 33.2474 27.4195 32.7021C26.9817 32.5772 26.5489 32.4358 26.1218 32.2783C25.8731 31.3753 25.7465 30.4432 25.7453 29.5067C25.7453 27.4814 26.3266 25.5972 27.3175 23.9935V23.9942ZM45.1757 23.9942C46.2035 25.6495 46.7481 27.5591 46.7479 29.5074C46.746 30.7586 46.5202 31.9993 46.0811 33.1709C46.0736 33.1709 46.0661 33.1784 46.0586 33.1784C43.9036 33.6967 41.246 33.951 38.4969 33.978V33.2586H39.9971V32.5085H38.1338C40.7862 29.7047 43.2938 26.7006 45.1757 23.9942ZM53.5558 31.7577C53.481 31.7574 53.4078 31.7795 53.3457 31.8211C53.2835 31.8627 53.2352 31.922 53.207 31.9913C53.1788 32.0605 53.1719 32.1367 53.1873 32.2099C53.2027 32.2831 53.2396 32.35 53.2933 32.4021L53.5588 32.6668L53.294 32.9324C53.2582 32.967 53.2296 33.0083 53.21 33.0541C53.1903 33.0998 53.18 33.1491 53.1796 33.1989C53.1791 33.2487 53.1886 33.2981 53.2075 33.3442C53.2263 33.3903 53.2542 33.4321 53.2894 33.4673C53.3246 33.5025 53.3665 33.5304 53.4126 33.5493C53.4587 33.5681 53.508 33.5776 53.5578 33.5772C53.6076 33.5767 53.6569 33.5664 53.7026 33.5468C53.7484 33.5271 53.7898 33.4985 53.8244 33.4627L54.0891 33.1972L54.3547 33.4627C54.3893 33.4985 54.4307 33.5271 54.4764 33.5468C54.5222 33.5664 54.5714 33.5767 54.6212 33.5772C54.671 33.5776 54.7204 33.5681 54.7665 33.5493C54.8125 33.5304 54.8544 33.5025 54.8896 33.4673C54.9249 33.4321 54.9527 33.3903 54.9716 33.3442C54.9904 33.2981 54.9999 33.2487 54.9995 33.1989C54.999 33.1491 54.9887 33.0998 54.969 33.0541C54.9494 33.0083 54.9208 32.967 54.885 32.9324L54.6195 32.6668L54.885 32.4021C54.9397 32.3494 54.9771 32.2814 54.9924 32.2071C55.0076 32.1327 54.9999 32.0555 54.9703 31.9856C54.9408 31.9157 54.8907 31.8564 54.8267 31.8156C54.7627 31.7748 54.6878 31.7544 54.612 31.757C54.5145 31.7604 54.4223 31.8015 54.3547 31.8717L54.0891 32.1365L53.8244 31.8717C53.7895 31.8356 53.7478 31.8069 53.7017 31.7872C53.6556 31.7674 53.606 31.7579 53.5558 31.7577ZM26.4136 33.1739C26.6784 33.2587 26.9492 33.3427 27.2364 33.4244C29.2392 33.9907 31.5772 34.374 33.9963 34.5788V35.7812C32.9933 36.7329 31.9568 37.6486 30.8887 38.5266C28.8302 37.3049 27.2512 35.4162 26.4136 33.1739ZM34.7464 33.2572H35.0704C35.2857 33.48 35.4965 33.7035 35.7133 33.9225C35.3907 33.9067 35.0682 33.8947 34.7464 33.873V33.2572ZM35.9503 33.2572H36.5429C36.4431 33.3599 36.3464 33.4672 36.2466 33.5692C36.1468 33.4679 36.0501 33.3592 35.9503 33.2572ZM37.4228 33.2572H37.7468V33.978C37.4055 33.978 37.068 33.9855 36.7259 33.9705C36.9599 33.7342 37.1902 33.4949 37.4235 33.2542L37.4228 33.2572ZM45.7166 34.0238C44.822 35.8988 43.3909 37.466 41.6045 38.5266C40.5364 37.6486 39.4999 36.7329 38.4969 35.7812V34.7371C41.0817 34.7108 43.5863 34.4828 45.7166 34.0238ZM34.7464 34.6328C34.8799 34.6418 35.0142 34.6456 35.1477 34.6531C35.0142 34.7851 34.8799 34.9156 34.7464 35.0461V34.6328ZM35.9871 34.6958C36.1701 34.7033 36.3524 34.7183 36.5346 34.7236C36.9397 35.1211 37.3432 35.5299 37.7468 35.9087V43.0055H34.7464V35.9095C35.159 35.5209 35.573 35.1031 35.9871 34.6958ZM37.4318 34.7386H37.7468V35.0476L37.4318 34.7386ZM50.1234 36.2576C49.5061 36.2576 48.9982 36.7661 48.9982 37.3827C48.9982 38 49.5061 38.5078 50.1234 38.5078C50.7407 38.5078 51.2485 38 51.2485 37.3827C51.2485 36.7661 50.7407 36.2576 50.1234 36.2576ZM33.9963 36.5846V43.0055H31.545V38.8948L31.4175 38.8274C32.2538 38.1523 33.1217 37.3819 33.9963 36.5846ZM38.4969 36.5846C39.3715 37.3819 40.2394 38.1523 41.0757 38.8274L40.9482 38.8948V43.0055H38.4969V36.5846ZM17.1191 37.0031C17.0199 37.0047 16.9254 37.0455 16.8562 37.1167C16.7871 37.1878 16.7489 37.2834 16.7501 37.3827V37.7577H16.375C16.2756 37.7577 16.1802 37.7973 16.1098 37.8676C16.0395 37.9379 16 38.0333 16 38.1328C16 38.2322 16.0395 38.3277 16.1098 38.398C16.1802 38.4684 16.2756 38.5078 16.375 38.5078H16.7501V38.8829C16.7501 38.9321 16.7598 38.9809 16.7786 39.0264C16.7975 39.0719 16.8251 39.1133 16.8599 39.1481C16.8948 39.1829 16.9361 39.2105 16.9816 39.2293C17.0271 39.2482 17.0759 39.2579 17.1251 39.2579C17.1744 39.2579 17.2232 39.2482 17.2687 39.2293C17.3142 39.2105 17.3555 39.1829 17.3903 39.1481C17.4252 39.1133 17.4528 39.0719 17.4716 39.0264C17.4905 38.9809 17.5002 38.9321 17.5002 38.8829V38.5078H17.8752C17.9747 38.5078 18.0701 38.4684 18.1404 38.398C18.2108 38.3277 18.2503 38.2322 18.2503 38.1328C18.2503 38.0333 18.2108 37.9379 18.1404 37.8676C18.0701 37.7973 17.9747 37.7577 17.8752 37.7577H17.5002V37.3827C17.5008 37.3325 17.4913 37.2828 17.4724 37.2363C17.4534 37.1899 17.4254 37.1478 17.3898 37.1125C17.3543 37.0771 17.3121 37.0491 17.2656 37.0303C17.2191 37.0116 17.1693 37.0023 17.1191 37.0031ZM50.1234 37.0106C50.3349 37.0106 50.4984 37.1742 50.4984 37.3857C50.4984 37.5972 50.3349 37.7607 50.1234 37.7607C50.0739 37.7614 50.0248 37.7522 49.979 37.7336C49.9332 37.715 49.8916 37.6875 49.8566 37.6525C49.8216 37.6175 49.794 37.5759 49.7754 37.5301C49.7568 37.4843 49.7476 37.4351 49.7483 37.3857C49.7483 37.1742 49.9119 37.0106 50.1234 37.0106ZM30.2458 43.7585H42.2474V44.5086H30.2458V43.7585ZM48.6232 44.5071C48.524 44.5087 48.4294 44.5495 48.3603 44.6207C48.2911 44.6918 48.2529 44.7874 48.2541 44.8866V45.2617H47.8791C47.7796 45.2617 47.6842 45.3012 47.6139 45.3716C47.5436 45.4419 47.504 45.5373 47.504 45.6367C47.504 45.7362 47.5436 45.8316 47.6139 45.9019C47.6842 45.9722 47.7796 46.0118 47.8791 46.0118H48.2541V46.3868C48.2541 46.4863 48.2937 46.5817 48.364 46.652C48.4343 46.7223 48.5297 46.7619 48.6292 46.7619C48.7287 46.7619 48.8241 46.7223 48.8944 46.652C48.9647 46.5817 49.0042 46.4863 49.0042 46.3868V46.0118H49.3793C49.4788 46.0118 49.5741 45.9722 49.6445 45.9019C49.7148 45.8316 49.7543 45.7362 49.7543 45.6367C49.7543 45.5373 49.7148 45.4419 49.6445 45.3716C49.5741 45.3012 49.4788 45.2617 49.3793 45.2617H49.0042V44.8866C49.0052 44.8363 48.9961 44.7862 48.9773 44.7394C48.9586 44.6926 48.9306 44.6501 48.895 44.6144C48.8594 44.5787 48.817 44.5505 48.7703 44.5316C48.7236 44.5126 48.6736 44.5033 48.6232 44.5041V44.5071ZM29.912 45.2587H42.5812C42.8287 45.2587 42.9975 45.4312 42.9975 45.6337C42.9975 45.837 42.8294 46.0088 42.5812 46.0088H29.912C29.6645 46.0088 29.4957 45.837 29.4957 45.6337C29.4957 45.4312 29.6638 45.2587 29.912 45.2587ZM21.6302 45.2677C21.0129 45.2677 20.5051 45.7763 20.5051 46.3929C20.5051 47.0102 21.0129 47.518 21.6302 47.518C22.2468 47.518 22.7554 47.0102 22.7554 46.3929C22.7554 45.7763 22.2468 45.2677 21.6302 45.2677ZM21.6302 46.0178C21.8417 46.0178 22.0053 46.1814 22.0053 46.3929C22.0053 46.6044 21.8417 46.7679 21.6302 46.7679C21.5808 46.7686 21.5317 46.7594 21.4859 46.7408C21.44 46.7222 21.3984 46.6946 21.3634 46.6596C21.3285 46.6246 21.3009 46.583 21.2823 46.5372C21.2637 46.4914 21.2545 46.4423 21.2552 46.3929C21.2552 46.1814 21.4187 46.0178 21.6302 46.0178ZM30.2458 46.7559H42.2474V47.506H30.2458V46.7559ZM29.912 48.2561H42.5812C42.8287 48.2561 42.9975 48.4286 42.9975 48.6312C42.9975 48.8337 42.8294 49.0062 42.5812 49.0062H29.912C29.6645 49.0062 29.4957 48.8337 29.4957 48.6312C29.4957 48.4286 29.6638 48.2561 29.912 48.2561ZM30.2458 49.7563H42.2474V50.5064H40.4096C40.3971 50.5058 40.3846 50.5058 40.3721 50.5064H32.1211C32.1086 50.5058 32.0961 50.5058 32.0836 50.5064H30.2458V49.7563ZM32.4961 51.2565H39.9971V52.0066H32.4961V51.2565Z" fill="black"/>
<defs>
<radialGradient id="paint0_radial_526_604" cx="0" cy="0" r="1" gradientUnits="userSpaceOnUse" gradientTransform="translate(35.1277 30.539) rotate(-92.637) scale(116.076 52.0568)">
<stop stop-color="#602EA6"/>
<stop offset="1" stop-color="#C977D6"/>
</radialGradient>
</defs>
</svg>
