<svg width="59" height="51" viewBox="0 0 59 51" fill="none" xmlns="http://www.w3.org/2000/svg">
<rect opacity="0.23" width="45.8085" height="45.8085" rx="13" fill="url(#paint0_radial_254_115)"/>
<path fillRule="evenodd" clipRule="evenodd" d="M40.7131 31.884C38.4181 31.884 36.5508 30.0168 36.5508 27.7218C36.5508 25.4265 38.418 23.5593 40.7131 23.5593C43.0083 23.5593 44.8755 25.4266 44.8755 27.7218C44.8755 30.0168 43.0082 31.884 40.7131 31.884ZM40.7131 24.3601C38.8596 24.3601 37.3516 25.868 37.3516 27.7217C37.3516 29.5752 38.8596 31.0831 40.7131 31.0831C42.5667 31.0831 44.0748 29.5752 44.0748 27.7217C44.0748 25.868 42.5666 24.3601 40.7131 24.3601Z" fill="black"/>
<path fillRule="evenodd" clipRule="evenodd" d="M39.5715 35.1405C39.4664 35.1405 39.3625 35.1231 39.2627 35.0887L37.3168 34.4172C37.078 34.3349 36.8854 34.1644 36.7747 33.9373C36.6641 33.7101 36.6485 33.4533 36.7308 33.2146L36.9928 32.4553C36.8075 32.3099 36.6311 32.1537 36.4652 31.9886L35.7437 32.3399C35.6133 32.4034 35.4741 32.4355 35.3299 32.4355C34.9704 32.4355 34.6364 32.2268 34.479 31.9036L33.5777 30.0527C33.3494 29.5836 33.5452 29.0162 34.0142 28.7879L34.7357 28.4366C34.708 28.2043 34.694 27.9692 34.6936 27.7334L33.9344 27.4715C33.4413 27.3014 33.1785 26.7617 33.3487 26.2686L34.02 24.3226C34.1517 23.9412 34.511 23.685 34.9142 23.685C35.0193 23.685 35.1232 23.7024 35.223 23.7368L35.982 23.9988C36.1277 23.8134 36.2837 23.637 36.4489 23.4712L36.0974 22.7495C35.9868 22.5224 35.9712 22.2657 36.0537 22.0268C36.1361 21.7878 36.3066 21.5953 36.534 21.4847L38.3845 20.5835C38.5148 20.52 38.654 20.4879 38.7983 20.4879C39.1578 20.4879 39.4918 20.6966 39.6491 21.0198L40.0006 21.7415C40.2334 21.7138 40.469 21.6996 40.7039 21.6993L40.9659 20.9402C41.0976 20.5588 41.4569 20.3025 41.86 20.3025C41.9652 20.3025 42.069 20.32 42.1689 20.3545L44.1147 21.0259C44.3535 21.1082 44.5461 21.2787 44.6568 21.506C44.7675 21.7331 44.7829 21.9898 44.7005 22.2287L44.4386 22.9879C44.624 23.1335 44.8004 23.2896 44.9662 23.4547L45.6878 23.1032C45.8181 23.0398 45.9573 23.0076 46.1017 23.0076C46.4612 23.0076 46.7952 23.2164 46.9525 23.5395L47.8538 25.3904C47.9645 25.6176 47.98 25.8742 47.8976 26.1131C47.8152 26.352 47.6446 26.5446 47.4174 26.6551L46.6958 27.0066C46.7237 27.2391 46.7377 27.4741 46.738 27.7099L47.4971 27.9719C47.9901 28.1419 48.253 28.6814 48.083 29.1746L47.4114 31.1207C47.2798 31.502 46.9205 31.7582 46.5173 31.7582C46.4122 31.7582 46.3084 31.7408 46.2086 31.7064L45.4495 31.4445C45.304 31.6297 45.148 31.8061 44.9827 31.9722L45.3341 32.6939C45.5625 33.1626 45.3668 33.7299 44.8979 33.9586L43.047 34.8598C42.9166 34.9233 42.7774 34.9554 42.6331 34.9554C42.2737 34.9554 41.9396 34.7466 41.7822 34.4234L41.4308 33.7018C41.1981 33.7296 40.9626 33.7437 40.7276 33.7439L40.4656 34.5031C40.3339 34.8844 39.9746 35.1405 39.5715 35.1405ZM36.5526 31.1C36.6632 31.1 36.7718 31.1456 36.8496 31.2316C37.1018 31.5101 37.3873 31.7627 37.698 31.9823C37.8433 32.0851 37.9035 32.2716 37.8454 32.4399L37.488 33.4757C37.471 33.5251 37.4849 33.5664 37.4947 33.5866C37.5045 33.6067 37.5285 33.6432 37.5779 33.6602L39.524 34.3317C39.5397 34.3371 39.5556 34.3398 39.5715 34.3398C39.6228 34.3398 39.6851 34.3096 39.7084 34.2419L40.066 33.2061C40.1239 33.0379 40.2869 32.9291 40.4639 32.9368C40.8434 32.9553 41.2256 32.9323 41.595 32.8689C41.7703 32.8385 41.9448 32.9281 42.0227 33.0881L42.5021 34.0725C42.5314 34.1329 42.589 34.1544 42.6331 34.1544C42.6548 34.1544 42.6761 34.1493 42.6963 34.1396L44.5471 33.2383C44.619 33.2032 44.6491 33.1162 44.614 33.0441L44.1347 32.0596C44.0568 31.8996 44.0938 31.7074 44.2258 31.5877C44.5045 31.335 44.7572 31.0494 44.9767 30.739C45.0795 30.5938 45.2657 30.5336 45.4342 30.5917L46.4699 30.949C46.4855 30.9543 46.5016 30.957 46.5175 30.957C46.5689 30.957 46.6312 30.9268 46.6546 30.859L47.3262 28.9131C47.3522 28.8374 47.3118 28.7545 47.2361 28.7284L46.2004 28.3711C46.0321 28.313 45.9224 28.1509 45.9311 27.9732C45.9496 27.5927 45.9267 27.2122 45.8632 26.842C45.833 26.6666 45.9223 26.4923 46.0825 26.4143L47.0669 25.9348C47.114 25.9118 47.1333 25.8729 47.1407 25.8517C47.148 25.8304 47.1569 25.7878 47.1339 25.7406L46.2327 23.8898C46.2033 23.8295 46.1457 23.8081 46.1017 23.8081C46.0798 23.8081 46.0586 23.8131 46.0384 23.8229L45.0541 24.3024C44.8939 24.3802 44.7016 24.3431 44.5819 24.2111C44.3299 23.933 44.0445 23.6805 43.7335 23.4604C43.5882 23.3576 43.5281 23.1712 43.5862 23.003L43.9434 21.9672C43.9606 21.9176 43.9466 21.8764 43.9367 21.856C43.9269 21.8359 43.9031 21.7995 43.8537 21.7825L41.9075 21.111C41.8919 21.1057 41.8758 21.103 41.86 21.103C41.8086 21.103 41.7463 21.1332 41.7229 21.2009L41.3656 22.2367C41.3075 22.405 41.1445 22.5143 40.9675 22.506C40.5881 22.4875 40.206 22.5105 39.8364 22.5739C39.6612 22.6044 39.4865 22.5147 39.4086 22.3546L38.9292 21.37C38.8997 21.3098 38.8422 21.2883 38.7983 21.2883C38.7764 21.2883 38.7552 21.2933 38.7352 21.3031L36.8842 22.2044C36.8371 22.2273 36.8179 22.2663 36.8107 22.2875C36.8033 22.3088 36.7945 22.3515 36.8174 22.3985L37.2967 23.3829C37.3748 23.5431 37.3376 23.7354 37.2055 23.855C36.9275 24.107 36.6747 24.3925 36.4546 24.7036C36.3519 24.8489 36.1657 24.909 35.9972 24.8508L34.9616 24.4934C34.946 24.488 34.9299 24.4854 34.9142 24.4854C34.8626 24.4854 34.8003 24.5158 34.7768 24.5835L34.1055 26.5293C34.0794 26.605 34.1197 26.6879 34.1954 26.714L35.2311 27.0714C35.3994 27.1294 35.5091 27.2915 35.5004 27.4692C35.4819 27.8502 35.5047 28.2308 35.5683 28.6004C35.5985 28.7759 35.5092 28.9502 35.349 29.0283L34.3646 29.5076C34.2926 29.5426 34.2626 29.6298 34.2976 29.7019L35.1988 31.5525C35.2282 31.6128 35.2857 31.6343 35.3298 31.6343C35.3516 31.6343 35.3729 31.6292 35.3929 31.6194L36.3775 31.1401C36.4335 31.1132 36.4933 31.1 36.5526 31.1Z" fill="black"/>
<path fillRule="evenodd" clipRule="evenodd" d="M46.4409 43.6316H35.089C34.8678 43.6316 34.6887 43.4524 34.6887 43.2312V43.205C34.6887 40.4732 33.6983 37.8918 31.9001 35.9363C29.734 33.581 28.6096 30.5178 28.7339 27.3111C28.8539 24.2163 30.155 21.3169 32.3974 19.1472C34.6391 16.9782 37.5797 15.7716 40.6779 15.7496L40.7651 15.7492C47.4041 15.7492 52.8054 21.1506 52.8054 27.7896C52.8054 30.7793 51.7018 33.6461 49.6978 35.8617C47.8558 37.8985 46.8413 40.4892 46.8413 43.1568V43.2312C46.8413 43.4523 46.662 43.6316 46.4409 43.6316ZM35.4836 42.8309H46.0452C46.1243 40.0802 47.2034 37.426 49.104 35.3247C50.9743 33.2566 52.0045 30.5806 52.0045 27.7897C52.0045 21.5922 46.9625 16.5502 40.7651 16.5502L40.6836 16.5504C34.6646 16.593 29.767 21.3333 29.5341 27.3421C29.418 30.3361 30.4675 33.1957 32.4896 35.3942C34.3415 37.4083 35.397 40.0365 35.4836 42.8309ZM40.5608 14.2307C40.3396 14.2307 40.1604 14.0516 40.1604 13.8304V10.4005C40.1604 10.1792 40.3396 10 40.5608 10C40.7819 10 40.9612 10.1792 40.9612 10.4005V13.8305C40.9612 14.0516 40.7819 14.2307 40.5608 14.2307ZM47.7356 15.8865C47.6701 15.8865 47.6035 15.8704 47.5422 15.8364C47.3486 15.7294 47.2787 15.4857 47.3856 15.2923L49.0465 12.291C49.1537 12.0977 49.3973 12.0276 49.5908 12.1346C49.7842 12.2416 49.8543 12.4853 49.7472 12.6788L48.0863 15.68C48.0132 15.812 47.8765 15.8865 47.7356 15.8865ZM52.8729 21.1896C52.7356 21.1896 52.602 21.119 52.5274 20.992C52.4153 20.8013 52.479 20.556 52.6697 20.4439L55.6269 18.7059C55.8177 18.5939 56.0629 18.6577 56.175 18.8483C56.287 19.039 56.2233 19.2843 56.0326 19.3964L53.0755 21.1344C53.0116 21.1717 52.9418 21.1896 52.8729 21.1896ZM58.0344 28.1184C58.0308 28.1184 58.0273 28.1184 58.0238 28.1183L54.5949 28.029C54.3737 28.0232 54.1993 27.8395 54.205 27.6184C54.2108 27.3973 54.3987 27.2239 54.6157 27.2284L58.0446 27.3177C58.2657 27.3235 58.4402 27.5074 58.4344 27.7285C58.4288 27.946 58.2506 28.1184 58.0344 28.1184ZM55.6906 36.8471C55.6135 36.8471 55.5356 36.8249 55.4669 36.7786L52.6239 34.8595C52.4407 34.7357 52.3923 34.4869 52.5161 34.3036C52.6397 34.1205 52.8884 34.0719 53.0719 34.1958L55.915 36.1148C56.0982 36.2385 56.1465 36.4874 56.0228 36.6706C55.9455 36.7852 55.8192 36.8471 55.6906 36.8471ZM33.699 15.9682C33.558 15.9682 33.4214 15.8936 33.3484 15.7616L31.6874 12.7603C31.5803 12.5668 31.6504 12.3233 31.8438 12.2162C32.0374 12.1093 32.281 12.1792 32.388 12.3726L34.049 15.3738C34.1561 15.5674 34.086 15.811 33.8925 15.918C33.8311 15.9521 33.7646 15.9682 33.699 15.9682ZM28.5617 21.2712C28.4927 21.2712 28.4229 21.2535 28.3593 21.216L25.4019 19.478C25.2113 19.366 25.1476 19.1206 25.2596 18.9299C25.3717 18.7393 25.6172 18.6754 25.8077 18.7876L28.765 20.5255C28.9556 20.6376 29.0194 20.883 28.9073 21.0736C28.8327 21.2006 28.6989 21.2712 28.5617 21.2712ZM23.4002 28.2001C23.1839 28.2001 23.0058 28.0275 23.0001 27.8101C22.9944 27.5891 23.169 27.4051 23.3899 27.3994L26.8189 27.3101C27.0387 27.3069 27.2239 27.479 27.2296 27.7C27.2353 27.921 27.0607 28.1049 26.8397 28.1107L23.4108 28.2C23.4072 28.2 23.4037 28.2001 23.4002 28.2001ZM25.7439 36.9288C25.6153 36.9288 25.489 36.8671 25.4117 36.7524C25.2879 36.5691 25.3363 36.3203 25.5196 36.1966L28.3626 34.2775C28.5459 34.1537 28.7948 34.2021 28.9186 34.3854C29.0423 34.5687 28.9939 34.8175 28.8106 34.9412L25.9675 36.8603C25.899 36.9067 25.821 36.9288 25.7439 36.9288Z" fill="black"/>
<path fillRule="evenodd" clipRule="evenodd" d="M46.8179 46.0878H34.2109C33.4829 46.0878 32.8906 45.4955 32.8906 44.7676V44.1513C32.8906 43.4233 33.4829 42.831 34.2109 42.831H46.8179C47.5459 42.831 48.1381 43.4233 48.1381 44.1513V44.7676C48.1381 45.4956 47.5459 46.0878 46.8179 46.0878ZM34.2109 43.6317C33.9244 43.6317 33.6915 43.8647 33.6915 44.1512V44.7676C33.6915 45.0539 33.9244 45.287 34.2109 45.287H46.8179C47.1043 45.287 47.3372 45.0539 47.3372 44.7675V44.1512C47.3372 43.8647 47.1043 43.6317 46.8179 43.6317H34.2109Z" fill="black"/>
<path fillRule="evenodd" clipRule="evenodd" d="M45.2725 48.5439H35.7578C35.0298 48.5439 34.4375 47.9516 34.4375 47.2236V46.6073C34.4375 45.8793 35.0298 45.287 35.7577 45.287H45.2725C46.0006 45.287 46.5929 45.8793 46.5929 46.6073V47.2236C46.5929 47.9516 46.0005 48.5439 45.2725 48.5439ZM35.7576 46.0877C35.4712 46.0877 35.2382 46.3207 35.2382 46.6072V47.2236C35.2382 47.51 35.4712 47.7431 35.7577 47.7431L45.2724 47.743C45.5588 47.743 45.792 47.51 45.792 47.2235V46.6072C45.792 46.3207 45.5588 46.0876 45.2724 46.0876L35.7576 46.0877Z" fill="black"/>
<path fillRule="evenodd" clipRule="evenodd" d="M42.1244 51H38.9072C37.3322 51 36.0508 49.7186 36.0508 48.1435C36.0508 47.9223 36.2299 47.7431 36.4512 47.7431H44.5806C44.8018 47.7431 44.981 47.9223 44.981 48.1436C44.981 49.7186 43.6996 51 42.1244 51ZM36.8908 48.5439C37.0776 49.4864 37.9108 50.1992 38.9073 50.1992H42.1245C43.121 50.1992 43.9543 49.4864 44.1411 48.5439H36.8908Z" fill="black"/>
<defs>
<radialGradient id="paint0_radial_254_115" cx="0" cy="0" r="1" gradientUnits="userSpaceOnUse" gradientTransform="translate(35.1277 30.539) rotate(-92.637) scale(116.076 52.0568)">
<stop stop-color="#602EA6"/>
<stop offset="1" stop-color="#C977D6"/>
</radialGradient>
</defs>
</svg>
