<svg width="58" height="50" viewBox="0 0 58 50" fill="none" xmlns="http://www.w3.org/2000/svg">
<rect opacity="0.23" width="45.8085" height="45.8085" rx="13" fill="url(#paint0_radial_254_131)"/>
<g clip-path="url(#clip0_254_131)">
<path d="M55.1209 36.0928C54.9117 36.0928 54.7421 35.9225 54.7421 35.7124C54.7404 34.5785 53.8256 33.6597 52.6967 33.658C52.4875 33.658 52.3179 33.4877 52.3179 33.2776C52.3179 33.0675 52.4875 32.8971 52.6967 32.8971C53.826 32.8963 54.7413 31.977 54.7421 30.8428C54.7421 30.6327 54.9117 30.4624 55.1209 30.4624C55.3301 30.4624 55.4997 30.6327 55.4997 30.8428C55.5005 31.977 56.4158 32.8963 57.5451 32.8971C57.7543 32.8971 57.9239 33.0675 57.9239 33.2776C57.9239 33.4877 57.7543 33.658 57.5451 33.658C56.4162 33.6597 55.5014 34.5785 55.4997 35.7124C55.4997 35.9225 55.3301 36.0928 55.1209 36.0928ZM54.1027 33.2776C54.5243 33.5245 54.8751 33.8768 55.1209 34.3002C55.3667 33.8768 55.7175 33.5245 56.1391 33.2776C55.7175 33.0307 55.3667 32.6784 55.1209 32.255C54.8751 32.6784 54.5243 33.0307 54.1027 33.2776ZM33.2679 26.1848C33.0587 26.1848 32.8891 26.0144 32.8891 25.8043C32.8883 24.6701 31.973 23.7508 30.8436 23.75C30.6344 23.75 30.4648 23.5796 30.4648 23.3695C30.4648 23.1594 30.6344 22.9891 30.8436 22.9891C31.973 22.9883 32.8883 22.069 32.8891 20.9348C32.8891 20.7246 33.0587 20.5543 33.2679 20.5543C33.4771 20.5543 33.6467 20.7246 33.6467 20.9348C33.6483 22.0686 34.5631 22.9874 35.6921 22.9891C35.9013 22.9891 36.0709 23.1594 36.0709 23.3695C36.0709 23.5796 35.9013 23.75 35.6921 23.75C34.5631 23.7516 33.6483 24.6704 33.6467 25.8043C33.6467 26.0144 33.4771 26.1848 33.2679 26.1848ZM32.2497 23.3695C32.6713 23.6164 33.022 23.9687 33.2679 24.3921C33.5137 23.9687 33.8645 23.6164 34.2861 23.3695C33.8645 23.1226 33.5137 22.7703 33.2679 22.3469C33.022 22.7703 32.6713 23.1226 32.2497 23.3695ZM47.5451 49.9239H39.6558C38.9114 49.928 38.2495 49.4489 38.0179 48.7385C37.963 48.5698 38.0315 48.3854 38.183 48.2941C38.4588 48.1304 38.7217 47.9458 38.9694 47.7417C39.3755 47.41 39.7367 47.0263 40.0436 46.6004C40.1152 46.5046 40.2274 46.4482 40.3467 46.4482H47.5451C48.5024 46.4482 49.2785 47.2276 49.2785 48.1891C49.2785 49.1506 48.5024 49.93 47.5451 49.93V49.9239ZM38.8679 48.7598C39.0501 49.0142 39.3437 49.1644 39.6558 49.163H47.5451C47.8938 49.163 48.2159 48.9762 48.3902 48.673C48.5645 48.3698 48.5645 47.9962 48.3902 47.693C48.2159 47.3898 47.8938 47.203 47.5451 47.203H40.5406C40.2226 47.6199 39.8569 47.9978 39.4512 48.3291C39.2653 48.4839 39.0705 48.6277 38.8679 48.7598Z" fill="black"/>
<path d="M47.5462 47.203H40.3507C40.2114 47.2028 40.0834 47.1257 40.0176 47.0023C39.9518 46.879 39.9587 46.7293 40.0356 46.6126L40.0886 46.5395L40.122 46.5L40.1477 46.4619C40.2598 46.2976 40.3765 46.1271 40.4735 45.9552C40.4872 45.9174 40.5066 45.882 40.531 45.8502C40.8308 45.2767 41.0428 44.6611 41.1598 44.0241C41.1954 43.8461 41.3518 43.7184 41.5326 43.7198H47.5462C48.1785 43.701 48.7709 44.0291 49.0926 44.5761C49.4143 45.1232 49.4143 45.8026 49.0926 46.3497C48.7709 46.8968 48.1785 47.2248 47.5462 47.2061V47.203ZM41.0614 46.4421H47.5462C47.9048 46.4563 48.2424 46.2723 48.4259 45.9625C48.6094 45.6528 48.6094 45.267 48.4259 44.9572C48.2424 44.6475 47.9048 44.4634 47.5462 44.4776H41.8356C41.6914 45.0988 41.4667 45.6984 41.1674 46.2611L41.1447 46.2991C41.1174 46.3478 41.0901 46.395 41.0614 46.4421Z" fill="black"/>
<path d="M47.5441 44.4776H41.5244C41.4045 44.4779 41.2915 44.4211 41.2198 44.3246C41.1481 44.228 41.1262 44.103 41.1608 43.9876C41.1696 43.9634 41.1762 43.9385 41.1805 43.9131C41.1805 43.8902 41.188 43.8689 41.1926 43.8461C41.2369 43.5299 41.2617 43.2113 41.2668 42.892C41.271 42.8266 41.271 42.761 41.2668 42.6957C41.2661 42.683 41.2661 42.6703 41.2668 42.6576C41.2531 42.2553 41.1977 41.8555 41.1017 41.4646C41.0726 41.3505 41.0978 41.2294 41.1698 41.1365C41.2418 41.0436 41.3526 40.9894 41.4699 40.9898H47.5441C48.5031 40.9898 49.2805 41.7706 49.2805 42.7337C49.2805 43.6969 48.5031 44.4776 47.5441 44.4776ZM41.9653 43.7168H47.5441C47.8938 43.7168 48.2169 43.5294 48.3918 43.2252C48.5666 42.9211 48.5666 42.5464 48.3918 42.2422C48.2169 41.938 47.8938 41.7507 47.5441 41.7507H41.9168C41.9638 42.0341 41.9932 42.3203 42.0047 42.6074C42.0157 42.7019 42.0202 42.7969 42.0183 42.892C42.016 43.1677 41.9983 43.443 41.9653 43.7168Z" fill="black"/>
<path d="M47.544 41.7506H41.4515C41.2712 41.7508 41.1155 41.6237 41.0788 41.4463C41.0621 41.3626 41.0409 41.2728 41.0182 41.1876C40.8464 40.5664 40.579 39.9759 40.2258 39.4376L40.2167 39.4239C40.1945 39.3966 40.1738 39.3682 40.1546 39.3387C40.053 39.1895 39.9438 39.0458 39.8273 38.908C39.7321 38.7945 39.7114 38.6357 39.7742 38.5013C39.837 38.367 39.9719 38.2816 40.1197 38.2826H47.5515C48.5088 38.2826 49.2849 39.062 49.2849 40.0235C49.2849 40.9849 48.5088 41.7643 47.5515 41.7643L47.544 41.7506ZM41.75 40.9898H47.544C48.0829 40.9898 48.5197 40.551 48.5197 40.0098C48.5197 39.4685 48.0829 39.0298 47.544 39.0298H40.8773C40.8849 39.0435 40.8909 39.0556 40.897 39.0693C41.2768 39.6622 41.5645 40.3098 41.75 40.9898Z" fill="black"/>
<path d="M53.5292 49.8281C52.9653 49.8281 52.4585 49.4825 52.2504 48.9561L48.6868 39.9215C48.4075 39.2131 48.7527 38.4113 49.458 38.1305L50.1292 37.8626C50.8342 37.5841 51.6307 37.9303 51.911 38.6372L55.4762 47.6733C55.7554 48.3818 55.4102 49.1835 54.705 49.4644L54.0338 49.7307C53.8734 49.7954 53.7021 49.8285 53.5292 49.8281ZM50.6337 38.5276C50.5565 38.5276 50.48 38.5421 50.408 38.5702L49.7368 38.8381C49.5849 38.8984 49.463 39.0166 49.3974 39.1668C49.3338 39.3181 49.3338 39.4887 49.3974 39.64L52.961 48.6761C53.0211 48.8288 53.1392 48.9513 53.2893 49.0164C53.4394 49.0815 53.6091 49.0839 53.761 49.0231L54.4307 48.7568C54.5831 48.6967 54.7053 48.5782 54.7704 48.4274C54.8356 48.2766 54.8382 48.106 54.7777 47.9533L51.2125 38.9187C51.119 38.6805 50.8887 38.5249 50.6337 38.5276ZM35.008 49.9239C32.0783 49.9117 29.4659 48.0688 28.4606 45.305C27.4553 42.5412 28.2696 39.4409 30.5016 37.5349C32.7336 35.6288 35.9111 35.32 38.4656 36.7609C38.8118 36.9652 39.142 37.1957 39.4534 37.4502C39.666 37.6234 39.8684 37.8089 40.0595 38.0057C40.1853 38.1381 40.2989 38.272 40.411 38.4028C40.547 38.5619 40.674 38.7286 40.7913 38.902C40.7969 38.9092 40.802 38.9168 40.8065 38.9248L40.8231 38.9431C40.8586 38.9795 40.8868 39.0224 40.9065 39.0694C41.2869 39.6605 41.5751 40.3066 41.761 40.9852C41.7868 41.0811 41.811 41.1831 41.8307 41.2805C41.937 41.7133 41.9989 42.1559 42.0156 42.6013C42.0265 42.6958 42.0311 42.7908 42.0292 42.8859C42.0241 43.2423 41.9967 43.5981 41.9474 43.9511V43.977L41.9383 44.0287C41.9313 44.0799 41.9217 44.1307 41.9095 44.1809C41.7733 44.907 41.5275 45.6079 41.1807 46.2596L41.158 46.2976C41.0413 46.5107 40.908 46.7055 40.7792 46.8941L40.7565 46.9276C40.7428 46.9474 40.7247 46.9702 40.7065 46.9946L40.6792 47.0326C40.3343 47.5165 39.9266 47.952 39.4671 48.3276C39.1908 48.553 38.8975 48.7565 38.5898 48.9363H38.5822L38.5489 48.9561C37.4762 49.5915 36.2533 49.9258 35.008 49.9239ZM35.008 36.6209C32.3805 36.6221 30.0349 38.2752 29.1401 40.7564C28.2454 43.2376 28.9929 46.016 31.0103 47.7068C33.0276 49.3976 35.883 49.6391 38.1534 48.3109L38.1838 48.2911C38.4575 48.129 38.7184 47.9458 38.9641 47.7433C39.3702 47.4116 39.7314 47.0279 40.0383 46.602C40.0459 46.5898 40.0641 46.5655 40.0822 46.5411L40.1231 46.5L40.1489 46.462C40.261 46.2976 40.3777 46.1272 40.4747 45.9552C40.4884 45.9175 40.5078 45.8821 40.5322 45.8502C40.832 45.2767 41.044 44.6611 41.161 44.0241C41.1633 44.0103 41.1664 43.9966 41.1701 43.9831C41.1766 43.9602 41.1812 43.9367 41.1838 43.9131C41.1838 43.8902 41.1913 43.8689 41.1959 43.8461C41.2402 43.5299 41.265 43.2113 41.2701 42.892C41.2743 42.8266 41.2743 42.761 41.2701 42.6957C41.2694 42.683 41.2694 42.6703 41.2701 42.6576C41.2563 42.2553 41.201 41.8554 41.105 41.4646V41.4448C41.0883 41.3611 41.0671 41.2713 41.0444 41.1861C40.8725 40.5649 40.6052 39.9744 40.2519 39.4361L40.2428 39.4224C40.2207 39.3951 40.1999 39.3667 40.1807 39.3372C40.0792 39.188 39.9699 39.0443 39.8534 38.9065C39.7413 38.7757 39.6368 38.6539 39.5292 38.5398C39.3622 38.3652 39.1851 38.2006 38.9989 38.0468C38.7188 37.8164 38.4209 37.6088 38.108 37.4259C37.1627 36.8894 36.0937 36.6118 35.008 36.6209ZM43.0519 30.4396C42.9666 30.4398 42.8838 30.4108 42.8171 30.3574C42.6656 30.2341 39.0383 27.3002 39.0383 22.7578C39.0383 18.2155 42.6625 15.2815 42.8171 15.1522C42.9546 15.0424 43.1493 15.0424 43.2868 15.1522C43.4383 15.2755 47.0656 18.2094 47.0656 22.7518C47.0656 27.2941 43.4413 30.2281 43.2868 30.3513C43.2209 30.4069 43.138 30.438 43.0519 30.4396ZM43.0519 15.9602C42.2686 16.6815 39.7959 19.2335 39.7959 22.7578C39.7959 26.2822 42.2686 28.8341 43.0519 29.5539C43.8368 28.8341 46.308 26.2822 46.308 22.7578C46.308 19.2335 43.8368 16.6815 43.0519 15.9602Z" fill="black"/>
<path d="M43.4295 23.9783H42.6719V38.4272H43.4295V23.9783Z" fill="black"/>
<path d="M44.8596 35.1722C44.6871 35.1733 44.5146 35.1652 44.343 35.1478C44.1687 35.1277 44.0311 34.9896 44.0112 34.8145C43.9975 34.6989 43.7081 31.975 45.5839 30.088C47.4596 28.2011 50.1733 28.4948 50.2808 28.5085C50.4551 28.5297 50.5923 28.6681 50.6127 28.8432C50.6263 28.9574 50.9157 31.6828 49.0399 33.5682C47.6384 34.9835 45.7566 35.1722 44.8596 35.1722ZM44.7475 34.4113C45.4627 34.4113 47.2445 34.3063 48.5127 33.0326C49.7808 31.7589 49.8975 29.9708 49.8854 29.2526C49.1657 29.2435 47.3869 29.3561 46.1187 30.6222C44.8505 31.8882 44.7369 33.6869 44.7475 34.4082V34.4113ZM40.2293 33.6595C39.546 33.6595 38.1081 33.5165 37.0384 32.4422C35.6081 31.0056 35.8263 28.9315 35.8399 28.8432C35.8599 28.6682 35.9975 28.5301 36.1718 28.51C36.2596 28.4993 38.3248 28.2772 39.7551 29.7137C41.1854 31.1502 40.9672 33.2258 40.9551 33.3126C40.9335 33.4877 40.7961 33.6257 40.6218 33.6474C40.6005 33.6428 40.4566 33.6595 40.2293 33.6595ZM36.5808 29.2465C36.5808 29.8172 36.7066 31.0254 37.5748 31.8974C38.443 32.7693 39.6445 32.8911 40.2142 32.8956C40.2142 32.3235 40.0869 31.1152 39.2202 30.2448C38.3536 29.3743 37.149 29.2526 36.5808 29.248V29.2465Z" fill="black"/>
<path d="M43.179 36.3637C43.0782 36.3635 42.9817 36.323 42.9108 36.2511L38.2699 31.587L38.8047 31.0483L43.1805 35.4431L45.8896 32.7481L46.4229 33.2883L43.4456 36.2496C43.3752 36.3215 43.2794 36.3625 43.179 36.3637ZM35.0123 47.6946C32.3714 47.6946 30.2305 45.5444 30.2305 42.892C30.2305 40.2396 32.3714 38.0894 35.0123 38.0894C37.6532 38.0894 39.7941 40.2396 39.7941 42.892C39.7908 45.543 37.6518 47.6912 35.0123 47.6946ZM35.0123 38.8502C32.7898 38.8502 30.988 40.6598 30.988 42.892C30.988 45.1242 32.7898 46.9337 35.0123 46.9337C37.2348 46.9337 39.0365 45.1242 39.0365 42.892C39.0332 40.6612 37.2334 38.8536 35.0123 38.8502Z" fill="black"/>
<path d="M35.8543 45.1502H34.1346C33.4482 45.1502 32.8906 44.5415 32.8906 43.7943V43.7609H33.6482V43.7989C33.6482 44.1261 33.8664 44.3939 34.1346 44.3939H35.8543C36.1209 44.3939 36.3376 44.1276 36.3376 43.802C36.3376 43.4763 36.1209 43.2115 35.8543 43.2115H34.1315C33.4467 43.2115 32.8906 42.6028 32.8906 41.8587C32.8906 41.1146 33.4467 40.5074 34.1315 40.5074H35.8512C36.5376 40.5074 37.0952 41.1161 37.0952 41.8633H36.3346C36.3346 41.5346 36.1164 41.2683 35.8482 41.2683H34.1315C33.8649 41.2683 33.6482 41.533 33.6482 41.8587C33.6482 42.1843 33.8649 42.4506 34.1315 42.4506H35.8543C36.5391 42.4506 37.0952 43.0593 37.0952 43.802C37.0952 44.5446 36.5391 45.1502 35.8543 45.1502Z" fill="black"/>
<path d="M35.3709 40.0372H34.6133V45.7498H35.3709V40.0372Z" fill="black"/>
</g>
<defs>
<radialGradient id="paint0_radial_254_131" cx="0" cy="0" r="1" gradientUnits="userSpaceOnUse" gradientTransform="translate(35.1277 30.539) rotate(-92.637) scale(116.076 52.0568)">
<stop stop-color="#602EA6"/>
<stop offset="1" stop-color="#C977D6"/>
</radialGradient>
<clipPath id="clip0_254_131">
<rect width="30" height="35" fill="white" transform="translate(28 15)"/>
</clipPath>
</defs>
</svg>
